<svg xmlns="http://www.w3.org/2000/svg" viewBox="0 0 115.71 99.47"><defs><style>.cls-1{fill:#ebb0ff;}.cls-2{fill:#92f0ed;}.cls-3{fill:#d979ff;}.cls-4{fill:#e70006;}.cls-5{fill:#54e2dc;}</style></defs><g id="Layer_2" data-name="Layer 2"><g id="Layer_1-2" data-name="Layer 1"><polygon class="cls-1" points="55.88 39.62 57.13 35.33 56.42 26.94 59.28 18.01 67.31 10.51 74.99 6.4 81.78 5.33 94.45 5.87 102.49 9.62 109.28 15.87 112.67 24.08 114.28 29.62 113.38 34.97 113.03 39.62 110.56 45.73 56.45 42.12 55.88 39.62"/><polygon class="cls-2" points="65.99 73.9 63.13 61.04 61.78 47.12 63.74 22.12 72.49 11.76 82.31 8.01 91.6 8.01 97.85 9.79 106.06 16.94 110.17 25.51 111.42 33.19 111.42 38.19 111.42 61.94 111.42 68.72 108.2 76.04 96.25 84.68 83.21 82.54 70.99 79.08 65.99 73.9"/><polygon class="cls-2" points="62.31 43.54 58.56 39.62 55.88 39.62 54.63 42.47 53.92 48.01 54.99 53.37 57.13 58.19 60.28 61.04 63.13 61.04 62.31 43.54"/><path class="cls-3" d="M111.42,60.22v8.5l-1.79,1.79-2.13-1-1.79-3.93-4.28-2.68-3.22-2.14-2.14.89-2.68.18-2.14-.18-2.32-.89h-2.5l-.9,1.6-2.85.9-3.57,1.6L77,70.93l-6.15.29-4.1-.89L63.13,61H60.28l.53,7.68,1.25,5.72,1.07,5,3.93,4.64,1.61,2.68,7.22,3.6,1.43,3.75L80.71,98l1.61.71,1.79-1.07L87,98.75l2.15.72,2-2.15,2.86,1.43,2.5-.71,2.68-3.93,5.71-1.79,2.32-3.21,1.25-3.35.17-2.4L111.42,80V73.9l2-4.64V63.54Zm-8,14.11-3,4.46L97.86,80,97,77.72,98.75,77l.53-3.22-3.92-1.07L93,73.26l-1.78-.36-2.14.36-.36,3,2.5,1.25L90.89,80H88.57l-5.18-1.78-3.75-3.75,1.07-3.75,2.15-3.58,7,.72h6.61l5.89-1.25,1.07,4.11Z"/><polygon class="cls-2" points="110.92 42.84 112.91 42.56 113.78 43.75 113.78 49.82 112.71 54.82 110.92 55.53 110.92 42.84"/><path class="cls-4" d="M82.94,38.84l7.74.26L91.16,42l-1.09,3.59-4.87,1.7-6-.35L72.37,46l-.49-3.17.33-3.37,9.44-.61m-2-1.29-8.23,1-.91,4.28,1.11,3.88,6.39,1.43,8,.37,5-2.4L92.51,42l-1.2-3.78-8.08-.64Z"/><path class="cls-4" d="M108.73,39.34l5.56.1.11,3.23-.72,3.19-3.63.86-5.17-.43-5.71-.58-.07-3.16.49-3.19,6.58,0m1.29-1.28-8.54.39-1.13,4,.55,3.93,6,1.5,6.52.12,3.48-1.13,1.34-4.09-.62-4.24-7.63-.49Z"/><polygon class="cls-4" points="92.51 41.97 94.9 41.58 97.88 42.37 97.92 43.44 94.9 42.57 91.91 42.97 92.51 41.97"/><polygon class="cls-4" points="70.56 42.87 62.08 43.3 60.25 41.38 70.83 41.84 70.56 42.87"/><polygon class="cls-4" points="111.42 41.67 115.01 41.86 114.65 43.01 111.42 43.03 111.42 41.67"/><polygon class="cls-1" points="54.53 49.65 56.87 48.36 58.72 49.5 59.02 51.36 56.84 56.67 55.26 61.82 53.47 63.32 52.34 63.36 54.53 49.65"/><path class="cls-1" d="M6.71,55.24l1.88,19.1,2.68,7.06,9.34,8.45,15.26.28,12-9.33L51,71.65l3.88-24.3-.66-19-10-13S33,11.93,32.61,12l-10.38.36-7.14,4.3L6.63,29.73,5.44,38Z"/><polygon class="cls-5" points="5.28 40.4 2.86 30.25 3.04 27.55 2.43 25.5 4.45 21.66 11.23 10.29 14.46 12.79 15.01 5.32 23.27 0 34.61 0.95 44.92 5.62 52.16 9.77 57.41 8.51 56.31 15.64 58.71 25.2 55.99 48.87 53.97 51.54 54.43 33.93 49.72 27.36 50.33 29.49 39.65 21.96 41.9 24.67 33.71 21.54 27.65 14.93 20.65 15.17 12.12 21.22 7.44 32.87 5.28 40.4"/><path class="cls-2" d="M20.61,89.85l15.26.28,12-9.33,1.29-3.68-2-2.18-4.07-6-4.79-3.61-4.62-1.09-7.16.7-4.68-.47-5,.36-2.62,1.88-1,1-2.89,4.77L8.59,74.34l2.68,7.06Zm.63-21.73,6.12.33,7.07-.61,5.11,2.34,1.11,3.64-3.1,3.61-3.73,1.21-1.61-2.19-4-.58-3.48.57-1.27,2.2-3.9-1.3-2.4-1.89-.69-4.29Z"/><polygon class="cls-2" points="54.16 44.6 56.64 43.16 57.77 33.37 54.35 35.73 54.16 44.6"/><polygon class="cls-2" points="53.27 32.31 58.22 29.43 58.71 25.2 50.85 28.94 53.27 32.31"/><polygon class="cls-2" points="54.41 34.63 54.43 33.93 53.88 33.15 58.07 30.77 57.89 32.33 54.41 34.63"/><polygon class="cls-2" points="4.28 36.2 7.44 32.87 10.53 24.59 2.86 30.25 4.28 36.2"/><polygon class="cls-4" points="54.36 44.64 55.99 48.87 56.25 46.55 54.53 41.11 54.36 44.64"/><polygon class="cls-1" points="7.59 64.17 6.31 62.94 5.04 54.15 7.15 51.44 7.59 64.17"/><polygon class="cls-4" points="3.42 46.19 6.14 47.46 6.08 45.63 3.03 42.9 3.42 46.19"/><path class="cls-4" d="M44.77,39.23,36,39.48,29.27,41l-2.2.43-3.56-.77-5-1.14L6.65,39.24,0,40.76l.14,4L2,46.9l2,6.54,2.76,1.8,8.75-.08L20.09,54l1.85-1.92,2.12-4.45.76-2.06,1.54-.47,1.88.53,2.36,5.91,2.24,2.55,2.79,1.1,7.81.69,4.75-1,2.26-2.29,1.36-5.49,1.08-1.78,1.47-.71.17-3.53Zm-21.6,6.86-1.53,4.24-1.89,2.52L16.68,54.1l-5.62.19-4.81-.67-1.11-1L3.72,47.9l-.11-4.78.67-1.4,1.7-1,5.91-.5,7.37.34,2.61.87,1.11,1,.28,1.12Zm26.65,1.79-1.4,4.75-1.1,1-4.81.7-5.62-.16-3.08-1.23-1.9-2.5-1.55-4.24-.11-2.51.27-1.13,1.11-1,2.6-.88,7.37-.39,5.91.47,1.71,1,.68,1.4Z"/></g></g></svg>