<svg xmlns="http://www.w3.org/2000/svg" viewBox="0 0 394.63 136.43"><defs><style>.cls-1{fill:#fff;}</style></defs><g id="Layer_2" data-name="Layer 2"><g id="Layer_1-2" data-name="Layer 1"><path class="cls-1" d="M46.87,69.44a24.59,24.59,0,0,1,.58,5.78A25.85,25.85,0,0,1,46.87,81H35.3a25.28,25.28,0,0,1-.58-5.79,24.07,24.07,0,0,1,.58-5.78H31a25.28,25.28,0,0,1-.58-5.79A24.22,24.22,0,0,1,31,57.86H22.28a25.12,25.12,0,0,1-.58-5.78,24.16,24.16,0,0,1,.58-5.79H12.15a24.16,24.16,0,0,1,.58,5.79,25.12,25.12,0,0,1-.58,5.78,24.22,24.22,0,0,1,.58,5.79,25.28,25.28,0,0,1-.58,5.79,24.07,24.07,0,0,1,.58,5.78A25.28,25.28,0,0,1,12.15,81H.58A25.28,25.28,0,0,1,0,75.22a24.07,24.07,0,0,1,.58-5.78A25.28,25.28,0,0,1,0,63.65a24.22,24.22,0,0,1,.58-5.79A25.12,25.12,0,0,1,0,52.08a24.16,24.16,0,0,1,.58-5.79A25.19,25.19,0,0,1,0,40.51a24.1,24.1,0,0,1,.58-5.79A25.28,25.28,0,0,1,0,28.93a24.07,24.07,0,0,1,.58-5.78A25.28,25.28,0,0,1,0,17.36a24.22,24.22,0,0,1,.58-5.79A25.19,25.19,0,0,1,0,5.79,24.1,24.1,0,0,1,.58,0H12.15a24.1,24.1,0,0,1,.58,5.79,25.19,25.19,0,0,1-.58,5.78,24.22,24.22,0,0,1,.58,5.79,25.28,25.28,0,0,1-.58,5.79,24.07,24.07,0,0,1,.58,5.78,25.28,25.28,0,0,1-.58,5.79H22.28a25.28,25.28,0,0,1-.58-5.79,24.07,24.07,0,0,1,.58-5.78H31a25.28,25.28,0,0,1-.58-5.79A24.22,24.22,0,0,1,31,11.57H35.3a25.19,25.19,0,0,1-.58-5.78A24.1,24.1,0,0,1,35.3,0H46.87a24.62,24.62,0,0,1,.58,5.79,25.76,25.76,0,0,1-.58,5.78H42.53a24.74,24.74,0,0,1,.58,5.79,25.85,25.85,0,0,1-.58,5.79H33.85a24.59,24.59,0,0,1,.58,5.78,25.85,25.85,0,0,1-.58,5.79H26.62a24.62,24.62,0,0,1,.58,5.79,25.76,25.76,0,0,1-.58,5.78h7.23a24.68,24.68,0,0,1,.58,5.79,25.69,25.69,0,0,1-.58,5.78h8.68a24.74,24.74,0,0,1,.58,5.79,25.85,25.85,0,0,1-.58,5.79Z"/><path class="cls-1" d="M75.8,46.29a24.16,24.16,0,0,1,.58,5.79,25.12,25.12,0,0,1-.58,5.78,24.22,24.22,0,0,1,.58,5.79,25.28,25.28,0,0,1-.58,5.79H99a24.59,24.59,0,0,1,.58,5.78A25.85,25.85,0,0,1,99,81H64.23a25.28,25.28,0,0,1-.58-5.79,24.07,24.07,0,0,1,.58-5.78,25.28,25.28,0,0,1-.58-5.79,24.22,24.22,0,0,1,.58-5.79,25.12,25.12,0,0,1-.58-5.78,24.16,24.16,0,0,1,.58-5.79,25.19,25.19,0,0,1-.58-5.78,24.1,24.1,0,0,1,.58-5.79,25.28,25.28,0,0,1-.58-5.79,24.07,24.07,0,0,1,.58-5.78,25.28,25.28,0,0,1-.58-5.79,24.22,24.22,0,0,1,.58-5.79,25.19,25.19,0,0,1-.58-5.78A24.1,24.1,0,0,1,64.23,0H99a24.62,24.62,0,0,1,.58,5.79A25.76,25.76,0,0,1,99,11.57H75.8a24.22,24.22,0,0,1,.58,5.79,25.28,25.28,0,0,1-.58,5.79,24.07,24.07,0,0,1,.58,5.78,25.28,25.28,0,0,1-.58,5.79H99a24.62,24.62,0,0,1,.58,5.79A25.76,25.76,0,0,1,99,46.29Z"/><path class="cls-1" d="M162.6,11.57a24.8,24.8,0,0,1,.57,5.79,25.89,25.89,0,0,1-.57,5.79h-5.79a24.59,24.59,0,0,1,.58,5.78,25.85,25.85,0,0,1-.58,5.79H151a24.1,24.1,0,0,1,.58,5.79,25.19,25.19,0,0,1-.58,5.78h-5.78a24.68,24.68,0,0,1,.58,5.79,25.69,25.69,0,0,1-.58,5.78,24.74,24.74,0,0,1,.58,5.79,25.85,25.85,0,0,1-.58,5.79,24.59,24.59,0,0,1,.58,5.78,25.85,25.85,0,0,1-.58,5.79H133.66a25.89,25.89,0,0,1-.57-5.79,24.65,24.65,0,0,1,.57-5.78,25.89,25.89,0,0,1-.57-5.79,24.8,24.8,0,0,1,.57-5.79,25.74,25.74,0,0,1-.57-5.78,24.74,24.74,0,0,1,.57-5.79h-5.78a25.19,25.19,0,0,1-.58-5.78,24.1,24.1,0,0,1,.58-5.79h-5.79a25.85,25.85,0,0,1-.58-5.79,24.59,24.59,0,0,1,.58-5.78H116.3a25.89,25.89,0,0,1-.57-5.79,24.8,24.8,0,0,1,.57-5.79,25.8,25.8,0,0,1-.57-5.78A24.68,24.68,0,0,1,116.3,0h11.58a24.62,24.62,0,0,1,.58,5.79,25.76,25.76,0,0,1-.58,5.78,24.74,24.74,0,0,1,.58,5.79,25.85,25.85,0,0,1-.58,5.79h5.78a24.07,24.07,0,0,1,.58,5.78,25.28,25.28,0,0,1-.58,5.79h11.58a25.28,25.28,0,0,1-.58-5.79,24.07,24.07,0,0,1,.58-5.78H151a25.89,25.89,0,0,1-.57-5.79,24.8,24.8,0,0,1,.57-5.79,25.8,25.8,0,0,1-.57-5.78A24.68,24.68,0,0,1,151,0H162.6a24.68,24.68,0,0,1,.57,5.79A25.8,25.8,0,0,1,162.6,11.57Z"/><path class="cls-1" d="M221,40.51a25.76,25.76,0,0,1-.58,5.78,24.68,24.68,0,0,1,.58,5.79,25.69,25.69,0,0,1-.58,5.78h-5.79a24.22,24.22,0,0,1,.58,5.79,25.28,25.28,0,0,1-.58,5.79h-5.78a24.59,24.59,0,0,1,.58,5.78,25.85,25.85,0,0,1-.58,5.79H174.17a25.28,25.28,0,0,1-.58-5.79,24.07,24.07,0,0,1,.58-5.78,25.28,25.28,0,0,1-.58-5.79,24.22,24.22,0,0,1,.58-5.79,25.12,25.12,0,0,1-.58-5.78,24.16,24.16,0,0,1,.58-5.79,25.19,25.19,0,0,1-.58-5.78,24.1,24.1,0,0,1,.58-5.79,25.28,25.28,0,0,1-.58-5.79,24.07,24.07,0,0,1,.58-5.78,25.28,25.28,0,0,1-.58-5.79,24.22,24.22,0,0,1,.58-5.79,25.19,25.19,0,0,1-.58-5.78A24.1,24.1,0,0,1,174.17,0h34.72a24.62,24.62,0,0,1,.58,5.79,25.76,25.76,0,0,1-.58,5.78h5.78a24.22,24.22,0,0,1,.58,5.79,25.28,25.28,0,0,1-.58,5.79h5.79a24.59,24.59,0,0,1,.58,5.78,25.85,25.85,0,0,1-.58,5.79A24.62,24.62,0,0,1,221,40.51ZM208.31,52.08a24.16,24.16,0,0,1,.58-5.79,25.19,25.19,0,0,1-.58-5.78,24.1,24.1,0,0,1,.58-5.79,25.28,25.28,0,0,1-.58-5.79,24.07,24.07,0,0,1,.58-5.78H203.1a25.28,25.28,0,0,1-.58-5.79,24.22,24.22,0,0,1,.58-5.79H185.74a24.22,24.22,0,0,1,.58,5.79,25.28,25.28,0,0,1-.58,5.79,24.07,24.07,0,0,1,.58,5.78,25.28,25.28,0,0,1-.58,5.79,24.1,24.1,0,0,1,.58,5.79,25.19,25.19,0,0,1-.58,5.78,24.16,24.16,0,0,1,.58,5.79,25.12,25.12,0,0,1-.58,5.78,24.22,24.22,0,0,1,.58,5.79,25.28,25.28,0,0,1-.58,5.79H203.1a25.28,25.28,0,0,1-.58-5.79,24.22,24.22,0,0,1,.58-5.79h5.79A25.12,25.12,0,0,1,208.31,52.08Z"/><path class="cls-1" d="M278.32,69.44a24.07,24.07,0,0,1,.58,5.78,25.28,25.28,0,0,1-.58,5.79H266.75a25.28,25.28,0,0,1-.58-5.79,24.07,24.07,0,0,1,.58-5.78h-4.34a25.28,25.28,0,0,1-.58-5.79,24.22,24.22,0,0,1,.58-5.79h-4.34a25.12,25.12,0,0,1-.58-5.78,24.16,24.16,0,0,1,.58-5.79H243.61a24.74,24.74,0,0,1,.57,5.79,25.74,25.74,0,0,1-.57,5.78,24.8,24.8,0,0,1,.57,5.79,25.89,25.89,0,0,1-.57,5.79,24.65,24.65,0,0,1,.57,5.78,25.89,25.89,0,0,1-.57,5.79H232a25.85,25.85,0,0,1-.58-5.79,24.59,24.59,0,0,1,.58-5.78,25.85,25.85,0,0,1-.58-5.79,24.74,24.74,0,0,1,.58-5.79,25.69,25.69,0,0,1-.58-5.78,24.68,24.68,0,0,1,.58-5.79,25.76,25.76,0,0,1-.58-5.78,24.62,24.62,0,0,1,.58-5.79,25.85,25.85,0,0,1-.58-5.79,24.59,24.59,0,0,1,.58-5.78,25.85,25.85,0,0,1-.58-5.79,24.74,24.74,0,0,1,.58-5.79,25.76,25.76,0,0,1-.58-5.78A24.62,24.62,0,0,1,232,0h40.51a24.62,24.62,0,0,1,.58,5.79,25.76,25.76,0,0,1-.58,5.78h5.78a24.22,24.22,0,0,1,.58,5.79,25.28,25.28,0,0,1-.58,5.79h-2.89a24.07,24.07,0,0,1,.58,5.78,25.28,25.28,0,0,1-.58,5.79h-8.68a24.1,24.1,0,0,1,.58,5.79,25.19,25.19,0,0,1-.58,5.78h2.89a24.16,24.16,0,0,1,.58,5.79,25.12,25.12,0,0,1-.58,5.78H274a24.22,24.22,0,0,1,.58,5.79,25.28,25.28,0,0,1-.58,5.79Zm-15-40.51a24.07,24.07,0,0,1,.58-5.78,25.28,25.28,0,0,1-.58-5.79,24.22,24.22,0,0,1,.58-5.79H243.61a24.8,24.8,0,0,1,.57,5.79,25.89,25.89,0,0,1-.57,5.79,24.65,24.65,0,0,1,.57,5.78,25.89,25.89,0,0,1-.57,5.79h20.25A25.28,25.28,0,0,1,263.28,28.93Z"/><path class="cls-1" d="M336.19,69.44a24.59,24.59,0,0,1,.58,5.78,25.85,25.85,0,0,1-.58,5.79H324.61a25.89,25.89,0,0,1-.57-5.79,24.65,24.65,0,0,1,.57-5.78,25.89,25.89,0,0,1-.57-5.79,24.8,24.8,0,0,1,.57-5.79H301.47a24.74,24.74,0,0,1,.58,5.79,25.85,25.85,0,0,1-.58,5.79,24.59,24.59,0,0,1,.58,5.78,25.85,25.85,0,0,1-.58,5.79H289.9a25.28,25.28,0,0,1-.58-5.79,24.07,24.07,0,0,1,.58-5.78,25.28,25.28,0,0,1-.58-5.79,24.22,24.22,0,0,1,.58-5.79h4.34a25.12,25.12,0,0,1-.58-5.78,24.16,24.16,0,0,1,.58-5.79,25.19,25.19,0,0,1-.58-5.78,24.1,24.1,0,0,1,.58-5.79h2.89a25.28,25.28,0,0,1-.58-5.79,24.07,24.07,0,0,1,.58-5.78h4.34a25.28,25.28,0,0,1-.58-5.79,24.22,24.22,0,0,1,.58-5.79h2.89a25.76,25.76,0,0,1-.58-5.78A24.62,24.62,0,0,1,304.36,0h17.36a24.1,24.1,0,0,1,.58,5.79,25.19,25.19,0,0,1-.58,5.78h2.89a24.22,24.22,0,0,1,.58,5.79,25.28,25.28,0,0,1-.58,5.79H329a24.07,24.07,0,0,1,.58,5.78,25.28,25.28,0,0,1-.58,5.79h2.9a24.62,24.62,0,0,1,.58,5.79,25.76,25.76,0,0,1-.58,5.78,24.68,24.68,0,0,1,.58,5.79,25.69,25.69,0,0,1-.58,5.78h4.34a24.74,24.74,0,0,1,.58,5.79A25.85,25.85,0,0,1,336.19,69.44ZM319.7,40.51a24.68,24.68,0,0,1,.57-5.79h-2.89a25.85,25.85,0,0,1-.58-5.79,24.59,24.59,0,0,1,.58-5.78H308.7a24.07,24.07,0,0,1,.58,5.78,25.28,25.28,0,0,1-.58,5.79h-2.89a24.62,24.62,0,0,1,.58,5.79,25.76,25.76,0,0,1-.58,5.78h14.46A25.8,25.8,0,0,1,319.7,40.51Z"/><path class="cls-1" d="M394.63,17.36a25.85,25.85,0,0,1-.58,5.79,24.59,24.59,0,0,1,.58,5.78,25.85,25.85,0,0,1-.58,5.79,24.62,24.62,0,0,1,.58,5.79,25.76,25.76,0,0,1-.58,5.78h-4.34a24.68,24.68,0,0,1,.58,5.79,25.69,25.69,0,0,1-.58,5.78,24.74,24.74,0,0,1,.58,5.79,25.85,25.85,0,0,1-.58,5.79h-2.89a24.59,24.59,0,0,1,.58,5.78,25.85,25.85,0,0,1-.58,5.79h-8.68a25.28,25.28,0,0,1-.58-5.79,24.07,24.07,0,0,1,.58-5.78h-2.89a25.28,25.28,0,0,1-.58-5.79,24.22,24.22,0,0,1,.58-5.79h-8.68a24.8,24.8,0,0,1,.57,5.79,25.89,25.89,0,0,1-.57,5.79h-2.9a24.07,24.07,0,0,1,.58,5.78,25.28,25.28,0,0,1-.58,5.79H355a25.85,25.85,0,0,1-.58-5.79,24.59,24.59,0,0,1,.58-5.78H352.1a25.28,25.28,0,0,1-.58-5.79,24.22,24.22,0,0,1,.58-5.79,25.12,25.12,0,0,1-.58-5.78,24.16,24.16,0,0,1,.58-5.79h-4.34a25.19,25.19,0,0,1-.58-5.78,24.1,24.1,0,0,1,.58-5.79,25.28,25.28,0,0,1-.58-5.79,24.07,24.07,0,0,1,.58-5.78,25.28,25.28,0,0,1-.58-5.79,24.22,24.22,0,0,1,.58-5.79,25.19,25.19,0,0,1-.58-5.78A24.1,24.1,0,0,1,347.76,0h11.57a24.1,24.1,0,0,1,.58,5.79,25.19,25.19,0,0,1-.58,5.78,24.22,24.22,0,0,1,.58,5.79,25.28,25.28,0,0,1-.58,5.79,24.07,24.07,0,0,1,.58,5.78,25.28,25.28,0,0,1-.58,5.79,24.1,24.1,0,0,1,.58,5.79,25.19,25.19,0,0,1-.58,5.78,24.16,24.16,0,0,1,.58,5.79,25.12,25.12,0,0,1-.58,5.78h4.34a25.69,25.69,0,0,1-.58-5.78,24.68,24.68,0,0,1,.58-5.79h2.9a25.19,25.19,0,0,1-.58-5.78,24.1,24.1,0,0,1,.58-5.79,25.28,25.28,0,0,1-.58-5.79,24.07,24.07,0,0,1,.58-5.78,25.28,25.28,0,0,1-.58-5.79,24.22,24.22,0,0,1,.58-5.79A25.19,25.19,0,0,1,366,5.79,24.1,24.1,0,0,1,366.57,0h8.68a24.68,24.68,0,0,1,.57,5.79,25.8,25.8,0,0,1-.57,5.78,24.8,24.8,0,0,1,.57,5.79,25.89,25.89,0,0,1-.57,5.79,24.65,24.65,0,0,1,.57,5.78,25.89,25.89,0,0,1-.57,5.79,24.68,24.68,0,0,1,.57,5.79,25.8,25.8,0,0,1-.57,5.78h2.89a24.68,24.68,0,0,1,.58,5.79,25.69,25.69,0,0,1-.58,5.78h4.34a25.12,25.12,0,0,1-.58-5.78,24.16,24.16,0,0,1,.58-5.79,25.19,25.19,0,0,1-.58-5.78,24.1,24.1,0,0,1,.58-5.79,25.28,25.28,0,0,1-.58-5.79,24.07,24.07,0,0,1,.58-5.78,25.28,25.28,0,0,1-.58-5.79,24.22,24.22,0,0,1,.58-5.79,25.19,25.19,0,0,1-.58-5.78A24.1,24.1,0,0,1,382.48,0h11.57a24.62,24.62,0,0,1,.58,5.79,25.76,25.76,0,0,1-.58,5.78A24.74,24.74,0,0,1,394.63,17.36Z"/><path class="cls-1" d="M34,119.27H30.41a6.33,6.33,0,0,1,.14,1.43,6.59,6.59,0,0,1-.14,1.43H29.33a5.75,5.75,0,0,1,.15,1.43,6,6,0,0,1-.15,1.43h1.08a6.33,6.33,0,0,1,.14,1.43,6.59,6.59,0,0,1-.14,1.43H34a5.8,5.8,0,0,1,.14,1.43,6,6,0,0,1-.14,1.43H30.05a6,6,0,0,1-.14-1.43,5.8,5.8,0,0,1,.14-1.43H28.26a6.59,6.59,0,0,1-.14-1.43,6.33,6.33,0,0,1,.14-1.43H27.19a6,6,0,0,1-.14-1.43,5.8,5.8,0,0,1,.14-1.43h1.07a6.59,6.59,0,0,1-.14-1.43,6.33,6.33,0,0,1,.14-1.43h1.79a6,6,0,0,1-.14-1.43,5.85,5.85,0,0,1,.14-1.43H34a5.85,5.85,0,0,1,.14,1.43A6,6,0,0,1,34,119.27ZM38.77,115a6.59,6.59,0,0,1-.14,1.43,6.39,6.39,0,0,1,.14,1.43,6.59,6.59,0,0,1-.14,1.43,6.33,6.33,0,0,1,.14,1.43,6.59,6.59,0,0,1-.14,1.43,6.33,6.33,0,0,1,.14,1.43,6.59,6.59,0,0,1-.14,1.43,6.33,6.33,0,0,1,.14,1.43,6.59,6.59,0,0,1-.14,1.43,6.33,6.33,0,0,1,.14,1.43,6.59,6.59,0,0,1-.14,1.43H35.77a6,6,0,0,1-.15-1.43,5.75,5.75,0,0,1,.15-1.43H34.7a6,6,0,0,1-.15-1.43A5.75,5.75,0,0,1,34.7,125h1.07a6,6,0,0,1-.15-1.43,5.75,5.75,0,0,1,.15-1.43H34.7a6,6,0,0,1-.15-1.43,5.75,5.75,0,0,1,.15-1.43h1.07a6,6,0,0,1-.15-1.43,5.81,5.81,0,0,1,.15-1.43,6,6,0,0,1-.15-1.43,5.66,5.66,0,0,1,.15-1.42,6.1,6.1,0,0,1-.15-1.43,5.7,5.7,0,0,1,.15-1.43h2.86a6.27,6.27,0,0,1,.14,1.43,6.72,6.72,0,0,1-.14,1.43A6.24,6.24,0,0,1,38.77,115Z"/><path class="cls-1" d="M53.07,120.7a6,6,0,0,1-.15,1.43H50.06a6.59,6.59,0,0,1-.14-1.43,6.33,6.33,0,0,1,.14-1.43h-2.5a5.8,5.8,0,0,1,.14,1.43,6,6,0,0,1-.14,1.43H46.49a6.33,6.33,0,0,1,.14,1.43,6.59,6.59,0,0,1-.14,1.43,6.33,6.33,0,0,1,.14,1.43,6.59,6.59,0,0,1-.14,1.43h2.14a5.75,5.75,0,0,1,.15,1.43,6,6,0,0,1-.15,1.43H41.49a6,6,0,0,1-.15-1.43,5.75,5.75,0,0,1,.15-1.43h2.14a6,6,0,0,1-.14-1.43,5.8,5.8,0,0,1,.14-1.43,6,6,0,0,1-.14-1.43,5.8,5.8,0,0,1,.14-1.43,6,6,0,0,1-.14-1.43,5.8,5.8,0,0,1,.14-1.43H41.49a6,6,0,0,1-.15-1.43,5.81,5.81,0,0,1,.15-1.43h3.57a6.39,6.39,0,0,1,.14,1.43,6.59,6.59,0,0,1-.14,1.43h1.43a6,6,0,0,1-.14-1.43,5.85,5.85,0,0,1,.14-1.43h5.36a5.85,5.85,0,0,1,.14,1.43,6,6,0,0,1-.14,1.43h1.07A5.75,5.75,0,0,1,53.07,120.7Z"/><path class="cls-1" d="M67.36,129.28a6.59,6.59,0,0,1-.14,1.43H64.36a6,6,0,0,1-.14-1.43,5.8,5.8,0,0,1,.14-1.43H62.93a6,6,0,0,1-.14-1.43,5.8,5.8,0,0,1,.14-1.43H58.64a5.8,5.8,0,0,1,.14,1.43,6,6,0,0,1-.14,1.43h4.29a5.8,5.8,0,0,1,.14,1.43,6,6,0,0,1-.14,1.43H57.21a6.59,6.59,0,0,1-.14-1.43,6.33,6.33,0,0,1,.14-1.43H55.78a6.59,6.59,0,0,1-.14-1.43,6.33,6.33,0,0,1,.14-1.43h1.43a6.59,6.59,0,0,1-.14-1.43,6.33,6.33,0,0,1,.14-1.43h5.72a6,6,0,0,1-.14-1.43,5.8,5.8,0,0,1,.14-1.43h-5a6,6,0,0,1-.15-1.43,5.81,5.81,0,0,1,.15-1.43h6.43a5.85,5.85,0,0,1,.14,1.43,6,6,0,0,1-.14,1.43h1.43a6.33,6.33,0,0,1,.14,1.43,6.59,6.59,0,0,1-.14,1.43,6.33,6.33,0,0,1,.14,1.43,6.59,6.59,0,0,1-.14,1.43,6.33,6.33,0,0,1,.14,1.43,6.59,6.59,0,0,1-.14,1.43h1.43A6.33,6.33,0,0,1,67.36,129.28Z"/><path class="cls-1" d="M81.52,119.27a6.33,6.33,0,0,1,.14,1.43,6.59,6.59,0,0,1-.14,1.43H80.44a5.75,5.75,0,0,1,.15,1.43,6,6,0,0,1-.15,1.43,5.75,5.75,0,0,1,.15,1.43,6,6,0,0,1-.15,1.43h-.71a6.33,6.33,0,0,1,.14,1.43,6.59,6.59,0,0,1-.14,1.43H77.58a6.59,6.59,0,0,1-.14-1.43,6.33,6.33,0,0,1,.14-1.43h-.71a6,6,0,0,1-.14-1.43,5.8,5.8,0,0,1,.14-1.43H74.72a5.75,5.75,0,0,1,.15,1.43,6,6,0,0,1-.15,1.43H74a6.33,6.33,0,0,1,.14,1.43,6.59,6.59,0,0,1-.14,1.43H71.87a6,6,0,0,1-.15-1.43,5.75,5.75,0,0,1,.15-1.43h-.72a6,6,0,0,1-.14-1.43,5.8,5.8,0,0,1,.14-1.43,6,6,0,0,1-.14-1.43,5.8,5.8,0,0,1,.14-1.43H70.08a6,6,0,0,1-.14-1.43,5.8,5.8,0,0,1,.14-1.43,6,6,0,0,1-.14-1.43,5.85,5.85,0,0,1,.14-1.43h2.86a6.39,6.39,0,0,1,.14,1.43,6.59,6.59,0,0,1-.14,1.43,6.33,6.33,0,0,1,.14,1.43,6.59,6.59,0,0,1-.14,1.43,6.33,6.33,0,0,1,.14,1.43,6.59,6.59,0,0,1-.14,1.43H74a6,6,0,0,1-.14-1.43,5.8,5.8,0,0,1,.14-1.43h.71a6.59,6.59,0,0,1-.14-1.43,6.33,6.33,0,0,1,.14-1.43,6.59,6.59,0,0,1-.14-1.43,6.39,6.39,0,0,1,.14-1.43h2.15a6.39,6.39,0,0,1,.14,1.43,6.59,6.59,0,0,1-.14,1.43A6.33,6.33,0,0,1,77,120.7a6.59,6.59,0,0,1-.14,1.43h.71a5.75,5.75,0,0,1,.15,1.43,6,6,0,0,1-.15,1.43h1.08a6,6,0,0,1-.15-1.43,5.75,5.75,0,0,1,.15-1.43,6,6,0,0,1-.15-1.43,5.75,5.75,0,0,1,.15-1.43,6,6,0,0,1-.15-1.43,5.81,5.81,0,0,1,.15-1.43h2.86a6.39,6.39,0,0,1,.14,1.43A6.59,6.59,0,0,1,81.52,119.27Z"/><path class="cls-1" d="M110.11,119.27a6.33,6.33,0,0,1,.14,1.43,6.59,6.59,0,0,1-.14,1.43H109a6.33,6.33,0,0,1,.14,1.43A6.59,6.59,0,0,1,109,125a6.33,6.33,0,0,1,.14,1.43,6.59,6.59,0,0,1-.14,1.43h-.72a5.8,5.8,0,0,1,.14,1.43,6,6,0,0,1-.14,1.43h-2.14a6,6,0,0,1-.15-1.43,5.75,5.75,0,0,1,.15-1.43h-.72a6.59,6.59,0,0,1-.14-1.43,6.33,6.33,0,0,1,.14-1.43h-2.14a6.33,6.33,0,0,1,.14,1.43,6.59,6.59,0,0,1-.14,1.43h-.72a5.8,5.8,0,0,1,.14,1.43,6,6,0,0,1-.14,1.43h-2.14a6,6,0,0,1-.15-1.43,5.75,5.75,0,0,1,.15-1.43h-.72a6.59,6.59,0,0,1-.14-1.43,6.33,6.33,0,0,1,.14-1.43,6.59,6.59,0,0,1-.14-1.43,6.33,6.33,0,0,1,.14-1.43H98.67a6,6,0,0,1-.14-1.43,5.8,5.8,0,0,1,.14-1.43,6,6,0,0,1-.14-1.43,5.85,5.85,0,0,1,.14-1.43h2.86a6.39,6.39,0,0,1,.14,1.43,6.59,6.59,0,0,1-.14,1.43,6.33,6.33,0,0,1,.14,1.43,6.59,6.59,0,0,1-.14,1.43,6.33,6.33,0,0,1,.14,1.43,6.59,6.59,0,0,1-.14,1.43h1.07a6.59,6.59,0,0,1-.14-1.43,6.33,6.33,0,0,1,.14-1.43h.72a6,6,0,0,1-.15-1.43,5.75,5.75,0,0,1,.15-1.43,6,6,0,0,1-.15-1.43,5.81,5.81,0,0,1,.15-1.43h2.14a5.85,5.85,0,0,1,.14,1.43,6,6,0,0,1-.14,1.43,5.8,5.8,0,0,1,.14,1.43,6,6,0,0,1-.14,1.43h.72a6.33,6.33,0,0,1,.14,1.43,6.59,6.59,0,0,1-.14,1.43h1.07a6,6,0,0,1-.15-1.43,5.75,5.75,0,0,1,.15-1.43,6,6,0,0,1-.15-1.43,5.75,5.75,0,0,1,.15-1.43,6,6,0,0,1-.15-1.43,5.81,5.81,0,0,1,.15-1.43h2.86a6.39,6.39,0,0,1,.14,1.43A6.59,6.59,0,0,1,110.11,119.27Z"/><path class="cls-1" d="M123.12,129.28a6,6,0,0,1-.15,1.43H114.4a6,6,0,0,1-.15-1.43,5.75,5.75,0,0,1,.15-1.43h2.86a6,6,0,0,1-.15-1.43,5.75,5.75,0,0,1,.15-1.43,6,6,0,0,1-.15-1.43,5.75,5.75,0,0,1,.15-1.43,6,6,0,0,1-.15-1.43,5.75,5.75,0,0,1,.15-1.43h-2.15a6.59,6.59,0,0,1-.14-1.43,6.39,6.39,0,0,1,.14-1.43h5a6.39,6.39,0,0,1,.14,1.43,6.59,6.59,0,0,1-.14,1.43,6.33,6.33,0,0,1,.14,1.43,6.59,6.59,0,0,1-.14,1.43,6.33,6.33,0,0,1,.14,1.43,6.59,6.59,0,0,1-.14,1.43,6.33,6.33,0,0,1,.14,1.43,6.59,6.59,0,0,1-.14,1.43H123A5.75,5.75,0,0,1,123.12,129.28Zm-5.86-15.72a6.1,6.1,0,0,1-.15-1.43,5.7,5.7,0,0,1,.15-1.43h2.86a6.27,6.27,0,0,1,.14,1.43,6.72,6.72,0,0,1-.14,1.43Z"/><path class="cls-1" d="M137.27,127.85a5.8,5.8,0,0,1,.14,1.43,6,6,0,0,1-.14,1.43h-5.72a6.59,6.59,0,0,1-.14-1.43,6.33,6.33,0,0,1,.14-1.43h-1.43a6.59,6.59,0,0,1-.14-1.43,6.33,6.33,0,0,1,.14-1.43,6.59,6.59,0,0,1-.14-1.43,6.33,6.33,0,0,1,.14-1.43,6.59,6.59,0,0,1-.14-1.43,6.33,6.33,0,0,1,.14-1.43h-2.86a6.59,6.59,0,0,1-.14-1.43,6.39,6.39,0,0,1,.14-1.43h2.86A6.59,6.59,0,0,1,130,115a6.24,6.24,0,0,1,.14-1.42,6.72,6.72,0,0,1-.14-1.43,6.27,6.27,0,0,1,.14-1.43H133a5.75,5.75,0,0,1,.14,1.43,6.13,6.13,0,0,1-.14,1.43,5.72,5.72,0,0,1,.14,1.42,6,6,0,0,1-.14,1.43h4.29a5.85,5.85,0,0,1,.14,1.43,6,6,0,0,1-.14,1.43H133a5.8,5.8,0,0,1,.14,1.43,6,6,0,0,1-.14,1.43,5.8,5.8,0,0,1,.14,1.43A6,6,0,0,1,133,125a5.8,5.8,0,0,1,.14,1.43,6,6,0,0,1-.14,1.43Z"/><path class="cls-1" d="M144.42,119.27h1.07a6.33,6.33,0,0,1,.14,1.43,6.59,6.59,0,0,1-.14,1.43h-1.07a6.33,6.33,0,0,1,.14,1.43,6.59,6.59,0,0,1-.14,1.43,6.33,6.33,0,0,1,.14,1.43,6.59,6.59,0,0,1-.14,1.43,6.33,6.33,0,0,1,.14,1.43,6.59,6.59,0,0,1-.14,1.43h-2.86a6,6,0,0,1-.14-1.43,5.8,5.8,0,0,1,.14-1.43,6,6,0,0,1-.14-1.43,5.8,5.8,0,0,1,.14-1.43,6,6,0,0,1-.14-1.43,5.8,5.8,0,0,1,.14-1.43,6,6,0,0,1-.14-1.43,5.8,5.8,0,0,1,.14-1.43,6,6,0,0,1-.14-1.43,5.85,5.85,0,0,1,.14-1.43,6,6,0,0,1-.14-1.43,5.72,5.72,0,0,1,.14-1.42,6.13,6.13,0,0,1-.14-1.43,5.75,5.75,0,0,1,.14-1.43h2.86a6.27,6.27,0,0,1,.14,1.43,6.72,6.72,0,0,1-.14,1.43,6.24,6.24,0,0,1,.14,1.42,6.59,6.59,0,0,1-.14,1.43,6.39,6.39,0,0,1,.14,1.43A6.59,6.59,0,0,1,144.42,119.27Zm8.72,4.29A6.59,6.59,0,0,1,153,125a6.33,6.33,0,0,1,.14,1.43,6.59,6.59,0,0,1-.14,1.43,6.33,6.33,0,0,1,.14,1.43,6.59,6.59,0,0,1-.14,1.43h-2.86a6,6,0,0,1-.15-1.43,5.75,5.75,0,0,1,.15-1.43,6,6,0,0,1-.15-1.43,5.75,5.75,0,0,1,.15-1.43,6,6,0,0,1-.15-1.43,5.75,5.75,0,0,1,.15-1.43,6,6,0,0,1-.15-1.43,5.75,5.75,0,0,1,.15-1.43h-4.65a6,6,0,0,1-.14-1.43,5.85,5.85,0,0,1,.14-1.43h5.72a6.39,6.39,0,0,1,.14,1.43,6.59,6.59,0,0,1-.14,1.43H153a6.33,6.33,0,0,1,.14,1.43,6.59,6.59,0,0,1-.14,1.43A6.33,6.33,0,0,1,153.14,123.56Z"/><path class="cls-1" d="M181.59,119.27h-1.07a6.33,6.33,0,0,1,.14,1.43,6.59,6.59,0,0,1-.14,1.43h-1.08a5.75,5.75,0,0,1,.15,1.43,6,6,0,0,1-.15,1.43h-.71a6.33,6.33,0,0,1,.14,1.43,6.59,6.59,0,0,1-.14,1.43h-1.07a6.33,6.33,0,0,1,.14,1.43,6.59,6.59,0,0,1-.14,1.43h-.72a5.8,5.8,0,0,1,.14,1.43,6.07,6.07,0,0,1-.14,1.43h-1.43a5.75,5.75,0,0,1,.15,1.43,6,6,0,0,1-.15,1.43h-4.29a6.66,6.66,0,0,1-.14-1.43,6.33,6.33,0,0,1,.14-1.43h2.86a6.66,6.66,0,0,1-.14-1.43,6.33,6.33,0,0,1,.14-1.43,6.59,6.59,0,0,1-.14-1.43,6.33,6.33,0,0,1,.14-1.43h-1.43a6.59,6.59,0,0,1-.14-1.43,6.33,6.33,0,0,1,.14-1.43h-.71a6,6,0,0,1-.15-1.43,5.75,5.75,0,0,1,.15-1.43h-1.07a6,6,0,0,1-.15-1.43,5.75,5.75,0,0,1,.15-1.43h-1.08a6.59,6.59,0,0,1-.14-1.43,6.39,6.39,0,0,1,.14-1.43h2.86a5.81,5.81,0,0,1,.15,1.43,6,6,0,0,1-.15,1.43h1.08a6.33,6.33,0,0,1,.14,1.43,6.59,6.59,0,0,1-.14,1.43h1.07a6.33,6.33,0,0,1,.14,1.43,6.59,6.59,0,0,1-.14,1.43,6.33,6.33,0,0,1,.14,1.43,6.59,6.59,0,0,1-.14,1.43h1.07a6,6,0,0,1-.14-1.43,5.8,5.8,0,0,1,.14-1.43h.71a6.59,6.59,0,0,1-.14-1.43,6.33,6.33,0,0,1,.14-1.43h1.08a6,6,0,0,1-.15-1.43,5.75,5.75,0,0,1,.15-1.43h1.07a6,6,0,0,1-.14-1.43,5.85,5.85,0,0,1,.14-1.43h2.86a6.39,6.39,0,0,1,.14,1.43A6.59,6.59,0,0,1,181.59,119.27Z"/><path class="cls-1" d="M195.88,125h-1.07a5.75,5.75,0,0,1,.15,1.43,6,6,0,0,1-.15,1.43H193a6.33,6.33,0,0,1,.14,1.43,6.59,6.59,0,0,1-.14,1.43h-5.72a6,6,0,0,1-.15-1.43,5.75,5.75,0,0,1,.15-1.43h-1.79a6,6,0,0,1-.14-1.43,5.8,5.8,0,0,1,.14-1.43h-1.07a6,6,0,0,1-.15-1.43,5.75,5.75,0,0,1,.15-1.43h1.07a6,6,0,0,1-.14-1.43,5.8,5.8,0,0,1,.14-1.43h1.79a6,6,0,0,1-.15-1.43,5.81,5.81,0,0,1,.15-1.43H193a6.39,6.39,0,0,1,.14,1.43,6.59,6.59,0,0,1-.14,1.43h1.78a5.75,5.75,0,0,1,.15,1.43,6,6,0,0,1-.15,1.43h1.07a5.75,5.75,0,0,1,.15,1.43A6,6,0,0,1,195.88,125ZM193,125a6,6,0,0,1-.15-1.43,5.75,5.75,0,0,1,.15-1.43H192a6.59,6.59,0,0,1-.14-1.43,6.33,6.33,0,0,1,.14-1.43h-3.57a6.33,6.33,0,0,1,.14,1.43,6.59,6.59,0,0,1-.14,1.43h-1.07a6.33,6.33,0,0,1,.14,1.43,6.59,6.59,0,0,1-.14,1.43h1.07a6.33,6.33,0,0,1,.14,1.43,6.59,6.59,0,0,1-.14,1.43H192a6.59,6.59,0,0,1-.14-1.43A6.33,6.33,0,0,1,192,125Z"/><path class="cls-1" d="M202.67,127.85h3.58a6.33,6.33,0,0,1,.14,1.43,6.59,6.59,0,0,1-.14,1.43h-5.72a6,6,0,0,1-.14-1.43,5.8,5.8,0,0,1,.14-1.43h-1.79a6.59,6.59,0,0,1-.14-1.43,6.33,6.33,0,0,1,.14-1.43,6.59,6.59,0,0,1-.14-1.43,6.33,6.33,0,0,1,.14-1.43,6.59,6.59,0,0,1-.14-1.43,6.33,6.33,0,0,1,.14-1.43,6.59,6.59,0,0,1-.14-1.43,6.39,6.39,0,0,1,.14-1.43h2.86a5.81,5.81,0,0,1,.15,1.43,6,6,0,0,1-.15,1.43,5.75,5.75,0,0,1,.15,1.43,6,6,0,0,1-.15,1.43,5.75,5.75,0,0,1,.15,1.43,6,6,0,0,1-.15,1.43h1.07a5.75,5.75,0,0,1,.15,1.43A6,6,0,0,1,202.67,127.85Zm7.65-7.15a6,6,0,0,1-.14,1.43,5.8,5.8,0,0,1,.14,1.43,6,6,0,0,1-.14,1.43,5.8,5.8,0,0,1,.14,1.43,6,6,0,0,1-.14,1.43,5.8,5.8,0,0,1,.14,1.43,6,6,0,0,1-.14,1.43h-2.86a6.59,6.59,0,0,1-.14-1.43,6.33,6.33,0,0,1,.14-1.43h-1.07a6,6,0,0,1-.14-1.43,5.8,5.8,0,0,1,.14-1.43h1.07a6.59,6.59,0,0,1-.14-1.43,6.33,6.33,0,0,1,.14-1.43,6.59,6.59,0,0,1-.14-1.43,6.33,6.33,0,0,1,.14-1.43,6.59,6.59,0,0,1-.14-1.43,6.39,6.39,0,0,1,.14-1.43h2.86a5.85,5.85,0,0,1,.14,1.43,6,6,0,0,1-.14,1.43A5.8,5.8,0,0,1,210.32,120.7Z"/><path class="cls-1" d="M224.62,120.7a6.59,6.59,0,0,1-.14,1.43h-2.86a6,6,0,0,1-.15-1.43,5.75,5.75,0,0,1,.15-1.43h-2.5a6.33,6.33,0,0,1,.14,1.43,6.59,6.59,0,0,1-.14,1.43H218a5.75,5.75,0,0,1,.15,1.43A6,6,0,0,1,218,125a5.75,5.75,0,0,1,.15,1.43,6,6,0,0,1-.15,1.43h2.15a6.33,6.33,0,0,1,.14,1.43,6.59,6.59,0,0,1-.14,1.43H213a6,6,0,0,1-.14-1.43,5.8,5.8,0,0,1,.14-1.43h2.14a6.59,6.59,0,0,1-.14-1.43,6.33,6.33,0,0,1,.14-1.43,6.59,6.59,0,0,1-.14-1.43,6.33,6.33,0,0,1,.14-1.43,6.59,6.59,0,0,1-.14-1.43,6.33,6.33,0,0,1,.14-1.43H213a6,6,0,0,1-.14-1.43,5.85,5.85,0,0,1,.14-1.43h3.57a5.81,5.81,0,0,1,.15,1.43,6,6,0,0,1-.15,1.43H218a6.59,6.59,0,0,1-.14-1.43,6.39,6.39,0,0,1,.14-1.43h5.36a5.81,5.81,0,0,1,.15,1.43,6,6,0,0,1-.15,1.43h1.08A6.33,6.33,0,0,1,224.62,120.7Z"/><path class="cls-1" d="M253.21,129.28a6.59,6.59,0,0,1-.14,1.43h-5a6,6,0,0,1-.15-1.43,5.75,5.75,0,0,1,.15-1.43h-1.43a6,6,0,0,1-.15-1.43,5.75,5.75,0,0,1,.15-1.43h-2.15a5.8,5.8,0,0,1,.14,1.43,6,6,0,0,1-.14,1.43,5.8,5.8,0,0,1,.14,1.43,6,6,0,0,1-.14,1.43h-2.86a6.59,6.59,0,0,1-.14-1.43,6.33,6.33,0,0,1,.14-1.43,6.59,6.59,0,0,1-.14-1.43,6.33,6.33,0,0,1,.14-1.43,6.59,6.59,0,0,1-.14-1.43,6.33,6.33,0,0,1,.14-1.43,6.59,6.59,0,0,1-.14-1.43,6.33,6.33,0,0,1,.14-1.43,6.59,6.59,0,0,1-.14-1.43,6.39,6.39,0,0,1,.14-1.43,6.59,6.59,0,0,1-.14-1.43,6.24,6.24,0,0,1,.14-1.42,6.72,6.72,0,0,1-.14-1.43,6.27,6.27,0,0,1,.14-1.43h2.86a5.75,5.75,0,0,1,.14,1.43,6.13,6.13,0,0,1-.14,1.43,5.72,5.72,0,0,1,.14,1.42,6,6,0,0,1-.14,1.43,5.85,5.85,0,0,1,.14,1.43,6,6,0,0,1-.14,1.43,5.8,5.8,0,0,1,.14,1.43,6,6,0,0,1-.14,1.43h2.15a6,6,0,0,1-.15-1.43,5.75,5.75,0,0,1,.15-1.43h1.43a6,6,0,0,1-.15-1.43,5.81,5.81,0,0,1,.15-1.43h4.28a5.81,5.81,0,0,1,.15,1.43,6,6,0,0,1-.15,1.43H249.5a6.33,6.33,0,0,1,.14,1.43,6.59,6.59,0,0,1-.14,1.43h-1.43a6.33,6.33,0,0,1,.14,1.43,6.59,6.59,0,0,1-.14,1.43h1.43a6.33,6.33,0,0,1,.14,1.43,6.59,6.59,0,0,1-.14,1.43h3.57A6.33,6.33,0,0,1,253.21,129.28Z"/><path class="cls-1" d="M267.37,122.13a6.33,6.33,0,0,1,.14,1.43,6.59,6.59,0,0,1-.14,1.43h-7.51a6.33,6.33,0,0,1,.14,1.43,6.59,6.59,0,0,1-.14,1.43h6.08a6.33,6.33,0,0,1,.14,1.43,6.59,6.59,0,0,1-.14,1.43h-7.15a6,6,0,0,1-.15-1.43,5.75,5.75,0,0,1,.15-1.43H257a6,6,0,0,1-.14-1.43A5.8,5.8,0,0,1,257,125h-1.07a6,6,0,0,1-.14-1.43,5.8,5.8,0,0,1,.14-1.43H257a6,6,0,0,1-.14-1.43,5.8,5.8,0,0,1,.14-1.43h1.79a6,6,0,0,1-.15-1.43,5.81,5.81,0,0,1,.15-1.43h7.15a6.39,6.39,0,0,1,.14,1.43,6.59,6.59,0,0,1-.14,1.43h1.43a6.33,6.33,0,0,1,.14,1.43A6.59,6.59,0,0,1,267.37,122.13Zm-3-1.43a5.75,5.75,0,0,1,.15-1.43h-4.65a6.33,6.33,0,0,1,.14,1.43,6.59,6.59,0,0,1-.14,1.43h4.65A6,6,0,0,1,264.36,120.7Z"/><path class="cls-1" d="M281.66,119.27h-1.07a6.33,6.33,0,0,1,.14,1.43,6.59,6.59,0,0,1-.14,1.43h-1.07a6.33,6.33,0,0,1,.14,1.43,6.59,6.59,0,0,1-.14,1.43h-.72a5.75,5.75,0,0,1,.15,1.43,6,6,0,0,1-.15,1.43h-1.07a5.8,5.8,0,0,1,.14,1.43,6,6,0,0,1-.14,1.43H277a6.33,6.33,0,0,1,.14,1.43,6.66,6.66,0,0,1-.14,1.43h-1.43a6.33,6.33,0,0,1,.14,1.43,6.66,6.66,0,0,1-.14,1.43H271.3a6,6,0,0,1-.15-1.43,5.75,5.75,0,0,1,.15-1.43h2.86a6,6,0,0,1-.15-1.43,5.75,5.75,0,0,1,.15-1.43,6,6,0,0,1-.15-1.43,5.75,5.75,0,0,1,.15-1.43h-1.43a6,6,0,0,1-.15-1.43,5.75,5.75,0,0,1,.15-1.43H272a6.59,6.59,0,0,1-.14-1.43,6.33,6.33,0,0,1,.14-1.43h-1.07a6,6,0,0,1-.14-1.43,5.8,5.8,0,0,1,.14-1.43h-1.07a6,6,0,0,1-.15-1.43,5.81,5.81,0,0,1,.15-1.43h2.86a6.39,6.39,0,0,1,.14,1.43,6.59,6.59,0,0,1-.14,1.43h1.07a6.33,6.33,0,0,1,.14,1.43,6.59,6.59,0,0,1-.14,1.43h1.07a5.8,5.8,0,0,1,.14,1.43,6,6,0,0,1-.14,1.43,5.8,5.8,0,0,1,.14,1.43,6,6,0,0,1-.14,1.43h1.07a6.59,6.59,0,0,1-.14-1.43,6.33,6.33,0,0,1,.14-1.43h.72a6,6,0,0,1-.15-1.43,5.75,5.75,0,0,1,.15-1.43h1.07a6,6,0,0,1-.14-1.43,5.8,5.8,0,0,1,.14-1.43h1.07a6.59,6.59,0,0,1-.14-1.43,6.39,6.39,0,0,1,.14-1.43h2.86a5.85,5.85,0,0,1,.14,1.43A6,6,0,0,1,281.66,119.27Z"/><path class="cls-1" d="M287.52,126.42a6.59,6.59,0,0,1-.14,1.43H286a6.33,6.33,0,0,1,.14,1.43,6.59,6.59,0,0,1-.14,1.43h-1.43a6,6,0,0,1-.14-1.43,5.8,5.8,0,0,1,.14-1.43,6,6,0,0,1-.14-1.43,5.8,5.8,0,0,1,.14-1.43,6,6,0,0,1-.14-1.43,5.8,5.8,0,0,1,.14-1.43,6,6,0,0,1-.14-1.43,5.8,5.8,0,0,1,.14-1.43,6,6,0,0,1-.14-1.43,5.85,5.85,0,0,1,.14-1.43,6,6,0,0,1-.14-1.43,5.72,5.72,0,0,1,.14-1.42,6.13,6.13,0,0,1-.14-1.43,5.75,5.75,0,0,1,.14-1.43h2.86a6.27,6.27,0,0,1,.14,1.43,6.72,6.72,0,0,1-.14,1.43,6.24,6.24,0,0,1,.14,1.42,6.59,6.59,0,0,1-.14,1.43,6.39,6.39,0,0,1,.14,1.43,6.59,6.59,0,0,1-.14,1.43h1.43a6.33,6.33,0,0,1,.14,1.43,6.59,6.59,0,0,1-.14,1.43h-1.43a6.33,6.33,0,0,1,.14,1.43,6.59,6.59,0,0,1-.14,1.43A6.33,6.33,0,0,1,287.52,126.42Zm-.14,1.43h4.29a6.33,6.33,0,0,1,.14,1.43,6.59,6.59,0,0,1-.14,1.43h-4.29a6,6,0,0,1-.14-1.43A5.8,5.8,0,0,1,287.38,127.85ZM296,125h-1.43a6.33,6.33,0,0,1,.14,1.43,6.59,6.59,0,0,1-.14,1.43h-2.86a6,6,0,0,1-.14-1.43,5.8,5.8,0,0,1,.14-1.43h1.43a6,6,0,0,1-.14-1.43,5.8,5.8,0,0,1,.14-1.43h-1.43a6,6,0,0,1-.14-1.43,5.8,5.8,0,0,1,.14-1.43h-2.86a6,6,0,0,1-.14-1.43,5.85,5.85,0,0,1,.14-1.43h4.29a6.39,6.39,0,0,1,.14,1.43,6.59,6.59,0,0,1-.14,1.43h1.43a6.33,6.33,0,0,1,.14,1.43,6.59,6.59,0,0,1-.14,1.43H296a6.33,6.33,0,0,1,.14,1.43A6.59,6.59,0,0,1,296,125Z"/><path class="cls-1" d="M310.25,125h-1.07a5.8,5.8,0,0,1,.14,1.43,6,6,0,0,1-.14,1.43h-1.79a5.75,5.75,0,0,1,.15,1.43,6,6,0,0,1-.15,1.43h-5.71a6,6,0,0,1-.15-1.43,5.75,5.75,0,0,1,.15-1.43h-1.79a6,6,0,0,1-.14-1.43,5.8,5.8,0,0,1,.14-1.43h-1.07a6,6,0,0,1-.15-1.43,5.75,5.75,0,0,1,.15-1.43h1.07a6,6,0,0,1-.14-1.43,5.8,5.8,0,0,1,.14-1.43h1.79a6,6,0,0,1-.15-1.43,5.81,5.81,0,0,1,.15-1.43h5.71a5.81,5.81,0,0,1,.15,1.43,6,6,0,0,1-.15,1.43h1.79a5.8,5.8,0,0,1,.14,1.43,6,6,0,0,1-.14,1.43h1.07a5.75,5.75,0,0,1,.15,1.43A6,6,0,0,1,310.25,125Zm-2.86,0a6.59,6.59,0,0,1-.14-1.43,6.33,6.33,0,0,1,.14-1.43h-1.07a6.59,6.59,0,0,1-.14-1.43,6.33,6.33,0,0,1,.14-1.43h-3.57a6.33,6.33,0,0,1,.14,1.43,6.59,6.59,0,0,1-.14,1.43h-1.07a6.33,6.33,0,0,1,.14,1.43,6.59,6.59,0,0,1-.14,1.43h1.07a6.33,6.33,0,0,1,.14,1.43,6.59,6.59,0,0,1-.14,1.43h3.57a6.59,6.59,0,0,1-.14-1.43,6.33,6.33,0,0,1,.14-1.43Z"/><path class="cls-1" d="M324.69,129.28a6.59,6.59,0,0,1-.14,1.43h-2.86a6,6,0,0,1-.14-1.43,5.8,5.8,0,0,1,.14-1.43h-1.43a6.59,6.59,0,0,1-.14-1.43,6.33,6.33,0,0,1,.14-1.43H316a5.8,5.8,0,0,1,.14,1.43,6,6,0,0,1-.14,1.43h4.29a5.8,5.8,0,0,1,.14,1.43,6,6,0,0,1-.14,1.43h-5.72a6.59,6.59,0,0,1-.14-1.43,6.33,6.33,0,0,1,.14-1.43h-1.43a6.59,6.59,0,0,1-.14-1.43,6.33,6.33,0,0,1,.14-1.43h1.43a6.59,6.59,0,0,1-.14-1.43,6.33,6.33,0,0,1,.14-1.43h5.72a6.59,6.59,0,0,1-.14-1.43,6.33,6.33,0,0,1,.14-1.43h-5a6,6,0,0,1-.15-1.43,5.81,5.81,0,0,1,.15-1.43h6.43a5.85,5.85,0,0,1,.14,1.43,6,6,0,0,1-.14,1.43h1.43a6.33,6.33,0,0,1,.14,1.43,6.59,6.59,0,0,1-.14,1.43,6.33,6.33,0,0,1,.14,1.43,6.59,6.59,0,0,1-.14,1.43,6.33,6.33,0,0,1,.14,1.43,6.59,6.59,0,0,1-.14,1.43h1.43A6.33,6.33,0,0,1,324.69,129.28Z"/><path class="cls-1" d="M339,120.7a6.59,6.59,0,0,1-.14,1.43H336a6,6,0,0,1-.15-1.43,5.75,5.75,0,0,1,.15-1.43h-2.5a6.33,6.33,0,0,1,.14,1.43,6.59,6.59,0,0,1-.14,1.43h-1.08a5.75,5.75,0,0,1,.15,1.43,6,6,0,0,1-.15,1.43,5.75,5.75,0,0,1,.15,1.43,6,6,0,0,1-.15,1.43h2.15a6.33,6.33,0,0,1,.14,1.43,6.59,6.59,0,0,1-.14,1.43h-7.15a6,6,0,0,1-.14-1.43,5.8,5.8,0,0,1,.14-1.43h2.14a6.59,6.59,0,0,1-.14-1.43,6.33,6.33,0,0,1,.14-1.43,6.59,6.59,0,0,1-.14-1.43,6.33,6.33,0,0,1,.14-1.43,6.59,6.59,0,0,1-.14-1.43,6.33,6.33,0,0,1,.14-1.43h-2.14a6,6,0,0,1-.14-1.43,5.85,5.85,0,0,1,.14-1.43H331a5.81,5.81,0,0,1,.15,1.43,6,6,0,0,1-.15,1.43h1.43a6.59,6.59,0,0,1-.14-1.43,6.39,6.39,0,0,1,.14-1.43h5.36a5.81,5.81,0,0,1,.15,1.43,6,6,0,0,1-.15,1.43h1.08A6.33,6.33,0,0,1,339,120.7Z"/><path class="cls-1" d="M348.5,119.27h-3.58a5.8,5.8,0,0,1,.14,1.43,6,6,0,0,1-.14,1.43h-1.07a6.33,6.33,0,0,1,.14,1.43,6.59,6.59,0,0,1-.14,1.43h1.07a5.8,5.8,0,0,1,.14,1.43,6,6,0,0,1-.14,1.43h3.58a6.33,6.33,0,0,1,.14,1.43,6.59,6.59,0,0,1-.14,1.43h-3.94a6.59,6.59,0,0,1-.14-1.43,6.33,6.33,0,0,1,.14-1.43h-1.78a6,6,0,0,1-.15-1.43,5.75,5.75,0,0,1,.15-1.43h-1.07a6,6,0,0,1-.15-1.43,5.75,5.75,0,0,1,.15-1.43h1.07a6,6,0,0,1-.15-1.43,5.75,5.75,0,0,1,.15-1.43h1.78a6.59,6.59,0,0,1-.14-1.43,6.39,6.39,0,0,1,.14-1.43h3.94a6.39,6.39,0,0,1,.14,1.43A6.59,6.59,0,0,1,348.5,119.27Zm4.79-4.29a6,6,0,0,1-.15,1.43,5.81,5.81,0,0,1,.15,1.43,6,6,0,0,1-.15,1.43,5.75,5.75,0,0,1,.15,1.43,6,6,0,0,1-.15,1.43,5.75,5.75,0,0,1,.15,1.43,6,6,0,0,1-.15,1.43,5.75,5.75,0,0,1,.15,1.43,6,6,0,0,1-.15,1.43,5.75,5.75,0,0,1,.15,1.43,6,6,0,0,1-.15,1.43h-2.86a6.59,6.59,0,0,1-.14-1.43,6.33,6.33,0,0,1,.14-1.43h-1.07a6.59,6.59,0,0,1-.14-1.43,6.33,6.33,0,0,1,.14-1.43h1.07a6.59,6.59,0,0,1-.14-1.43,6.33,6.33,0,0,1,.14-1.43h-1.07a6.59,6.59,0,0,1-.14-1.43,6.33,6.33,0,0,1,.14-1.43h1.07a6.59,6.59,0,0,1-.14-1.43,6.39,6.39,0,0,1,.14-1.43,6.59,6.59,0,0,1-.14-1.43,6.24,6.24,0,0,1,.14-1.42,6.72,6.72,0,0,1-.14-1.43,6.27,6.27,0,0,1,.14-1.43h2.86a5.7,5.7,0,0,1,.15,1.43,6.1,6.1,0,0,1-.15,1.43A5.66,5.66,0,0,1,353.29,115Z"/><path class="cls-1" d="M363.29,115a6.59,6.59,0,0,1-.14,1.43,6.39,6.39,0,0,1,.14,1.43,6.59,6.59,0,0,1-.14,1.43,6.33,6.33,0,0,1,.14,1.43,6.59,6.59,0,0,1-.14,1.43,6.33,6.33,0,0,1,.14,1.43,6.59,6.59,0,0,1-.14,1.43h-2.86a6,6,0,0,1-.14-1.43,5.8,5.8,0,0,1,.14-1.43,6,6,0,0,1-.14-1.43,5.8,5.8,0,0,1,.14-1.43,6,6,0,0,1-.14-1.43,5.85,5.85,0,0,1,.14-1.43,6,6,0,0,1-.14-1.43,5.72,5.72,0,0,1,.14-1.42,6.13,6.13,0,0,1-.14-1.43,5.75,5.75,0,0,1,.14-1.43h2.86a6.27,6.27,0,0,1,.14,1.43,6.72,6.72,0,0,1-.14,1.43A6.24,6.24,0,0,1,363.29,115Zm-.14,12.87a6.33,6.33,0,0,1,.14,1.43,6.59,6.59,0,0,1-.14,1.43h-2.86a6,6,0,0,1-.14-1.43,5.8,5.8,0,0,1,.14-1.43Z"/></g></g></svg>