<svg xmlns="http://www.w3.org/2000/svg" viewBox="0 0 450.26 541.05"><defs><style>.cls-1{isolation:isolate;}.cls-2{mix-blend-mode:multiply;}.cls-3{fill:#ebb0ff;}.cls-4{fill:#92f0ed;}.cls-5{fill:#e70006;}</style></defs><g class="cls-1"><g id="Layer_2" data-name="Layer 2"><g id="Layer_1-2" data-name="Layer 1"><g class="cls-2"><path class="cls-3" d="M90.18,180.35H0V450.88H90.18Z"/></g><g class="cls-2"><path class="cls-3" d="M270.53,360.7H0v90.18H270.53Z"/></g><g class="cls-2"><path class="cls-3" d="M270.53,180.35H0v90.18H270.53Z"/></g><g class="cls-2"><path class="cls-3" d="M270.53,270.53l-90.18,90.3v90.05h90.18Z"/></g><g class="cls-2"><path class="cls-4" d="M269.91,0H179.74V270.53h90.17Z"/></g><g class="cls-2"><path class="cls-4" d="M450.26,90.18H179.74v90.17H450.26Z"/></g><g class="cls-2"><path class="cls-4" d="M450.26,0H360.09V270.53h90.17Z"/></g><g class="cls-2"><path class="cls-4" d="M179.67,270.53H89.5V541.05h90.17Z"/></g><g class="cls-2"><path class="cls-4" d="M360,360.7H89.5v90.18H360Z"/></g><g class="cls-2"><path class="cls-4" d="M360,270.53H269.85V541.05H360Z"/></g><g class="cls-2"><path class="cls-5" d="M225.29,90.39,180.2,135.48l45.09,45.08,45.08-45.08Z"/></g><g class="cls-2"><path class="cls-5" d="M270.37,180.56H180.2V360.92h90.17Z"/></g></g></g></g></svg>