<svg xmlns="http://www.w3.org/2000/svg" viewBox="0 0 731.77 556.18"><g id="Layer_2" data-name="Layer 2"><g id="Layer_1-2" data-name="Layer 1"><rect width="193.3" height="42.78"/><rect x="450.3" width="281.47" height="42.78"/><rect x="242.1" width="96.65" height="42.78"/><rect x="569.93" y="146.95" width="161.83" height="42.78" transform="translate(1301.7 336.67) rotate(180)"/><rect y="146.95" width="199.13" height="42.78" transform="translate(199.13 336.67) rotate(180)"/><rect x="320.57" y="146.95" width="185.81" height="42.78" transform="translate(826.95 336.67) rotate(180)"/><rect x="296.65" y="73.47" width="193.3" height="42.78"/><rect x="529.66" y="73.47" width="202.1" height="42.78"/><rect y="73.47" width="96.65" height="42.78"/><rect x="241.82" y="220.42" width="193.3" height="42.78" transform="translate(676.93 483.61) rotate(180)"/><rect y="220.42" width="202.1" height="42.78" transform="translate(202.1 483.61) rotate(180)"/><rect x="635.12" y="220.42" width="96.65" height="42.78" transform="translate(1366.88 483.61) rotate(180)"/><rect x="538.47" y="292.99" width="193.3" height="42.78" transform="translate(1270.23 628.75) rotate(-180)"/><rect y="292.99" width="281.47" height="42.78" transform="translate(281.47 628.75) rotate(-180)"/><rect x="393.01" y="292.99" width="96.65" height="42.78" transform="translate(882.67 628.75) rotate(-180)"/><rect y="439.93" width="161.83" height="42.78"/><rect x="532.64" y="439.93" width="199.13" height="42.78"/><rect x="225.39" y="439.93" width="185.81" height="42.78"/><rect x="241.82" y="366.46" width="193.3" height="42.78" transform="translate(676.93 775.7) rotate(-180)"/><rect y="366.46" width="202.1" height="42.78" transform="translate(202.1 775.7) rotate(-180)"/><rect x="635.12" y="366.46" width="96.65" height="42.78" transform="translate(1366.88 775.7) rotate(-180)"/><rect x="296.65" y="513.4" width="193.3" height="42.78"/><rect x="529.66" y="513.4" width="202.1" height="42.78"/><rect y="513.4" width="96.65" height="42.78"/></g></g></svg>