<svg xmlns="http://www.w3.org/2000/svg" viewBox="0 0 457.04 155.41"><defs><style>.cls-1{fill:#ff4329;}.cls-2{fill:#222;}.cls-3{fill:#0085ff;}</style></defs><g id="Layer_2" data-name="Layer 2"><g id="Layer_1-2" data-name="Layer 1"><rect class="cls-1" x="217.13" y="1.77" width="29.14" height="29.14"/><circle class="cls-2" cx="169.84" cy="16.34" r="16.34"/><rect class="cls-3" x="276.39" y="4.79" width="23.1" height="23.1" transform="translate(72.78 208.39) rotate(-45)"/><path class="cls-2" d="M9.1,108.28A27.43,27.43,0,0,1,0,104l4-8.92A27.08,27.08,0,0,0,11.84,99a29.21,29.21,0,0,0,9.06,1.47c3.37,0,5.85-.5,7.46-1.5a4.53,4.53,0,0,0,2.41-4,3.82,3.82,0,0,0-1.42-3A10.92,10.92,0,0,0,25.69,90c-1.48-.48-3.5-1-6-1.6a82.77,82.77,0,0,1-9.57-2.78,15.56,15.56,0,0,1-6.4-4.46A12.05,12.05,0,0,1,1,72.94a14.21,14.21,0,0,1,2.42-8.07,16.11,16.11,0,0,1,7.27-5.74A29.72,29.72,0,0,1,22.58,57a39.33,39.33,0,0,1,9.58,1.17,28.37,28.37,0,0,1,8.19,3.36l-3.66,9a28.53,28.53,0,0,0-14.18-4q-5,0-7.34,1.61a4.89,4.89,0,0,0-2.38,4.24,4.16,4.16,0,0,0,2.74,3.91,43.49,43.49,0,0,0,8.37,2.52,83.61,83.61,0,0,1,9.58,2.78A15.89,15.89,0,0,1,39.87,86a11.78,11.78,0,0,1,2.67,8.12,14,14,0,0,1-2.45,8,16.44,16.44,0,0,1-7.34,5.74,30,30,0,0,1-11.92,2.12A41.77,41.77,0,0,1,9.1,108.28Z"/><path class="cls-2" d="M97.58,57.89v51.16H85.74v-21H62.49v21H50.65V57.89H62.49V78.06H85.74V57.89Z"/><path class="cls-2" d="M143.41,98.09H119.65l-4.53,11H103l22.8-51.16h11.7l22.87,51.16H147.94Zm-3.73-9-8.11-19.59L123.45,89.1Z"/><path class="cls-2" d="M199.65,60.15a17.55,17.55,0,0,1,7.71,6.43,17.76,17.76,0,0,1,2.71,9.87,17.79,17.79,0,0,1-2.71,9.83,17.18,17.18,0,0,1-7.71,6.44,28.92,28.92,0,0,1-11.8,2.22H177.54v14.11H165.7V57.89h22.15A28.43,28.43,0,0,1,199.65,60.15ZM195.3,83a8,8,0,0,0,2.78-6.54,8.1,8.1,0,0,0-2.78-6.61c-1.85-1.54-4.56-2.31-8.11-2.31h-9.65V85.3h9.65C190.74,85.3,193.45,84.53,195.3,83Z"/><path class="cls-2" d="M258.09,99.55v9.5H218.47V57.89h38.67v9.5h-26.9V78.5H254v9.21H230.24V99.55Z"/><path class="cls-2" d="M300.12,109.05,290.25,94.8H279.36v14.25H267.52V57.89h22.14a28.47,28.47,0,0,1,11.81,2.26,16.91,16.91,0,0,1,10.41,16.3A16.66,16.66,0,0,1,301.36,92.6l11.47,16.45Zm-3-39.21q-2.78-2.31-8.12-2.31h-9.64V85.37H289q5.34,0,8.12-2.34a8.13,8.13,0,0,0,2.78-6.58A8.1,8.1,0,0,0,297.12,69.84Z"/><path class="cls-2" d="M321.24,57.89h11.84v51.16H321.24Z"/><path class="cls-2" d="M392.14,57.89v51.16h-9.72L356.91,78v31.06h-11.7V57.89H355L380.44,89V57.89Z"/><path class="cls-2" d="M414.69,106.49a25.44,25.44,0,0,1-10-9.46,27.21,27.21,0,0,1,0-27.12,25.54,25.54,0,0,1,10-9.47,31.71,31.71,0,0,1,28.69,0,26,26,0,0,1,10,9.47,27,27,0,0,1,0,27.12,25.89,25.89,0,0,1-10,9.46,31.63,31.63,0,0,1-28.69,0Zm22.55-8.73A15,15,0,0,0,443,92a18.25,18.25,0,0,0,0-17,15,15,0,0,0-5.73-5.81,17.16,17.16,0,0,0-16.38,0A15,15,0,0,0,415.12,75a18.33,18.33,0,0,0,0,17,15,15,0,0,0,5.74,5.81,17.16,17.16,0,0,0,16.38,0Z"/><path class="cls-2" d="M100.55,138.61a5.6,5.6,0,0,1,1.66,4.43v7.58H98.6V149c-.72,1.23-2.07,1.85-4,1.85a6.41,6.41,0,0,1-2.66-.52,4,4,0,0,1-1.71-1.43,3.69,3.69,0,0,1-.59-2.08A3.46,3.46,0,0,1,91,143.88a7.17,7.17,0,0,1,4.31-1.06h3.06a2.47,2.47,0,0,0-.77-1.94,3.37,3.37,0,0,0-2.29-.67,6.76,6.76,0,0,0-2.09.33,5.5,5.5,0,0,0-1.74.9l-1.38-2.69a8.54,8.54,0,0,1,2.6-1.19,12.16,12.16,0,0,1,3.13-.41A6.94,6.94,0,0,1,100.55,138.61Zm-3.28,9.16a2.5,2.5,0,0,0,1.09-1.35v-1.35H95.72c-1.58,0-2.37.52-2.37,1.55a1.35,1.35,0,0,0,.58,1.17,2.57,2.57,0,0,0,1.59.44A3.38,3.38,0,0,0,97.27,147.77Z"/><path class="cls-2" d="M113.9,150.41a8.37,8.37,0,0,1-2.51-1l1.28-2.77a8,8,0,0,0,2.15.93,8.91,8.91,0,0,0,2.46.35c1.63,0,2.45-.4,2.45-1.2a.87.87,0,0,0-.67-.82,10.5,10.5,0,0,0-2-.42,18.47,18.47,0,0,1-2.69-.57,4.21,4.21,0,0,1-1.84-1.13,3.26,3.26,0,0,1-.77-2.32,3.65,3.65,0,0,1,.72-2.23,4.72,4.72,0,0,1,2.13-1.52,9.07,9.07,0,0,1,3.29-.54,13.26,13.26,0,0,1,2.8.3,7.75,7.75,0,0,1,2.31.86L121.68,141a7.77,7.77,0,0,0-3.83-1,3.9,3.9,0,0,0-1.85.34,1,1,0,0,0-.62.89.88.88,0,0,0,.67.86,10.6,10.6,0,0,0,2.12.47,26,26,0,0,1,2.67.58,4,4,0,0,1,1.8,1.13,3.18,3.18,0,0,1,.76,2.27,3.45,3.45,0,0,1-.74,2.19,4.68,4.68,0,0,1-2.16,1.5,9.63,9.63,0,0,1-3.36.53A13,13,0,0,1,113.9,150.41Z"/><path class="cls-2" d="M137.83,138.63a5.86,5.86,0,0,1,1.52,4.39v7.6H135.5v-7a3.43,3.43,0,0,0-.7-2.36,2.54,2.54,0,0,0-2-.77,3,3,0,0,0-2.32.9,3.71,3.71,0,0,0-.87,2.68v6.56h-3.85V132.31h3.85v6.42a5.15,5.15,0,0,1,1.85-1.18,6.78,6.78,0,0,1,2.37-.4A5.45,5.45,0,0,1,137.83,138.63Z"/><path class="cls-2" d="M152.92,138.61a5.63,5.63,0,0,1,1.65,4.43v7.58H151V149c-.72,1.23-2.07,1.85-4.05,1.85a6.36,6.36,0,0,1-2.65-.52,4,4,0,0,1-1.72-1.43,3.77,3.77,0,0,1-.59-2.08,3.47,3.47,0,0,1,1.4-2.91,7.14,7.14,0,0,1,4.3-1.06h3.06a2.47,2.47,0,0,0-.76-1.94,3.4,3.4,0,0,0-2.3-.67,6.75,6.75,0,0,0-2.08.33,5.29,5.29,0,0,0-1.74.9l-1.38-2.69a8.54,8.54,0,0,1,2.6-1.19,12,12,0,0,1,3.12-.41A7,7,0,0,1,152.92,138.61Zm-3.28,9.16a2.44,2.44,0,0,0,1.08-1.35v-1.35h-2.64c-1.58,0-2.37.52-2.37,1.55a1.38,1.38,0,0,0,.58,1.17,2.61,2.61,0,0,0,1.59.44A3.42,3.42,0,0,0,149.64,147.77Z"/><path class="cls-2" d="M169.27,138a6.08,6.08,0,0,1,2.38,2.39,7.92,7.92,0,0,1,0,7.18,6.17,6.17,0,0,1-2.38,2.4,6.86,6.86,0,0,1-3.37.85,5.13,5.13,0,0,1-4-1.61v6.2h-3.85V137.34h3.68v1.53a5.09,5.09,0,0,1,4.17-1.72A6.75,6.75,0,0,1,169.27,138Zm-1.61,8.66a4.26,4.26,0,0,0,0-5.36,3.45,3.45,0,0,0-4.86,0,4.26,4.26,0,0,0,0,5.36,3.45,3.45,0,0,0,4.86,0Z"/><path class="cls-2" d="M188,145.07H178a3.11,3.11,0,0,0,1.28,2,4.28,4.28,0,0,0,2.52.71,4.94,4.94,0,0,0,1.83-.31,4.38,4.38,0,0,0,1.5-1l2.05,2.22a6.9,6.9,0,0,1-5.48,2.15,8.77,8.77,0,0,1-4-.88,6.34,6.34,0,0,1-2.66-2.43,6.66,6.66,0,0,1-.94-3.53,6.78,6.78,0,0,1,.93-3.52,6.48,6.48,0,0,1,2.54-2.44,7.92,7.92,0,0,1,7.14,0,6.12,6.12,0,0,1,2.48,2.41,7.2,7.2,0,0,1,.9,3.64C188.08,144.08,188.06,144.43,188,145.07Zm-9-4.27a3.14,3.14,0,0,0-1.08,2h6.54a3.16,3.16,0,0,0-3.26-2.76A3.29,3.29,0,0,0,179,140.8Z"/><path class="cls-2" d="M190.4,142.13h7v3.09h-7Z"/><path class="cls-2" d="M211.64,138a6.08,6.08,0,0,1,2.38,2.39,7.92,7.92,0,0,1,0,7.18,6.17,6.17,0,0,1-2.38,2.4,6.86,6.86,0,0,1-3.37.85,5.1,5.1,0,0,1-4.17-1.73v1.53h-3.68V132.31h3.85v6.44a5.12,5.12,0,0,1,4-1.6A6.75,6.75,0,0,1,211.64,138ZM210,146.66a4.26,4.26,0,0,0,0-5.36,3.45,3.45,0,0,0-4.86,0,4.26,4.26,0,0,0,0,5.36,3.45,3.45,0,0,0,4.86,0Z"/><path class="cls-2" d="M227.32,138.61A5.63,5.63,0,0,1,229,143v7.58h-3.6V149c-.72,1.23-2.07,1.85-4.05,1.85a6.36,6.36,0,0,1-2.65-.52,3.92,3.92,0,0,1-1.71-1.43,3.7,3.7,0,0,1-.6-2.08,3.47,3.47,0,0,1,1.4-2.91,7.14,7.14,0,0,1,4.3-1.06h3.06a2.47,2.47,0,0,0-.76-1.94,3.4,3.4,0,0,0-2.3-.67,6.75,6.75,0,0,0-2.08.33,5.5,5.5,0,0,0-1.74.9l-1.38-2.69a8.54,8.54,0,0,1,2.6-1.19,12,12,0,0,1,3.12-.41A7,7,0,0,1,227.32,138.61ZM224,147.77a2.44,2.44,0,0,0,1.08-1.35v-1.35h-2.64c-1.58,0-2.37.52-2.37,1.55a1.38,1.38,0,0,0,.58,1.17,2.62,2.62,0,0,0,1.6.44A3.41,3.41,0,0,0,224,147.77Z"/><path class="cls-2" d="M233.69,150.41a8.33,8.33,0,0,1-2.52-1l1.28-2.77a8,8,0,0,0,2.15.93,8.93,8.93,0,0,0,2.47.35c1.63,0,2.44-.4,2.44-1.2a.86.86,0,0,0-.67-.82,10.37,10.37,0,0,0-2-.42,17.91,17.91,0,0,1-2.69-.57,4.15,4.15,0,0,1-1.84-1.13,3.22,3.22,0,0,1-.78-2.32,3.6,3.6,0,0,1,.73-2.23,4.64,4.64,0,0,1,2.12-1.52,9.11,9.11,0,0,1,3.29-.54,13.35,13.35,0,0,1,2.81.3,7.68,7.68,0,0,1,2.3.86L241.46,141a7.74,7.74,0,0,0-3.83-1,3.93,3.93,0,0,0-1.85.34,1,1,0,0,0-.61.89.87.87,0,0,0,.66.86,10.74,10.74,0,0,0,2.13.47,26.34,26.34,0,0,1,2.66.58,4,4,0,0,1,1.8,1.13,3.18,3.18,0,0,1,.77,2.27,3.51,3.51,0,0,1-.74,2.19,4.79,4.79,0,0,1-2.16,1.5,9.73,9.73,0,0,1-3.37.53A12.94,12.94,0,0,1,233.69,150.41Z"/><path class="cls-2" d="M258.49,145.07H248.44a3.13,3.13,0,0,0,1.29,2,4.27,4.27,0,0,0,2.51.71,5,5,0,0,0,1.84-.31,4.48,4.48,0,0,0,1.5-1l2,2.22a6.88,6.88,0,0,1-5.48,2.15,8.72,8.72,0,0,1-4-.88,6.34,6.34,0,0,1-2.66-2.43,6.66,6.66,0,0,1-.94-3.53,6.87,6.87,0,0,1,.92-3.52A6.58,6.58,0,0,1,248,138a7.92,7.92,0,0,1,7.14,0,6.18,6.18,0,0,1,2.48,2.41,7.2,7.2,0,0,1,.9,3.64C258.56,144.08,258.54,144.43,258.49,145.07Zm-9-4.27a3.2,3.2,0,0,0-1.09,2h6.54a3.17,3.17,0,0,0-1.08-2,3.58,3.58,0,0,0-4.37,0Z"/><path class="cls-2" d="M274.65,132.31v18.31H271v-1.53a5.07,5.07,0,0,1-4.14,1.73,6.94,6.94,0,0,1-3.4-.84,6,6,0,0,1-2.38-2.4,8,8,0,0,1,0-7.2,6,6,0,0,1,2.38-2.4,7,7,0,0,1,3.4-.83,5,5,0,0,1,4,1.6v-6.44Zm-4.74,14.35a4.19,4.19,0,0,0,0-5.36,3.45,3.45,0,0,0-4.86,0,4.22,4.22,0,0,0,0,5.36,3.45,3.45,0,0,0,4.86,0Z"/><path class="cls-2" d="M287.79,149.94a6.46,6.46,0,0,1-2.64-2.43,6.69,6.69,0,0,1,2.64-9.49,8.22,8.22,0,0,1,3.81-.87,7.46,7.46,0,0,1,3.67.87,5.25,5.25,0,0,1,2.28,2.51l-3,1.6a3.28,3.28,0,0,0-3-1.83,3.38,3.38,0,0,0-2.49,1,4.15,4.15,0,0,0,0,5.38,3.38,3.38,0,0,0,2.49,1,3.24,3.24,0,0,0,3-1.83l3,1.63a5.34,5.34,0,0,1-2.28,2.47,7.36,7.36,0,0,1-3.67.89A8.23,8.23,0,0,1,287.79,149.94Z"/><path class="cls-2" d="M299.67,132.31h3.85v18.31h-3.85Z"/><path class="cls-2" d="M307.3,134.88a2.09,2.09,0,0,1,0-3.07,2.44,2.44,0,0,1,1.73-.61,2.51,2.51,0,0,1,1.72.59,1.89,1.89,0,0,1,.67,1.48,2.08,2.08,0,0,1-.67,1.59,2.4,2.4,0,0,1-1.72.63A2.44,2.44,0,0,1,307.3,134.88Zm-.2,2.46H311v13.28H307.1Z"/><path class="cls-2" d="M317.13,149.94a6.46,6.46,0,0,1-2.64-2.43,6.69,6.69,0,0,1,2.64-9.49,8.23,8.23,0,0,1,3.82-.87,7.45,7.45,0,0,1,3.66.87,5.2,5.2,0,0,1,2.28,2.51l-3,1.6a3.28,3.28,0,0,0-3-1.83,3.38,3.38,0,0,0-2.49,1,4.15,4.15,0,0,0,0,5.38,3.38,3.38,0,0,0,2.49,1,3.24,3.24,0,0,0,3-1.83l3,1.63a5.29,5.29,0,0,1-2.28,2.47,7.35,7.35,0,0,1-3.66.89A8.24,8.24,0,0,1,317.13,149.94Z"/><path class="cls-2" d="M334.71,145.41l-1.85,1.83v3.38H329V132.31h3.85v10.36l5.63-5.33h4.59L337.55,143l6,7.65h-4.66Z"/><path class="cls-2" d="M357.67,145.07H347.62a3.15,3.15,0,0,0,1.28,2,4.33,4.33,0,0,0,2.52.71,5,5,0,0,0,1.84-.31,4.44,4.44,0,0,0,1.49-1l2.05,2.22a6.9,6.9,0,0,1-5.48,2.15,8.72,8.72,0,0,1-4-.88,6.42,6.42,0,0,1-2.67-2.43,6.74,6.74,0,0,1-.93-3.53,6.87,6.87,0,0,1,.92-3.52,6.62,6.62,0,0,1,2.54-2.44,7.94,7.94,0,0,1,7.15,0,6.18,6.18,0,0,1,2.48,2.41,7.2,7.2,0,0,1,.9,3.64C357.74,144.08,357.71,144.43,357.67,145.07Zm-9-4.27a3.16,3.16,0,0,0-1.09,2h6.54a3.17,3.17,0,0,0-1.08-2,3.58,3.58,0,0,0-4.37,0Z"/><path class="cls-2" d="M365.85,137.64a6.88,6.88,0,0,1,2.7-.49v3.55l-.87,0a3.53,3.53,0,0,0-2.59.93,3.74,3.74,0,0,0-.93,2.77v6.27H360.3V137.34H364v1.76A4.2,4.2,0,0,1,365.85,137.64Z"/></g></g></svg>