<?xml version="1.0" standalone="no"?>
<!DOCTYPE svg PUBLIC "-//W3C//DTD SVG 20010904//EN"
 "http://www.w3.org/TR/2001/REC-SVG-20010904/DTD/svg10.dtd">
<svg version="1.0" xmlns="http://www.w3.org/2000/svg"
 width="261.000000pt" height="261.000000pt" viewBox="0 0 261.000000 261.000000"
 preserveAspectRatio="xMidYMid meet">
<metadata>
Created by potrace 1.11, written by Peter Selinger 2001-2013
</metadata>
<g transform="translate(0.000000,261.000000) scale(0.100000,-0.100000)"
fill="#000000" stroke="none">
<path d="M10 1310 l0 -1300 1300 0 1300 0 0 1300 0 1300 -435 0 -435 0 0 -212
0 -213 -215 215 -215 215 -215 -215 -215 -215 0 213 0 212 -435 0 -435 0 0
-1300z m1080 645 l205 -205 -208 0 -207 0 0 205 c0 113 1 205 3 205 1 0 94
-92 207 -205z m650 0 l0 -205 -207 0 -208 0 205 205 c113 113 206 205 207 205
2 0 3 -92 3 -205z m860 -218 c0 -1 -191 -193 -425 -427 l-425 -425 0 428 0
427 425 0 c234 0 425 -1 425 -3z"/>
</g>
</svg>
