<svg xmlns="http://www.w3.org/2000/svg" viewBox="0 0 175.4 23.0">
  <path fill="#b8b0a5" d="M8.431034482758621 13.172413793103448 6.913793103448276 8.844827586206897 5.396551724137931 13.172413793103448ZM9.327586206896552 15.741379310344827H4.5L3.7241379310344827 18.0H0.12068965517241378L5.068965517241379 5.0H8.758620689655173L13.706896551724137 18.0H10.10344827586207Z M21.680689655172415 7.862068965517242V18.0H18.301379310344828V7.862068965517242H15.52551724137931V5.0H24.45655172413793V7.862068965517242Z M30.895862068965513 5.0V15.137931034482758H34.947586206896545V18.0H27.51655172413793V5.0Z M45.317931034482754 13.172413793103448 43.80068965517241 8.844827586206897 42.283448275862064 13.172413793103448ZM46.21448275862069 15.741379310344827H41.386896551724135L40.61103448275862 18.0H37.00758620689655L41.955862068965516 5.0H45.64551724137931L50.59379310344827 18.0H46.990344827586206Z M60.774482758620685 8.327586206896552Q60.22275862068965 7.879310344827587 59.671034482758614 7.663793103448277Q59.11931034482758 7.448275862068966 58.60206896551723 7.448275862068966Q57.94689655172414 7.448275862068966 57.53310344827586 7.758620689655173Q57.11931034482758 8.068965517241379 57.11931034482758 8.568965517241379Q57.11931034482758 8.913793103448276 57.326206896551724 9.137931034482758Q57.53310344827586 9.362068965517242 57.86931034482758 9.525862068965518Q58.205517241379304 9.689655172413794 58.627931034482756 9.810344827586206Q59.0503448275862 9.931034482758621 59.46413793103448 10.068965517241379Q61.11931034482758 10.620689655172413 61.88655172413793 11.543103448275861Q62.65379310344827 12.46551724137931 62.65379310344827 13.948275862068964Q62.65379310344827 14.948275862068966 62.31758620689655 15.758620689655174Q61.98137931034482 16.56896551724138 61.33482758620689 17.146551724137932Q60.68827586206896 17.724137931034484 59.74862068965517 18.043103448275865Q58.808965517241376 18.362068965517242 57.61931034482758 18.362068965517242Q55.15379310344827 18.362068965517242 53.0503448275862 16.896551724137932L54.49862068965517 14.172413793103448Q55.257241379310344 14.844827586206897 55.99862068965517 15.172413793103448Q56.739999999999995 15.5 57.46413793103448 15.5Q58.29172413793103 15.5 58.69689655172413 15.120689655172413Q59.10206896551723 14.741379310344827 59.10206896551723 14.258620689655173Q59.10206896551723 13.96551724137931 58.99862068965517 13.75Q58.8951724137931 13.53448275862069 58.65379310344827 13.35344827586207Q58.41241379310345 13.172413793103448 58.024482758620685 13.017241379310345Q57.636551724137924 12.862068965517242 57.08482758620689 12.672413793103448Q56.42965517241379 12.46551724137931 55.8003448275862 12.21551724137931Q55.171034482758614 11.96551724137931 54.67965517241379 11.551724137931034Q54.18827586206896 11.137931034482758 53.88655172413793 10.508620689655173Q53.58482758620689 9.879310344827587 53.58482758620689 8.913793103448276Q53.58482758620689 7.948275862068966 53.90379310344827 7.163793103448277Q54.22275862068965 6.379310344827587 54.8003448275862 5.81896551724138Q55.377931034482756 5.258620689655173 56.21413793103448 4.948275862068965Q57.0503448275862 4.637931034482758 58.08482758620689 4.637931034482758Q59.0503448275862 4.637931034482758 60.10206896551723 4.905172413793103Q61.15379310344827 5.172413793103448 62.11931034482758 5.689655172413794Z M100.14827586206897 18.0 102.3551724137931 5.0H105.7L108.30344827586207 11.931034482758621L110.8896551724138 5.0H114.23448275862069L116.44137931034483 18.0H113.07931034482759L111.95862068965518 10.517241379310345L108.8896551724138 18.0H107.54482758620689L104.63103448275862 10.517241379310345L103.51034482758621 18.0Z M123.51862068965517 5.0V12.068965517241379Q123.51862068965517 12.637931034482758 123.56172413793104 13.232758620689655Q123.6048275862069 13.827586206896552 123.82034482758621 14.310344827586206Q124.03586206896551 14.793103448275861 124.50137931034482 15.094827586206897Q124.96689655172413 15.39655172413793 125.81172413793102 15.39655172413793Q126.65655172413793 15.39655172413793 127.11344827586205 15.094827586206897Q127.5703448275862 14.793103448275861 127.79448275862069 14.310344827586206Q128.01862068965517 13.827586206896552 128.06172413793104 13.232758620689655Q128.10482758620688 12.637931034482758 128.10482758620688 12.068965517241379V5.0H131.46689655172412V12.53448275862069Q131.46689655172412 15.568965517241379 130.0789655172414 16.96551724137931Q128.69103448275862 18.362068965517242 125.81172413793102 18.362068965517242Q122.93241379310345 18.362068965517242 121.53586206896551 16.96551724137931Q120.13931034482758 15.568965517241379 120.13931034482758 12.53448275862069V5.0Z M135.75103448275863 18.0V5.0H139.1303448275862L145.37172413793104 12.948275862068964V5.0H148.73379310344828V18.0H145.37172413793104L139.1303448275862 10.051724137931036V18.0Z M156.39724137931034 15.137931034482758H157.17310344827587Q158.05241379310345 15.137931034482758 158.74206896551726 14.862068965517242Q159.43172413793104 14.586206896551724 159.90586206896552 14.103448275862068Q160.38 13.620689655172413 160.63 12.956896551724137Q160.88 12.293103448275861 160.88 11.5Q160.88 10.724137931034484 160.62137931034482 10.051724137931036Q160.36275862068965 9.379310344827587 159.88862068965517 8.896551724137932Q159.4144827586207 8.413793103448276 158.7248275862069 8.137931034482758Q158.0351724137931 7.862068965517242 157.17310344827587 7.862068965517242H156.39724137931034ZM153.01793103448276 5.0H158.01793103448276Q159.3455172413793 5.0 160.50931034482758 5.5344827586206895Q161.67310344827587 6.068965517241379 162.54379310344828 6.956896551724138Q163.4144827586207 7.844827586206897 163.9144827586207 9.025862068965518Q164.4144827586207 10.206896551724139 164.4144827586207 11.5Q164.4144827586207 12.775862068965516 163.92310344827587 13.956896551724137Q163.43172413793104 15.137931034482758 162.56103448275863 16.03448275862069Q161.69034482758622 16.93103448275862 160.52655172413793 17.46551724137931Q159.36275862068965 18.0 158.01793103448276 18.0H153.01793103448276Z M171.5089655172414 5.0V18.0H168.1296551724138V5.0Z"/>
  <g transform="translate(82.2 10.0)" fill="none" stroke="#b8b0a5" stroke-width="1.05" opacity="0.88">
    <circle r="9.2"/>
    <ellipse rx="4.2" ry="9.2"/>
    <ellipse rx="7.2" ry="9.2"/>
    <path d="M-8.2 -3.1c2.1 1.1 5 1.7 8.2 1.7s6.1-.6 8.2-1.7"/>
    <path d="M-8.2 3.1c2.1-1.1 5-1.7 8.2-1.7s6.1.6 8.2 1.7"/>
  </g>
</svg>