<svg xmlns="http://www.w3.org/2000/svg" viewBox="0 0 463.18 412.43"><defs><style>.cls-1{fill:#f56565;}.cls-2{fill:#ed8936;}.cls-3{fill:#ecc94a;}.cls-4{fill:#c0a2f6;}</style></defs><g id="Layer_2" data-name="Layer 2"><g id="Layer_1-2" data-name="Layer 1"><path class="cls-1" d="M12.22,325.51H451a12.22,12.22,0,0,1,12.22,12.22v74.7a0,0,0,0,1,0,0H0a0,0,0,0,1,0,0v-74.7A12.22,12.22,0,0,1,12.22,325.51Z"/><rect class="cls-2" y="217.01" width="463.18" height="86.92" rx="12.22"/><rect class="cls-3" y="108.5" width="463.18" height="86.92" rx="12.22"/><path class="cls-4" d="M0,0H463.18a0,0,0,0,1,0,0V74.7A12.22,12.22,0,0,1,451,86.92H12.22A12.22,12.22,0,0,1,0,74.7V0A0,0,0,0,1,0,0Z"/></g></g></svg>