<svg overflow="visible" style="display: block;" viewBox="0 0 286.025 254" fill="none" xmlns="http://www.w3.org/2000/svg">
<g id="Layer 1">
<path id="Vector" d="M7.54549 200.469H278.479C280.48 200.469 282.4 201.262 283.815 202.674C285.23 204.085 286.025 205.999 286.025 207.995V254H0V207.995C0 205.999 0.794969 204.085 2.21002 202.674C3.62508 201.262 5.5443 200.469 7.54549 200.469Z" fill="var(--fill-0, #F56565)"/>
<path id="Vector_2" d="M0 0H286V46.0049C286 47.9966 285.208 49.9071 283.799 51.3178C282.389 52.7284 280.476 53.5242 278.479 53.5307H7.54549C5.5443 53.5307 3.62508 52.7378 2.21002 51.3265C0.794969 49.9151 0 48.0009 0 46.0049L0 0Z" fill="var(--fill-0, #C0A2F6)"/>
</g>
</svg>
