<svg overflow="visible" style="display: block;" viewBox="0 0 318 127" fill="none" xmlns="http://www.w3.org/2000/svg">
<g id="Layer 1">
<path id="Vector" d="M11.6511 26.6676C16.1368 22.0473 21.8469 19.735 28.7815 19.7309C38.0578 19.7309 44.8399 22.8312 49.1276 29.0318C51.4983 32.5209 52.7702 36.0184 52.9433 39.5241H41.2984C40.5563 36.8293 39.606 34.7957 38.4474 33.4234C36.386 30.978 33.3125 29.7575 29.2267 29.7616C27.2886 29.7083 25.3691 30.1553 23.6504 31.0604C21.9317 31.9654 20.4707 33.2985 19.4062 34.933C17.0149 38.3763 15.8172 43.2524 15.8131 49.5611C15.809 55.8699 17.0726 60.592 19.6041 63.7277C20.7332 65.2179 22.1931 66.4202 23.8664 67.2381C25.5397 68.0561 27.3799 68.4668 29.2391 68.4374C33.2341 68.4374 36.2788 67.09 38.3732 64.3952C39.5359 62.9479 40.4985 60.7729 41.2613 57.8702H52.832C51.8301 64.0001 49.2802 68.9905 45.1821 72.8414C41.084 76.6924 35.8294 78.6116 29.4184 78.5991C21.4861 78.5991 15.2503 76.0062 10.7111 70.8203C6.17187 65.6344 3.90432 58.4898 3.90844 49.3865C3.90844 39.5595 6.48933 31.9865 11.6511 26.6676Z" fill="var(--fill-0, #C0A2F6)"/>
<path id="Vector_2" d="M90.995 35.669C93.0324 36.5375 94.7964 37.9502 96.097 39.7549C97.161 41.159 97.87 42.8033 98.1625 44.5458C98.4698 47.2121 98.5958 49.8966 98.5397 52.5803V77.0147H87.538V51.6945C87.6174 49.8211 87.2305 47.9575 86.4124 46.2737C85.4353 44.3399 83.58 43.373 80.8466 43.373C78.0225 43.373 75.8765 44.3337 74.4088 46.255C72.9411 48.1763 72.2093 50.9189 72.2134 54.4829V77.0147H61.4528V20.9847H72.2258V40.8217C73.5135 38.6509 75.3886 36.8958 77.6308 35.7626C79.6573 34.805 81.8679 34.3088 84.1057 34.3092C86.4695 34.2892 88.813 34.7517 90.995 35.669Z" fill="var(--fill-0, #F6AD54)"/>
<path id="Vector_3" d="M131.57 34.4713L132.491 34.5275V45.6624C131.811 45.5875 131.211 45.5376 130.679 45.5126C130.147 45.4877 129.721 45.469 129.393 45.469C125.06 45.469 122.149 46.8933 120.661 49.742C119.836 51.3473 119.424 53.8134 119.424 57.1403V77.0147H108.558V35.4445H118.843V42.6868C120.492 39.9171 121.935 38.0229 123.172 37.004C125.188 35.3031 127.81 34.4526 131.038 34.4526C131.261 34.4526 131.428 34.4589 131.57 34.4713Z" fill="var(--fill-0, #ECC94A)"/>
<path id="Vector_4" d="M173.159 71.9245C169.679 76.2578 164.398 78.4245 157.315 78.4245C150.232 78.4245 144.957 76.2578 141.489 71.9245C138.014 67.5953 136.276 62.3824 136.276 56.2857C136.159 50.6333 138.003 45.1172 141.489 40.6907C144.969 36.2991 150.25 34.1033 157.333 34.1033C164.416 34.1033 169.692 36.3012 173.159 40.6969C176.645 45.1234 178.489 50.6396 178.372 56.292C178.385 62.3844 176.647 67.5953 173.159 71.9245ZM164.538 65.9172C166.228 63.6591 167.074 60.4486 167.074 56.2857C167.074 52.1229 166.228 48.9165 164.538 46.6667C162.852 44.421 160.432 43.2982 157.278 43.2982C154.124 43.2982 151.697 44.421 149.999 46.6667C148.3 48.9124 147.449 52.1187 147.445 56.2857C147.441 60.4527 148.292 63.6632 149.999 65.9172C151.702 68.1754 154.128 69.3066 157.278 69.3107C160.428 69.3149 162.854 68.1837 164.557 65.9172H164.538Z" fill="var(--fill-0, #ED64A6)"/>
<path id="Vector_5" d="M237.524 35.5942C239.371 36.3866 240.993 37.632 242.241 39.217C243.49 40.8021 244.326 42.6767 244.673 44.6705C244.969 46.7024 245.095 48.7556 245.051 50.8087L244.976 77.0085H233.938V50.528C233.987 49.1886 233.726 47.856 233.177 46.6355C232.22 44.7017 230.456 43.7348 227.883 43.7348C224.907 43.7348 222.845 44.9824 221.699 47.4776C221.082 48.9896 220.785 50.6151 220.827 52.2497V77.0022H210.005V52.2622C210.005 49.7919 209.751 47.9995 209.244 46.885C208.341 44.8764 206.564 43.8721 203.913 43.8721C200.837 43.8721 198.776 44.8764 197.729 46.885C197.148 48.0287 196.857 49.7316 196.857 51.994V77.0147H185.917V35.5193H196.393V41.5827C197.379 39.8355 198.657 38.2738 200.172 36.9666C202.262 35.3405 204.971 34.5275 208.298 34.5275C211.452 34.5275 213.998 35.2261 215.935 36.6235C217.524 37.9529 218.748 39.6711 219.491 41.6139C220.714 39.3639 222.535 37.502 224.748 36.2367C227.049 35.0706 229.594 34.4821 232.169 34.5212C234.006 34.5295 235.824 34.8937 237.524 35.5942Z" fill="var(--fill-0, #ED8936)"/>
<path id="Vector_6" d="M265.96 77.0147H255.18V20.7976H265.96V77.0147Z" fill="var(--fill-0, #76E4F7)"/>
<path id="Vector_7" d="M303.325 36.2866C306.231 37.6032 308.703 39.7309 310.449 42.4186C312.177 44.999 313.298 47.9433 313.727 51.0271C314.056 53.7584 314.176 56.5113 314.085 59.2613H284.067C284.236 63.4199 285.679 66.3435 288.396 68.0319C290.189 69.1125 292.251 69.6535 294.339 69.5914C296.489 69.7005 298.608 69.0375 300.319 67.72C301.243 66.9261 301.998 65.9523 302.539 64.8568H313.541C313.248 67.327 311.917 69.8222 309.546 72.3424C305.836 76.3846 300.668 78.4058 294.042 78.4058C288.758 78.4745 283.62 76.6634 279.528 73.2906C275.335 69.8805 273.238 64.3328 273.238 56.6475C273.238 49.4447 275.131 43.922 278.916 40.0793C282.7 36.2367 287.606 34.3133 293.634 34.3092C296.967 34.2638 300.271 34.9381 303.325 36.2866ZM287.202 45.6436C285.589 47.4231 284.584 49.6771 284.333 52.0751H302.886C302.688 49.1931 301.731 47.0035 300.016 45.5064C298.231 43.9901 295.954 43.1925 293.622 43.267C290.864 43.2878 288.724 44.0904 287.202 45.6748V45.6436Z" fill="var(--fill-0, #F56565)"/>
<g id="Vector_8">
</g>
<g id="guess today&#226;&#128;&#153;s #colour!">
<path id="Vector_9" d="M239.589 92.7616H241.212V96.6558L240.82 101.784H240.005L239.589 96.6558V92.7616ZM239.589 102.928H241.18V104.605H239.589V102.928Z" fill="var(--fill-0, #ED64A6)"/>
<path id="Vector_10" d="M233.339 95.9705H234.706V97.4621C234.818 97.1718 235.092 96.8198 235.529 96.4059C235.966 95.9866 236.47 95.777 237.04 95.777C237.066 95.777 237.112 95.7797 237.176 95.7851C237.24 95.7905 237.349 95.8012 237.503 95.8173V97.3492C237.418 97.3331 237.338 97.3223 237.264 97.317C237.194 97.3116 237.117 97.3089 237.032 97.3089C236.307 97.3089 235.75 97.5454 235.361 98.0184C234.972 98.486 234.778 99.0262 234.778 99.639V104.605H233.339V95.9705Z" fill="var(--fill-0, #ED64A6)"/>
<path id="Vector_11" d="M225.626 95.9705V101.703C225.626 102.144 225.695 102.504 225.834 102.783C226.089 103.299 226.566 103.557 227.264 103.557C228.266 103.557 228.948 103.106 229.31 102.203C229.508 101.719 229.606 101.055 229.606 100.211V95.9705H231.045V104.605H229.686L229.702 103.332C229.516 103.659 229.284 103.936 229.007 104.162C228.458 104.614 227.792 104.839 227.008 104.839C225.788 104.839 224.957 104.428 224.515 103.606C224.275 103.165 224.155 102.576 224.155 101.84V95.9705H225.626Z" fill="var(--fill-0, #ED64A6)"/>
<path id="Vector_12" d="M218.472 103.67C219.426 103.67 220.079 103.307 220.43 102.582C220.787 101.851 220.966 101.039 220.966 100.147C220.966 99.3407 220.838 98.6849 220.582 98.1797C220.177 97.3841 219.479 96.9864 218.488 96.9864C217.609 96.9864 216.969 97.325 216.57 98.0023C216.17 98.6795 215.97 99.4965 215.97 100.453C215.97 101.372 216.17 102.138 216.57 102.751C216.969 103.364 217.603 103.67 218.472 103.67ZM218.528 95.7206C219.631 95.7206 220.563 96.0915 221.325 96.8332C222.087 97.575 222.468 98.6661 222.468 100.107C222.468 101.499 222.133 102.649 221.461 103.557C220.79 104.466 219.748 104.92 218.336 104.92C217.158 104.92 216.223 104.519 215.53 103.719C214.838 102.912 214.491 101.832 214.491 100.477C214.491 99.0262 214.856 97.8706 215.586 97.0106C216.316 96.1506 217.297 95.7206 218.528 95.7206Z" fill="var(--fill-0, #ED64A6)"/>
<path id="Vector_13" d="M211.47 92.7616H212.909V104.605H211.47V92.7616Z" fill="var(--fill-0, #ED64A6)"/>
<path id="Vector_14" d="M205.715 103.67C206.669 103.67 207.322 103.307 207.673 102.582C208.03 101.851 208.209 101.039 208.209 100.147C208.209 99.3407 208.081 98.6849 207.825 98.1797C207.42 97.3841 206.722 96.9864 205.731 96.9864C204.852 96.9864 204.212 97.325 203.813 98.0023C203.413 98.6795 203.213 99.4965 203.213 100.453C203.213 101.372 203.413 102.138 203.813 102.751C204.212 103.364 204.847 103.67 205.715 103.67ZM205.771 95.7206C206.874 95.7206 207.807 96.0915 208.569 96.8332C209.331 97.575 209.712 98.6661 209.712 100.107C209.712 101.499 209.376 102.649 208.704 103.557C208.033 104.466 206.991 104.92 205.579 104.92C204.402 104.92 203.466 104.519 202.774 103.719C202.081 102.912 201.735 101.832 201.735 100.477C201.735 99.0262 202.1 97.8706 202.83 97.0106C203.56 96.1506 204.54 95.7206 205.771 95.7206Z" fill="var(--fill-0, #ED64A6)"/>
<path id="Vector_15" d="M197.434 95.7206C198.399 95.7206 199.182 95.9571 199.784 96.4301C200.392 96.9031 200.757 97.7174 200.879 98.873H199.481C199.395 98.3409 199.201 97.9002 198.897 97.5508C198.593 97.196 198.106 97.0186 197.434 97.0186C196.518 97.0186 195.862 97.4701 195.468 98.3732C195.212 98.959 195.084 99.682 195.084 100.542C195.084 101.407 195.266 102.136 195.628 102.727C195.99 103.318 196.56 103.614 197.338 103.614C197.935 103.614 198.407 103.431 198.753 103.066C199.105 102.695 199.347 102.189 199.481 101.55H200.879C200.719 102.695 200.32 103.533 199.68 104.065C199.041 104.592 198.223 104.855 197.227 104.855C196.107 104.855 195.215 104.444 194.549 103.622C193.883 102.794 193.55 101.762 193.55 100.526C193.55 99.0101 193.915 97.8303 194.645 96.9864C195.375 96.1425 196.305 95.7206 197.434 95.7206Z" fill="var(--fill-0, #ED64A6)"/>
<path id="Vector_16" d="M184.206 100.082H186.068L186.82 97.3089H184.965L185.213 96.3736H187.067L188.019 92.7616H189.21L188.242 96.3736H190.009L190.992 92.7616H192.167L191.2 96.3736H193.054L192.806 97.3089H190.952L190.193 100.082H192.055L191.807 101.018H189.969L188.986 104.605H187.811L188.778 101.018H186.995L186.044 104.605H184.853L185.82 101.018H183.966L184.206 100.082ZM189.002 100.082L189.761 97.3089H187.995L187.259 100.082H189.002Z" fill="var(--fill-0, #ED64A6)"/>
<path id="Vector_17" d="M173.136 101.896C173.178 102.38 173.298 102.751 173.495 103.009C173.858 103.477 174.486 103.711 175.382 103.711C175.914 103.711 176.383 103.595 176.788 103.364C177.193 103.127 177.396 102.765 177.396 102.275C177.396 101.905 177.233 101.622 176.908 101.429C176.7 101.311 176.29 101.174 175.677 101.018L174.534 100.727C173.804 100.545 173.266 100.34 172.92 100.115C172.302 99.7223 171.993 99.1794 171.993 98.486C171.993 97.669 172.283 97.0079 172.864 96.5026C173.45 95.9974 174.236 95.7448 175.222 95.7448C176.511 95.7448 177.441 96.1264 178.011 96.8896C178.368 97.3734 178.542 97.8948 178.531 98.4538H177.172C177.145 98.1259 177.031 97.8276 176.828 97.5588C176.498 97.1772 175.925 96.9864 175.11 96.9864C174.566 96.9864 174.153 97.0912 173.871 97.3008C173.594 97.5105 173.455 97.7873 173.455 98.1313C173.455 98.5075 173.639 98.8085 174.007 99.0343C174.22 99.1687 174.534 99.2869 174.95 99.389L175.901 99.6228C176.935 99.8755 177.628 100.12 177.979 100.357C178.539 100.727 178.819 101.311 178.819 102.106C178.819 102.875 178.528 103.539 177.947 104.098C177.372 104.657 176.493 104.936 175.31 104.936C174.036 104.936 173.133 104.646 172.6 104.065C172.072 103.479 171.79 102.756 171.753 101.896H173.136Z" fill="var(--fill-0, black)"/>
<path id="Vector_18" d="M169.227 96.2043C169.52 96.156 169.741 95.9893 169.89 95.7045C170.045 95.4196 170.122 95.0917 170.122 94.7208C170.122 94.6832 170.12 94.6509 170.114 94.6241C170.114 94.5918 170.109 94.5569 170.098 94.5193H169.227V92.7616H170.937V94.3822C170.937 95.0702 170.796 95.6561 170.514 96.1398C170.231 96.6182 169.802 96.8923 169.227 96.9622V96.2043Z" fill="var(--fill-0, black)"/>
<path id="Vector_19" d="M166.086 95.9705H167.676C167.474 96.5241 167.024 97.7873 166.326 99.7599C165.803 101.243 165.366 102.453 165.015 103.388C164.183 105.592 163.597 106.936 163.256 107.419C162.915 107.903 162.329 108.145 161.498 108.145C161.295 108.145 161.138 108.137 161.026 108.121C160.92 108.105 160.786 108.075 160.627 108.032V106.71C160.877 106.78 161.058 106.823 161.17 106.839C161.282 106.855 161.381 106.863 161.466 106.863C161.732 106.863 161.927 106.817 162.049 106.726C162.177 106.64 162.284 106.532 162.369 106.403C162.396 106.36 162.492 106.14 162.657 105.742C162.822 105.345 162.942 105.049 163.016 104.855L159.851 95.9705H161.482L163.776 103.001L166.086 95.9705Z" fill="var(--fill-0, black)"/>
<path id="Vector_20" d="M152.729 102.308C152.729 102.727 152.881 103.057 153.185 103.299C153.489 103.541 153.848 103.662 154.264 103.662C154.77 103.662 155.261 103.544 155.735 103.307C156.534 102.915 156.934 102.273 156.934 101.38V100.211C156.758 100.324 156.531 100.418 156.254 100.494C155.977 100.569 155.705 100.623 155.439 100.655L154.568 100.768C154.046 100.838 153.654 100.948 153.393 101.098C152.951 101.351 152.729 101.754 152.729 102.308ZM156.214 99.3729C156.545 99.3299 156.766 99.1902 156.878 98.9537C156.942 98.8247 156.974 98.6392 156.974 98.3973C156.974 97.9028 156.798 97.5454 156.446 97.325C156.1 97.0993 155.602 96.9864 154.951 96.9864C154.2 96.9864 153.667 97.1907 153.353 97.5992C153.177 97.8249 153.062 98.1608 153.009 98.607H151.666C151.693 97.5427 152.034 96.8036 152.689 96.3898C153.35 95.9705 154.115 95.7609 154.983 95.7609C155.991 95.7609 156.808 95.9544 157.437 96.3414C158.061 96.7284 158.372 97.3304 158.372 98.1474V103.122C158.372 103.272 158.402 103.393 158.46 103.485C158.524 103.576 158.655 103.622 158.852 103.622C158.916 103.622 158.988 103.619 159.068 103.614C159.148 103.603 159.233 103.59 159.324 103.573V104.646C159.1 104.71 158.929 104.751 158.812 104.767C158.695 104.783 158.535 104.791 158.332 104.791C157.837 104.791 157.477 104.614 157.253 104.259C157.136 104.071 157.054 103.805 157.006 103.461C156.713 103.848 156.292 104.184 155.743 104.468C155.194 104.753 154.589 104.896 153.928 104.896C153.134 104.896 152.484 104.654 151.978 104.17C151.477 103.681 151.227 103.071 151.227 102.34C151.227 101.539 151.474 100.918 151.97 100.477C152.466 100.037 153.116 99.7653 153.92 99.6632L156.214 99.3729Z" fill="var(--fill-0, black)"/>
<path id="Vector_21" d="M143.426 100.389C143.426 101.313 143.62 102.087 144.009 102.711C144.398 103.334 145.021 103.646 145.879 103.646C146.545 103.646 147.092 103.358 147.518 102.783C147.95 102.203 148.165 101.372 148.165 100.292C148.165 99.2009 147.944 98.3947 147.502 97.8733C147.06 97.3465 146.514 97.0831 145.863 97.0831C145.139 97.0831 144.55 97.3627 144.097 97.9217C143.649 98.4807 143.426 99.303 143.426 100.389ZM145.592 95.8173C146.247 95.8173 146.796 95.9571 147.238 96.2366C147.494 96.3978 147.784 96.68 148.109 97.0831V92.7213H149.492V104.605H148.197V103.404C147.862 103.936 147.465 104.321 147.006 104.557C146.548 104.794 146.023 104.912 145.432 104.912C144.478 104.912 143.652 104.509 142.954 103.702C142.256 102.891 141.907 101.813 141.907 100.469C141.907 99.2117 142.224 98.1232 142.858 97.2041C143.497 96.2796 144.409 95.8173 145.592 95.8173Z" fill="var(--fill-0, black)"/>
<path id="Vector_22" d="M136.799 103.67C137.753 103.67 138.406 103.307 138.758 102.582C139.115 101.851 139.293 101.039 139.293 100.147C139.293 99.3407 139.165 98.6849 138.909 98.1797C138.504 97.3841 137.806 96.9864 136.815 96.9864C135.936 96.9864 135.297 97.325 134.897 98.0023C134.497 98.6795 134.298 99.4965 134.298 100.453C134.298 101.372 134.497 102.138 134.897 102.751C135.297 103.364 135.931 103.67 136.799 103.67ZM136.855 95.7206C137.958 95.7206 138.891 96.0915 139.653 96.8332C140.415 97.575 140.796 98.6661 140.796 100.107C140.796 101.499 140.46 102.649 139.789 103.557C139.117 104.466 138.076 104.92 136.663 104.92C135.486 104.92 134.551 104.519 133.858 103.719C133.165 102.912 132.819 101.832 132.819 100.477C132.819 99.0262 133.184 97.8706 133.914 97.0106C134.644 96.1506 135.624 95.7206 136.855 95.7206Z" fill="var(--fill-0, black)"/>
<path id="Vector_23" d="M129.134 93.5598H130.589V95.9705H131.956V97.1557H130.589V102.791C130.589 103.092 130.69 103.294 130.892 103.396C131.004 103.455 131.191 103.485 131.452 103.485C131.521 103.485 131.596 103.485 131.676 103.485C131.756 103.479 131.849 103.471 131.956 103.461V104.605C131.79 104.654 131.617 104.689 131.436 104.71C131.26 104.732 131.068 104.743 130.861 104.743C130.189 104.743 129.733 104.571 129.494 104.227C129.254 103.877 129.134 103.426 129.134 102.872V97.1557H127.975V95.9705H129.134V93.5598Z" fill="var(--fill-0, black)"/>
<path id="Vector_24" d="M116.961 101.896C117.003 102.38 117.123 102.751 117.32 103.009C117.683 103.477 118.311 103.711 119.207 103.711C119.74 103.711 120.208 103.595 120.613 103.364C121.018 103.127 121.221 102.765 121.221 102.275C121.221 101.905 121.058 101.622 120.733 101.429C120.526 101.311 120.115 101.174 119.502 101.018L118.359 100.727C117.629 100.545 117.091 100.34 116.745 100.115C116.127 99.7223 115.818 99.1794 115.818 98.486C115.818 97.669 116.108 97.0079 116.689 96.5026C117.275 95.9974 118.061 95.7448 119.047 95.7448C120.336 95.7448 121.266 96.1264 121.836 96.8896C122.193 97.3734 122.367 97.8948 122.356 98.4538H120.997C120.97 98.1259 120.856 97.8276 120.653 97.5588C120.323 97.1772 119.75 96.9864 118.935 96.9864C118.391 96.9864 117.978 97.0912 117.696 97.3008C117.419 97.5105 117.28 97.7873 117.28 98.1313C117.28 98.5075 117.464 98.8085 117.832 99.0343C118.045 99.1687 118.359 99.2869 118.775 99.389L119.726 99.6228C120.76 99.8755 121.453 100.12 121.804 100.357C122.364 100.727 122.644 101.311 122.644 102.106C122.644 102.875 122.353 103.539 121.772 104.098C121.197 104.657 120.318 104.936 119.135 104.936C117.861 104.936 116.958 104.646 116.425 104.065C115.898 103.479 115.615 102.756 115.578 101.896H116.961Z" fill="var(--fill-0, black)"/>
<path id="Vector_25" d="M108.776 101.896C108.818 102.38 108.938 102.751 109.136 103.009C109.498 103.477 110.127 103.711 111.022 103.711C111.555 103.711 112.024 103.595 112.429 103.364C112.834 103.127 113.036 102.765 113.036 102.275C113.036 101.905 112.874 101.622 112.549 101.429C112.341 101.311 111.93 101.174 111.318 101.018L110.175 100.727C109.445 100.545 108.906 100.34 108.56 100.115C107.942 99.7223 107.633 99.1794 107.633 98.486C107.633 97.669 107.923 97.0079 108.504 96.5026C109.09 95.9974 109.876 95.7448 110.862 95.7448C112.152 95.7448 113.081 96.1264 113.652 96.8896C114.009 97.3734 114.182 97.8948 114.171 98.4538H112.812C112.786 98.1259 112.671 97.8276 112.469 97.5588C112.138 97.1772 111.565 96.9864 110.75 96.9864C110.207 96.9864 109.794 97.0912 109.511 97.3008C109.234 97.5105 109.096 97.7873 109.096 98.1313C109.096 98.5075 109.279 98.8085 109.647 99.0343C109.86 99.1687 110.175 99.2869 110.59 99.389L111.541 99.6228C112.575 99.8755 113.268 100.12 113.62 100.357C114.179 100.727 114.459 101.311 114.459 102.106C114.459 102.875 114.168 103.539 113.588 104.098C113.012 104.657 112.133 104.936 110.95 104.936C109.676 104.936 108.773 104.646 108.24 104.065C107.713 103.479 107.43 102.756 107.393 101.896H108.776Z" fill="var(--fill-0, black)"/>
<path id="Vector_26" d="M102.373 95.777C102.981 95.777 103.57 95.9221 104.14 96.2124C104.71 96.4973 105.144 96.8681 105.443 97.325C105.73 97.7604 105.922 98.2683 106.018 98.8488C106.103 99.2466 106.146 99.8808 106.146 100.752H99.8716C99.8982 101.628 100.103 102.332 100.487 102.864C100.871 103.391 101.465 103.654 102.269 103.654C103.021 103.654 103.62 103.404 104.068 102.904C104.324 102.614 104.505 102.278 104.611 101.896H106.026C105.989 102.214 105.864 102.568 105.651 102.961C105.443 103.348 105.208 103.665 104.947 103.912C104.51 104.342 103.969 104.632 103.325 104.783C102.978 104.869 102.587 104.912 102.15 104.912C101.084 104.912 100.181 104.522 99.44 103.743C98.6993 102.958 98.3289 101.862 98.3289 100.453C98.3289 99.0665 98.7019 97.9405 99.448 97.0751C100.194 96.2097 101.169 95.777 102.373 95.777ZM104.667 99.5987C104.609 98.9698 104.473 98.4672 104.26 98.091C103.865 97.3922 103.207 97.0428 102.285 97.0428C101.625 97.0428 101.071 97.2847 100.623 97.7685C100.175 98.2468 99.9382 98.8569 99.9116 99.5987H104.667Z" fill="var(--fill-0, black)"/>
<path id="Vector_27" d="M91.1352 95.9705V101.703C91.1352 102.144 91.2045 102.504 91.3431 102.783C91.5988 103.299 92.0757 103.557 92.7738 103.557C93.7756 103.557 94.4577 103.106 94.82 102.203C95.0172 101.719 95.1158 101.055 95.1158 100.211V95.9705H96.5545V104.605H95.1957L95.2117 103.332C95.0252 103.659 94.7934 103.936 94.5163 104.162C93.9674 104.614 93.3013 104.839 92.518 104.839C91.2978 104.839 90.4665 104.428 90.0242 103.606C89.7844 103.165 89.6645 102.576 89.6645 101.84V95.9705H91.1352Z" fill="var(--fill-0, black)"/>
<path id="Vector_28" d="M83.6058 95.8173C84.2772 95.8173 84.8634 95.9839 85.3643 96.3172C85.636 96.5053 85.9131 96.7795 86.1955 97.1396V96.0511H87.5224V103.904C87.5224 105.001 87.3625 105.866 87.0428 106.5C86.446 107.672 85.319 108.258 83.6618 108.258C82.7399 108.258 81.9646 108.048 81.3358 107.629C80.707 107.215 80.3553 106.565 80.2807 105.678H81.7434C81.8127 106.065 81.9513 106.363 82.1591 106.573C82.4841 106.895 82.9957 107.056 83.6937 107.056C84.7968 107.056 85.5188 106.664 85.8598 105.879C86.0623 105.417 86.1556 104.592 86.1396 103.404C85.8518 103.845 85.5055 104.173 85.1005 104.388C84.6955 104.603 84.16 104.71 83.4939 104.71C82.5667 104.71 81.7541 104.38 81.056 103.719C80.3633 103.052 80.0169 101.953 80.0169 100.421C80.0169 98.9751 80.366 97.8464 81.064 97.0348C81.7674 96.2231 82.6147 95.8173 83.6058 95.8173ZM86.1955 100.252C86.1955 99.1821 85.9771 98.3893 85.5401 97.8733C85.1032 97.3573 84.5463 97.0993 83.8696 97.0993C82.8571 97.0993 82.1644 97.5776 81.7914 98.5344C81.5942 99.045 81.4957 99.7142 81.4957 100.542C81.4957 101.515 81.6901 102.257 82.0791 102.767C82.4735 103.272 83.001 103.525 83.6618 103.525C84.6955 103.525 85.4229 103.055 85.8439 102.114C86.0783 101.582 86.1955 100.961 86.1955 100.252Z" fill="var(--fill-0, black)"/>
</g>
</g>
</svg>
