<svg overflow="visible" style="display: block;" viewBox="0 0 318 80" fill="none" xmlns="http://www.w3.org/2000/svg">
<g id="Layer 1">
<path id="Vector" d="M11.6511 26.6676C16.1368 22.0473 21.8469 19.735 28.7815 19.7309C38.0578 19.7309 44.8399 22.8312 49.1276 29.0318C51.4983 32.5209 52.7702 36.0184 52.9433 39.5241H41.2984C40.5563 36.8293 39.606 34.7957 38.4474 33.4234C36.386 30.978 33.3125 29.7575 29.2267 29.7616C27.2886 29.7083 25.3691 30.1553 23.6504 31.0604C21.9317 31.9654 20.4707 33.2985 19.4062 34.933C17.0149 38.3763 15.8172 43.2524 15.8131 49.5611C15.809 55.8699 17.0726 60.592 19.6041 63.7277C20.7332 65.2179 22.1931 66.4202 23.8664 67.2381C25.5397 68.0561 27.3799 68.4668 29.2391 68.4374C33.2341 68.4374 36.2788 67.09 38.3732 64.3952C39.5359 62.9479 40.4985 60.7729 41.2613 57.8702H52.832C51.8301 64.0001 49.2802 68.9905 45.1821 72.8414C41.084 76.6924 35.8294 78.6116 29.4184 78.5991C21.4861 78.5991 15.2503 76.0062 10.7111 70.8203C6.17187 65.6344 3.90432 58.4898 3.90844 49.3865C3.90844 39.5595 6.48933 31.9865 11.6511 26.6676Z" fill="var(--fill-0, #C0A2F6)"/>
<path id="Vector_2" d="M90.995 35.669C93.0324 36.5375 94.7964 37.9502 96.097 39.7549C97.161 41.159 97.87 42.8033 98.1625 44.5458C98.4698 47.2121 98.5958 49.8966 98.5397 52.5803V77.0147H87.538V51.6945C87.6174 49.8211 87.2305 47.9575 86.4124 46.2737C85.4353 44.3399 83.58 43.373 80.8466 43.373C78.0225 43.373 75.8765 44.3337 74.4088 46.255C72.9411 48.1763 72.2093 50.9189 72.2134 54.4829V77.0147H61.4528V20.9847H72.2258V40.8217C73.5135 38.6509 75.3886 36.8958 77.6308 35.7626C79.6573 34.805 81.8679 34.3088 84.1057 34.3092C86.4695 34.2892 88.813 34.7517 90.995 35.669Z" fill="var(--fill-0, #F6AD54)"/>
<path id="Vector_3" d="M131.57 34.4713L132.491 34.5275V45.6624C131.811 45.5875 131.211 45.5376 130.679 45.5126C130.147 45.4877 129.721 45.469 129.393 45.469C125.06 45.469 122.149 46.8933 120.661 49.742C119.836 51.3473 119.424 53.8134 119.424 57.1403V77.0147H108.558V35.4445H118.843V42.6868C120.492 39.9171 121.935 38.0229 123.172 37.004C125.188 35.3031 127.81 34.4526 131.038 34.4526C131.261 34.4526 131.428 34.4589 131.57 34.4713Z" fill="var(--fill-0, #ECC94A)"/>
<path id="Vector_4" d="M173.159 71.9245C169.679 76.2578 164.398 78.4245 157.315 78.4245C150.232 78.4245 144.957 76.2578 141.489 71.9245C138.014 67.5953 136.276 62.3824 136.276 56.2857C136.159 50.6333 138.003 45.1172 141.489 40.6907C144.969 36.2991 150.25 34.1033 157.333 34.1033C164.416 34.1033 169.692 36.3012 173.159 40.6969C176.645 45.1234 178.489 50.6396 178.372 56.292C178.385 62.3844 176.647 67.5953 173.159 71.9245ZM164.538 65.9172C166.228 63.6591 167.074 60.4486 167.074 56.2857C167.074 52.1229 166.228 48.9165 164.538 46.6667C162.852 44.421 160.432 43.2982 157.278 43.2982C154.124 43.2982 151.697 44.421 149.999 46.6667C148.3 48.9124 147.449 52.1187 147.445 56.2857C147.441 60.4527 148.292 63.6632 149.999 65.9172C151.702 68.1754 154.128 69.3066 157.278 69.3107C160.428 69.3149 162.854 68.1837 164.557 65.9172H164.538Z" fill="var(--fill-0, #ED64A6)"/>
<path id="Vector_5" d="M237.524 35.5942C239.371 36.3866 240.993 37.632 242.241 39.217C243.49 40.8021 244.326 42.6767 244.673 44.6705C244.969 46.7024 245.095 48.7556 245.051 50.8087L244.976 77.0085H233.938V50.528C233.987 49.1886 233.726 47.856 233.177 46.6355C232.22 44.7017 230.456 43.7348 227.883 43.7348C224.907 43.7348 222.845 44.9824 221.699 47.4776C221.082 48.9896 220.785 50.6151 220.827 52.2497V77.0022H210.005V52.2622C210.005 49.7919 209.751 47.9995 209.244 46.885C208.341 44.8764 206.564 43.8721 203.913 43.8721C200.837 43.8721 198.776 44.8764 197.729 46.885C197.148 48.0287 196.857 49.7316 196.857 51.994V77.0147H185.917V35.5193H196.393V41.5827C197.379 39.8355 198.657 38.2738 200.172 36.9666C202.262 35.3405 204.971 34.5275 208.298 34.5275C211.452 34.5275 213.998 35.2261 215.935 36.6235C217.524 37.9529 218.748 39.6711 219.491 41.6139C220.714 39.3639 222.535 37.502 224.748 36.2367C227.049 35.0706 229.594 34.4821 232.169 34.5212C234.006 34.5295 235.824 34.8937 237.524 35.5942Z" fill="var(--fill-0, #ED8936)"/>
<path id="Vector_6" d="M265.96 77.0147H255.18V20.7976H265.96V77.0147Z" fill="var(--fill-0, #76E4F7)"/>
<path id="Vector_7" d="M303.325 36.2866C306.231 37.6032 308.703 39.7309 310.449 42.4186C312.177 44.999 313.298 47.9433 313.727 51.0271C314.056 53.7584 314.176 56.5113 314.085 59.2613H284.067C284.236 63.4199 285.679 66.3435 288.396 68.0319C290.189 69.1125 292.251 69.6535 294.339 69.5914C296.489 69.7005 298.608 69.0375 300.319 67.72C301.243 66.9261 301.998 65.9523 302.539 64.8568H313.541C313.248 67.327 311.917 69.8222 309.546 72.3424C305.836 76.3846 300.668 78.4058 294.042 78.4058C288.758 78.4745 283.62 76.6634 279.528 73.2906C275.335 69.8805 273.238 64.3328 273.238 56.6475C273.238 49.4447 275.131 43.922 278.916 40.0793C282.7 36.2367 287.606 34.3133 293.634 34.3092C296.967 34.2638 300.271 34.9381 303.325 36.2866ZM287.202 45.6436C285.589 47.4231 284.584 49.6771 284.333 52.0751H302.886C302.688 49.1931 301.731 47.0035 300.016 45.5064C298.231 43.9901 295.954 43.1925 293.622 43.267C290.864 43.2878 288.724 44.0904 287.202 45.6748V45.6436Z" fill="var(--fill-0, #F56565)"/>
<g id="Vector_8">
</g>
</g>
</svg>
