<svg xmlns="http://www.w3.org/2000/svg" viewBox="0 0 514.21 203.59"><defs><style>.cls-1{fill:#c0a2f6;}.cls-2{fill:#f6ad54;}.cls-3{fill:#ecc94a;}.cls-11,.cls-4{fill:#ed64a6;}.cls-5{fill:#ed8936;}.cls-6{fill:#76e4f7;}.cls-7{fill:#f56565;}.cls-8{fill:none;}.cls-9{font-size:26.47px;font-family:Helvetica;}.cls-10{letter-spacing:-0.02em;}.cls-11{font-family:Helvetica-Bold, Helvetica;font-weight:700;}.cls-11,.cls-12{letter-spacing:0em;}</style></defs><g id="Layer_2" data-name="Layer 2"><g id="Layer_1-2" data-name="Layer 1"><path class="cls-1" d="M18.84,42.75q10.88-11.11,27.7-11.12,22.5,0,32.9,14.91,5.75,8.39,6.17,16.82H66.78q-1.8-6.48-4.61-9.78-5-5.88-14.91-5.87A18.4,18.4,0,0,0,31.38,56q-5.8,8.28-5.81,23.45t6.13,22.71a19.23,19.23,0,0,0,15.58,7.55q9.69,0,14.77-6.48,2.82-3.48,4.67-10.46H85.43q-2.43,14.74-12.37,24T47.57,126q-19.24,0-30.25-12.47t-11-34.36Q6.32,55.54,18.84,42.75Z"/><path class="cls-2" d="M147.14,57.18a19.66,19.66,0,0,1,8.25,6.55,17.44,17.44,0,0,1,3.34,7.68,94.33,94.33,0,0,1,.61,12.88v39.17H141.55V82.87a18,18,0,0,0-1.82-8.69q-2.37-4.65-9-4.65-6.85,0-10.41,4.62t-3.55,13.19v36.12H99.37V33.64h17.42v31.8a21.31,21.31,0,0,1,8.74-8.11A24.67,24.67,0,0,1,136,55,28.34,28.34,0,0,1,147.14,57.18Z"/><path class="cls-3" d="M212.75,55.26l1.49.09V73.2c-1.1-.12-2.07-.2-2.93-.24s-1.55-.07-2.08-.07q-10.51,0-14.12,6.85-2,3.86-2,11.86v31.86H175.54V56.82h16.63V68.43q4-6.66,7-9.11,4.89-4.09,12.72-4.09C212.25,55.23,212.52,55.24,212.75,55.26Z"/><path class="cls-4" d="M280,115.3q-8.44,10.42-25.62,10.42T228.79,115.3q-8.43-10.41-8.43-25.07a38.88,38.88,0,0,1,8.43-25q8.44-10.56,25.62-10.56T280,65.24a38.88,38.88,0,0,1,8.43,25Q288.46,104.89,280,115.3Zm-13.94-9.63q4.1-5.43,4.1-15.44t-4.1-15.42q-4.09-5.4-11.74-5.4t-11.77,5.4q-4.12,5.4-4.13,15.42t4.13,15.44q4.13,5.43,11.77,5.44T266.09,105.67Z"/><path class="cls-5" d="M384.08,57.06a19.48,19.48,0,0,1,11.56,14.55,58.87,58.87,0,0,1,.61,9.84l-.12,42H378.28V81a13.86,13.86,0,0,0-1.23-6.24q-2.32-4.65-8.56-4.65-7.22,0-10,6a18.8,18.8,0,0,0-1.41,7.65v39.68H339.58V83.78q0-5.94-1.23-8.62-2.19-4.83-8.62-4.83-7.46,0-10,4.83-1.41,2.75-1.41,8.19v40.11H300.63V56.94h16.94v9.72a27.92,27.92,0,0,1,6.11-7.4q5.07-3.91,13.14-3.91,7.65,0,12.35,3.36a19.52,19.52,0,0,1,5.75,8,22.15,22.15,0,0,1,8.5-8.62,25.86,25.86,0,0,1,12-2.75A23.18,23.18,0,0,1,384.08,57.06Z"/><path class="cls-6" d="M430.06,123.46H412.63V33.34h17.43Z"/><path class="cls-7" d="M490.48,58.17A27,27,0,0,1,502,68,32.79,32.79,0,0,1,507.3,81.8,85.67,85.67,0,0,1,507.88,95H459.34q.41,10,7,14.06a17.72,17.72,0,0,0,9.61,2.5,14.72,14.72,0,0,0,9.67-3,14.57,14.57,0,0,0,3.59-4.59H507q-.71,5.94-6.46,12-9,9.72-25.07,9.72a36.35,36.35,0,0,1-23.47-8.2q-10.17-8.2-10.17-26.68,0-17.32,9.18-26.56T474.81,55A37.8,37.8,0,0,1,490.48,58.17Zm-26.07,15a18.09,18.09,0,0,0-4.64,10.31h30q-.48-6.93-4.64-10.53a15.3,15.3,0,0,0-10.34-3.59Q468.1,69.41,464.41,73.22Z"/><rect class="cls-8" width="514.21" height="203.59"/><text class="cls-9" transform="translate(128.6 170.16)">guess today<tspan class="cls-10" x="142.76" y="0">’</tspan><tspan x="148.18" y="0">s </tspan><tspan class="cls-11" x="168.77" y="0">#colour</tspan><tspan class="cls-12" x="264.39" y="0">!</tspan></text></g></g></svg>