<svg overflow="visible" style="display: block;" viewBox="0 0 26.8333 28" fill="none" xmlns="http://www.w3.org/2000/svg">
<g id="envelope-solid" clip-path="url(#clip0_0_393)">
<path id="Vector" d="M2.51563 3.5C1.12679 3.5 0 4.67578 0 6.125C0 6.95078 0.372103 7.72734 1.00625 8.225L12.4104 17.15C13.0079 17.6148 13.8255 17.6148 14.4229 17.15L25.8271 8.225C26.4612 7.72734 26.8333 6.95078 26.8333 6.125C26.8333 4.67578 25.7065 3.5 24.3177 3.5H2.51563ZM0 9.625V21C0 22.9305 1.50413 24.5 3.35417 24.5H23.4792C25.3292 24.5 26.8333 22.9305 26.8333 21V9.625L15.4292 18.55C14.2342 19.4852 12.5991 19.4852 11.4042 18.55L0 9.625Z" fill="var(--fill-0, #54E2DC)"/>
</g>
<defs>
<clipPath id="clip0_0_393">
<rect width="26.8333" height="28" fill="white"/>
</clipPath>
</defs>
</svg>
