<svg overflow="visible" style="display: block;" viewBox="0 0 26.8333 28" fill="none" xmlns="http://www.w3.org/2000/svg">
<g id="itch-io" clip-path="url(#clip0_0_391)">
<path id="Vector" d="M3.7682 1.90312C2.63092 2.60859 0.387826 5.29375 0.366862 5.99922V7.16406C0.366862 8.64609 1.69281 9.94219 2.89821 9.94219C4.34469 9.94219 5.54486 8.68984 5.54486 7.20781C5.54486 8.68984 6.70833 9.94219 8.15482 9.94219C9.6013 9.94219 10.7229 8.68984 10.7229 7.20781C10.7229 8.68984 11.9597 9.94219 13.4062 9.94219H13.4324C14.8789 9.94219 16.1157 8.68984 16.1157 7.20781C16.1157 8.68984 17.2425 9.94219 18.6838 9.94219C20.125 9.94219 21.2937 8.68984 21.2937 7.20781C21.2937 8.68984 22.4991 9.94219 23.9404 9.94219C25.1458 9.94219 26.4717 8.64063 26.4717 7.16406V5.99922C26.4507 5.29375 24.2076 2.60313 23.0704 1.89766C19.5275 1.77188 17.0748 1.75 13.4167 1.75C9.75853 1.75 4.77445 1.81016 3.7682 1.90312ZM10.7019 9.25313C9.54889 11.3531 6.61924 11.3695 5.46624 9.26953C4.77445 10.5328 3.20218 11.025 2.53135 10.7844C2.32695 12.9828 1.81335 23.7508 3.45898 25.5063C7.65169 26.5289 19.2917 26.4961 23.3639 25.5063C25.0252 23.7398 24.4802 12.8188 24.2967 10.7844C23.6207 11.025 22.0484 10.5328 21.3618 9.26953C20.2089 11.375 17.2792 11.3531 16.1262 9.25859C15.7541 9.94219 14.9156 10.8391 13.4114 10.8391C12.864 10.8579 12.322 10.7208 11.8437 10.4423C11.3653 10.1638 10.9688 9.7546 10.6966 9.25859L10.7019 9.25313ZM8.52168 12.1953C9.38643 12.1953 10.1516 12.1953 11.1002 13.2781C12.6371 13.1154 14.1858 13.1154 15.7227 13.2781C16.6765 12.1953 17.4469 12.1953 18.3064 12.1953C21.0474 12.1953 21.7235 16.4336 22.7035 20.0977C23.6102 23.4992 22.4153 23.5813 20.9216 23.5813C18.71 23.4938 17.4888 21.8203 17.4888 20.1469C15.4292 20.4969 12.1484 20.6281 9.33402 20.1469C9.33402 21.8203 8.11289 23.4938 5.90124 23.5813C4.41283 23.5758 3.2179 23.4938 4.12458 20.0977C5.10462 16.4336 5.7807 12.1953 8.52168 12.1953ZM13.4167 14.8094C13.4167 14.8094 11.0897 17.0406 10.6704 17.8281L12.1903 17.7625V19.1461C12.1903 19.2336 13.3066 19.157 13.4114 19.157C14.0246 19.1844 14.6326 19.2117 14.6326 19.1461V17.7625L16.1524 17.8281C15.7331 17.0352 13.4062 14.8094 13.4062 14.8094H13.4167Z" fill="var(--fill-0, #E70006)"/>
</g>
<defs>
<clipPath id="clip0_0_391">
<rect width="26.8333" height="28" fill="white"/>
</clipPath>
</defs>
</svg>
