<svg overflow="visible" style="display: block;" viewBox="0 0 26.8333 28" fill="none" xmlns="http://www.w3.org/2000/svg">
<g id="telegram" clip-path="url(#clip0_0_389)">
<path id="Vector" d="M13.4167 0.4375C6.00504 0.4375 0 6.50781 0 14C0 21.4922 6.00504 27.5625 13.4167 27.5625C20.8283 27.5625 26.8333 21.4922 26.8333 14C26.8333 6.50781 20.8283 0.4375 13.4167 0.4375ZM19.6381 9.66328C19.4379 11.807 18.5615 17.0133 18.1179 19.4141C17.9286 20.4313 17.5607 20.7703 17.2036 20.8031C16.4246 20.8742 15.8349 20.2836 15.0775 19.7805C13.8982 18.9984 13.2273 18.5117 12.0858 17.7461C10.7604 16.8656 11.6206 16.3789 12.3725 15.5859C12.5727 15.3781 16.0026 12.2227 16.0675 11.9383C16.0784 11.9 16.0838 11.7687 16.0026 11.6977C15.9215 11.6266 15.8079 11.6539 15.7267 11.6703C15.6077 11.6958 13.7214 12.9555 10.0679 15.4492C9.53413 15.8211 9.04904 16.0016 8.61263 15.9906C8.13115 15.9797 7.21146 15.7172 6.5244 15.493C5.68585 15.2195 5.01502 15.0719 5.07453 14.6016C5.10338 14.3573 5.437 14.1076 6.07537 13.8523C9.98496 12.1315 12.5926 10.9958 13.8982 10.4453C17.6256 8.88125 18.3992 8.60781 18.9024 8.59687C19.016 8.59687 19.2594 8.62422 19.4217 8.75547C19.5276 8.84961 19.5951 8.98021 19.6111 9.12188C19.6403 9.30073 19.6494 9.48236 19.6381 9.66328Z" fill="var(--fill-0, #E70006)"/>
</g>
<defs>
<clipPath id="clip0_0_389">
<rect width="26.8333" height="28" fill="white"/>
</clipPath>
</defs>
</svg>
