<svg overflow="visible" style="display: block;" viewBox="0 0 33.8333 28" fill="none" xmlns="http://www.w3.org/2000/svg">
<g id="discord">
<path id="Vector" d="M27.7275 3.81719C27.7184 3.79951 27.7033 3.7859 27.6852 3.77891C25.6712 2.82287 23.546 2.14088 21.3626 1.75C21.343 1.74628 21.3227 1.74903 21.3047 1.75786C21.2867 1.76669 21.2718 1.78116 21.2621 1.79922C20.9725 2.34297 20.7096 2.90149 20.4745 3.47266C18.1196 3.1029 15.7243 3.1029 13.3695 3.47266C13.1333 2.90008 12.8668 2.34142 12.5712 1.79922C12.561 1.7817 12.546 1.76768 12.5282 1.75893C12.5103 1.75017 12.4903 1.74707 12.4708 1.75C10.2835 2.13912 8.15458 2.82116 6.13758 3.77891C6.11989 3.78666 6.10507 3.80008 6.09529 3.81719C2.06701 10.0461 0.962135 16.1164 1.50135 22.1156C1.50288 22.1307 1.50743 22.1453 1.51471 22.1585C1.52199 22.1717 1.53185 22.1832 1.54365 22.1922C3.89012 23.9876 6.51425 25.3579 9.30417 26.2445C9.32422 26.251 9.34571 26.2507 9.36562 26.2438C9.38553 26.237 9.40287 26.2238 9.41518 26.2063C10.0138 25.3632 10.5442 24.4706 11.0011 23.5375C11.0072 23.5247 11.0107 23.5107 11.0113 23.4964C11.0119 23.4821 11.0096 23.4678 11.0047 23.4545C10.9997 23.4411 10.9921 23.429 10.9824 23.4188C10.9727 23.4086 10.9611 23.4006 10.9483 23.3953C10.1101 23.0631 9.29873 22.6626 8.52177 22.1977C8.50804 22.189 8.49653 22.177 8.48822 22.1627C8.4799 22.1485 8.47502 22.1323 8.47398 22.1157C8.47294 22.0991 8.47578 22.0825 8.48226 22.0672C8.48874 22.052 8.49866 22.0386 8.5112 22.0281C8.67508 21.9023 8.83896 21.7711 8.99227 21.6398C9.00579 21.6276 9.02241 21.6195 9.04019 21.6166C9.05797 21.6137 9.07618 21.6161 9.09271 21.6234C14.1783 24.0242 19.6868 24.0242 24.7142 21.6234C24.7302 21.6153 24.7482 21.612 24.7659 21.614C24.7837 21.6159 24.8006 21.623 24.8146 21.6344C24.9679 21.7656 25.1318 21.9023 25.2957 22.0281C25.3082 22.0386 25.3182 22.052 25.3246 22.0672C25.3311 22.0825 25.334 22.0991 25.3329 22.1157C25.3319 22.1323 25.327 22.1485 25.3187 22.1627C25.3104 22.177 25.2989 22.189 25.2851 22.1977C24.5102 22.665 23.6985 23.0638 22.8586 23.3898C22.8458 23.3952 22.8342 23.4032 22.8245 23.4133C22.8148 23.4235 22.8072 23.4357 22.8022 23.449C22.7973 23.4624 22.795 23.4766 22.7956 23.4909C22.7962 23.5052 22.7997 23.5192 22.8058 23.532C23.2707 24.4605 23.8007 25.3525 24.3917 26.2008C24.404 26.2184 24.4214 26.2315 24.4413 26.2384C24.4612 26.2452 24.4827 26.2455 24.5027 26.2391C27.3007 25.3564 29.9324 23.9859 32.2844 22.1867C32.2964 22.1779 32.3065 22.1665 32.3138 22.1533C32.3211 22.1401 32.3255 22.1253 32.3267 22.1102C32.9716 15.1812 31.2377 9.16016 27.7275 3.81719ZM11.7624 18.4625C10.2293 18.4625 8.97112 17.0078 8.97112 15.225C8.97112 13.4422 10.2082 11.982 11.7624 11.982C13.3324 11.982 14.5801 13.4477 14.5536 15.2195C14.5536 17.0078 13.3166 18.4625 11.7624 18.4625ZM22.0921 18.4625C20.559 18.4625 19.3009 17.0078 19.3009 15.225C19.3009 13.4422 20.5326 11.982 22.0921 11.982C23.6622 11.982 24.9098 13.4477 24.8834 15.2195C24.8834 17.0078 23.6569 18.4625 22.0921 18.4625Z" fill="var(--fill-0, #54E2DC)"/>
</g>
</svg>
