<svg overflow="visible" style="display: block;" viewBox="0 0 268.007 58" fill="none" xmlns="http://www.w3.org/2000/svg">
<g id="Layer 1">
<path id="Vector" d="M31.8339 47.335C32.1198 48.6282 32.252 49.9507 32.2278 51.2751C32.2444 52.5991 32.1122 53.9208 31.8339 55.2151H23.9765C23.6943 53.9191 23.5621 52.5947 23.5826 51.2683C23.555 49.9438 23.6872 48.6208 23.9765 47.3282H21.0563C20.7741 46.0322 20.6419 44.7078 20.6624 43.3814C20.6358 42.0569 20.768 40.7341 21.0563 39.4413H15.1344C14.8517 38.1477 14.7196 36.8255 14.7405 35.5013C14.7129 34.1745 14.8452 32.8493 15.1344 31.5544H8.25494C8.54418 32.8493 8.67643 34.1745 8.64883 35.5013C8.66977 36.8255 8.5376 38.1477 8.25494 39.4413C8.54379 40.7363 8.67604 42.0615 8.64883 43.3882C8.66933 44.7146 8.53715 46.039 8.25494 47.335C8.54423 48.6276 8.67648 49.9506 8.64883 51.2751C8.6688 52.5993 8.53663 53.9213 8.25494 55.2151H0.397559C0.115869 53.9213 -0.016299 52.5993 0.00367131 51.2751C-0.023981 49.9506 0.108278 48.6276 0.397559 47.335C0.115349 46.039 -0.016822 44.7146 0.00367131 43.3882C-0.0235327 42.0615 0.108718 40.7363 0.397559 39.4413C0.114908 38.1477 -0.0172718 36.8255 0.00367131 35.5013C-0.0239304 34.1745 0.108325 32.8493 0.397559 31.5544C0.11533 30.2607 -0.0168446 28.9386 0.00367131 27.6144C-0.0243301 26.2876 0.10793 24.9623 0.397559 23.6675C0.115349 22.3715 -0.016822 21.0471 0.00367131 19.7207C-0.023981 18.3962 0.108278 17.0732 0.397559 15.7806C0.115349 14.4846 -0.016822 13.1602 0.00367131 11.8338C-0.0235327 10.507 0.108718 9.18185 0.397559 7.8869C0.11533 6.5932 -0.0168446 5.27106 0.00367131 3.94686C-0.0243301 2.6201 0.10793 1.29482 0.397559 0L8.25494 0C8.54457 1.29482 8.67683 2.6201 8.64883 3.94686C8.66935 5.27106 8.53717 6.5932 8.25494 7.8869C8.54379 9.18185 8.67604 10.507 8.64883 11.8338C8.66933 13.1602 8.53715 14.4846 8.25494 15.7806C8.54423 17.0732 8.67648 18.3962 8.64883 19.7207C8.66933 21.0471 8.53715 22.3715 8.25494 23.6675H15.1344C14.8522 22.3715 14.72 21.0471 14.7405 19.7207C14.7129 18.3962 14.8451 17.0732 15.1344 15.7806H21.0563C20.7741 14.4846 20.6419 13.1602 20.6624 11.8338C20.6352 10.507 20.7675 9.18185 21.0563 7.8869H23.9765C23.6943 6.5932 23.5621 5.27106 23.5826 3.94686C23.5546 2.6201 23.6869 1.29482 23.9765 0L31.8339 0C32.1202 1.29537 32.2524 2.62024 32.2278 3.94686C32.2449 5.27091 32.1128 6.59266 31.8339 7.8869H28.8865C29.172 9.18239 29.3042 10.5072 29.2804 11.8338C29.2975 13.1601 29.1654 14.4841 28.8865 15.7806H22.9918C23.2777 17.0737 23.4099 18.3963 23.3857 19.7207C23.4028 21.047 23.2707 22.371 22.9918 23.6675H18.0818C18.368 24.9629 18.5003 26.2878 18.4757 27.6144C18.4928 28.9384 18.3606 30.2602 18.0818 31.5544H22.9918C23.2777 32.8499 23.4099 34.1747 23.3857 35.5013C23.4032 36.8254 23.2711 38.1472 22.9918 39.4413H28.8865C29.172 40.7368 29.3042 42.0616 29.2804 43.3882C29.2975 44.7145 29.1654 46.0385 28.8865 47.335H31.8339Z" fill="var(--fill-0, white)"/>
<path id="Vector_2" d="M51.481 31.5544C51.7703 32.8493 51.9025 34.1745 51.8749 35.5013C51.8959 36.8255 51.7637 38.1477 51.481 39.4413C51.7699 40.7363 51.9021 42.0615 51.8749 43.3882C51.8954 44.7146 51.7632 46.039 51.481 47.335H67.2365C67.5225 48.6282 67.6547 49.9507 67.6304 51.2751C67.647 52.5991 67.5149 53.9208 67.2365 55.2151H43.6236C43.3414 53.9191 43.2093 52.5947 43.2298 51.2683C43.2021 49.9438 43.3344 48.6208 43.6236 47.3282C43.3414 46.0322 43.2093 44.7078 43.2298 43.3814C43.2026 42.0546 43.3348 40.7295 43.6236 39.4345C43.341 38.1409 43.2088 36.8187 43.2298 35.4945C43.2022 34.1677 43.3344 32.8425 43.6236 31.5476C43.3414 30.2539 43.2092 28.9318 43.2298 27.6076C43.2018 26.2808 43.334 24.9555 43.6236 23.6607C43.3414 22.3647 43.2093 21.0403 43.2298 19.7138C43.2021 18.3894 43.3344 17.0664 43.6236 15.7738C43.3414 14.4778 43.2093 13.1534 43.2298 11.8269C43.2026 10.5002 43.3348 9.17504 43.6236 7.88009C43.3414 6.58638 43.2092 5.26424 43.2298 3.94004C43.2023 2.61556 43.3346 1.2926 43.6236 0L67.2365 0C67.5228 1.29537 67.655 2.62024 67.6304 3.94686C67.6476 5.27091 67.5154 6.59266 67.2365 7.8869H51.481C51.7699 9.18185 51.9021 10.507 51.8749 11.8338C51.8954 13.1602 51.7632 14.4846 51.481 15.7806C51.7703 17.0732 51.9026 18.3962 51.8749 19.7207C51.8954 21.0471 51.7632 22.3715 51.481 23.6675H67.2365C67.5228 24.9629 67.655 26.2878 67.6304 27.6144C67.6476 28.9384 67.5154 30.2602 67.2365 31.5544H51.481Z" fill="var(--fill-0, white)"/>
<path id="Vector_3" d="M110.428 7.8869C110.711 9.18272 110.841 10.5075 110.815 11.8338C110.835 13.1598 110.705 14.4838 110.428 15.7806H106.496C106.782 17.0737 106.914 18.3963 106.89 19.7207C106.907 21.047 106.775 22.371 106.496 23.6675H102.551C102.84 24.9623 102.973 26.2876 102.945 27.6144C102.965 28.9386 102.833 30.2607 102.551 31.5544H98.6253C98.9112 32.8499 99.0435 34.1747 99.0192 35.5013C99.0368 36.8254 98.9046 38.1472 98.6253 39.4413C98.9109 40.7368 99.0431 42.0616 99.0192 43.3882C99.0363 44.7145 98.9042 46.0385 98.6253 47.335C98.9113 48.6282 99.0435 49.9507 99.0192 51.2751C99.0363 52.6014 98.9042 53.9254 98.6253 55.2219H90.7748C90.4984 53.9251 90.3685 52.6011 90.3877 51.2751C90.3615 49.951 90.4915 48.6285 90.7748 47.335C90.4984 46.0382 90.3685 44.7142 90.3877 43.3882C90.362 42.0619 90.4919 40.7371 90.7748 39.4413C90.498 38.1468 90.3682 36.8251 90.3877 35.5013C90.3616 34.175 90.4915 32.8502 90.7748 31.5544H86.8495C86.5672 30.2607 86.4351 28.9386 86.4556 27.6144C86.4276 26.2876 86.5598 24.9623 86.8495 23.6675H82.9174C82.6385 22.371 82.5064 21.047 82.5235 19.7207C82.4992 18.3963 82.6314 17.0737 82.9174 15.7806H78.9853C78.7089 14.4838 78.5791 13.1598 78.5982 11.8338C78.5725 10.5075 78.7024 9.18272 78.9853 7.8869C78.7089 6.59237 78.5791 5.27065 78.5982 3.94686C78.5717 2.62052 78.7017 1.2957 78.9853 0L86.8495 0C87.1357 1.29537 87.2679 2.62024 87.2433 3.94686C87.2605 5.27091 87.1283 6.59266 86.8495 7.8869C87.135 9.18239 87.2672 10.5072 87.2433 11.8338C87.2605 13.1601 87.1283 14.4841 86.8495 15.7806H90.7748C91.064 17.0732 91.1963 18.3962 91.1686 19.7207C91.1891 21.0471 91.057 22.3715 90.7748 23.6675H98.6389C98.3567 22.3715 98.2245 21.0471 98.245 19.7207C98.2174 18.3962 98.3496 17.0732 98.6389 15.7806H102.551C102.274 14.4838 102.144 13.1598 102.164 11.8338C102.138 10.5075 102.268 9.18272 102.551 7.8869C102.274 6.59237 102.144 5.27065 102.164 3.94686C102.137 2.62052 102.267 1.2957 102.551 0L110.428 0C110.712 1.2957 110.842 2.62052 110.815 3.94686C110.835 5.27065 110.705 6.59237 110.428 7.8869Z" fill="var(--fill-0, white)"/>
<path id="Vector_4" d="M150.089 27.6144C150.106 28.9384 149.974 30.2602 149.695 31.5544C149.981 32.8499 150.113 34.1747 150.089 35.5013C150.106 36.8254 149.974 38.1472 149.695 39.4413H145.763C146.052 40.7363 146.184 42.0615 146.157 43.3882C146.177 44.7146 146.045 46.039 145.763 47.335H141.838C142.123 48.6282 142.256 49.9507 142.231 51.2751C142.249 52.6014 142.116 53.9254 141.838 55.2219H118.286C118.004 53.9259 117.871 52.6015 117.892 51.2751C117.864 49.9506 117.997 48.6276 118.286 47.335C118.004 46.039 117.871 44.7146 117.892 43.3882C117.865 42.0615 117.997 40.7363 118.286 39.4413C118.003 38.1477 117.871 36.8255 117.892 35.5013C117.864 34.1745 117.997 32.8493 118.286 31.5544C118.004 30.2607 117.871 28.9386 117.892 27.6144C117.864 26.2876 117.996 24.9623 118.286 23.6675C118.004 22.3715 117.871 21.0471 117.892 19.7207C117.864 18.3962 117.997 17.0732 118.286 15.7806C118.004 14.4846 117.871 13.1602 117.892 11.8338C117.865 10.507 117.997 9.18185 118.286 7.8869C118.004 6.5932 117.871 5.27106 117.892 3.94686C117.864 2.6201 117.996 1.29482 118.286 0L141.865 0C142.151 1.29537 142.283 2.62024 142.259 3.94686C142.276 5.27091 142.144 6.59266 141.865 7.8869H145.79C146.079 9.18185 146.211 10.507 146.184 11.8338C146.204 13.1602 146.072 14.4846 145.79 15.7806H149.722C150.008 17.0737 150.14 18.3963 150.116 19.7207C150.133 21.047 150.001 22.371 149.722 23.6675C149.999 24.964 150.122 26.2888 150.089 27.6144ZM141.471 35.5013C141.443 34.1745 141.575 32.8493 141.865 31.5544C141.583 30.2607 141.45 28.9386 141.471 27.6144C141.443 26.2876 141.575 24.9623 141.865 23.6675C141.583 22.3715 141.45 21.0471 141.471 19.7207C141.443 18.3962 141.575 17.0732 141.865 15.7806H137.933C137.65 14.4846 137.518 13.1602 137.539 11.8338C137.512 10.507 137.644 9.18185 137.933 7.8869H126.143C126.432 9.18185 126.564 10.507 126.537 11.8338C126.558 13.1602 126.425 14.4846 126.143 15.7806C126.432 17.0732 126.565 18.3962 126.537 19.7207C126.558 21.0471 126.425 22.3715 126.143 23.6675C126.433 24.9623 126.565 26.2876 126.537 27.6144C126.558 28.9386 126.425 30.2607 126.143 31.5544C126.432 32.8493 126.565 34.1745 126.537 35.5013C126.558 36.8255 126.426 38.1477 126.143 39.4413C126.432 40.7363 126.564 42.0615 126.537 43.3882C126.558 44.7146 126.425 46.039 126.143 47.335H137.933C137.65 46.039 137.518 44.7146 137.539 43.3882C137.512 42.0615 137.644 40.7363 137.933 39.4413H141.865C141.582 38.1477 141.45 36.8255 141.471 35.5013Z" fill="var(--fill-0, white)"/>
<path id="Vector_5" d="M189.016 47.335C189.305 48.6276 189.437 49.9506 189.41 51.2751C189.43 52.6015 189.298 53.9259 189.016 55.2219H181.158C180.876 53.9259 180.744 52.6015 180.765 51.2751C180.737 49.9506 180.869 48.6276 181.158 47.335H178.211C177.929 46.039 177.797 44.7146 177.817 43.3882C177.79 42.0615 177.922 40.7363 178.211 39.4413H175.264C174.981 38.1477 174.849 36.8255 174.87 35.5013C174.842 34.1745 174.974 32.8493 175.264 31.5544H165.444C165.727 32.8502 165.857 34.175 165.831 35.5013C165.85 36.8251 165.72 38.1468 165.444 39.4413C165.727 40.7371 165.856 42.0619 165.831 43.3882C165.85 44.7142 165.72 46.0382 165.444 47.335C165.727 48.6285 165.857 49.951 165.831 51.2751C165.85 52.6011 165.72 53.9251 165.444 55.2219H157.559C157.28 53.9254 157.148 52.6014 157.165 51.2751C157.141 49.9507 157.273 48.6282 157.559 47.335C157.28 46.0385 157.148 44.7145 157.165 43.3882C157.141 42.0616 157.274 40.7368 157.559 39.4413C157.28 38.1472 157.148 36.8254 157.165 35.5013C157.141 34.1747 157.273 32.8499 157.559 31.5544C157.28 30.2602 157.148 28.9384 157.165 27.6144C157.141 26.2878 157.273 24.9629 157.559 23.6675C157.28 22.371 157.148 21.047 157.165 19.7207C157.141 18.3963 157.273 17.0737 157.559 15.7806C157.28 14.4841 157.148 13.1601 157.165 11.8338C157.141 10.5072 157.274 9.18239 157.559 7.8869C157.28 6.59266 157.148 5.27091 157.165 3.94686C157.141 2.62024 157.273 1.29537 157.559 0L185.07 0C185.356 1.29537 185.489 2.62024 185.464 3.94686C185.481 5.27091 185.349 6.59266 185.07 7.8869H188.995C189.284 9.18185 189.417 10.507 189.389 11.8338C189.41 13.1602 189.278 14.4846 188.995 15.7806H187.033C187.322 17.0732 187.454 18.3962 187.427 19.7207C187.447 21.0471 187.315 22.3715 187.033 23.6675H181.138C181.428 24.9623 181.56 26.2876 181.532 27.6144C181.552 28.9386 181.42 30.2607 181.138 31.5544H183.101C183.39 32.8493 183.522 34.1745 183.495 35.5013C183.516 36.8255 183.383 38.1477 183.101 39.4413H186.082C186.371 40.7363 186.503 42.0615 186.476 43.3882C186.496 44.7146 186.364 46.039 186.082 47.335H189.016ZM178.829 19.7207C178.801 18.3962 178.934 17.0732 179.223 15.7806C178.941 14.4846 178.809 13.1602 178.829 11.8338C178.802 10.507 178.934 9.18185 179.223 7.8869H165.444C165.727 9.18272 165.856 10.5075 165.831 11.8338C165.85 13.1598 165.72 14.4838 165.444 15.7806C165.727 17.0741 165.857 18.3966 165.831 19.7207C165.85 21.0467 165.72 22.3707 165.444 23.6675H179.196C178.914 22.3715 178.781 21.0471 178.802 19.7207H178.829Z" fill="var(--fill-0, white)"/>
<path id="Vector_6" d="M228.316 47.335C228.602 48.6282 228.734 49.9507 228.71 51.2751C228.727 52.6014 228.595 53.9254 228.316 55.2219H220.452C220.176 53.9251 220.046 52.6011 220.065 51.2751C220.039 49.951 220.169 48.6285 220.452 47.335C220.176 46.0382 220.046 44.7142 220.065 43.3882C220.039 42.0619 220.169 40.7371 220.452 39.4413H204.737C205.023 40.7368 205.155 42.0616 205.131 43.3882C205.148 44.7145 205.016 46.0385 204.737 47.335C205.023 48.6282 205.156 49.9507 205.131 51.2751C205.148 52.6014 205.016 53.9254 204.737 55.2219H196.88C196.598 53.9259 196.466 52.6015 196.486 51.2751C196.458 49.9506 196.591 48.6276 196.88 47.335C196.598 46.039 196.466 44.7146 196.486 43.3882C196.459 42.0615 196.591 40.7363 196.88 39.4413H199.827C199.545 38.1477 199.413 36.8255 199.433 35.5013C199.406 34.1745 199.538 32.8493 199.827 31.5544C199.545 30.2607 199.413 28.9386 199.433 27.6144C199.405 26.2876 199.538 24.9623 199.827 23.6675H201.79C201.508 22.3715 201.376 21.0471 201.396 19.7207C201.368 18.3962 201.501 17.0732 201.79 15.7806H204.737C204.455 14.4846 204.323 13.1602 204.344 11.8338C204.316 10.507 204.449 9.18185 204.737 7.8869H206.7C206.421 6.59266 206.289 5.27091 206.306 3.94686C206.282 2.62024 206.414 1.29537 206.7 0L218.49 0C218.779 1.29482 218.911 2.6201 218.883 3.94686C218.904 5.27106 218.772 6.5932 218.49 7.8869H220.452C220.741 9.18185 220.873 10.507 220.846 11.8338C220.867 13.1602 220.734 14.4846 220.452 15.7806H223.433C223.723 17.0732 223.855 18.3962 223.827 19.7207C223.848 21.0471 223.716 22.3715 223.433 23.6675H225.403C225.689 24.9629 225.821 26.2878 225.797 27.6144C225.814 28.9384 225.682 30.2602 225.403 31.5544C225.689 32.8499 225.821 34.1747 225.797 35.5013C225.814 36.8254 225.682 38.1472 225.403 39.4413H228.35C228.636 40.7368 228.768 42.0616 228.744 43.3882C228.75 44.7158 228.607 46.0398 228.316 47.335ZM217.118 27.6144C217.091 26.288 217.221 24.9632 217.505 23.6675H215.542C215.263 22.371 215.131 21.047 215.148 19.7207C215.124 18.3963 215.256 17.0737 215.542 15.7806H209.647C209.937 17.0732 210.069 18.3962 210.041 19.7207C210.062 21.0471 209.93 22.3715 209.647 23.6675H207.685C207.971 24.9629 208.103 26.2878 208.079 27.6144C208.096 28.9384 207.964 30.2602 207.685 31.5544H217.505C217.228 30.2599 217.099 28.9382 217.118 27.6144Z" fill="var(--fill-0, white)"/>
<path id="Vector_7" d="M268.004 11.8338C268.021 13.1601 267.889 14.4841 267.61 15.7806C267.896 17.0737 268.028 18.3963 268.004 19.7207C268.021 21.047 267.889 22.371 267.61 23.6675C267.896 24.9629 268.029 26.2878 268.004 27.6144C268.021 28.9384 267.889 30.2602 267.61 31.5544H264.663C264.949 32.8499 265.081 34.1747 265.057 35.5013C265.074 36.8254 264.942 38.1472 264.663 39.4413C264.948 40.7368 265.08 42.0616 265.057 43.3882C265.074 44.7145 264.942 46.0385 264.663 47.335H262.7C262.986 48.6282 263.118 49.9507 263.094 51.2751C263.111 52.6014 262.979 53.9254 262.7 55.2219H256.805C256.523 53.9259 256.391 52.6015 256.411 51.2751C256.384 49.9506 256.516 48.6276 256.805 47.335H254.843C254.56 46.039 254.428 44.7146 254.449 43.3882C254.422 42.0615 254.554 40.7363 254.843 39.4413H248.948C249.231 40.7371 249.361 42.0619 249.335 43.3882C249.354 44.7142 249.224 46.0382 248.948 47.335H246.978C247.268 48.6276 247.4 49.9506 247.372 51.2751C247.393 52.6015 247.261 53.9259 246.978 55.2219H241.091C240.812 53.9254 240.68 52.6014 240.697 51.2751C240.672 49.9507 240.805 48.6282 241.091 47.335H239.121C238.839 46.039 238.707 44.7146 238.727 43.3882C238.7 42.0615 238.832 40.7363 239.121 39.4413C238.838 38.1477 238.706 36.8255 238.727 35.5013C238.7 34.1745 238.832 32.8493 239.121 31.5544H236.174C235.892 30.2607 235.759 28.9386 235.78 27.6144C235.752 26.2876 235.884 24.9623 236.174 23.6675C235.892 22.3715 235.759 21.0471 235.78 19.7207C235.752 18.3962 235.884 17.0732 236.174 15.7806C235.892 14.4846 235.759 13.1602 235.78 11.8338C235.753 10.507 235.885 9.18185 236.174 7.8869C235.892 6.5932 235.759 5.27106 235.78 3.94686C235.752 2.6201 235.884 1.29482 236.174 0L244.031 0C244.321 1.29482 244.453 2.6201 244.425 3.94686C244.446 5.27106 244.313 6.5932 244.031 7.8869C244.32 9.18185 244.452 10.507 244.425 11.8338C244.446 13.1602 244.313 14.4846 244.031 15.7806C244.32 17.0732 244.453 18.3962 244.425 19.7207C244.446 21.0471 244.313 22.3715 244.031 23.6675C244.321 24.9623 244.453 26.2876 244.425 27.6144C244.446 28.9386 244.313 30.2607 244.031 31.5544C244.32 32.8493 244.453 34.1745 244.425 35.5013C244.446 36.8255 244.314 38.1477 244.031 39.4413H246.978C246.699 38.1472 246.567 36.8254 246.585 35.5013C246.56 34.1747 246.693 32.8499 246.978 31.5544H248.948C248.666 30.2607 248.534 28.9386 248.554 27.6144C248.526 26.2876 248.658 24.9623 248.948 23.6675C248.666 22.3715 248.534 21.0471 248.554 19.7207C248.526 18.3962 248.659 17.0732 248.948 15.7806C248.666 14.4846 248.534 13.1602 248.554 11.8338C248.527 10.507 248.659 9.18185 248.948 7.8869C248.668 6.59293 248.538 5.2708 248.561 3.94686C248.531 2.62038 248.661 1.2951 248.948 0L254.843 0C255.126 1.2957 255.256 2.62052 255.23 3.94686C255.249 5.27065 255.119 6.59237 254.843 7.8869C255.126 9.18272 255.255 10.5075 255.23 11.8338C255.249 13.1598 255.119 14.4838 254.843 15.7806C255.126 17.0741 255.256 18.3966 255.23 19.7207C255.249 21.0467 255.119 22.3707 254.843 23.6675C255.126 24.9632 255.256 26.288 255.23 27.6144C255.249 28.9382 255.119 30.2599 254.843 31.5544H256.805C257.091 32.8499 257.223 34.1747 257.199 35.5013C257.217 36.8254 257.085 38.1472 256.805 39.4413H259.753C259.47 38.1477 259.338 36.8255 259.359 35.5013C259.331 34.1745 259.463 32.8493 259.753 31.5544C259.47 30.2607 259.338 28.9386 259.359 27.6144C259.331 26.2876 259.463 24.9623 259.753 23.6675C259.47 22.3715 259.338 21.0471 259.359 19.7207C259.331 18.3962 259.463 17.0732 259.753 15.7806C259.47 14.4846 259.338 13.1602 259.359 11.8338C259.332 10.507 259.464 9.18185 259.753 7.8869C259.47 6.5932 259.338 5.27106 259.359 3.94686C259.331 2.6201 259.463 1.29482 259.753 0L267.61 0C267.896 1.29537 268.029 2.62024 268.004 3.94686C268.021 5.27091 267.889 6.59266 267.61 7.8869C267.896 9.18239 268.028 10.5072 268.004 11.8338Z" fill="var(--fill-0, white)"/>
</g>
</svg>
