<svg overflow="visible" style="display: block;" viewBox="0 0 268.007 93" fill="none" xmlns="http://www.w3.org/2000/svg">
<g id="Layer 1">
<path id="Vector" d="M31.8339 47.335C32.1198 48.6282 32.252 49.9507 32.2278 51.2751C32.2444 52.5991 32.1122 53.9208 31.8339 55.2151H23.9765C23.6943 53.9191 23.5621 52.5947 23.5826 51.2683C23.555 49.9438 23.6872 48.6208 23.9765 47.3282H21.0563C20.7741 46.0322 20.6419 44.7078 20.6624 43.3814C20.6358 42.0569 20.768 40.7341 21.0563 39.4413H15.1344C14.8517 38.1477 14.7196 36.8255 14.7405 35.5013C14.7129 34.1745 14.8452 32.8493 15.1344 31.5544H8.25494C8.54418 32.8493 8.67643 34.1745 8.64883 35.5013C8.66977 36.8255 8.5376 38.1477 8.25494 39.4413C8.54379 40.7363 8.67604 42.0615 8.64883 43.3882C8.66933 44.7146 8.53715 46.039 8.25494 47.335C8.54423 48.6276 8.67648 49.9506 8.64883 51.2751C8.6688 52.5993 8.53663 53.9213 8.25494 55.2151H0.397559C0.115869 53.9213 -0.016299 52.5993 0.00367131 51.2751C-0.023981 49.9506 0.108278 48.6276 0.397559 47.335C0.115349 46.039 -0.016822 44.7146 0.00367131 43.3882C-0.0235327 42.0615 0.108718 40.7363 0.397559 39.4413C0.114908 38.1477 -0.0172718 36.8255 0.00367131 35.5013C-0.0239304 34.1745 0.108325 32.8493 0.397559 31.5544C0.11533 30.2607 -0.0168446 28.9386 0.00367131 27.6144C-0.0243301 26.2876 0.10793 24.9623 0.397559 23.6675C0.115349 22.3715 -0.016822 21.0471 0.00367131 19.7207C-0.023981 18.3962 0.108278 17.0732 0.397559 15.7806C0.115349 14.4846 -0.016822 13.1602 0.00367131 11.8338C-0.0235327 10.507 0.108718 9.18185 0.397559 7.8869C0.11533 6.5932 -0.0168446 5.27106 0.00367131 3.94686C-0.0243301 2.6201 0.10793 1.29482 0.397559 0L8.25494 0C8.54457 1.29482 8.67683 2.6201 8.64883 3.94686C8.66935 5.27106 8.53717 6.5932 8.25494 7.8869C8.54379 9.18185 8.67604 10.507 8.64883 11.8338C8.66933 13.1602 8.53715 14.4846 8.25494 15.7806C8.54423 17.0732 8.67648 18.3962 8.64883 19.7207C8.66933 21.0471 8.53715 22.3715 8.25494 23.6675H15.1344C14.8522 22.3715 14.72 21.0471 14.7405 19.7207C14.7129 18.3962 14.8451 17.0732 15.1344 15.7806H21.0563C20.7741 14.4846 20.6419 13.1602 20.6624 11.8338C20.6352 10.507 20.7675 9.18185 21.0563 7.8869H23.9765C23.6943 6.5932 23.5621 5.27106 23.5826 3.94686C23.5546 2.6201 23.6869 1.29482 23.9765 0L31.8339 0C32.1202 1.29537 32.2524 2.62024 32.2278 3.94686C32.2449 5.27091 32.1128 6.59266 31.8339 7.8869H28.8865C29.172 9.18239 29.3042 10.5072 29.2804 11.8338C29.2975 13.1601 29.1654 14.4841 28.8865 15.7806H22.9918C23.2777 17.0737 23.4099 18.3963 23.3857 19.7207C23.4028 21.047 23.2707 22.371 22.9918 23.6675H18.0818C18.368 24.9629 18.5003 26.2878 18.4757 27.6144C18.4928 28.9384 18.3606 30.2602 18.0818 31.5544H22.9918C23.2777 32.8499 23.4099 34.1747 23.3857 35.5013C23.4032 36.8254 23.2711 38.1472 22.9918 39.4413H28.8865C29.172 40.7368 29.3042 42.0616 29.2804 43.3882C29.2975 44.7145 29.1654 46.0385 28.8865 47.335H31.8339Z" fill="var(--fill-0, white)"/>
<path id="Vector_2" d="M51.481 31.5544C51.7703 32.8493 51.9025 34.1745 51.8749 35.5013C51.8959 36.8255 51.7637 38.1477 51.481 39.4413C51.7699 40.7363 51.9021 42.0615 51.8749 43.3882C51.8954 44.7146 51.7632 46.039 51.481 47.335H67.2365C67.5225 48.6282 67.6547 49.9507 67.6304 51.2751C67.647 52.5991 67.5149 53.9208 67.2365 55.2151H43.6236C43.3414 53.9191 43.2093 52.5947 43.2298 51.2683C43.2021 49.9438 43.3344 48.6208 43.6236 47.3282C43.3414 46.0322 43.2093 44.7078 43.2298 43.3814C43.2026 42.0546 43.3348 40.7295 43.6236 39.4345C43.341 38.1409 43.2088 36.8187 43.2298 35.4945C43.2022 34.1677 43.3344 32.8425 43.6236 31.5476C43.3414 30.2539 43.2092 28.9318 43.2298 27.6076C43.2018 26.2808 43.334 24.9555 43.6236 23.6607C43.3414 22.3647 43.2093 21.0403 43.2298 19.7138C43.2021 18.3894 43.3344 17.0664 43.6236 15.7738C43.3414 14.4778 43.2093 13.1534 43.2298 11.8269C43.2026 10.5002 43.3348 9.17504 43.6236 7.88009C43.3414 6.58638 43.2092 5.26424 43.2298 3.94004C43.2023 2.61556 43.3346 1.2926 43.6236 0L67.2365 0C67.5228 1.29537 67.655 2.62024 67.6304 3.94686C67.6476 5.27091 67.5154 6.59266 67.2365 7.8869H51.481C51.7699 9.18185 51.9021 10.507 51.8749 11.8338C51.8954 13.1602 51.7632 14.4846 51.481 15.7806C51.7703 17.0732 51.9026 18.3962 51.8749 19.7207C51.8954 21.0471 51.7632 22.3715 51.481 23.6675H67.2365C67.5228 24.9629 67.655 26.2878 67.6304 27.6144C67.6476 28.9384 67.5154 30.2602 67.2365 31.5544H51.481Z" fill="var(--fill-0, white)"/>
<path id="Vector_3" d="M110.428 7.8869C110.711 9.18272 110.841 10.5075 110.815 11.8338C110.835 13.1598 110.705 14.4838 110.428 15.7806H106.496C106.782 17.0737 106.914 18.3963 106.89 19.7207C106.907 21.047 106.775 22.371 106.496 23.6675H102.551C102.84 24.9623 102.973 26.2876 102.945 27.6144C102.965 28.9386 102.833 30.2607 102.551 31.5544H98.6253C98.9112 32.8499 99.0435 34.1747 99.0192 35.5013C99.0368 36.8254 98.9046 38.1472 98.6253 39.4413C98.9109 40.7368 99.0431 42.0616 99.0192 43.3882C99.0363 44.7145 98.9042 46.0385 98.6253 47.335C98.9113 48.6282 99.0435 49.9507 99.0192 51.2751C99.0363 52.6014 98.9042 53.9254 98.6253 55.2219H90.7748C90.4984 53.9251 90.3685 52.6011 90.3877 51.2751C90.3615 49.951 90.4915 48.6285 90.7748 47.335C90.4984 46.0382 90.3685 44.7142 90.3877 43.3882C90.362 42.0619 90.4919 40.7371 90.7748 39.4413C90.498 38.1468 90.3682 36.8251 90.3877 35.5013C90.3616 34.175 90.4915 32.8502 90.7748 31.5544H86.8495C86.5672 30.2607 86.4351 28.9386 86.4556 27.6144C86.4276 26.2876 86.5598 24.9623 86.8495 23.6675H82.9174C82.6385 22.371 82.5064 21.047 82.5235 19.7207C82.4992 18.3963 82.6314 17.0737 82.9174 15.7806H78.9853C78.7089 14.4838 78.5791 13.1598 78.5982 11.8338C78.5725 10.5075 78.7024 9.18272 78.9853 7.8869C78.7089 6.59237 78.5791 5.27065 78.5982 3.94686C78.5717 2.62052 78.7017 1.2957 78.9853 0L86.8495 0C87.1357 1.29537 87.2679 2.62024 87.2433 3.94686C87.2605 5.27091 87.1283 6.59266 86.8495 7.8869C87.135 9.18239 87.2672 10.5072 87.2433 11.8338C87.2605 13.1601 87.1283 14.4841 86.8495 15.7806H90.7748C91.064 17.0732 91.1963 18.3962 91.1686 19.7207C91.1891 21.0471 91.057 22.3715 90.7748 23.6675H98.6389C98.3567 22.3715 98.2245 21.0471 98.245 19.7207C98.2174 18.3962 98.3496 17.0732 98.6389 15.7806H102.551C102.274 14.4838 102.144 13.1598 102.164 11.8338C102.138 10.5075 102.268 9.18272 102.551 7.8869C102.274 6.59237 102.144 5.27065 102.164 3.94686C102.137 2.62052 102.267 1.2957 102.551 0L110.428 0C110.712 1.2957 110.842 2.62052 110.815 3.94686C110.835 5.27065 110.705 6.59237 110.428 7.8869Z" fill="var(--fill-0, white)"/>
<path id="Vector_4" d="M150.089 27.6144C150.106 28.9384 149.974 30.2602 149.695 31.5544C149.981 32.8499 150.113 34.1747 150.089 35.5013C150.106 36.8254 149.974 38.1472 149.695 39.4413H145.763C146.052 40.7363 146.184 42.0615 146.157 43.3882C146.177 44.7146 146.045 46.039 145.763 47.335H141.838C142.123 48.6282 142.256 49.9507 142.231 51.2751C142.249 52.6014 142.116 53.9254 141.838 55.2219H118.286C118.004 53.9259 117.871 52.6015 117.892 51.2751C117.864 49.9506 117.997 48.6276 118.286 47.335C118.004 46.039 117.871 44.7146 117.892 43.3882C117.865 42.0615 117.997 40.7363 118.286 39.4413C118.003 38.1477 117.871 36.8255 117.892 35.5013C117.864 34.1745 117.997 32.8493 118.286 31.5544C118.004 30.2607 117.871 28.9386 117.892 27.6144C117.864 26.2876 117.996 24.9623 118.286 23.6675C118.004 22.3715 117.871 21.0471 117.892 19.7207C117.864 18.3962 117.997 17.0732 118.286 15.7806C118.004 14.4846 117.871 13.1602 117.892 11.8338C117.865 10.507 117.997 9.18185 118.286 7.8869C118.004 6.5932 117.871 5.27106 117.892 3.94686C117.864 2.6201 117.996 1.29482 118.286 0L141.865 0C142.151 1.29537 142.283 2.62024 142.259 3.94686C142.276 5.27091 142.144 6.59266 141.865 7.8869H145.79C146.079 9.18185 146.211 10.507 146.184 11.8338C146.204 13.1602 146.072 14.4846 145.79 15.7806H149.722C150.008 17.0737 150.14 18.3963 150.116 19.7207C150.133 21.047 150.001 22.371 149.722 23.6675C149.999 24.964 150.122 26.2888 150.089 27.6144ZM141.471 35.5013C141.443 34.1745 141.575 32.8493 141.865 31.5544C141.583 30.2607 141.45 28.9386 141.471 27.6144C141.443 26.2876 141.575 24.9623 141.865 23.6675C141.583 22.3715 141.45 21.0471 141.471 19.7207C141.443 18.3962 141.575 17.0732 141.865 15.7806H137.933C137.65 14.4846 137.518 13.1602 137.539 11.8338C137.512 10.507 137.644 9.18185 137.933 7.8869H126.143C126.432 9.18185 126.564 10.507 126.537 11.8338C126.558 13.1602 126.425 14.4846 126.143 15.7806C126.432 17.0732 126.565 18.3962 126.537 19.7207C126.558 21.0471 126.425 22.3715 126.143 23.6675C126.433 24.9623 126.565 26.2876 126.537 27.6144C126.558 28.9386 126.425 30.2607 126.143 31.5544C126.432 32.8493 126.565 34.1745 126.537 35.5013C126.558 36.8255 126.426 38.1477 126.143 39.4413C126.432 40.7363 126.564 42.0615 126.537 43.3882C126.558 44.7146 126.425 46.039 126.143 47.335H137.933C137.65 46.039 137.518 44.7146 137.539 43.3882C137.512 42.0615 137.644 40.7363 137.933 39.4413H141.865C141.582 38.1477 141.45 36.8255 141.471 35.5013Z" fill="var(--fill-0, white)"/>
<path id="Vector_5" d="M189.016 47.335C189.305 48.6276 189.437 49.9506 189.41 51.2751C189.43 52.6015 189.298 53.9259 189.016 55.2219H181.158C180.876 53.9259 180.744 52.6015 180.765 51.2751C180.737 49.9506 180.869 48.6276 181.158 47.335H178.211C177.929 46.039 177.797 44.7146 177.817 43.3882C177.79 42.0615 177.922 40.7363 178.211 39.4413H175.264C174.981 38.1477 174.849 36.8255 174.87 35.5013C174.842 34.1745 174.974 32.8493 175.264 31.5544H165.444C165.727 32.8502 165.857 34.175 165.831 35.5013C165.85 36.8251 165.72 38.1468 165.444 39.4413C165.727 40.7371 165.856 42.0619 165.831 43.3882C165.85 44.7142 165.72 46.0382 165.444 47.335C165.727 48.6285 165.857 49.951 165.831 51.2751C165.85 52.6011 165.72 53.9251 165.444 55.2219H157.559C157.28 53.9254 157.148 52.6014 157.165 51.2751C157.141 49.9507 157.273 48.6282 157.559 47.335C157.28 46.0385 157.148 44.7145 157.165 43.3882C157.141 42.0616 157.274 40.7368 157.559 39.4413C157.28 38.1472 157.148 36.8254 157.165 35.5013C157.141 34.1747 157.273 32.8499 157.559 31.5544C157.28 30.2602 157.148 28.9384 157.165 27.6144C157.141 26.2878 157.273 24.9629 157.559 23.6675C157.28 22.371 157.148 21.047 157.165 19.7207C157.141 18.3963 157.273 17.0737 157.559 15.7806C157.28 14.4841 157.148 13.1601 157.165 11.8338C157.141 10.5072 157.274 9.18239 157.559 7.8869C157.28 6.59266 157.148 5.27091 157.165 3.94686C157.141 2.62024 157.273 1.29537 157.559 0L185.07 0C185.356 1.29537 185.489 2.62024 185.464 3.94686C185.481 5.27091 185.349 6.59266 185.07 7.8869H188.995C189.284 9.18185 189.417 10.507 189.389 11.8338C189.41 13.1602 189.278 14.4846 188.995 15.7806H187.033C187.322 17.0732 187.454 18.3962 187.427 19.7207C187.447 21.0471 187.315 22.3715 187.033 23.6675H181.138C181.428 24.9623 181.56 26.2876 181.532 27.6144C181.552 28.9386 181.42 30.2607 181.138 31.5544H183.101C183.39 32.8493 183.522 34.1745 183.495 35.5013C183.516 36.8255 183.383 38.1477 183.101 39.4413H186.082C186.371 40.7363 186.503 42.0615 186.476 43.3882C186.496 44.7146 186.364 46.039 186.082 47.335H189.016ZM178.829 19.7207C178.801 18.3962 178.934 17.0732 179.223 15.7806C178.941 14.4846 178.809 13.1602 178.829 11.8338C178.802 10.507 178.934 9.18185 179.223 7.8869H165.444C165.727 9.18272 165.856 10.5075 165.831 11.8338C165.85 13.1598 165.72 14.4838 165.444 15.7806C165.727 17.0741 165.857 18.3966 165.831 19.7207C165.85 21.0467 165.72 22.3707 165.444 23.6675H179.196C178.914 22.3715 178.781 21.0471 178.802 19.7207H178.829Z" fill="var(--fill-0, white)"/>
<path id="Vector_6" d="M228.316 47.335C228.602 48.6282 228.734 49.9507 228.71 51.2751C228.727 52.6014 228.595 53.9254 228.316 55.2219H220.452C220.176 53.9251 220.046 52.6011 220.065 51.2751C220.039 49.951 220.169 48.6285 220.452 47.335C220.176 46.0382 220.046 44.7142 220.065 43.3882C220.039 42.0619 220.169 40.7371 220.452 39.4413H204.737C205.023 40.7368 205.155 42.0616 205.131 43.3882C205.148 44.7145 205.016 46.0385 204.737 47.335C205.023 48.6282 205.156 49.9507 205.131 51.2751C205.148 52.6014 205.016 53.9254 204.737 55.2219H196.88C196.598 53.9259 196.466 52.6015 196.486 51.2751C196.458 49.9506 196.591 48.6276 196.88 47.335C196.598 46.039 196.466 44.7146 196.486 43.3882C196.459 42.0615 196.591 40.7363 196.88 39.4413H199.827C199.545 38.1477 199.413 36.8255 199.433 35.5013C199.406 34.1745 199.538 32.8493 199.827 31.5544C199.545 30.2607 199.413 28.9386 199.433 27.6144C199.405 26.2876 199.538 24.9623 199.827 23.6675H201.79C201.508 22.3715 201.376 21.0471 201.396 19.7207C201.368 18.3962 201.501 17.0732 201.79 15.7806H204.737C204.455 14.4846 204.323 13.1602 204.344 11.8338C204.316 10.507 204.449 9.18185 204.737 7.8869H206.7C206.421 6.59266 206.289 5.27091 206.306 3.94686C206.282 2.62024 206.414 1.29537 206.7 0L218.49 0C218.779 1.29482 218.911 2.6201 218.883 3.94686C218.904 5.27106 218.772 6.5932 218.49 7.8869H220.452C220.741 9.18185 220.873 10.507 220.846 11.8338C220.867 13.1602 220.734 14.4846 220.452 15.7806H223.433C223.723 17.0732 223.855 18.3962 223.827 19.7207C223.848 21.0471 223.716 22.3715 223.433 23.6675H225.403C225.689 24.9629 225.821 26.2878 225.797 27.6144C225.814 28.9384 225.682 30.2602 225.403 31.5544C225.689 32.8499 225.821 34.1747 225.797 35.5013C225.814 36.8254 225.682 38.1472 225.403 39.4413H228.35C228.636 40.7368 228.768 42.0616 228.744 43.3882C228.75 44.7158 228.607 46.0398 228.316 47.335ZM217.118 27.6144C217.091 26.288 217.221 24.9632 217.505 23.6675H215.542C215.263 22.371 215.131 21.047 215.148 19.7207C215.124 18.3963 215.256 17.0737 215.542 15.7806H209.647C209.937 17.0732 210.069 18.3962 210.041 19.7207C210.062 21.0471 209.93 22.3715 209.647 23.6675H207.685C207.971 24.9629 208.103 26.2878 208.079 27.6144C208.096 28.9384 207.964 30.2602 207.685 31.5544H217.505C217.228 30.2599 217.099 28.9382 217.118 27.6144Z" fill="var(--fill-0, white)"/>
<path id="Vector_7" d="M268.004 11.8338C268.021 13.1601 267.889 14.4841 267.61 15.7806C267.896 17.0737 268.028 18.3963 268.004 19.7207C268.021 21.047 267.889 22.371 267.61 23.6675C267.896 24.9629 268.029 26.2878 268.004 27.6144C268.021 28.9384 267.889 30.2602 267.61 31.5544H264.663C264.949 32.8499 265.081 34.1747 265.057 35.5013C265.074 36.8254 264.942 38.1472 264.663 39.4413C264.948 40.7368 265.08 42.0616 265.057 43.3882C265.074 44.7145 264.942 46.0385 264.663 47.335H262.7C262.986 48.6282 263.118 49.9507 263.094 51.2751C263.111 52.6014 262.979 53.9254 262.7 55.2219H256.805C256.523 53.9259 256.391 52.6015 256.411 51.2751C256.384 49.9506 256.516 48.6276 256.805 47.335H254.843C254.56 46.039 254.428 44.7146 254.449 43.3882C254.422 42.0615 254.554 40.7363 254.843 39.4413H248.948C249.231 40.7371 249.361 42.0619 249.335 43.3882C249.354 44.7142 249.224 46.0382 248.948 47.335H246.978C247.268 48.6276 247.4 49.9506 247.372 51.2751C247.393 52.6015 247.261 53.9259 246.978 55.2219H241.091C240.812 53.9254 240.68 52.6014 240.697 51.2751C240.672 49.9507 240.805 48.6282 241.091 47.335H239.121C238.839 46.039 238.707 44.7146 238.727 43.3882C238.7 42.0615 238.832 40.7363 239.121 39.4413C238.838 38.1477 238.706 36.8255 238.727 35.5013C238.7 34.1745 238.832 32.8493 239.121 31.5544H236.174C235.892 30.2607 235.759 28.9386 235.78 27.6144C235.752 26.2876 235.884 24.9623 236.174 23.6675C235.892 22.3715 235.759 21.0471 235.78 19.7207C235.752 18.3962 235.884 17.0732 236.174 15.7806C235.892 14.4846 235.759 13.1602 235.78 11.8338C235.753 10.507 235.885 9.18185 236.174 7.8869C235.892 6.5932 235.759 5.27106 235.78 3.94686C235.752 2.6201 235.884 1.29482 236.174 0L244.031 0C244.321 1.29482 244.453 2.6201 244.425 3.94686C244.446 5.27106 244.313 6.5932 244.031 7.8869C244.32 9.18185 244.452 10.507 244.425 11.8338C244.446 13.1602 244.313 14.4846 244.031 15.7806C244.32 17.0732 244.453 18.3962 244.425 19.7207C244.446 21.0471 244.313 22.3715 244.031 23.6675C244.321 24.9623 244.453 26.2876 244.425 27.6144C244.446 28.9386 244.313 30.2607 244.031 31.5544C244.32 32.8493 244.453 34.1745 244.425 35.5013C244.446 36.8255 244.314 38.1477 244.031 39.4413H246.978C246.699 38.1472 246.567 36.8254 246.585 35.5013C246.56 34.1747 246.693 32.8499 246.978 31.5544H248.948C248.666 30.2607 248.534 28.9386 248.554 27.6144C248.526 26.2876 248.658 24.9623 248.948 23.6675C248.666 22.3715 248.534 21.0471 248.554 19.7207C248.526 18.3962 248.659 17.0732 248.948 15.7806C248.666 14.4846 248.534 13.1602 248.554 11.8338C248.527 10.507 248.659 9.18185 248.948 7.8869C248.668 6.59293 248.538 5.2708 248.561 3.94686C248.531 2.62038 248.661 1.2951 248.948 0L254.843 0C255.126 1.2957 255.256 2.62052 255.23 3.94686C255.249 5.27065 255.119 6.59237 254.843 7.8869C255.126 9.18272 255.255 10.5075 255.23 11.8338C255.249 13.1598 255.119 14.4838 254.843 15.7806C255.126 17.0741 255.256 18.3966 255.23 19.7207C255.249 21.0467 255.119 22.3707 254.843 23.6675C255.126 24.9632 255.256 26.288 255.23 27.6144C255.249 28.9382 255.119 30.2599 254.843 31.5544H256.805C257.091 32.8499 257.223 34.1747 257.199 35.5013C257.217 36.8254 257.085 38.1472 256.805 39.4413H259.753C259.47 38.1477 259.338 36.8255 259.359 35.5013C259.331 34.1745 259.463 32.8493 259.753 31.5544C259.47 30.2607 259.338 28.9386 259.359 27.6144C259.331 26.2876 259.463 24.9623 259.753 23.6675C259.47 22.3715 259.338 21.0471 259.359 19.7207C259.331 18.3962 259.463 17.0732 259.753 15.7806C259.47 14.4846 259.338 13.1602 259.359 11.8338C259.332 10.507 259.464 9.18185 259.753 7.8869C259.47 6.5932 259.338 5.27106 259.359 3.94686C259.331 2.6201 259.463 1.29482 259.753 0L267.61 0C267.896 1.29537 268.029 2.62024 268.004 3.94686C268.021 5.27091 267.889 6.59266 267.61 7.8869C267.896 9.18239 268.028 10.5072 268.004 11.8338Z" fill="var(--fill-0, white)"/>
<path id="Vector_8" d="M23.0939 81.3026H20.6559C20.7244 81.6228 20.7563 81.9499 20.751 82.2774C20.7548 82.6048 20.7229 82.9317 20.6559 83.2521H19.9225C19.9969 83.5715 20.0311 83.899 20.0243 84.2269C20.0294 84.5548 19.9952 84.8821 19.9225 85.2017H20.6559C20.7244 85.522 20.7563 85.849 20.751 86.1765C20.7548 86.5039 20.7229 86.8308 20.6559 87.1513H23.0939C23.1658 87.471 23.1977 87.7984 23.189 88.1261C23.1963 88.4536 23.1644 88.7809 23.0939 89.1009H20.4114C20.3409 88.7809 20.309 88.4536 20.3163 88.1261C20.3077 87.7984 20.3396 87.471 20.4114 87.1513H19.1958C19.1288 86.8308 19.0969 86.5039 19.1007 86.1765C19.0955 85.849 19.1274 85.522 19.1958 85.2017H18.4691C18.3987 84.8818 18.3667 84.5545 18.3741 84.2269C18.3654 83.8993 18.3973 83.5719 18.4691 83.2521H19.1958C19.1288 82.9317 19.0969 82.6048 19.1007 82.2774C19.0955 81.9499 19.1274 81.6228 19.1958 81.3026H20.4114C20.3409 80.9826 20.309 80.6554 20.3163 80.3278C20.308 80.0002 20.3399 79.6728 20.4114 79.353H23.0939C23.1654 79.6728 23.1973 80.0002 23.189 80.3278C23.1963 80.6554 23.1644 80.9826 23.0939 81.3026ZM26.3333 78.3918C26.3371 78.7193 26.3052 79.0462 26.2382 79.3666C26.3064 79.6869 26.3382 80.0139 26.3333 80.3414C26.3371 80.6689 26.3052 80.9957 26.2382 81.3162C26.3067 81.6365 26.3386 81.9635 26.3333 82.291C26.3371 82.6184 26.3052 82.9453 26.2382 83.2658C26.3067 83.586 26.3386 83.9131 26.3333 84.2406C26.3371 84.568 26.3052 84.8949 26.2382 85.2153C26.3067 85.5356 26.3386 85.8626 26.3333 86.1901C26.3371 86.5176 26.3052 86.8444 26.2382 87.1649C26.3067 87.4852 26.3386 87.8122 26.3333 88.1397C26.3371 88.4671 26.3052 88.794 26.2382 89.1145H24.296C24.2232 88.7948 24.189 88.4676 24.1941 88.1397C24.1873 87.8118 24.2215 87.4843 24.296 87.1649H23.5693C23.4966 86.8453 23.4624 86.518 23.4675 86.1901C23.4601 85.8599 23.4943 85.5301 23.5693 85.2085H24.296C24.2232 84.8889 24.189 84.5616 24.1941 84.2337C24.1873 83.9058 24.2215 83.5783 24.296 83.259H23.5693C23.4966 82.9393 23.4624 82.612 23.4675 82.2842C23.4606 81.9562 23.4949 81.6288 23.5693 81.3094H24.296C24.2232 80.9897 24.189 80.6625 24.1941 80.3346C24.1877 80.0067 24.2219 79.6793 24.296 79.3598C24.2232 79.0402 24.189 78.7129 24.1941 78.385C24.1872 78.0594 24.2214 77.7341 24.296 77.4171C24.2239 77.0973 24.1897 76.7701 24.1941 76.4423C24.1869 76.1143 24.2212 75.7868 24.296 75.4675H26.2382C26.3071 75.7877 26.339 76.1148 26.3333 76.4423C26.3364 76.7697 26.3046 77.0965 26.2382 77.4171C26.3072 77.7372 26.3391 78.0643 26.3333 78.3918Z" fill="var(--fill-0, white)"/>
<path id="Vector_9" d="M36.0447 82.2774C36.0498 82.6052 36.0156 82.9325 35.9428 83.2521H34.0006C33.9336 82.9317 33.9017 82.6048 33.9055 82.2774C33.9002 81.9499 33.9321 81.6228 34.0006 81.3026H32.3028C32.3746 81.6223 32.4065 81.9497 32.3978 82.2774C32.4052 82.6049 32.3732 82.9322 32.3028 83.2521H31.5761C31.6446 83.5724 31.6765 83.8994 31.6712 84.2269C31.675 84.5544 31.6431 84.8812 31.5761 85.2017C31.6446 85.522 31.6765 85.849 31.6712 86.1765C31.675 86.5039 31.6431 86.8308 31.5761 87.1513H33.0294C33.1039 87.4707 33.1381 87.7981 33.1313 88.1261C33.1364 88.4539 33.1022 88.7812 33.0294 89.1009H28.1805C28.1078 88.7812 28.0736 88.4539 28.0787 88.1261C28.0718 87.7981 28.1061 87.4707 28.1805 87.1513H29.6338C29.5634 86.8314 29.5314 86.5041 29.5388 86.1765C29.5301 85.8489 29.562 85.5214 29.6338 85.2017C29.5634 84.8818 29.5314 84.5545 29.5388 84.2269C29.5301 83.8993 29.562 83.5719 29.6338 83.2521C29.5634 82.9322 29.5314 82.6049 29.5388 82.2774C29.5301 81.9497 29.562 81.6223 29.6338 81.3026H28.1805C28.1078 80.9829 28.0736 80.6556 28.0787 80.3278C28.0723 79.9999 28.1065 79.6724 28.1805 79.353H30.605C30.6731 79.6733 30.705 80.0003 30.7 80.3278C30.7038 80.6552 30.672 80.9821 30.605 81.3026H31.5761C31.5056 80.9826 31.4737 80.6554 31.481 80.3278C31.4727 80.0002 31.5046 79.6728 31.5761 79.353H35.2162C35.2877 79.6728 35.3196 80.0002 35.3113 80.3278C35.3186 80.6554 35.2867 80.9826 35.2162 81.3026H35.9428C36.0173 81.6219 36.0515 81.9494 36.0447 82.2774Z" fill="var(--fill-0, white)"/>
<path id="Vector_10" d="M45.7493 88.1261C45.7531 88.4535 45.7212 88.7804 45.6542 89.1009H43.7119C43.6415 88.7809 43.6095 88.4537 43.6169 88.1261C43.6082 87.7984 43.6401 87.471 43.7119 87.1513H42.7408C42.6703 86.8314 42.6384 86.5041 42.6457 86.1765C42.637 85.8489 42.669 85.5214 42.7408 85.2017H39.8274C39.8992 85.5214 39.9311 85.8489 39.9225 86.1765C39.9298 86.5041 39.8979 86.8314 39.8274 87.1513H42.7408C42.8126 87.471 42.8446 87.7984 42.8359 88.1261C42.8432 88.4537 42.8113 88.7809 42.7408 89.1009H38.8562C38.7893 88.7804 38.7574 88.4535 38.7612 88.1261C38.7559 87.7986 38.7878 87.4715 38.8562 87.1513H37.8851C37.8181 86.8308 37.7862 86.5039 37.79 86.1765C37.7848 85.849 37.8167 85.522 37.8851 85.2017H38.8562C38.7893 84.8812 38.7574 84.5544 38.7612 84.2269C38.7559 83.8994 38.7878 83.5724 38.8562 83.2521H42.7408C42.6703 82.9322 42.6384 82.6049 42.6457 82.2774C42.637 81.9497 42.669 81.6223 42.7408 81.3026H39.3452C39.2724 80.9829 39.2382 80.6556 39.2433 80.3278C39.237 79.9999 39.2712 79.6724 39.3452 79.353H43.7119C43.7834 79.6728 43.8153 80.0002 43.807 80.3278C43.8143 80.6554 43.7824 80.9826 43.7119 81.3026H44.6831C44.7515 81.6228 44.7834 81.9499 44.7781 82.2774C44.7819 82.6048 44.7501 82.9317 44.6831 83.2521C44.7515 83.5724 44.7834 83.8994 44.7781 84.2269C44.7819 84.5544 44.7501 84.8812 44.6831 85.2017C44.7515 85.522 44.7834 85.849 44.7781 86.1765C44.7819 86.5039 44.7501 86.8308 44.6831 87.1513H45.6542C45.7227 87.4715 45.7546 87.7986 45.7493 88.1261Z" fill="var(--fill-0, white)"/>
<path id="Vector_11" d="M55.3656 81.3026C55.434 81.6228 55.4659 81.9499 55.4607 82.2774C55.4645 82.6048 55.4326 82.9317 55.3656 83.2521H54.6321C54.7066 83.5715 54.7408 83.899 54.734 84.2269C54.7391 84.5548 54.7049 84.8821 54.6321 85.2017C54.7066 85.5211 54.7408 85.8486 54.734 86.1765C54.7391 86.5044 54.7049 86.8316 54.6321 87.1513H54.15C54.2184 87.4715 54.2503 87.7986 54.245 88.1261C54.2488 88.4535 54.217 88.7804 54.15 89.1009H52.6899C52.6229 88.7804 52.591 88.4535 52.5948 88.1261C52.5895 87.7986 52.6214 87.4715 52.6899 87.1513H52.2077C52.1372 86.8314 52.1053 86.5041 52.1126 86.1765C52.1039 85.8489 52.1359 85.5214 52.2077 85.2017H50.7476C50.822 85.5211 50.8563 85.8486 50.8495 86.1765C50.8546 86.5044 50.8203 86.8316 50.7476 87.1513H50.2586C50.3271 87.4715 50.359 87.7986 50.3537 88.1261C50.3575 88.4535 50.3256 88.7804 50.2586 89.1009H48.8121C48.7393 88.7812 48.7051 88.4539 48.7102 88.1261C48.7034 87.7981 48.7376 87.4707 48.8121 87.1513H48.3231C48.2527 86.8314 48.2207 86.5041 48.2281 86.1765C48.2194 85.8489 48.2513 85.5214 48.3231 85.2017C48.2527 84.8818 48.2207 84.5545 48.2281 84.2269C48.2194 83.8993 48.2513 83.5719 48.3231 83.2521H47.5965C47.526 82.9322 47.4941 82.6049 47.5014 82.2774C47.4927 81.9497 47.5247 81.6223 47.5965 81.3026C47.526 80.9826 47.4941 80.6554 47.5014 80.3278C47.4931 80.0002 47.525 79.6728 47.5965 79.353H49.5388C49.6069 79.6733 49.6388 80.0003 49.6338 80.3278C49.6376 80.6552 49.6058 80.9821 49.5388 81.3026C49.6072 81.6228 49.6391 81.9499 49.6338 82.2774C49.6376 82.6048 49.6058 82.9317 49.5388 83.2521C49.6072 83.5724 49.6391 83.8994 49.6338 84.2269C49.6376 84.5544 49.6058 84.8812 49.5388 85.2017H50.2586C50.1881 84.8818 50.1562 84.5545 50.1635 84.2269C50.1549 83.8993 50.1868 83.5719 50.2586 83.2521H50.7408C50.6738 82.9317 50.6419 82.6048 50.6457 82.2774C50.6404 81.9499 50.6723 81.6228 50.7408 81.3026C50.6738 80.9821 50.6419 80.6552 50.6457 80.3278C50.6408 80.0003 50.6727 79.6733 50.7408 79.353H52.2009C52.269 79.6733 52.3009 80.0003 52.296 80.3278C52.2998 80.6552 52.2679 80.9821 52.2009 81.3026C52.2693 81.6228 52.3012 81.9499 52.296 82.2774C52.2998 82.6048 52.2679 82.9317 52.2009 83.2521H52.6831C52.7575 83.5715 52.7917 83.899 52.7849 84.2269C52.79 84.5548 52.7558 84.8821 52.6831 85.2017H53.4165C53.3438 84.8821 53.3096 84.5548 53.3146 84.2269C53.3078 83.899 53.3421 83.5715 53.4165 83.2521C53.3438 82.9325 53.3096 82.6052 53.3146 82.2774C53.3078 81.9494 53.3421 81.6219 53.4165 81.3026C53.3438 80.9829 53.3096 80.6556 53.3146 80.3278C53.3083 79.9999 53.3425 79.6724 53.4165 79.353H55.3588C55.4269 79.6733 55.4588 80.0003 55.4539 80.3278C55.4599 80.655 55.4303 80.9818 55.3656 81.3026Z" fill="var(--fill-0, white)"/>
<path id="Vector_12" d="M74.7815 81.3026C74.85 81.6228 74.8819 81.9499 74.8766 82.2774C74.8804 82.6048 74.8485 82.9317 74.7815 83.2521H74.0277C74.0962 83.5724 74.1281 83.8994 74.1228 84.2269C74.1271 84.5566 74.0952 84.8858 74.0277 85.2085C74.0962 85.5288 74.1281 85.8558 74.1228 86.1833C74.1266 86.5108 74.0947 86.8376 74.0277 87.1581H73.5388C73.6106 87.4778 73.6425 87.8053 73.6338 88.1329C73.6412 88.4605 73.6092 88.7877 73.5388 89.1077H72.0854C72.0127 88.788 71.9785 88.4607 71.9836 88.1329C71.9768 87.805 72.011 87.4775 72.0854 87.1581H71.5965C71.5295 86.8376 71.4976 86.5108 71.5014 86.1833C71.4961 85.8558 71.528 85.5288 71.5965 85.2085H70.1432C70.2116 85.5288 70.2435 85.8558 70.2382 86.1833C70.242 86.5108 70.2102 86.8376 70.1432 87.1581H69.6542C69.726 87.4778 69.758 87.8053 69.7493 88.1329C69.7566 88.4605 69.7247 88.7877 69.6542 89.1077H68.2009C68.1281 88.788 68.0939 88.4607 68.099 88.1329C68.0922 87.805 68.1264 87.4775 68.2009 87.1581H67.7119C67.6449 86.8376 67.6131 86.5108 67.6169 86.1833C67.6116 85.8558 67.6435 85.5288 67.7119 85.2085C67.6449 84.8881 67.6131 84.5612 67.6169 84.2337C67.6116 83.9062 67.6435 83.5792 67.7119 83.259H67.0124C66.942 82.939 66.91 82.6118 66.9174 82.2842C66.9087 81.9565 66.9406 81.6291 67.0124 81.3094C66.942 80.9895 66.91 80.6622 66.9174 80.3346C66.909 80.007 66.941 79.6796 67.0124 79.3598H68.9547C69.0228 79.6801 69.0547 80.0071 69.0498 80.3346C69.0536 80.662 69.0217 80.9889 68.9547 81.3094C69.0232 81.6296 69.0551 81.9567 69.0498 82.2842C69.0536 82.6116 69.0217 82.9385 68.9547 83.259C69.0232 83.5792 69.0551 83.9062 69.0498 84.2337C69.0536 84.5612 69.0217 84.8881 68.9547 85.2085H69.6814C69.6144 84.8881 69.5825 84.5612 69.5863 84.2337C69.581 83.9062 69.6129 83.5792 69.6814 83.259H70.1703C70.0976 82.9393 70.0634 82.612 70.0685 82.2842C70.0617 81.9562 70.0959 81.6288 70.1703 81.3094C70.0976 80.9897 70.0634 80.6625 70.0685 80.3346C70.0621 80.0067 70.0963 79.6793 70.1703 79.3598H71.6236C71.6951 79.6796 71.7271 80.007 71.7187 80.3346C71.726 80.6622 71.6941 80.9895 71.6236 81.3094C71.6955 81.6291 71.7274 81.9565 71.7187 82.2842C71.726 82.6118 71.6941 82.939 71.6236 83.259H72.1126C72.1811 83.5792 72.213 83.9062 72.2077 84.2337C72.2115 84.5612 72.1796 84.8881 72.1126 85.2085H72.8393C72.7665 84.8889 72.7323 84.5616 72.7374 84.2337C72.7306 83.9058 72.7648 83.5783 72.8393 83.259C72.7665 82.9393 72.7323 82.612 72.7374 82.2842C72.7306 81.9562 72.7648 81.6288 72.8393 81.3094C72.7665 80.9897 72.7323 80.6625 72.7374 80.3346C72.731 80.0067 72.7652 79.6793 72.8393 79.3598H74.7815C74.8496 79.6801 74.8815 80.0071 74.8766 80.3346C74.8799 80.6598 74.848 80.9843 74.7815 81.3026Z" fill="var(--fill-0, white)"/>
<path id="Vector_13" d="M83.6169 88.1261C83.622 88.4539 83.5878 88.7812 83.515 89.1009H77.695C77.6222 88.7812 77.588 88.4539 77.5931 88.1261C77.5863 87.7981 77.6205 87.4707 77.695 87.1513H79.6372C79.5645 86.8316 79.5303 86.5044 79.5354 86.1765C79.5286 85.8486 79.5628 85.5211 79.6372 85.2017C79.5645 84.8821 79.5303 84.5548 79.5354 84.2269C79.5286 83.899 79.5628 83.5715 79.6372 83.2521C79.5645 82.9325 79.5303 82.6052 79.5354 82.2774C79.5286 81.9494 79.5628 81.6219 79.6372 81.3026H78.1771C78.1101 80.9821 78.0783 80.6552 78.0821 80.3278C78.0771 80.0003 78.109 79.6733 78.1771 79.353H81.5727C81.6408 79.6733 81.6727 80.0003 81.6678 80.3278C81.6716 80.6552 81.6397 80.9821 81.5727 81.3026C81.6412 81.6228 81.6731 81.9499 81.6678 82.2774C81.6716 82.6048 81.6397 82.9317 81.5727 83.2521C81.6412 83.5724 81.6731 83.8994 81.6678 84.2269C81.6716 84.5544 81.6397 84.8812 81.5727 85.2017C81.6412 85.522 81.6731 85.849 81.6678 86.1765C81.6716 86.5039 81.6397 86.8308 81.5727 87.1513H83.5354C83.603 87.4715 83.6304 87.799 83.6169 88.1261ZM79.6372 77.4102C79.5651 77.0905 79.5309 76.7633 79.5354 76.4355C79.5282 76.1075 79.5624 75.78 79.6372 75.4607H81.5795C81.6483 75.7809 81.6802 76.108 81.6746 76.4355C81.6777 76.7629 81.6458 77.0897 81.5795 77.4102H79.6372Z" fill="var(--fill-0, white)"/>
<path id="Vector_14" d="M93.2264 87.1513C93.2982 87.471 93.3301 87.7984 93.3214 88.1261C93.3288 88.4537 93.2969 88.7809 93.2264 89.1009H89.3418C89.2748 88.7804 89.2429 88.4535 89.2467 88.1261C89.2415 87.7986 89.2734 87.4715 89.3418 87.1513H88.3707C88.3037 86.8308 88.2718 86.5039 88.2756 86.1765C88.2703 85.849 88.3022 85.522 88.3707 85.2017C88.3037 84.8812 88.2718 84.5544 88.2756 84.2269C88.2703 83.8994 88.3022 83.5724 88.3707 83.2521C88.3037 82.9317 88.2718 82.6048 88.2756 82.2774C88.2703 81.9499 88.3022 81.6228 88.3707 81.3026H86.4284C86.3614 80.9821 86.3295 80.6552 86.3333 80.3278C86.3284 80.0003 86.3603 79.6733 86.4284 79.353H88.3707C88.3092 79.0365 88.2819 78.7142 88.2892 78.3919C88.2839 78.0666 88.3158 77.7418 88.3843 77.4239C88.318 77.1033 88.2861 76.7765 88.2892 76.4491C88.2836 76.1216 88.3155 75.7945 88.3843 75.4743H90.3265C90.3987 75.794 90.4307 76.1215 90.4216 76.4491C90.4281 76.7766 90.3962 77.1038 90.3265 77.4239C90.3984 77.7413 90.4303 78.0665 90.4216 78.3919C90.4289 78.7194 90.397 79.0467 90.3265 79.3666H93.2399C93.3114 79.6864 93.3434 80.0138 93.335 80.3414C93.3423 80.669 93.3104 80.9963 93.2399 81.3162H90.3265C90.3984 81.6359 90.4303 81.9634 90.4216 82.291C90.4289 82.6186 90.397 82.9458 90.3265 83.2658C90.3984 83.5855 90.4303 83.9129 90.4216 84.2406C90.4284 84.5659 90.3965 84.8908 90.3265 85.2085C90.3984 85.5283 90.4303 85.8557 90.4216 86.1833C90.4289 86.5109 90.397 86.8382 90.3265 87.1581L93.2264 87.1513Z" fill="var(--fill-0, white)"/>
<path id="Vector_15" d="M98.0821 81.3026H98.8087C98.8772 81.6228 98.9091 81.9499 98.9038 82.2774C98.9076 82.6048 98.8757 82.9317 98.8087 83.2521H98.0821C98.1505 83.5724 98.1824 83.8994 98.1771 84.2269C98.1809 84.5544 98.149 84.8812 98.0821 85.2017C98.1505 85.522 98.1824 85.849 98.1771 86.1765C98.1809 86.5039 98.149 86.8308 98.0821 87.1513C98.1505 87.4715 98.1824 87.7986 98.1771 88.1261C98.1809 88.4535 98.149 88.7804 98.0821 89.1009H96.1398C96.0693 88.7809 96.0374 88.4537 96.0447 88.1261C96.036 87.7984 96.068 87.471 96.1398 87.1513C96.0693 86.8314 96.0374 86.5041 96.0447 86.1765C96.036 85.8489 96.068 85.5214 96.1398 85.2017C96.0693 84.8818 96.0374 84.5545 96.0447 84.2269C96.036 83.8993 96.068 83.5719 96.1398 83.2521C96.0693 82.9322 96.0374 82.6049 96.0447 82.2774C96.036 81.9497 96.068 81.6223 96.1398 81.3026C96.0693 80.9826 96.0374 80.6554 96.0447 80.3278C96.0364 80.0002 96.0683 79.6728 96.1398 79.353C96.0693 79.0331 96.0374 78.7058 96.0447 78.3782C96.036 78.0528 96.068 77.7277 96.1398 77.4102C96.0701 77.0902 96.0382 76.763 96.0447 76.4355C96.0357 76.1078 96.0676 75.7803 96.1398 75.4607H98.0821C98.1509 75.7809 98.1828 76.108 98.1771 76.4355C98.1802 76.7629 98.1484 77.0897 98.0821 77.4102C98.1505 77.7282 98.1824 78.053 98.1771 78.3782C98.1809 78.7057 98.149 79.0325 98.0821 79.353C98.1502 79.6733 98.182 80.0003 98.1771 80.3278C98.1809 80.6552 98.149 80.9821 98.0821 81.3026ZM104.004 84.2269C104.008 84.5566 103.976 84.8858 103.909 85.2085C103.977 85.5288 104.009 85.8558 104.004 86.1833C104.008 86.5108 103.976 86.8376 103.909 87.1581C103.977 87.4784 104.009 87.8054 104.004 88.1329C104.008 88.4603 103.976 88.7872 103.909 89.1077H101.967C101.894 88.788 101.86 88.4607 101.865 88.1329C101.858 87.805 101.892 87.4775 101.967 87.1581C101.894 86.8385 101.86 86.5112 101.865 86.1833C101.858 85.8554 101.892 85.5279 101.967 85.2085C101.894 84.8889 101.86 84.5616 101.865 84.2338C101.858 83.9058 101.892 83.5783 101.967 83.259C101.894 82.9393 101.86 82.612 101.865 82.2842C101.858 81.9563 101.892 81.6288 101.967 81.3094H98.8087C98.7382 80.9895 98.7063 80.6622 98.7136 80.3346C98.7053 80.007 98.7372 79.6796 98.8087 79.3598H102.693C102.761 79.6801 102.793 80.0071 102.788 80.3346C102.792 80.662 102.76 80.9889 102.693 81.3094H103.909C103.977 81.6296 104.009 81.9567 104.004 82.2842C104.008 82.6116 103.976 82.9385 103.909 83.259C103.977 83.577 104.009 83.9017 104.004 84.2269Z" fill="var(--fill-0, white)"/>
<path id="Vector_16" d="M123.325 81.3026H122.598C122.667 81.6228 122.699 81.9499 122.693 82.2774C122.697 82.6048 122.665 82.9317 122.598 83.2521H121.865C121.939 83.5715 121.973 83.899 121.967 84.2269C121.972 84.5548 121.937 84.8821 121.865 85.2017H121.383C121.451 85.522 121.483 85.849 121.478 86.1765C121.481 86.5039 121.45 86.8308 121.383 87.1513H120.656C120.724 87.4715 120.756 87.7986 120.751 88.1261C120.755 88.4535 120.723 88.7804 120.656 89.1009H120.167C120.239 89.4206 120.271 89.748 120.262 90.0756C120.269 90.4032 120.237 90.7304 120.167 91.0504H119.196C119.27 91.3698 119.304 91.6973 119.298 92.0252C119.303 92.3531 119.269 92.6803 119.196 93H116.282C116.216 92.6795 116.184 92.3526 116.187 92.0252C116.182 91.6977 116.214 91.3707 116.282 91.0504H118.225C118.158 90.7299 118.126 90.4031 118.13 90.0756C118.124 89.7481 118.156 89.4211 118.225 89.1009C118.158 88.7804 118.126 88.4535 118.13 88.1261C118.124 87.7986 118.156 87.4715 118.225 87.1513H117.254C117.187 86.8308 117.155 86.5039 117.158 86.1765C117.153 85.849 117.185 85.522 117.254 85.2017H116.771C116.699 84.8821 116.664 84.5548 116.669 84.2269C116.663 83.899 116.697 83.5715 116.771 83.2521H116.045C115.972 82.9325 115.938 82.6052 115.943 82.2774C115.936 81.9494 115.97 81.6219 116.045 81.3026H115.311C115.244 80.9821 115.212 80.6552 115.216 80.3278C115.211 80.0003 115.243 79.6733 115.311 79.353H117.254C117.328 79.6724 117.362 79.9999 117.355 80.3278C117.36 80.6556 117.326 80.9829 117.254 81.3026H117.987C118.055 81.6228 118.087 81.9499 118.082 82.2774C118.086 82.6048 118.054 82.9317 117.987 83.2521H118.714C118.782 83.5724 118.814 83.8994 118.809 84.2269C118.813 84.5544 118.781 84.8812 118.714 85.2017C118.782 85.522 118.814 85.849 118.809 86.1765C118.813 86.5039 118.781 86.8308 118.714 87.1513H119.44C119.37 86.8314 119.338 86.5041 119.345 86.1765C119.337 85.8489 119.368 85.5214 119.44 85.2017H119.922C119.855 84.8812 119.824 84.5544 119.827 84.2269C119.822 83.8994 119.854 83.5724 119.922 83.2521H120.656C120.583 82.9325 120.549 82.6052 120.554 82.2774C120.547 81.9494 120.581 81.6219 120.656 81.3026H121.383C121.312 80.9826 121.28 80.6554 121.287 80.3278C121.279 80.0002 121.311 79.6728 121.383 79.353H123.325C123.393 79.6733 123.425 80.0003 123.42 80.3278C123.424 80.6552 123.392 80.9821 123.325 81.3026Z" fill="var(--fill-0, white)"/>
<path id="Vector_17" d="M133.029 85.2085H132.303C132.377 85.5279 132.411 85.8554 132.405 86.1833C132.41 86.5112 132.376 86.8384 132.303 87.1581H131.074C131.142 87.4784 131.174 87.8054 131.169 88.1329C131.172 88.4603 131.141 88.7872 131.074 89.1077H127.189C127.116 88.788 127.082 88.4607 127.087 88.1329C127.08 87.805 127.115 87.4775 127.189 87.1581H125.973C125.903 86.8382 125.871 86.5109 125.878 86.1833C125.87 85.8557 125.902 85.5283 125.973 85.2085H125.247C125.174 84.8889 125.14 84.5616 125.145 84.2337C125.138 83.9058 125.172 83.5783 125.247 83.259H125.973C125.903 82.939 125.871 82.6118 125.878 82.2842C125.87 81.9565 125.902 81.6291 125.973 81.3094H127.189C127.116 80.9897 127.082 80.6625 127.087 80.3346C127.081 80.0067 127.115 79.6793 127.189 79.3598H131.074C131.142 79.6801 131.174 80.0071 131.169 80.3346C131.172 80.662 131.141 80.9889 131.074 81.3094H132.282C132.357 81.6288 132.391 81.9562 132.384 82.2842C132.389 82.612 132.355 82.9393 132.282 83.259H133.009C133.083 83.5783 133.118 83.9058 133.111 84.2337C133.123 84.5608 133.095 84.888 133.029 85.2085ZM131.074 85.2085C131.001 84.8889 130.967 84.5616 130.972 84.2337C130.965 83.9058 130.999 83.5783 131.074 83.259H130.394C130.327 82.9385 130.296 82.6116 130.299 82.2842C130.294 81.9567 130.326 81.6296 130.394 81.3094H127.97C128.038 81.6296 128.07 81.9567 128.065 82.2842C128.069 82.6116 128.037 82.9385 127.97 83.259H127.243C127.312 83.5792 127.344 83.9062 127.338 84.2337C127.342 84.5612 127.31 84.8881 127.243 85.2085H127.97C128.038 85.5288 128.07 85.8558 128.065 86.1833C128.069 86.5108 128.037 86.8376 127.97 87.1581H130.394C130.327 86.8376 130.296 86.5108 130.299 86.1833C130.294 85.8558 130.326 85.5288 130.394 85.2085H131.074Z" fill="var(--fill-0, white)"/>
<path id="Vector_18" d="M137.641 87.1513H140.072C140.14 87.4715 140.172 87.7986 140.167 88.1261C140.171 88.4535 140.139 88.7804 140.072 89.1009H136.187C136.117 88.7809 136.085 88.4537 136.092 88.1261C136.084 87.7984 136.115 87.471 136.187 87.1513H134.972C134.905 86.8308 134.873 86.5039 134.877 86.1765C134.871 85.849 134.903 85.522 134.972 85.2017C134.905 84.8812 134.873 84.5544 134.877 84.2269C134.871 83.8994 134.903 83.5724 134.972 83.2521C134.905 82.9317 134.873 82.6048 134.877 82.2774C134.871 81.9499 134.903 81.6228 134.972 81.3026C134.905 80.9821 134.873 80.6552 134.877 80.3278C134.872 80.0003 134.904 79.6733 134.972 79.353H136.914C136.988 79.6724 137.022 79.9999 137.016 80.3278C137.021 80.6556 136.987 80.9829 136.914 81.3026C136.988 81.6219 137.023 81.9494 137.016 82.2774C137.021 82.6052 136.987 82.9325 136.914 83.2521C136.988 83.5715 137.023 83.899 137.016 84.2269C137.021 84.5548 136.987 84.8821 136.914 85.2017H137.641C137.715 85.5211 137.749 85.8486 137.743 86.1765C137.748 86.5044 137.713 86.8316 137.641 87.1513ZM142.836 82.2774C142.843 82.6049 142.811 82.9322 142.741 83.2521C142.813 83.5719 142.845 83.8993 142.836 84.2269C142.843 84.5545 142.811 84.8818 142.741 85.2017C142.813 85.5214 142.845 85.8489 142.836 86.1765C142.843 86.5041 142.811 86.8314 142.741 87.1513C142.813 87.471 142.845 87.7984 142.836 88.1261C142.843 88.4537 142.811 88.7809 142.741 89.1009H140.799C140.732 88.7804 140.7 88.4535 140.703 88.1261C140.698 87.7986 140.73 87.4715 140.799 87.1513H140.072C140.001 86.8314 139.969 86.5041 139.977 86.1765C139.968 85.8489 140 85.5214 140.072 85.2017H140.799C140.732 84.8812 140.7 84.5544 140.703 84.2269C140.698 83.8994 140.73 83.5724 140.799 83.2521C140.732 82.9317 140.7 82.6048 140.703 82.2774C140.698 81.9499 140.73 81.6228 140.799 81.3026C140.732 80.9821 140.7 80.6552 140.703 80.3278C140.699 80.0003 140.73 79.6733 140.799 79.353H142.741C142.812 79.6728 142.844 80.0002 142.836 80.3278C142.843 80.6554 142.811 80.9826 142.741 81.3026C142.813 81.6223 142.845 81.9497 142.836 82.2774Z" fill="var(--fill-0, white)"/>
<path id="Vector_19" d="M152.547 82.2774C152.551 82.6048 152.519 82.9317 152.452 83.2521H150.51C150.437 82.9325 150.403 82.6052 150.408 82.2774C150.401 81.9494 150.435 81.6219 150.51 81.3026H148.812C148.881 81.6228 148.912 81.9499 148.907 82.2774C148.911 82.6048 148.879 82.9317 148.812 83.2521H148.051C148.126 83.5715 148.16 83.899 148.153 84.2269C148.159 84.5571 148.125 84.8867 148.051 85.2085C148.126 85.5279 148.16 85.8554 148.153 86.1833C148.158 86.5112 148.124 86.8384 148.051 87.1581H149.512C149.58 87.4784 149.612 87.8054 149.607 88.1329C149.61 88.4603 149.579 88.7872 149.512 89.1077H144.656C144.585 88.7877 144.554 88.4605 144.561 88.1329C144.552 87.8053 144.584 87.4778 144.656 87.1581H146.109C146.042 86.8376 146.01 86.5108 146.014 86.1833C146.009 85.8558 146.041 85.5288 146.109 85.2085C146.042 84.8881 146.01 84.5612 146.014 84.2337C146.009 83.9062 146.041 83.5792 146.109 83.259C146.042 82.9385 146.01 82.6116 146.014 82.2842C146.009 81.9567 146.041 81.6296 146.109 81.3094H144.656C144.585 80.9895 144.554 80.6622 144.561 80.3346C144.552 80.007 144.584 79.6796 144.656 79.3598H147.08C147.154 79.6793 147.189 80.0067 147.182 80.3346C147.187 80.6625 147.153 80.9897 147.08 81.3094H148.051C147.984 80.9889 147.953 80.662 147.956 80.3346C147.951 80.0071 147.983 79.6801 148.051 79.3598H151.692C151.766 79.6793 151.8 80.0067 151.793 80.3346C151.799 80.6625 151.764 80.9897 151.692 81.3094H152.425C152.502 81.6264 152.543 81.9511 152.547 82.2774Z" fill="var(--fill-0, white)"/>
<path id="Vector_20" d="M171.963 88.1261C171.967 88.4535 171.935 88.7804 171.868 89.1009H168.473C168.4 88.7812 168.366 88.4539 168.371 88.1261C168.364 87.7981 168.398 87.4707 168.473 87.1513H167.501C167.429 86.8316 167.394 86.5044 167.4 86.1765C167.393 85.8486 167.427 85.5211 167.501 85.2017H166.041C166.113 85.5214 166.145 85.8489 166.136 86.1765C166.144 86.5041 166.112 86.8314 166.041 87.1513C166.113 87.471 166.145 87.7984 166.136 88.1261C166.144 88.4537 166.112 88.7809 166.041 89.1009H164.099C164.032 88.7804 164 88.4535 164.004 88.1261C163.999 87.7986 164.031 87.4715 164.099 87.1513C164.032 86.8308 164 86.5039 164.004 86.1765C163.999 85.849 164.031 85.522 164.099 85.2017C164.032 84.8812 164 84.5544 164.004 84.2269C163.999 83.8994 164.031 83.5724 164.099 83.2521C164.032 82.9317 164 82.6048 164.004 82.2774C163.999 81.9499 164.031 81.6228 164.099 81.3026C164.032 80.9821 164 80.6552 164.004 80.3278C163.999 80.0003 164.031 79.6733 164.099 79.353C164.032 79.0325 164 78.7057 164.004 78.3782C163.999 78.053 164.031 77.7282 164.099 77.4102C164.033 77.0897 164.001 76.7629 164.004 76.4355C163.998 76.108 164.03 75.7809 164.099 75.4607H166.041C166.113 75.7803 166.145 76.1078 166.136 76.4355C166.143 76.763 166.111 77.0902 166.041 77.4102C166.113 77.7277 166.145 78.0528 166.136 78.3782C166.144 78.7058 166.112 79.0331 166.041 79.353C166.113 79.6728 166.145 80.0002 166.136 80.3278C166.144 80.6554 166.112 80.9826 166.041 81.3026C166.113 81.6223 166.145 81.9497 166.136 82.2774C166.144 82.6049 166.112 82.9322 166.041 83.2521H167.501C167.429 82.9325 167.394 82.6052 167.4 82.2774C167.393 81.9494 167.427 81.6219 167.501 81.3026H168.473C168.4 80.9829 168.366 80.6556 168.371 80.3278C168.364 79.9999 168.399 79.6725 168.473 79.353H171.379C171.453 79.6725 171.487 79.9999 171.481 80.3278C171.486 80.6556 171.452 80.9829 171.379 81.3026H169.444C169.512 81.6228 169.544 81.9499 169.539 82.2774C169.543 82.6048 169.511 82.9317 169.444 83.2521H168.473C168.541 83.5724 168.573 83.8994 168.568 84.2269C168.571 84.5544 168.54 84.8812 168.473 85.2017H169.444C169.512 85.522 169.544 85.849 169.539 86.1765C169.543 86.5039 169.511 86.8308 169.444 87.1513H171.868C171.937 87.4715 171.968 87.7986 171.963 88.1261Z" fill="var(--fill-0, white)"/>
<path id="Vector_21" d="M181.579 83.2521C181.648 83.5724 181.68 83.8994 181.675 84.2269C181.678 84.5544 181.646 84.8812 181.579 85.2017H176.479C176.548 85.522 176.58 85.849 176.574 86.1765C176.578 86.5039 176.546 86.8308 176.479 87.1513H180.608C180.677 87.4715 180.709 87.7986 180.703 88.1261C180.707 88.4535 180.675 88.7804 180.608 89.1009H175.753C175.68 88.7812 175.646 88.4539 175.651 88.1261C175.644 87.7981 175.678 87.4707 175.753 87.1513H174.537C174.467 86.8314 174.435 86.5041 174.442 86.1765C174.434 85.8511 174.466 85.526 174.537 85.2085H173.81C173.74 84.8886 173.708 84.5613 173.715 84.2337C173.707 83.9061 173.739 83.5787 173.81 83.259H174.537C174.467 82.939 174.435 82.6118 174.442 82.2842C174.433 81.9565 174.465 81.6291 174.537 81.3094H175.753C175.68 80.9897 175.646 80.6625 175.651 80.3346C175.644 80.0067 175.679 79.6793 175.753 79.3598H180.608C180.676 79.6801 180.708 80.0071 180.703 80.3346C180.707 80.662 180.675 80.9889 180.608 81.3094H181.579C181.648 81.6296 181.68 81.9567 181.675 82.2842C181.678 82.6093 181.646 82.9339 181.579 83.2521ZM179.542 82.2774C179.535 81.9494 179.57 81.6219 179.644 81.3026H176.486C176.555 81.6228 176.586 81.9499 176.581 82.2774C176.585 82.6048 176.553 82.9317 176.486 83.2521H179.644C179.569 82.9328 179.532 82.6055 179.535 82.2774H179.542Z" fill="var(--fill-0, white)"/>
<path id="Vector_22" d="M191.284 81.3026H190.557C190.626 81.6228 190.658 81.9499 190.653 82.2774C190.656 82.6048 190.624 82.9317 190.557 83.2521H189.831C189.899 83.5724 189.931 83.8994 189.926 84.2269C189.93 84.5544 189.898 84.8812 189.831 85.2017H189.342C189.416 85.5211 189.45 85.8486 189.444 86.1765C189.449 86.5044 189.415 86.8316 189.342 87.1513H188.615C188.687 87.471 188.719 87.7984 188.71 88.1261C188.718 88.4537 188.686 88.7809 188.615 89.1009H188.119C188.188 89.4211 188.22 89.7481 188.214 90.0756C188.218 90.4031 188.186 90.7299 188.119 91.0504H187.148C187.217 91.3707 187.249 91.6977 187.243 92.0252C187.247 92.3526 187.215 92.6795 187.148 93H184.248C184.176 92.6803 184.141 92.3531 184.147 92.0252C184.14 91.6973 184.174 91.3698 184.248 91.0504H186.191C186.118 90.7308 186.084 90.4035 186.089 90.0756C186.082 89.7477 186.116 89.4202 186.191 89.1009C186.118 88.7812 186.084 88.4539 186.089 88.1261C186.082 87.7981 186.116 87.4707 186.191 87.1513H185.22C185.147 86.8316 185.113 86.5044 185.118 86.1765C185.111 85.8486 185.145 85.5211 185.22 85.2017H184.724C184.657 84.8812 184.625 84.5544 184.629 84.2269C184.623 83.8994 184.655 83.5724 184.724 83.2521H183.997C183.927 82.9322 183.895 82.6049 183.902 82.2774C183.893 81.9497 183.925 81.6223 183.997 81.3026H183.27C183.198 80.9829 183.164 80.6556 183.169 80.3278C183.162 79.9999 183.196 79.6724 183.27 79.353H185.213C185.281 79.6733 185.313 80.0003 185.308 80.3278C185.312 80.6552 185.28 80.9821 185.213 81.3026H185.939C186.008 81.6228 186.04 81.9499 186.035 82.2774C186.038 82.6048 186.006 82.9317 185.939 83.2521H186.666C186.738 83.5719 186.77 83.8993 186.761 84.2269C186.768 84.5545 186.737 84.8818 186.666 85.2017C186.738 85.5214 186.77 85.8489 186.761 86.1765C186.768 86.5041 186.737 86.8314 186.666 87.1513H187.393C187.326 86.8308 187.294 86.5039 187.298 86.1765C187.292 85.849 187.324 85.522 187.393 85.2017H187.882C187.809 84.8821 187.775 84.5548 187.78 84.2269C187.773 83.899 187.807 83.5715 187.882 83.2521H188.608C188.538 82.9322 188.506 82.6049 188.513 82.2774C188.505 81.9497 188.537 81.6223 188.608 81.3026H189.335C189.268 80.9821 189.236 80.6552 189.24 80.3278C189.235 80.0003 189.267 79.6733 189.335 79.353H191.277C191.349 79.6728 191.381 80.0002 191.372 80.3278C191.382 80.6551 191.352 80.9824 191.284 81.3026Z" fill="var(--fill-0, white)"/>
<path id="Vector_23" d="M195.264 86.1765C195.268 86.5039 195.236 86.8308 195.169 87.1513H194.231C194.3 87.4715 194.332 87.7986 194.327 88.1261C194.33 88.4535 194.298 88.7804 194.231 89.1009H193.26C193.19 88.7809 193.158 88.4537 193.165 88.1261C193.157 87.7984 193.189 87.471 193.26 87.1513C193.19 86.8314 193.158 86.5041 193.165 86.1765C193.157 85.8489 193.189 85.5214 193.26 85.2017C193.19 84.8818 193.158 84.5545 193.165 84.2269C193.157 83.8993 193.189 83.5719 193.26 83.2521C193.19 82.9322 193.158 82.6049 193.165 82.2774C193.157 81.9497 193.189 81.6223 193.26 81.3026C193.19 80.9826 193.158 80.6554 193.165 80.3278C193.157 80.0002 193.189 79.6728 193.26 79.353C193.19 79.0331 193.158 78.7058 193.165 78.3782C193.157 78.0528 193.189 77.7277 193.26 77.4102C193.191 77.0902 193.159 76.763 193.165 76.4355C193.156 76.1078 193.188 75.7803 193.26 75.4607H195.203C195.271 75.7809 195.303 76.108 195.298 76.4355C195.301 76.7629 195.269 77.0897 195.203 77.4102C195.271 77.7282 195.303 78.053 195.298 78.3782C195.301 78.7057 195.27 79.0325 195.203 79.353C195.271 79.6733 195.303 80.0003 195.298 80.3278C195.301 80.6552 195.27 80.9821 195.203 81.3026H196.174C196.242 81.6228 196.274 81.9499 196.269 82.2774C196.273 82.6048 196.241 82.9317 196.174 83.2521H195.203C195.271 83.5724 195.303 83.8994 195.298 84.2269C195.301 84.5544 195.27 84.8812 195.203 85.2017C195.26 85.5233 195.28 85.8503 195.264 86.1765ZM195.169 87.1513H198.082C198.151 87.4715 198.182 87.7986 198.177 88.1261C198.181 88.4535 198.149 88.7804 198.082 89.1009H195.169C195.098 88.7809 195.066 88.4537 195.074 88.1261C195.065 87.7984 195.097 87.471 195.169 87.1513ZM201.023 85.2085H200.051C200.12 85.5288 200.152 85.8558 200.147 86.1833C200.15 86.5108 200.118 86.8376 200.051 87.1581H198.109C198.039 86.8382 198.007 86.5109 198.014 86.1833C198.005 85.8557 198.037 85.5283 198.109 85.2085H199.08C199.01 84.8886 198.978 84.5613 198.985 84.2338C198.977 83.9061 199.009 83.5787 199.08 83.259H198.109C198.039 82.939 198.007 82.6118 198.014 82.2842C198.005 81.9566 198.037 81.6291 198.109 81.3094H196.167C196.096 80.9895 196.065 80.6622 196.072 80.3346C196.064 80.007 196.095 79.6796 196.167 79.3598H199.08C199.148 79.6801 199.18 80.0071 199.175 80.3346C199.179 80.662 199.147 80.9889 199.08 81.3094H200.051C200.12 81.6296 200.152 81.9567 200.147 82.2842C200.15 82.6116 200.118 82.9385 200.051 83.259H201.023C201.091 83.5792 201.123 83.9063 201.118 84.2338C201.122 84.5612 201.09 84.8881 201.023 85.2085Z" fill="var(--fill-0, white)"/>
<path id="Vector_24" d="M210.7 85.2085H209.973C210.045 85.5283 210.077 85.8557 210.068 86.1833C210.076 86.5109 210.044 86.8382 209.973 87.1581H208.758C208.832 87.4775 208.866 87.805 208.86 88.1329C208.865 88.4607 208.831 88.788 208.758 89.1077H204.88C204.807 88.788 204.773 88.4607 204.778 88.1329C204.771 87.805 204.806 87.4775 204.88 87.1581H203.664C203.594 86.8382 203.562 86.5109 203.569 86.1833C203.561 85.8557 203.593 85.5283 203.664 85.2085H202.938C202.865 84.8889 202.831 84.5616 202.836 84.2337C202.829 83.9058 202.863 83.5783 202.938 83.259H203.664C203.594 82.939 203.562 82.6118 203.569 82.2842C203.561 81.9565 203.593 81.6291 203.664 81.3094H204.88C204.807 80.9897 204.773 80.6625 204.778 80.3346C204.772 80.0067 204.806 79.6793 204.88 79.3598H208.758C208.832 79.6793 208.866 80.0067 208.86 80.3346C208.865 80.6625 208.831 80.9897 208.758 81.3094H209.973C210.045 81.6291 210.077 81.9565 210.068 82.2842C210.076 82.6118 210.044 82.939 209.973 83.259H210.7C210.775 83.5783 210.809 83.9058 210.802 84.2337C210.807 84.5616 210.773 84.8889 210.7 85.2085ZM208.758 85.2085C208.691 84.8881 208.659 84.5612 208.663 84.2337C208.657 83.9062 208.689 83.5792 208.758 83.259H208.031C207.964 82.9385 207.932 82.6116 207.936 82.2842C207.931 81.9567 207.963 81.6296 208.031 81.3094H205.607C205.675 81.6296 205.707 81.9567 205.702 82.2842C205.706 82.6116 205.674 82.9385 205.607 83.259H204.88C204.948 83.5792 204.98 83.9062 204.975 84.2337C204.979 84.5612 204.947 84.8881 204.88 85.2085H205.607C205.675 85.5288 205.707 85.8558 205.702 86.1833C205.706 86.5108 205.674 86.8376 205.607 87.1581H208.031C207.964 86.8376 207.932 86.5108 207.936 86.1833C207.931 85.8558 207.963 85.5288 208.031 85.2085H208.758Z" fill="var(--fill-0, white)"/>
<path id="Vector_25" d="M220.506 88.1261C220.51 88.4535 220.478 88.7804 220.411 89.1009H218.469C218.399 88.7809 218.367 88.4537 218.374 88.1261C218.365 87.7984 218.397 87.471 218.469 87.1513H217.498C217.431 86.8308 217.399 86.5039 217.403 86.1765C217.398 85.849 217.43 85.522 217.498 85.2017H214.605C214.677 85.5214 214.709 85.8489 214.7 86.1765C214.707 86.5041 214.675 86.8314 214.605 87.1513H217.518C217.59 87.471 217.622 87.7984 217.613 88.1261C217.621 88.4537 217.589 88.7809 217.518 89.1009H213.634C213.567 88.7804 213.535 88.4535 213.539 88.1261C213.533 87.7986 213.565 87.4715 213.634 87.1513H212.663C212.596 86.8308 212.564 86.5039 212.568 86.1765C212.562 85.849 212.594 85.522 212.663 85.2017H213.634C213.567 84.8812 213.535 84.5544 213.539 84.2269C213.533 83.8994 213.565 83.5724 213.634 83.2521H217.518C217.451 82.9317 217.419 82.6048 217.423 82.2774C217.418 81.9499 217.45 81.6228 217.518 81.3026H214.123C214.05 80.9829 214.016 80.6556 214.021 80.3278C214.015 79.9999 214.049 79.6724 214.123 79.353H218.49C218.561 79.6728 218.593 80.0002 218.585 80.3278C218.592 80.6554 218.56 80.9826 218.49 81.3026H219.461C219.529 81.6228 219.561 81.9499 219.556 82.2774C219.56 82.6048 219.528 82.9317 219.461 83.2521C219.529 83.5724 219.561 83.8994 219.556 84.2269C219.56 84.5544 219.528 84.8812 219.461 85.2017C219.529 85.522 219.561 85.849 219.556 86.1765C219.56 86.5039 219.528 86.8308 219.461 87.1513H220.432C220.493 87.4723 220.518 87.7994 220.506 88.1261Z" fill="var(--fill-0, white)"/>
<path id="Vector_26" d="M230.225 82.2774C230.228 82.6048 230.197 82.9317 230.13 83.2521H228.187C228.115 82.9325 228.08 82.6052 228.085 82.2774C228.079 81.9494 228.113 81.6219 228.187 81.3026H226.49C226.558 81.6228 226.59 81.9499 226.585 82.2774C226.588 82.6048 226.557 82.9317 226.49 83.2521H225.756C225.831 83.5715 225.865 83.899 225.858 84.2269C225.863 84.5548 225.829 84.8821 225.756 85.2017C225.831 85.5211 225.865 85.8486 225.858 86.1765C225.863 86.5044 225.829 86.8316 225.756 87.1513H227.216C227.285 87.4715 227.317 87.7986 227.311 88.1261C227.315 88.4535 227.283 88.7804 227.216 89.1009H222.361C222.29 88.7809 222.258 88.4537 222.265 88.1261C222.257 87.7984 222.289 87.471 222.361 87.1513H223.814C223.747 86.8308 223.715 86.5039 223.719 86.1765C223.713 85.849 223.745 85.522 223.814 85.2017C223.747 84.8812 223.715 84.5544 223.719 84.2269C223.713 83.8994 223.745 83.5724 223.814 83.2521C223.747 82.9317 223.715 82.6048 223.719 82.2774C223.713 81.9499 223.745 81.6228 223.814 81.3026H222.361C222.29 80.9826 222.258 80.6554 222.265 80.3278C222.257 80.0002 222.289 79.6728 222.361 79.353H224.792C224.866 79.6724 224.9 79.9999 224.894 80.3278C224.899 80.6556 224.864 80.9829 224.792 81.3026H225.763C225.696 80.9821 225.664 80.6552 225.668 80.3278C225.663 80.0003 225.695 79.6733 225.763 79.353H229.403C229.477 79.6724 229.511 79.9999 229.505 80.3278C229.51 80.6556 229.476 80.9829 229.403 81.3026H230.136C230.203 81.6231 230.232 81.9501 230.225 82.2774Z" fill="var(--fill-0, white)"/>
<path id="Vector_27" d="M236.676 81.3026H234.245C234.317 81.6223 234.349 81.9497 234.34 82.2774C234.347 82.6049 234.316 82.9322 234.245 83.2521H233.518C233.587 83.5724 233.619 83.8994 233.613 84.2269C233.617 84.5544 233.585 84.8812 233.518 85.2017H234.245C234.317 85.5214 234.349 85.8489 234.34 86.1765C234.347 86.5041 234.316 86.8314 234.245 87.1513H236.676C236.745 87.4715 236.777 87.7986 236.771 88.1261C236.775 88.4535 236.743 88.7804 236.676 89.1009H234.001C233.934 88.7804 233.902 88.4535 233.905 88.1261C233.9 87.7986 233.932 87.4715 234.001 87.1513H232.792C232.719 86.8316 232.685 86.5044 232.69 86.1765C232.683 85.8486 232.717 85.5211 232.792 85.2017H232.065C231.992 84.8821 231.958 84.5548 231.963 84.2269C231.956 83.899 231.991 83.5715 232.065 83.2521H232.792C232.719 82.9325 232.685 82.6052 232.69 82.2774C232.683 81.9494 232.717 81.6219 232.792 81.3026H234.001C233.934 80.9821 233.902 80.6552 233.905 80.3278C233.901 80.0003 233.932 79.6733 234.001 79.353H236.676C236.744 79.6733 236.776 80.0003 236.771 80.3278C236.775 80.6552 236.743 80.9821 236.676 81.3026ZM239.929 78.3782C239.934 78.7061 239.9 79.0334 239.827 79.353C239.901 79.6725 239.936 79.9999 239.929 80.3278C239.934 80.6556 239.9 80.9829 239.827 81.3026C239.902 81.6219 239.936 81.9494 239.929 82.2774C239.934 82.6052 239.9 82.9325 239.827 83.2521C239.902 83.5715 239.936 83.899 239.929 84.2269C239.934 84.5548 239.9 84.8821 239.827 85.2017C239.902 85.5211 239.936 85.8486 239.929 86.1765C239.934 86.5044 239.9 86.8316 239.827 87.1513C239.902 87.4707 239.936 87.7981 239.929 88.1261C239.934 88.4539 239.9 88.7812 239.827 89.1009H237.885C237.818 88.7804 237.786 88.4535 237.79 88.1261C237.785 87.7986 237.817 87.4715 237.885 87.1513H237.158C237.091 86.8308 237.06 86.5039 237.063 86.1765C237.058 85.849 237.09 85.522 237.158 85.2017H237.885C237.818 84.8812 237.786 84.5544 237.79 84.2269C237.785 83.8994 237.817 83.5724 237.885 83.2521H237.158C237.091 82.9317 237.06 82.6048 237.063 82.2774C237.058 81.9499 237.09 81.6228 237.158 81.3026H237.885C237.818 80.9821 237.786 80.6552 237.79 80.3278C237.785 80.0003 237.817 79.6733 237.885 79.353C237.818 79.0325 237.786 78.7057 237.79 78.3782C237.785 78.053 237.817 77.7282 237.885 77.4102C237.819 77.0897 237.787 76.7629 237.79 76.4355C237.784 76.108 237.816 75.7809 237.885 75.4607H239.827C239.902 75.78 239.936 76.1075 239.929 76.4355C239.934 76.7633 239.899 77.0905 239.827 77.4102C239.903 77.7317 239.937 78.0616 239.929 78.3919V78.3782Z" fill="var(--fill-0, white)"/>
<path id="Vector_28" d="M246.72 78.3919C246.724 78.7193 246.692 79.0462 246.625 79.3666C246.693 79.6869 246.725 80.0139 246.72 80.3414C246.724 80.6689 246.692 80.9957 246.625 81.3162C246.694 81.6365 246.726 81.9635 246.72 82.291C246.724 82.6184 246.692 82.9453 246.625 83.2658C246.694 83.586 246.726 83.9131 246.72 84.2406C246.724 84.568 246.692 84.8949 246.625 85.2154H244.683C244.613 84.8954 244.581 84.5681 244.588 84.2406C244.579 83.9129 244.611 83.5855 244.683 83.2658C244.613 82.9458 244.581 82.6186 244.588 82.291C244.579 81.9634 244.611 81.6359 244.683 81.3162C244.613 80.9963 244.581 80.669 244.588 80.3414C244.58 80.0138 244.612 79.6864 244.683 79.3666C244.613 79.0467 244.581 78.7194 244.588 78.3919C244.579 78.0665 244.611 77.7413 244.683 77.4239C244.613 77.1038 244.582 76.7766 244.588 76.4491C244.579 76.1215 244.611 75.794 244.683 75.4743H246.625C246.694 75.7945 246.726 76.1216 246.72 76.4491C246.724 76.7765 246.692 77.1033 246.625 77.4239C246.694 77.7418 246.726 78.0666 246.72 78.3919ZM246.625 87.1649C246.694 87.4852 246.726 87.8122 246.72 88.1397C246.724 88.4671 246.692 88.794 246.625 89.1145H244.683C244.613 88.7946 244.581 88.4673 244.588 88.1397C244.579 87.8121 244.611 87.4846 244.683 87.1649H246.625Z" fill="var(--fill-0, white)"/>
</g>
</svg>
