<svg overflow="visible" style="display: block;" viewBox="0 0 260.424 209.421" fill="none" xmlns="http://www.w3.org/2000/svg">
<g id="Layer 1">
<path id="Vector" d="M135.4 0.5H125.024V10.9202H135.4V0.5Z" fill="var(--fill-0, white)" stroke="var(--stroke-0, #555555)" stroke-miterlimit="10"/>
<path id="Vector_2" d="M145.776 0.5H135.4V10.9202H145.776V0.5Z" fill="var(--fill-0, white)" stroke="var(--stroke-0, #555555)" stroke-miterlimit="10"/>
<path id="Vector_3" d="M156.158 0.5H145.782V10.9202H156.158V0.5Z" fill="var(--fill-0, white)" stroke="var(--stroke-0, #555555)" stroke-miterlimit="10"/>
<path id="Vector_4" d="M166.534 0.5H156.158V10.9202H166.534V0.5Z" fill="var(--fill-0, white)" stroke="var(--stroke-0, #555555)" stroke-miterlimit="10"/>
<path id="Vector_5" d="M125.024 10.9202H114.648V21.3404H125.024V10.9202Z" fill="var(--fill-0, white)" stroke="var(--stroke-0, #555555)" stroke-miterlimit="10"/>
<path id="Vector_6" d="M135.4 10.9202H125.024V21.3404H135.4V10.9202Z" fill="var(--fill-0, white)" stroke="var(--stroke-0, #555555)" stroke-miterlimit="10"/>
<path id="Vector_7" d="M145.776 10.9202H135.4V21.3404H145.776V10.9202Z" fill="var(--fill-0, white)" stroke="var(--stroke-0, #555555)" stroke-miterlimit="10"/>
<path id="Vector_8" d="M156.158 10.9202H145.782V21.3404H156.158V10.9202Z" fill="var(--fill-0, white)" stroke="var(--stroke-0, #555555)" stroke-miterlimit="10"/>
<path id="Vector_9" d="M166.534 10.9202H156.158V21.3404H166.534V10.9202Z" fill="var(--fill-0, white)" stroke="var(--stroke-0, #555555)" stroke-miterlimit="10"/>
<path id="Vector_10" d="M176.91 10.9202H166.534V21.3404H176.91V10.9202Z" fill="var(--fill-0, white)" stroke="var(--stroke-0, #555555)" stroke-miterlimit="10"/>
<path id="Vector_11" d="M187.286 10.9202H176.91V21.3404H187.286V10.9202Z" fill="var(--fill-0, white)" stroke="var(--stroke-0, #555555)" stroke-miterlimit="10"/>
<path id="Vector_12" d="M239.172 21.3404H228.795V31.7606H239.172V21.3404Z" fill="var(--fill-0, #00FF00)" stroke="var(--stroke-0, #555555)" stroke-miterlimit="10"/>
<path id="Vector_13" d="M166.534 31.7663H156.158V42.1865H166.534V31.7663Z" fill="var(--fill-0, #00FFFF)" stroke="var(--stroke-0, #555555)" stroke-miterlimit="10"/>
<path id="Vector_14" d="M176.91 31.7663H166.534V42.1865H176.91V31.7663Z" fill="var(--fill-0, #00FFFF)" stroke="var(--stroke-0, #555555)" stroke-miterlimit="10"/>
<path id="Vector_15" d="M187.286 31.7663H176.91V42.1865H187.286V31.7663Z" fill="var(--fill-0, #00FFFF)" stroke="var(--stroke-0, #555555)" stroke-miterlimit="10"/>
<path id="Vector_16" d="M197.662 31.7663H187.286V42.1865H197.662V31.7663Z" fill="var(--fill-0, #00FFFF)" stroke="var(--stroke-0, #555555)" stroke-miterlimit="10"/>
<path id="Vector_17" d="M208.038 31.7663H197.662V42.1865H208.038V31.7663Z" fill="var(--fill-0, #00FFFF)" stroke="var(--stroke-0, #555555)" stroke-miterlimit="10"/>
<path id="Vector_18" d="M239.172 31.7663H228.795V42.1865H239.172V31.7663Z" fill="var(--fill-0, #00FF00)" stroke="var(--stroke-0, #555555)" stroke-miterlimit="10"/>
<path id="Vector_19" d="M156.158 42.1865H145.782V52.6067H156.158V42.1865Z" fill="var(--fill-0, #00FFFF)" stroke="var(--stroke-0, #555555)" stroke-miterlimit="10"/>
<path id="Vector_20" d="M166.534 42.1865H156.158V52.6067H166.534V42.1865Z" fill="var(--fill-0, #00FFFF)" stroke="var(--stroke-0, #555555)" stroke-miterlimit="10"/>
<path id="Vector_21" d="M176.91 42.1865H166.534V52.6067H176.91V42.1865Z" fill="var(--fill-0, #00FFFF)" stroke="var(--stroke-0, #555555)" stroke-miterlimit="10"/>
<path id="Vector_22" d="M187.286 42.1865H176.91V52.6067H187.286V42.1865Z" fill="var(--fill-0, #00FFFF)" stroke="var(--stroke-0, #555555)" stroke-miterlimit="10"/>
<path id="Vector_23" d="M197.662 42.1865H187.286V52.6067H197.662V42.1865Z" fill="var(--fill-0, #00FFFF)" stroke="var(--stroke-0, #555555)" stroke-miterlimit="10"/>
<path id="Vector_24" d="M239.172 42.1865H228.795V52.6067H239.172V42.1865Z" fill="var(--fill-0, #00FF00)" stroke="var(--stroke-0, #555555)" stroke-miterlimit="10"/>
<path id="Vector_25" d="M125.024 52.6067H114.648V63.0269H125.024V52.6067Z" fill="var(--fill-0, #00FF00)" stroke="var(--stroke-0, #555555)" stroke-miterlimit="10"/>
<path id="Vector_26" d="M135.4 52.6067H125.024V63.0269H135.4V52.6067Z" fill="var(--fill-0, #00FF00)" stroke="var(--stroke-0, #555555)" stroke-miterlimit="10"/>
<path id="Vector_27" d="M145.776 52.6067H135.4V63.0269H145.776V52.6067Z" fill="var(--fill-0, #00FFFF)" stroke="var(--stroke-0, #555555)" stroke-miterlimit="10"/>
<path id="Vector_28" d="M156.158 52.6067H145.782V63.0269H156.158V52.6067Z" fill="var(--fill-0, #00FFFF)" stroke="var(--stroke-0, #555555)" stroke-miterlimit="10"/>
<path id="Vector_29" d="M166.534 52.6067H156.158V63.0269H166.534V52.6067Z" fill="var(--fill-0, #00FFFF)" stroke="var(--stroke-0, #555555)" stroke-miterlimit="10"/>
<path id="Vector_30" d="M176.91 52.6067H166.534V63.0269H176.91V52.6067Z" fill="var(--fill-0, #00FFFF)" stroke="var(--stroke-0, #555555)" stroke-miterlimit="10"/>
<path id="Vector_31" d="M187.286 52.6067H176.91V63.0269H187.286V52.6067Z" fill="var(--fill-0, #00FFFF)" stroke="var(--stroke-0, #555555)" stroke-miterlimit="10"/>
<path id="Vector_32" d="M249.548 52.6067H239.172V63.0269H249.548V52.6067Z" fill="var(--fill-0, #00FF00)" stroke="var(--stroke-0, #555555)" stroke-miterlimit="10"/>
<path id="Vector_33" d="M125.024 63.0269H114.648V73.4471H125.024V63.0269Z" fill="var(--fill-0, #00FF00)" stroke="var(--stroke-0, #555555)" stroke-miterlimit="10"/>
<path id="Vector_34" d="M135.4 63.0269H125.024V73.4471H135.4V63.0269Z" fill="var(--fill-0, #00FFFF)" stroke="var(--stroke-0, #555555)" stroke-miterlimit="10"/>
<path id="Vector_35" d="M145.776 63.0269H135.4V73.4471H145.776V63.0269Z" fill="var(--fill-0, #00FFFF)" stroke="var(--stroke-0, #555555)" stroke-miterlimit="10"/>
<path id="Vector_36" d="M156.158 63.0269H145.782V73.4471H156.158V63.0269Z" fill="var(--fill-0, #00FFFF)" stroke="var(--stroke-0, #555555)" stroke-miterlimit="10"/>
<path id="Vector_37" d="M166.534 63.0269H156.158V73.4471H166.534V63.0269Z" fill="var(--fill-0, #00FF00)" stroke="var(--stroke-0, #555555)" stroke-miterlimit="10"/>
<path id="Vector_38" d="M176.91 63.0269H166.534V73.4471H176.91V63.0269Z" fill="var(--fill-0, #00FF00)" stroke="var(--stroke-0, #555555)" stroke-miterlimit="10"/>
<path id="Vector_39" d="M187.286 63.0269H176.91V73.4471H187.286V63.0269Z" fill="var(--fill-0, #00FF00)" stroke="var(--stroke-0, #555555)" stroke-miterlimit="10"/>
<path id="Vector_40" d="M197.662 63.0269H187.286V73.4471H197.662V63.0269Z" fill="var(--fill-0, #00FF00)" stroke="var(--stroke-0, #555555)" stroke-miterlimit="10"/>
<path id="Vector_41" d="M208.038 63.0269H197.662V73.4471H208.038V63.0269Z" fill="var(--fill-0, #00FF00)" stroke="var(--stroke-0, #555555)" stroke-miterlimit="10"/>
<path id="Vector_42" d="M218.419 63.0269H208.043V73.4471H218.419V63.0269Z" fill="var(--fill-0, #00FF00)" stroke="var(--stroke-0, #555555)" stroke-miterlimit="10"/>
<path id="Vector_43" d="M259.924 63.0269H249.548V73.4471H259.924V63.0269Z" fill="var(--fill-0, #00FF00)" stroke="var(--stroke-0, #555555)" stroke-miterlimit="10"/>
<path id="Vector_44" d="M125.024 73.4471H114.648V83.8673H125.024V73.4471Z" fill="var(--fill-0, #00FFFF)" stroke="var(--stroke-0, #555555)" stroke-miterlimit="10"/>
<path id="Vector_45" d="M135.4 73.4471H125.024V83.8673H135.4V73.4471Z" fill="var(--fill-0, #00FFFF)" stroke="var(--stroke-0, #555555)" stroke-miterlimit="10"/>
<path id="Vector_46" d="M145.776 73.4471H135.4V83.8673H145.776V73.4471Z" fill="var(--fill-0, #00FF00)" stroke="var(--stroke-0, #555555)" stroke-miterlimit="10"/>
<path id="Vector_47" d="M156.158 73.4471H145.782V83.8673H156.158V73.4471Z" fill="var(--fill-0, #00FF00)" stroke="var(--stroke-0, #555555)" stroke-miterlimit="10"/>
<path id="Vector_48" d="M166.534 73.4471H156.158V83.8673H166.534V73.4471Z" fill="var(--fill-0, #00FF00)" stroke="var(--stroke-0, #555555)" stroke-miterlimit="10"/>
<path id="Vector_49" d="M176.91 73.4471H166.534V83.8673H176.91V73.4471Z" fill="var(--fill-0, #00FF00)" stroke="var(--stroke-0, #555555)" stroke-miterlimit="10"/>
<path id="Vector_50" d="M187.286 73.4471H176.91V83.8673H187.286V73.4471Z" fill="var(--fill-0, #00FF00)" stroke="var(--stroke-0, #555555)" stroke-miterlimit="10"/>
<path id="Vector_51" d="M197.662 73.4471H187.286V83.8673H197.662V73.4471Z" fill="var(--fill-0, #00FF00)" stroke="var(--stroke-0, #555555)" stroke-miterlimit="10"/>
<path id="Vector_52" d="M208.038 73.4471H197.662V83.8673H208.038V73.4471Z" fill="var(--fill-0, #00FF00)" stroke="var(--stroke-0, #555555)" stroke-miterlimit="10"/>
<path id="Vector_53" d="M218.419 73.4471H208.043V83.8673H218.419V73.4471Z" fill="var(--fill-0, #00FF00)" stroke="var(--stroke-0, #555555)" stroke-miterlimit="10"/>
<path id="Vector_54" d="M228.795 73.4471H218.419V83.8673H228.795V73.4471Z" fill="var(--fill-0, #00FF00)" stroke="var(--stroke-0, #555555)" stroke-miterlimit="10"/>
<path id="Vector_55" d="M239.172 73.4471H228.795V83.8673H239.172V73.4471Z" fill="var(--fill-0, #00FF00)" stroke="var(--stroke-0, #555555)" stroke-miterlimit="10"/>
<path id="Vector_56" d="M259.924 73.4471H249.548V83.8673H259.924V73.4471Z" fill="var(--fill-0, #00FF00)" stroke="var(--stroke-0, #555555)" stroke-miterlimit="10"/>
<path id="Vector_57" d="M125.024 83.8673H114.648V94.2875H125.024V83.8673Z" fill="var(--fill-0, #00FF00)" stroke="var(--stroke-0, #555555)" stroke-miterlimit="10"/>
<path id="Vector_58" d="M135.4 83.8673H125.024V94.2875H135.4V83.8673Z" fill="var(--fill-0, #00FF00)" stroke="var(--stroke-0, #555555)" stroke-miterlimit="10"/>
<path id="Vector_59" d="M145.776 83.8673H135.4V94.2875H145.776V83.8673Z" fill="var(--fill-0, #00FF00)" stroke="var(--stroke-0, #555555)" stroke-miterlimit="10"/>
<path id="Vector_60" d="M156.158 83.8673H145.782V94.2875H156.158V83.8673Z" fill="var(--fill-0, #00FF00)" stroke="var(--stroke-0, #555555)" stroke-miterlimit="10"/>
<path id="Vector_61" d="M166.534 83.8673H156.158V94.2875H166.534V83.8673Z" fill="var(--fill-0, #00FF00)" stroke="var(--stroke-0, #555555)" stroke-miterlimit="10"/>
<path id="Vector_62" d="M176.91 83.8673H166.534V94.2875H176.91V83.8673Z" fill="var(--fill-0, #00FF00)" stroke="var(--stroke-0, #555555)" stroke-miterlimit="10"/>
<path id="Vector_63" d="M187.286 83.8673H176.91V94.2875H187.286V83.8673Z" fill="var(--fill-0, #00FF00)" stroke="var(--stroke-0, #555555)" stroke-miterlimit="10"/>
<path id="Vector_64" d="M197.662 83.8673H187.286V94.2875H197.662V83.8673Z" fill="var(--fill-0, #00FF00)" stroke="var(--stroke-0, #555555)" stroke-miterlimit="10"/>
<path id="Vector_65" d="M208.038 83.8673H197.662V94.2875H208.038V83.8673Z" fill="var(--fill-0, #00FF00)" stroke="var(--stroke-0, #555555)" stroke-miterlimit="10"/>
<path id="Vector_66" d="M218.419 83.8673H208.043V94.2875H218.419V83.8673Z" fill="var(--fill-0, #00FF00)" stroke="var(--stroke-0, #555555)" stroke-miterlimit="10"/>
<path id="Vector_67" d="M228.795 83.8673H218.419V94.2875H228.795V83.8673Z" fill="var(--fill-0, #00FF00)" stroke="var(--stroke-0, #555555)" stroke-miterlimit="10"/>
<path id="Vector_68" d="M239.172 83.8673H228.795V94.2875H239.172V83.8673Z" fill="var(--fill-0, #00FF00)" stroke="var(--stroke-0, #555555)" stroke-miterlimit="10"/>
<path id="Vector_69" d="M249.548 83.8673H239.172V94.2875H249.548V83.8673Z" fill="var(--fill-0, #00FF00)" stroke="var(--stroke-0, #555555)" stroke-miterlimit="10"/>
<path id="Vector_70" d="M259.924 83.8673H249.548V94.2875H259.924V83.8673Z" fill="var(--fill-0, #00FF00)" stroke="var(--stroke-0, #555555)" stroke-miterlimit="10"/>
<path id="Vector_71" d="M125.024 94.2932H114.648V104.713H125.024V94.2932Z" fill="var(--fill-0, #00FF00)" stroke="var(--stroke-0, #555555)" stroke-miterlimit="10"/>
<path id="Vector_72" d="M135.4 94.2932H125.024V104.713H135.4V94.2932Z" fill="var(--fill-0, #00FF00)" stroke="var(--stroke-0, #555555)" stroke-miterlimit="10"/>
<path id="Vector_73" d="M145.776 94.2932H135.4V104.713H145.776V94.2932Z" fill="var(--fill-0, #00FF00)" stroke="var(--stroke-0, #555555)" stroke-miterlimit="10"/>
<path id="Vector_74" d="M156.158 94.2932H145.782V104.713H156.158V94.2932Z" fill="var(--fill-0, #00FF00)" stroke="var(--stroke-0, #555555)" stroke-miterlimit="10"/>
<path id="Vector_75" d="M166.534 94.2932H156.158V104.713H166.534V94.2932Z" fill="var(--fill-0, #00FF00)" stroke="var(--stroke-0, #555555)" stroke-miterlimit="10"/>
<path id="Vector_76" d="M176.91 94.2932H166.534V104.713H176.91V94.2932Z" fill="var(--fill-0, #00FF00)" stroke="var(--stroke-0, #555555)" stroke-miterlimit="10"/>
<path id="Vector_77" d="M187.286 94.2932H176.91V104.713H187.286V94.2932Z" fill="var(--fill-0, #00FF00)" stroke="var(--stroke-0, #555555)" stroke-miterlimit="10"/>
<path id="Vector_78" d="M197.662 94.2932H187.286V104.713H197.662V94.2932Z" fill="var(--fill-0, #00FF00)" stroke="var(--stroke-0, #555555)" stroke-miterlimit="10"/>
<path id="Vector_79" d="M208.038 94.2932H197.662V104.713H208.038V94.2932Z" fill="var(--fill-0, #00FF00)" stroke="var(--stroke-0, #555555)" stroke-miterlimit="10"/>
<path id="Vector_80" d="M218.419 94.2932H208.043V104.713H218.419V94.2932Z" fill="var(--fill-0, #00FF00)" stroke="var(--stroke-0, #555555)" stroke-miterlimit="10"/>
<path id="Vector_81" d="M228.795 94.2932H218.419V104.713H228.795V94.2932Z" fill="var(--fill-0, #00FF00)" stroke="var(--stroke-0, #555555)" stroke-miterlimit="10"/>
<path id="Vector_82" d="M239.172 94.2932H228.795V104.713H239.172V94.2932Z" fill="var(--fill-0, #00FF00)" stroke="var(--stroke-0, #555555)" stroke-miterlimit="10"/>
<path id="Vector_83" d="M249.548 94.2932H239.172V104.713H249.548V94.2932Z" fill="var(--fill-0, #00FF00)" stroke="var(--stroke-0, #555555)" stroke-miterlimit="10"/>
<path id="Vector_84" d="M259.924 94.2932H249.548V104.713H259.924V94.2932Z" fill="var(--fill-0, #00FF00)" stroke="var(--stroke-0, #555555)" stroke-miterlimit="10"/>
<path id="Vector_85" d="M125.024 104.713H114.648V115.134H125.024V104.713Z" fill="var(--fill-0, #00FF00)" stroke="var(--stroke-0, #555555)" stroke-miterlimit="10"/>
<path id="Vector_86" d="M135.4 104.713H125.024V115.134H135.4V104.713Z" fill="var(--fill-0, #00FF00)" stroke="var(--stroke-0, #555555)" stroke-miterlimit="10"/>
<path id="Vector_87" d="M145.776 104.713H135.4V115.134H145.776V104.713Z" fill="var(--fill-0, #00FF00)" stroke="var(--stroke-0, #555555)" stroke-miterlimit="10"/>
<path id="Vector_88" d="M187.286 104.713H176.91V115.134H187.286V104.713Z" fill="var(--fill-0, #00FF00)" stroke="var(--stroke-0, #555555)" stroke-miterlimit="10"/>
<path id="Vector_89" d="M197.662 104.713H187.286V115.134H197.662V104.713Z" fill="var(--fill-0, #00FF00)" stroke="var(--stroke-0, #555555)" stroke-miterlimit="10"/>
<path id="Vector_90" d="M208.038 104.713H197.662V115.134H208.038V104.713Z" fill="var(--fill-0, #00FF00)" stroke="var(--stroke-0, #555555)" stroke-miterlimit="10"/>
<path id="Vector_91" d="M218.419 104.713H208.043V115.134H218.419V104.713Z" fill="var(--fill-0, #00FF00)" stroke="var(--stroke-0, #555555)" stroke-miterlimit="10"/>
<path id="Vector_92" d="M228.795 104.713H218.419V115.134H228.795V104.713Z" fill="var(--fill-0, #00FF00)" stroke="var(--stroke-0, #555555)" stroke-miterlimit="10"/>
<path id="Vector_93" d="M239.172 104.713H228.795V115.134H239.172V104.713Z" fill="var(--fill-0, #00FF00)" stroke="var(--stroke-0, #555555)" stroke-miterlimit="10"/>
<path id="Vector_94" d="M249.548 104.713H239.172V115.134H249.548V104.713Z" fill="var(--fill-0, #00FF00)" stroke="var(--stroke-0, #555555)" stroke-miterlimit="10"/>
<path id="Vector_95" d="M125.024 115.134H114.648V125.554H125.024V115.134Z" fill="var(--fill-0, #00FF00)" stroke="var(--stroke-0, #555555)" stroke-miterlimit="10"/>
<path id="Vector_96" d="M135.4 115.134H125.024V125.554H135.4V115.134Z" fill="var(--fill-0, #00FF00)" stroke="var(--stroke-0, #555555)" stroke-miterlimit="10"/>
<path id="Vector_97" d="M145.776 115.134H135.4V125.554H145.776V115.134Z" fill="var(--fill-0, #00FF00)" stroke="var(--stroke-0, #555555)" stroke-miterlimit="10"/>
<path id="Vector_98" d="M197.662 115.134H187.286V125.554H197.662V115.134Z" fill="var(--fill-0, #00FF00)" stroke="var(--stroke-0, #555555)" stroke-miterlimit="10"/>
<path id="Vector_99" d="M208.038 115.134H197.662V125.554H208.038V115.134Z" fill="var(--fill-0, #00FF00)" stroke="var(--stroke-0, #555555)" stroke-miterlimit="10"/>
<path id="Vector_100" d="M218.419 115.134H208.043V125.554H218.419V115.134Z" fill="var(--fill-0, #00FF00)" stroke="var(--stroke-0, #555555)" stroke-miterlimit="10"/>
<path id="Vector_101" d="M228.795 115.134H218.419V125.554H228.795V115.134Z" fill="var(--fill-0, #00FF00)" stroke="var(--stroke-0, #555555)" stroke-miterlimit="10"/>
<path id="Vector_102" d="M197.662 125.554H187.286V135.974H197.662V125.554Z" fill="var(--fill-0, #00FF00)" stroke="var(--stroke-0, #555555)" stroke-miterlimit="10"/>
<path id="Vector_103" d="M208.038 125.554H197.662V135.974H208.038V125.554Z" fill="var(--fill-0, #00FF00)" stroke="var(--stroke-0, #555555)" stroke-miterlimit="10"/>
<path id="Vector_104" d="M218.419 125.554H208.043V135.974H218.419V125.554Z" fill="var(--fill-0, #00FF00)" stroke="var(--stroke-0, #555555)" stroke-miterlimit="10"/>
<path id="Vector_105" d="M228.795 125.554H218.419V135.974H228.795V125.554Z" fill="var(--fill-0, #00FF00)" stroke="var(--stroke-0, #555555)" stroke-miterlimit="10"/>
<path id="Vector_106" d="M239.172 125.554H228.795V135.974H239.172V125.554Z" fill="var(--fill-0, #00FF00)" stroke="var(--stroke-0, #555555)" stroke-miterlimit="10"/>
<path id="Vector_107" d="M104.272 21.3404H93.8957V31.7606H104.272V21.3404Z" fill="var(--fill-0, #00FF00)" stroke="var(--stroke-0, #555555)" stroke-miterlimit="10"/>
<path id="Vector_108" d="M104.272 31.7663H93.8957V42.1865H104.272V31.7663Z" fill="var(--fill-0, #00FF00)" stroke="var(--stroke-0, #555555)" stroke-miterlimit="10"/>
<path id="Vector_109" d="M104.272 52.6067H93.8957V63.0269H104.272V52.6067Z" fill="var(--fill-0, #00FF00)" stroke="var(--stroke-0, #555555)" stroke-miterlimit="10"/>
<path id="Vector_110" d="M114.648 52.6067H104.272V63.0269H114.648V52.6067Z" fill="var(--fill-0, #00FF00)" stroke="var(--stroke-0, #555555)" stroke-miterlimit="10"/>
<path id="Vector_111" d="M104.272 63.0269H93.8957V73.4471H104.272V63.0269Z" fill="var(--fill-0, #00FF00)" stroke="var(--stroke-0, #555555)" stroke-miterlimit="10"/>
<path id="Vector_112" d="M114.648 63.0269H104.272V73.4471H114.648V63.0269Z" fill="var(--fill-0, #00FF00)" stroke="var(--stroke-0, #555555)" stroke-miterlimit="10"/>
<path id="Vector_113" d="M104.272 73.4471H93.8957V83.8673H104.272V73.4471Z" fill="var(--fill-0, #00FF00)" stroke="var(--stroke-0, #555555)" stroke-miterlimit="10"/>
<path id="Vector_114" d="M114.648 73.4471H104.272V83.8673H114.648V73.4471Z" fill="var(--fill-0, #00FF00)" stroke="var(--stroke-0, #555555)" stroke-miterlimit="10"/>
<path id="Vector_115" d="M104.272 83.8673H93.8957V94.2875H104.272V83.8673Z" fill="var(--fill-0, #00FF00)" stroke="var(--stroke-0, #555555)" stroke-miterlimit="10"/>
<path id="Vector_116" d="M114.648 83.8673H104.272V94.2875H114.648V83.8673Z" fill="var(--fill-0, #00FF00)" stroke="var(--stroke-0, #555555)" stroke-miterlimit="10"/>
<path id="Vector_117" d="M104.272 94.2932H93.8957V104.713H104.272V94.2932Z" fill="var(--fill-0, #00FF00)" stroke="var(--stroke-0, #555555)" stroke-miterlimit="10"/>
<path id="Vector_118" d="M114.648 94.2932H104.272V104.713H114.648V94.2932Z" fill="var(--fill-0, #00FF00)" stroke="var(--stroke-0, #555555)" stroke-miterlimit="10"/>
<path id="Vector_119" d="M114.648 104.713H104.272V115.134H114.648V104.713Z" fill="var(--fill-0, #00FF00)" stroke="var(--stroke-0, #555555)" stroke-miterlimit="10"/>
<path id="Vector_120" d="M114.648 115.134H104.272V125.554H114.648V115.134Z" fill="var(--fill-0, #00FF00)" stroke="var(--stroke-0, #555555)" stroke-miterlimit="10"/>
<path id="Vector_121" d="M114.648 125.554H104.272V135.974H114.648V125.554Z" fill="var(--fill-0, #00FF00)" stroke="var(--stroke-0, #555555)" stroke-miterlimit="10"/>
<path id="Vector_122" d="M104.272 135.974H93.8957V146.394H104.272V135.974Z" fill="var(--fill-0, #00FF00)" stroke="var(--stroke-0, #555555)" stroke-miterlimit="10"/>
<path id="Vector_123" d="M93.89 31.7663H83.5139V42.1865H93.89V31.7663Z" fill="var(--fill-0, #00FF00)" stroke="var(--stroke-0, #555555)" stroke-miterlimit="10"/>
<path id="Vector_124" d="M83.5139 42.1865H73.1379V52.6067H83.5139V42.1865Z" fill="var(--fill-0, #00FF00)" stroke="var(--stroke-0, #555555)" stroke-miterlimit="10"/>
<path id="Vector_125" d="M93.89 42.1865H83.5139V52.6067H93.89V42.1865Z" fill="var(--fill-0, #00FF00)" stroke="var(--stroke-0, #555555)" stroke-miterlimit="10"/>
<path id="Vector_126" d="M83.5139 52.6067H73.1379V63.0269H83.5139V52.6067Z" fill="var(--fill-0, #00FF00)" stroke="var(--stroke-0, #555555)" stroke-miterlimit="10"/>
<path id="Vector_127" d="M93.89 52.6067H83.5139V63.0269H93.89V52.6067Z" fill="var(--fill-0, #00FF00)" stroke="var(--stroke-0, #555555)" stroke-miterlimit="10"/>
<path id="Vector_128" d="M83.5139 63.0269H73.1379V73.4471H83.5139V63.0269Z" fill="var(--fill-0, #FF0000)" stroke="var(--stroke-0, #555555)" stroke-miterlimit="10"/>
<path id="Vector_129" d="M93.89 63.0269H83.5139V73.4471H93.89V63.0269Z" fill="var(--fill-0, #00FF00)" stroke="var(--stroke-0, #555555)" stroke-miterlimit="10"/>
<path id="Vector_130" d="M83.5139 73.4471H73.1379V83.8673H83.5139V73.4471Z" fill="var(--fill-0, #00FF00)" stroke="var(--stroke-0, #555555)" stroke-miterlimit="10"/>
<path id="Vector_131" d="M93.89 104.713H83.5139V115.134H93.89V104.713Z" fill="var(--fill-0, #00FF00)" stroke="var(--stroke-0, #555555)" stroke-miterlimit="10"/>
<path id="Vector_132" d="M83.5139 115.134H73.1379V125.554H83.5139V115.134Z" fill="var(--fill-0, #00FF00)" stroke="var(--stroke-0, #555555)" stroke-miterlimit="10"/>
<path id="Vector_133" d="M62.7619 0.5H52.3859V10.9202H62.7619V0.5Z" fill="var(--fill-0, #FFFF00)" stroke="var(--stroke-0, #555555)" stroke-miterlimit="10"/>
<path id="Vector_134" d="M62.7619 10.9202H52.3859V21.3404H62.7619V10.9202Z" fill="var(--fill-0, #FFFF00)" stroke="var(--stroke-0, #555555)" stroke-miterlimit="10"/>
<path id="Vector_135" d="M73.1379 42.1865H62.7619V52.6067H73.1379V42.1865Z" fill="var(--fill-0, #00FF00)" stroke="var(--stroke-0, #555555)" stroke-miterlimit="10"/>
<path id="Vector_136" d="M62.7619 52.6067H52.3859V63.0269H62.7619V52.6067Z" fill="var(--fill-0, #00FF00)" stroke="var(--stroke-0, #555555)" stroke-miterlimit="10"/>
<path id="Vector_137" d="M73.1379 52.6067H62.7619V63.0269H73.1379V52.6067Z" fill="var(--fill-0, #00FF00)" stroke="var(--stroke-0, #555555)" stroke-miterlimit="10"/>
<path id="Vector_138" d="M62.7619 63.0269H52.3859V73.4471H62.7619V63.0269Z" fill="var(--fill-0, #FF0000)" stroke="var(--stroke-0, #555555)" stroke-miterlimit="10"/>
<path id="Vector_139" d="M73.1379 63.0269H62.7619V73.4471H73.1379V63.0269Z" fill="var(--fill-0, #FF0000)" stroke="var(--stroke-0, #555555)" stroke-miterlimit="10"/>
<path id="Vector_140" d="M62.7619 73.4471H52.3859V83.8673H62.7619V73.4471Z" fill="var(--fill-0, #00FF00)" stroke="var(--stroke-0, #555555)" stroke-miterlimit="10"/>
<path id="Vector_141" d="M73.1379 73.4471H62.7619V83.8673H73.1379V73.4471Z" fill="var(--fill-0, #00FF00)" stroke="var(--stroke-0, #555555)" stroke-miterlimit="10"/>
<path id="Vector_142" d="M52.3859 0.5H42.0098V10.9202H52.3859V0.5Z" fill="var(--fill-0, #FFFF00)" stroke="var(--stroke-0, #555555)" stroke-miterlimit="10"/>
<path id="Vector_143" d="M52.3859 10.9202H42.0098V21.3404H52.3859V10.9202Z" fill="var(--fill-0, #FFFF00)" stroke="var(--stroke-0, #555555)" stroke-miterlimit="10"/>
<path id="Vector_144" d="M52.3859 52.6067H42.0098V63.0269H52.3859V52.6067Z" fill="var(--fill-0, #00FF00)" stroke="var(--stroke-0, #555555)" stroke-miterlimit="10"/>
<path id="Vector_145" d="M42.0098 63.0269H31.6338V73.4471H42.0098V63.0269Z" fill="var(--fill-0, #FF0000)" stroke="var(--stroke-0, #555555)" stroke-miterlimit="10"/>
<path id="Vector_146" d="M52.3859 63.0269H42.0098V73.4471H52.3859V63.0269Z" fill="var(--fill-0, #FF0000)" stroke="var(--stroke-0, #555555)" stroke-miterlimit="10"/>
<path id="Vector_147" d="M42.0098 115.134H31.6338V125.554H42.0098V115.134Z" fill="var(--fill-0, white)" stroke="var(--stroke-0, #555555)" stroke-miterlimit="10"/>
<path id="Vector_148" d="M52.3859 115.134H42.0098V125.554H52.3859V115.134Z" fill="var(--fill-0, white)" stroke="var(--stroke-0, #555555)" stroke-miterlimit="10"/>
<path id="Vector_149" d="M42.0098 125.554H31.6338V135.974H42.0098V125.554Z" fill="var(--fill-0, white)" stroke="var(--stroke-0, #555555)" stroke-miterlimit="10"/>
<path id="Vector_150" d="M52.3859 125.554H42.0098V135.974H52.3859V125.554Z" fill="var(--fill-0, white)" stroke="var(--stroke-0, #555555)" stroke-miterlimit="10"/>
<path id="Vector_151" d="M42.0098 135.974H31.6338V146.394H42.0098V135.974Z" fill="var(--fill-0, white)" stroke="var(--stroke-0, #555555)" stroke-miterlimit="10"/>
<path id="Vector_152" d="M197.662 135.974H187.286V146.394H197.662V135.974Z" fill="var(--fill-0, #00FF00)" stroke="var(--stroke-0, #555555)" stroke-miterlimit="10"/>
<path id="Vector_153" d="M208.038 135.974H197.662V146.394H208.038V135.974Z" fill="var(--fill-0, #00FF00)" stroke="var(--stroke-0, #555555)" stroke-miterlimit="10"/>
<path id="Vector_154" d="M156.158 146.4H145.782V156.82H156.158V146.4Z" fill="var(--fill-0, white)" stroke="var(--stroke-0, #555555)" stroke-miterlimit="10"/>
<path id="Vector_155" d="M197.662 146.4H187.286V156.82H197.662V146.4Z" fill="var(--fill-0, #00FF00)" stroke="var(--stroke-0, #555555)" stroke-miterlimit="10"/>
<path id="Vector_156" d="M125.024 156.82H114.648V167.24H125.024V156.82Z" fill="var(--fill-0, white)" stroke="var(--stroke-0, #555555)" stroke-miterlimit="10"/>
<path id="Vector_157" d="M135.4 156.82H125.024V167.24H135.4V156.82Z" fill="var(--fill-0, white)" stroke="var(--stroke-0, #555555)" stroke-miterlimit="10"/>
<path id="Vector_158" d="M145.776 156.82H135.4V167.24H145.776V156.82Z" fill="var(--fill-0, white)" stroke="var(--stroke-0, #555555)" stroke-miterlimit="10"/>
<path id="Vector_159" d="M156.158 156.82H145.782V167.24H156.158V156.82Z" fill="var(--fill-0, white)" stroke="var(--stroke-0, #555555)" stroke-miterlimit="10"/>
<path id="Vector_160" d="M166.534 156.82H156.158V167.24H166.534V156.82Z" fill="var(--fill-0, white)" stroke="var(--stroke-0, #555555)" stroke-miterlimit="10"/>
<path id="Vector_161" d="M208.038 156.82H197.662V167.24H208.038V156.82Z" fill="var(--fill-0, #00FF00)" stroke="var(--stroke-0, #555555)" stroke-miterlimit="10"/>
<path id="Vector_162" d="M93.89 146.4H83.5139V156.82H93.89V146.4Z" fill="var(--fill-0, #00FF00)" stroke="var(--stroke-0, #555555)" stroke-miterlimit="10"/>
<path id="Vector_163" d="M83.5139 167.24H73.1379V177.661H83.5139V167.24Z" fill="var(--fill-0, white)" stroke="var(--stroke-0, #555555)" stroke-miterlimit="10"/>
<path id="Vector_164" d="M62.7619 156.82H52.3859V167.24H62.7619V156.82Z" fill="var(--fill-0, #0000FF)" stroke="var(--stroke-0, #555555)" stroke-miterlimit="10"/>
<path id="Vector_165" d="M62.7619 167.24H52.3859V177.661H62.7619V167.24Z" fill="var(--fill-0, white)" stroke="var(--stroke-0, #555555)" stroke-miterlimit="10"/>
<path id="Vector_166" d="M73.1379 167.24H62.7619V177.661H73.1379V167.24Z" fill="var(--fill-0, white)" stroke="var(--stroke-0, #555555)" stroke-miterlimit="10"/>
<path id="Vector_167" d="M42.0098 146.4H31.6338V156.82H42.0098V146.4Z" fill="var(--fill-0, white)" stroke="var(--stroke-0, #555555)" stroke-miterlimit="10"/>
<path id="Vector_168" d="M42.0098 156.82H31.6338V167.24H42.0098V156.82Z" fill="var(--fill-0, white)" stroke="var(--stroke-0, #555555)" stroke-miterlimit="10"/>
<path id="Vector_169" d="M42.0098 167.24H31.6338V177.661H42.0098V167.24Z" fill="var(--fill-0, white)" stroke="var(--stroke-0, #555555)" stroke-miterlimit="10"/>
<path id="Vector_170" d="M52.3859 167.24H42.0098V177.661H52.3859V167.24Z" fill="var(--fill-0, white)" stroke="var(--stroke-0, #555555)" stroke-miterlimit="10"/>
<path id="Vector_171" d="M125.024 188.081H114.648V198.501H125.024V188.081Z" fill="var(--fill-0, #00FF00)" stroke="var(--stroke-0, #555555)" stroke-miterlimit="10"/>
<path id="Vector_172" d="M135.4 188.081H125.024V198.501H135.4V188.081Z" fill="var(--fill-0, #00FF00)" stroke="var(--stroke-0, #555555)" stroke-miterlimit="10"/>
<path id="Vector_173" d="M145.776 188.081H135.4V198.501H145.776V188.081Z" fill="var(--fill-0, #00FF00)" stroke="var(--stroke-0, #555555)" stroke-miterlimit="10"/>
<path id="Vector_174" d="M156.158 188.081H145.782V198.501H156.158V188.081Z" fill="var(--fill-0, #00FF00)" stroke="var(--stroke-0, #555555)" stroke-miterlimit="10"/>
<path id="Vector_175" d="M166.534 188.081H156.158V198.501H166.534V188.081Z" fill="var(--fill-0, #00FF00)" stroke="var(--stroke-0, #555555)" stroke-miterlimit="10"/>
<path id="Vector_176" d="M176.91 188.081H166.534V198.501H176.91V188.081Z" fill="var(--fill-0, #00FF00)" stroke="var(--stroke-0, #555555)" stroke-miterlimit="10"/>
<path id="Vector_177" d="M187.286 188.081H176.91V198.501H187.286V188.081Z" fill="var(--fill-0, #00FF00)" stroke="var(--stroke-0, #555555)" stroke-miterlimit="10"/>
<path id="Vector_178" d="M125.024 198.501H114.648V208.921H125.024V198.501Z" fill="var(--fill-0, #00FF00)" stroke="var(--stroke-0, #555555)" stroke-miterlimit="10"/>
<path id="Vector_179" d="M135.4 198.501H125.024V208.921H135.4V198.501Z" fill="var(--fill-0, #00FF00)" stroke="var(--stroke-0, #555555)" stroke-miterlimit="10"/>
<path id="Vector_180" d="M104.272 188.081H93.8957V198.501H104.272V188.081Z" fill="var(--fill-0, #00FF00)" stroke="var(--stroke-0, #555555)" stroke-miterlimit="10"/>
<path id="Vector_181" d="M114.648 188.081H104.272V198.501H114.648V188.081Z" fill="var(--fill-0, #00FF00)" stroke="var(--stroke-0, #555555)" stroke-miterlimit="10"/>
<path id="Vector_182" d="M104.272 198.501H93.8957V208.921H104.272V198.501Z" fill="var(--fill-0, #00FF00)" stroke="var(--stroke-0, #555555)" stroke-miterlimit="10"/>
<path id="Vector_183" d="M114.648 198.501H104.272V208.921H114.648V198.501Z" fill="var(--fill-0, #00FF00)" stroke="var(--stroke-0, #555555)" stroke-miterlimit="10"/>
<path id="Vector_184" d="M83.5139 177.661H73.1379V188.081H83.5139V177.661Z" fill="var(--fill-0, white)" stroke="var(--stroke-0, #555555)" stroke-miterlimit="10"/>
<path id="Vector_185" d="M83.5139 188.081H73.1379V198.501H83.5139V188.081Z" fill="var(--fill-0, white)" stroke="var(--stroke-0, #555555)" stroke-miterlimit="10"/>
<path id="Vector_186" d="M93.89 188.081H83.5139V198.501H93.89V188.081Z" fill="var(--fill-0, #00FF00)" stroke="var(--stroke-0, #555555)" stroke-miterlimit="10"/>
<path id="Vector_187" d="M83.5139 198.501H73.1379V208.921H83.5139V198.501Z" fill="var(--fill-0, white)" stroke="var(--stroke-0, #555555)" stroke-miterlimit="10"/>
<path id="Vector_188" d="M93.89 198.501H83.5139V208.921H93.89V198.501Z" fill="var(--fill-0, #00FF00)" stroke="var(--stroke-0, #555555)" stroke-miterlimit="10"/>
<path id="Vector_189" d="M62.7619 177.661H52.3859V188.081H62.7619V177.661Z" fill="var(--fill-0, white)" stroke="var(--stroke-0, #555555)" stroke-miterlimit="10"/>
<path id="Vector_190" d="M73.1379 177.661H62.7619V188.081H73.1379V177.661Z" fill="var(--fill-0, white)" stroke="var(--stroke-0, #555555)" stroke-miterlimit="10"/>
<path id="Vector_191" d="M62.7619 188.081H52.3859V198.501H62.7619V188.081Z" fill="var(--fill-0, black)" stroke="var(--stroke-0, #555555)" stroke-miterlimit="10"/>
<path id="Vector_192" d="M73.1379 188.081H62.7619V198.501H73.1379V188.081Z" fill="var(--fill-0, white)" stroke="var(--stroke-0, #555555)" stroke-miterlimit="10"/>
<path id="Vector_193" d="M62.7619 198.501H52.3859V208.921H62.7619V198.501Z" fill="var(--fill-0, black)" stroke="var(--stroke-0, #555555)" stroke-miterlimit="10"/>
<path id="Vector_194" d="M73.1379 198.501H62.7619V208.921H73.1379V198.501Z" fill="var(--fill-0, white)" stroke="var(--stroke-0, #555555)" stroke-miterlimit="10"/>
<path id="Vector_195" d="M42.0098 177.661H31.6338V188.081H42.0098V177.661Z" fill="var(--fill-0, white)" stroke="var(--stroke-0, #555555)" stroke-miterlimit="10"/>
<path id="Vector_196" d="M52.3859 177.661H42.0098V188.081H52.3859V177.661Z" fill="var(--fill-0, white)" stroke="var(--stroke-0, #555555)" stroke-miterlimit="10"/>
<path id="Vector_197" d="M42.0098 188.081H31.6338V198.501H42.0098V188.081Z" fill="var(--fill-0, black)" stroke="var(--stroke-0, #555555)" stroke-miterlimit="10"/>
<path id="Vector_198" d="M52.3859 188.081H42.0098V198.501H52.3859V188.081Z" fill="var(--fill-0, black)" stroke="var(--stroke-0, #555555)" stroke-miterlimit="10"/>
<path id="Vector_199" d="M42.0098 198.501H31.6338V208.921H42.0098V198.501Z" fill="var(--fill-0, black)" stroke="var(--stroke-0, #555555)" stroke-miterlimit="10"/>
<path id="Vector_200" d="M52.3859 198.501H42.0098V208.921H52.3859V198.501Z" fill="var(--fill-0, black)" stroke="var(--stroke-0, #555555)" stroke-miterlimit="10"/>
<path id="Vector_201" d="M145.776 198.501H135.4V208.921H145.776V198.501Z" fill="var(--fill-0, #00FF00)" stroke="var(--stroke-0, #555555)" stroke-miterlimit="10"/>
<path id="Vector_202" d="M156.158 198.501H145.782V208.921H156.158V198.501Z" fill="var(--fill-0, #00FF00)" stroke="var(--stroke-0, #555555)" stroke-miterlimit="10"/>
<path id="Vector_203" d="M166.534 198.501H156.158V208.921H166.534V198.501Z" fill="var(--fill-0, #00FF00)" stroke="var(--stroke-0, #555555)" stroke-miterlimit="10"/>
<path id="Vector_204" d="M176.91 198.501H166.534V208.921H176.91V198.501Z" fill="var(--fill-0, #00FF00)" stroke="var(--stroke-0, #555555)" stroke-miterlimit="10"/>
<path id="Vector_205" d="M187.286 198.501H176.91V208.921H187.286V198.501Z" fill="var(--fill-0, #00FF00)" stroke="var(--stroke-0, #555555)" stroke-miterlimit="10"/>
<path id="Vector_206" d="M197.662 198.501H187.286V208.921H197.662V198.501Z" fill="var(--fill-0, #00FF00)" stroke="var(--stroke-0, #555555)" stroke-miterlimit="10"/>
<path id="Vector_207" d="M208.038 198.501H197.662V208.921H208.038V198.501Z" fill="var(--fill-0, #00FF00)" stroke="var(--stroke-0, #555555)" stroke-miterlimit="10"/>
<path id="Vector_208" d="M218.419 198.501H208.043V208.921H218.419V198.501Z" fill="var(--fill-0, #00FF00)" stroke="var(--stroke-0, #555555)" stroke-miterlimit="10"/>
<path id="Vector_209" d="M228.795 198.501H218.419V208.921H228.795V198.501Z" fill="var(--fill-0, #00FF00)" stroke="var(--stroke-0, #555555)" stroke-miterlimit="10"/>
<path id="Vector_210" d="M10.876 52.6067H0.5V63.0269H10.876V52.6067Z" fill="var(--fill-0, #FF0000)" stroke="var(--stroke-0, #555555)" stroke-miterlimit="10"/>
<path id="Vector_211" d="M10.876 115.134H0.5V125.554H10.876V115.134Z" fill="var(--fill-0, white)" stroke="var(--stroke-0, #555555)" stroke-miterlimit="10"/>
<path id="Vector_212" d="M10.876 125.554H0.5V135.974H10.876V125.554Z" fill="var(--fill-0, white)" stroke="var(--stroke-0, #555555)" stroke-miterlimit="10"/>
<path id="Vector_213" d="M21.2521 52.6067H10.876V63.0269H21.2521V52.6067Z" fill="var(--fill-0, #FF0000)" stroke="var(--stroke-0, #555555)" stroke-miterlimit="10"/>
<path id="Vector_214" d="M31.6281 63.0269H21.2521V73.4471H31.6281V63.0269Z" fill="var(--fill-0, #FF0000)" stroke="var(--stroke-0, #555555)" stroke-miterlimit="10"/>
<path id="Vector_215" d="M21.2521 73.4471H10.876V83.8673H21.2521V73.4471Z" fill="var(--fill-0, #FF0000)" stroke="var(--stroke-0, #555555)" stroke-miterlimit="10"/>
<path id="Vector_216" d="M21.2521 104.713H10.876V115.134H21.2521V104.713Z" fill="var(--fill-0, #0000FF)" stroke="var(--stroke-0, #555555)" stroke-miterlimit="10"/>
<path id="Vector_217" d="M21.2521 115.134H10.876V125.554H21.2521V115.134Z" fill="var(--fill-0, white)" stroke="var(--stroke-0, #555555)" stroke-miterlimit="10"/>
<path id="Vector_218" d="M21.2521 125.554H10.876V135.974H21.2521V125.554Z" fill="var(--fill-0, white)" stroke="var(--stroke-0, #555555)" stroke-miterlimit="10"/>
<path id="Vector_219" d="M31.6281 125.554H21.2521V135.974H31.6281V125.554Z" fill="var(--fill-0, white)" stroke="var(--stroke-0, #555555)" stroke-miterlimit="10"/>
<path id="Vector_220" d="M21.2521 135.974H10.876V146.394H21.2521V135.974Z" fill="var(--fill-0, white)" stroke="var(--stroke-0, #555555)" stroke-miterlimit="10"/>
<path id="Vector_221" d="M31.6281 135.974H21.2521V146.394H31.6281V135.974Z" fill="var(--fill-0, white)" stroke="var(--stroke-0, #555555)" stroke-miterlimit="10"/>
<path id="Vector_222" d="M21.2521 146.4H10.876V156.82H21.2521V146.4Z" fill="var(--fill-0, white)" stroke="var(--stroke-0, #555555)" stroke-miterlimit="10"/>
<path id="Vector_223" d="M31.6281 146.4H21.2521V156.82H31.6281V146.4Z" fill="var(--fill-0, white)" stroke="var(--stroke-0, #555555)" stroke-miterlimit="10"/>
<path id="Vector_224" d="M21.2521 156.82H10.876V167.24H21.2521V156.82Z" fill="var(--fill-0, white)" stroke="var(--stroke-0, #555555)" stroke-miterlimit="10"/>
<path id="Vector_225" d="M31.6281 156.82H21.2521V167.24H31.6281V156.82Z" fill="var(--fill-0, white)" stroke="var(--stroke-0, #555555)" stroke-miterlimit="10"/>
<path id="Vector_226" d="M21.2521 167.24H10.876V177.661H21.2521V167.24Z" fill="var(--fill-0, white)" stroke="var(--stroke-0, #555555)" stroke-miterlimit="10"/>
<path id="Vector_227" d="M31.6281 167.24H21.2521V177.661H31.6281V167.24Z" fill="var(--fill-0, white)" stroke="var(--stroke-0, #555555)" stroke-miterlimit="10"/>
<path id="Vector_228" d="M21.2521 177.661H10.876V188.081H21.2521V177.661Z" fill="var(--fill-0, white)" stroke="var(--stroke-0, #555555)" stroke-miterlimit="10"/>
<path id="Vector_229" d="M31.6281 177.661H21.2521V188.081H31.6281V177.661Z" fill="var(--fill-0, white)" stroke="var(--stroke-0, #555555)" stroke-miterlimit="10"/>
<path id="Vector_230" d="M21.2521 188.081H10.876V198.501H21.2521V188.081Z" fill="var(--fill-0, white)" stroke="var(--stroke-0, #555555)" stroke-miterlimit="10"/>
<path id="Vector_231" d="M31.6281 188.081H21.2521V198.501H31.6281V188.081Z" fill="var(--fill-0, white)" stroke="var(--stroke-0, #555555)" stroke-miterlimit="10"/>
<path id="Vector_232" d="M21.2521 198.501H10.876V208.921H21.2521V198.501Z" fill="var(--fill-0, white)" stroke="var(--stroke-0, #555555)" stroke-miterlimit="10"/>
<path id="Vector_233" d="M31.6281 198.501H21.2521V208.921H31.6281V198.501Z" fill="var(--fill-0, white)" stroke="var(--stroke-0, #555555)" stroke-miterlimit="10"/>
</g>
</svg>
