<svg xmlns="http://www.w3.org/2000/svg" viewBox="0 0 455.55 364.64"><defs><style>.cls-1{fill:#fff;}.cls-1,.cls-2,.cls-3,.cls-4,.cls-5,.cls-6,.cls-7{stroke:#555;stroke-miterlimit:10;}.cls-2{fill:lime;}.cls-3{fill:aqua;}.cls-4{fill:red;}.cls-5{fill:#ff0;}.cls-6{fill:blue;}</style></defs><g id="Layer_2" data-name="Layer 2"><g id="Layer_1-2" data-name="Layer 1"><rect class="cls-1" x="218.68" y="0.5" width="18.18" height="18.18"/><rect class="cls-1" x="236.86" y="0.5" width="18.18" height="18.18"/><rect class="cls-1" x="255.05" y="0.5" width="18.18" height="18.18"/><rect class="cls-1" x="273.23" y="0.5" width="18.18" height="18.18"/><rect class="cls-1" x="200.5" y="18.68" width="18.18" height="18.18"/><rect class="cls-1" x="218.68" y="18.68" width="18.18" height="18.18"/><rect class="cls-1" x="236.86" y="18.68" width="18.18" height="18.18"/><rect class="cls-1" x="255.05" y="18.68" width="18.18" height="18.18"/><rect class="cls-1" x="273.23" y="18.68" width="18.18" height="18.18"/><rect class="cls-1" x="291.41" y="18.68" width="18.18" height="18.18"/><rect class="cls-1" x="309.59" y="18.68" width="18.18" height="18.18"/><rect class="cls-2" x="400.5" y="36.86" width="18.18" height="18.18"/><rect class="cls-3" x="273.23" y="55.05" width="18.18" height="18.18"/><rect class="cls-3" x="291.41" y="55.05" width="18.18" height="18.18"/><rect class="cls-3" x="309.59" y="55.05" width="18.18" height="18.18"/><rect class="cls-3" x="327.77" y="55.05" width="18.18" height="18.18"/><rect class="cls-3" x="345.95" y="55.05" width="18.18" height="18.18"/><rect class="cls-2" x="400.5" y="55.05" width="18.18" height="18.18"/><rect class="cls-3" x="255.05" y="73.23" width="18.18" height="18.18"/><rect class="cls-3" x="273.23" y="73.23" width="18.18" height="18.18"/><rect class="cls-3" x="291.41" y="73.23" width="18.18" height="18.18"/><rect class="cls-3" x="309.59" y="73.23" width="18.18" height="18.18"/><rect class="cls-3" x="327.77" y="73.23" width="18.18" height="18.18"/><rect class="cls-2" x="400.5" y="73.23" width="18.18" height="18.18"/><rect class="cls-2" x="200.5" y="91.41" width="18.18" height="18.18"/><rect class="cls-2" x="218.68" y="91.41" width="18.18" height="18.18"/><rect class="cls-3" x="236.86" y="91.41" width="18.18" height="18.18"/><rect class="cls-3" x="255.05" y="91.41" width="18.18" height="18.18"/><rect class="cls-3" x="273.23" y="91.41" width="18.18" height="18.18"/><rect class="cls-3" x="291.41" y="91.41" width="18.18" height="18.18"/><rect class="cls-3" x="309.59" y="91.41" width="18.18" height="18.18"/><rect class="cls-2" x="418.68" y="91.41" width="18.18" height="18.18"/><rect class="cls-2" x="200.5" y="109.59" width="18.18" height="18.18"/><rect class="cls-3" x="218.68" y="109.59" width="18.18" height="18.18"/><rect class="cls-3" x="236.86" y="109.59" width="18.18" height="18.18"/><rect class="cls-3" x="255.05" y="109.59" width="18.18" height="18.18"/><rect class="cls-2" x="273.23" y="109.59" width="18.18" height="18.18"/><rect class="cls-2" x="291.41" y="109.59" width="18.18" height="18.18"/><rect class="cls-2" x="309.59" y="109.59" width="18.18" height="18.18"/><rect class="cls-2" x="327.77" y="109.59" width="18.18" height="18.18"/><rect class="cls-2" x="345.95" y="109.59" width="18.18" height="18.18"/><rect class="cls-2" x="364.14" y="109.59" width="18.18" height="18.18"/><rect class="cls-2" x="436.86" y="109.59" width="18.18" height="18.18"/><rect class="cls-3" x="200.5" y="127.77" width="18.18" height="18.18"/><rect class="cls-3" x="218.68" y="127.77" width="18.18" height="18.18"/><rect class="cls-2" x="236.86" y="127.77" width="18.18" height="18.18"/><rect class="cls-2" x="255.05" y="127.77" width="18.18" height="18.18"/><rect class="cls-2" x="273.23" y="127.77" width="18.18" height="18.18"/><rect class="cls-2" x="291.41" y="127.77" width="18.18" height="18.18"/><rect class="cls-2" x="309.59" y="127.77" width="18.18" height="18.18"/><rect class="cls-2" x="327.77" y="127.77" width="18.18" height="18.18"/><rect class="cls-2" x="345.95" y="127.77" width="18.18" height="18.18"/><rect class="cls-2" x="364.14" y="127.77" width="18.18" height="18.18"/><rect class="cls-2" x="382.32" y="127.77" width="18.18" height="18.18"/><rect class="cls-2" x="400.5" y="127.77" width="18.18" height="18.18"/><rect class="cls-2" x="436.86" y="127.77" width="18.18" height="18.18"/><rect class="cls-2" x="200.5" y="145.95" width="18.18" height="18.18"/><rect class="cls-2" x="218.68" y="145.95" width="18.18" height="18.18"/><rect class="cls-2" x="236.86" y="145.95" width="18.18" height="18.18"/><rect class="cls-2" x="255.05" y="145.95" width="18.18" height="18.18"/><rect class="cls-2" x="273.23" y="145.95" width="18.18" height="18.18"/><rect class="cls-2" x="291.41" y="145.95" width="18.18" height="18.18"/><rect class="cls-2" x="309.59" y="145.95" width="18.18" height="18.18"/><rect class="cls-2" x="327.77" y="145.95" width="18.18" height="18.18"/><rect class="cls-2" x="345.95" y="145.95" width="18.18" height="18.18"/><rect class="cls-2" x="364.14" y="145.95" width="18.18" height="18.18"/><rect class="cls-2" x="382.32" y="145.95" width="18.18" height="18.18"/><rect class="cls-2" x="400.5" y="145.95" width="18.18" height="18.18"/><rect class="cls-2" x="418.68" y="145.95" width="18.18" height="18.18"/><rect class="cls-2" x="436.86" y="145.95" width="18.18" height="18.18"/><rect class="cls-2" x="200.5" y="164.14" width="18.18" height="18.18"/><rect class="cls-2" x="218.68" y="164.14" width="18.18" height="18.18"/><rect class="cls-2" x="236.86" y="164.14" width="18.18" height="18.18"/><rect class="cls-2" x="255.05" y="164.14" width="18.18" height="18.18"/><rect class="cls-2" x="273.23" y="164.14" width="18.18" height="18.18"/><rect class="cls-2" x="291.41" y="164.14" width="18.18" height="18.18"/><rect class="cls-2" x="309.59" y="164.14" width="18.18" height="18.18"/><rect class="cls-2" x="327.77" y="164.14" width="18.18" height="18.18"/><rect class="cls-2" x="345.95" y="164.14" width="18.18" height="18.18"/><rect class="cls-2" x="364.14" y="164.14" width="18.18" height="18.18"/><rect class="cls-2" x="382.32" y="164.14" width="18.18" height="18.18"/><rect class="cls-2" x="400.5" y="164.14" width="18.18" height="18.18"/><rect class="cls-2" x="418.68" y="164.14" width="18.18" height="18.18"/><rect class="cls-2" x="436.86" y="164.14" width="18.18" height="18.18"/><rect class="cls-2" x="200.5" y="182.32" width="18.18" height="18.18"/><rect class="cls-2" x="218.68" y="182.32" width="18.18" height="18.18"/><rect class="cls-2" x="236.86" y="182.32" width="18.18" height="18.18"/><rect class="cls-2" x="309.59" y="182.32" width="18.18" height="18.18"/><rect class="cls-2" x="327.77" y="182.32" width="18.18" height="18.18"/><rect class="cls-2" x="345.95" y="182.32" width="18.18" height="18.18"/><rect class="cls-2" x="364.14" y="182.32" width="18.18" height="18.18"/><rect class="cls-2" x="382.32" y="182.32" width="18.18" height="18.18"/><rect class="cls-2" x="400.5" y="182.32" width="18.18" height="18.18"/><rect class="cls-2" x="418.68" y="182.32" width="18.18" height="18.18"/><rect class="cls-2" x="200.5" y="200.5" width="18.18" height="18.18"/><rect class="cls-2" x="218.68" y="200.5" width="18.18" height="18.18"/><rect class="cls-2" x="236.86" y="200.5" width="18.18" height="18.18"/><rect class="cls-2" x="327.77" y="200.5" width="18.18" height="18.18"/><rect class="cls-2" x="345.95" y="200.5" width="18.18" height="18.18"/><rect class="cls-2" x="364.14" y="200.5" width="18.18" height="18.18"/><rect class="cls-2" x="382.32" y="200.5" width="18.18" height="18.18"/><rect class="cls-2" x="327.77" y="218.68" width="18.18" height="18.18"/><rect class="cls-2" x="345.95" y="218.68" width="18.18" height="18.18"/><rect class="cls-2" x="364.14" y="218.68" width="18.18" height="18.18"/><rect class="cls-2" x="382.32" y="218.68" width="18.18" height="18.18"/><rect class="cls-2" x="400.5" y="218.68" width="18.18" height="18.18"/><rect class="cls-2" x="164.14" y="36.86" width="18.18" height="18.18"/><rect class="cls-2" x="164.14" y="55.05" width="18.18" height="18.18"/><rect class="cls-2" x="164.14" y="91.41" width="18.18" height="18.18"/><rect class="cls-2" x="182.32" y="91.41" width="18.18" height="18.18"/><rect class="cls-2" x="164.14" y="109.59" width="18.18" height="18.18"/><rect class="cls-2" x="182.32" y="109.59" width="18.18" height="18.18"/><rect class="cls-2" x="164.14" y="127.77" width="18.18" height="18.18"/><rect class="cls-2" x="182.32" y="127.77" width="18.18" height="18.18"/><rect class="cls-2" x="164.14" y="145.95" width="18.18" height="18.18"/><rect class="cls-2" x="182.32" y="145.95" width="18.18" height="18.18"/><rect class="cls-2" x="164.14" y="164.14" width="18.18" height="18.18"/><rect class="cls-2" x="182.32" y="164.14" width="18.18" height="18.18"/><rect class="cls-2" x="182.32" y="182.32" width="18.18" height="18.18"/><rect class="cls-2" x="182.32" y="200.5" width="18.18" height="18.18"/><rect class="cls-2" x="182.32" y="218.68" width="18.18" height="18.18"/><rect class="cls-2" x="164.14" y="236.86" width="18.18" height="18.18"/><rect class="cls-2" x="145.95" y="55.05" width="18.18" height="18.18"/><rect class="cls-2" x="127.77" y="73.23" width="18.18" height="18.18"/><rect class="cls-2" x="145.95" y="73.23" width="18.18" height="18.18"/><rect class="cls-2" x="127.77" y="91.41" width="18.18" height="18.18"/><rect class="cls-2" x="145.95" y="91.41" width="18.18" height="18.18"/><rect class="cls-4" x="127.77" y="109.59" width="18.18" height="18.18"/><rect class="cls-2" x="145.95" y="109.59" width="18.18" height="18.18"/><rect class="cls-2" x="127.77" y="127.77" width="18.18" height="18.18"/><rect class="cls-2" x="145.95" y="182.32" width="18.18" height="18.18"/><rect class="cls-2" x="127.77" y="200.5" width="18.18" height="18.18"/><rect class="cls-5" x="91.41" y="0.5" width="18.18" height="18.18"/><rect class="cls-5" x="91.41" y="18.68" width="18.18" height="18.18"/><rect class="cls-2" x="109.59" y="73.23" width="18.18" height="18.18"/><rect class="cls-2" x="91.41" y="91.41" width="18.18" height="18.18"/><rect class="cls-2" x="109.59" y="91.41" width="18.18" height="18.18"/><rect class="cls-4" x="91.41" y="109.59" width="18.18" height="18.18"/><rect class="cls-4" x="109.59" y="109.59" width="18.18" height="18.18"/><rect class="cls-2" x="91.41" y="127.77" width="18.18" height="18.18"/><rect class="cls-2" x="109.59" y="127.77" width="18.18" height="18.18"/><rect class="cls-5" x="73.23" y="0.5" width="18.18" height="18.18"/><rect class="cls-5" x="73.23" y="18.68" width="18.18" height="18.18"/><rect class="cls-2" x="73.23" y="91.41" width="18.18" height="18.18"/><rect class="cls-4" x="55.05" y="109.59" width="18.18" height="18.18"/><rect class="cls-4" x="73.23" y="109.59" width="18.18" height="18.18"/><rect class="cls-1" x="55.05" y="200.5" width="18.18" height="18.18"/><rect class="cls-1" x="73.23" y="200.5" width="18.18" height="18.18"/><rect class="cls-1" x="55.05" y="218.68" width="18.18" height="18.18"/><rect class="cls-1" x="73.23" y="218.68" width="18.18" height="18.18"/><rect class="cls-1" x="55.05" y="236.86" width="18.18" height="18.18"/><rect class="cls-2" x="327.77" y="236.86" width="18.18" height="18.18"/><rect class="cls-2" x="345.95" y="236.86" width="18.18" height="18.18"/><rect class="cls-1" x="255.05" y="255.05" width="18.18" height="18.18"/><rect class="cls-2" x="327.77" y="255.05" width="18.18" height="18.18"/><rect class="cls-1" x="200.5" y="273.23" width="18.18" height="18.18"/><rect class="cls-1" x="218.68" y="273.23" width="18.18" height="18.18"/><rect class="cls-1" x="236.86" y="273.23" width="18.18" height="18.18"/><rect class="cls-1" x="255.05" y="273.23" width="18.18" height="18.18"/><rect class="cls-1" x="273.23" y="273.23" width="18.18" height="18.18"/><rect class="cls-2" x="345.95" y="273.23" width="18.18" height="18.18"/><rect class="cls-2" x="145.95" y="255.05" width="18.18" height="18.18"/><rect class="cls-1" x="127.77" y="291.41" width="18.18" height="18.18"/><rect class="cls-6" x="91.41" y="273.23" width="18.18" height="18.18"/><rect class="cls-1" x="91.41" y="291.41" width="18.18" height="18.18"/><rect class="cls-1" x="109.59" y="291.41" width="18.18" height="18.18"/><rect class="cls-1" x="55.05" y="255.05" width="18.18" height="18.18"/><rect class="cls-1" x="55.05" y="273.23" width="18.18" height="18.18"/><rect class="cls-1" x="55.05" y="291.41" width="18.18" height="18.18"/><rect class="cls-1" x="73.23" y="291.41" width="18.18" height="18.18"/><rect class="cls-2" x="200.5" y="327.77" width="18.18" height="18.18"/><rect class="cls-2" x="218.68" y="327.77" width="18.18" height="18.18"/><rect class="cls-2" x="236.86" y="327.77" width="18.18" height="18.18"/><rect class="cls-2" x="255.05" y="327.77" width="18.18" height="18.18"/><rect class="cls-2" x="273.23" y="327.77" width="18.18" height="18.18"/><rect class="cls-2" x="291.41" y="327.77" width="18.18" height="18.18"/><rect class="cls-2" x="309.59" y="327.77" width="18.18" height="18.18"/><rect class="cls-2" x="200.5" y="345.95" width="18.18" height="18.18"/><rect class="cls-2" x="218.68" y="345.95" width="18.18" height="18.18"/><rect class="cls-2" x="164.14" y="327.77" width="18.18" height="18.18"/><rect class="cls-2" x="182.32" y="327.77" width="18.18" height="18.18"/><rect class="cls-2" x="164.14" y="345.95" width="18.18" height="18.18"/><rect class="cls-2" x="182.32" y="345.95" width="18.18" height="18.18"/><rect class="cls-1" x="127.77" y="309.59" width="18.18" height="18.18"/><rect class="cls-1" x="127.77" y="327.77" width="18.18" height="18.18"/><rect class="cls-2" x="145.95" y="327.77" width="18.18" height="18.18"/><rect class="cls-1" x="127.77" y="345.95" width="18.18" height="18.18"/><rect class="cls-2" x="145.95" y="345.95" width="18.18" height="18.18"/><rect class="cls-1" x="91.41" y="309.59" width="18.18" height="18.18"/><rect class="cls-1" x="109.59" y="309.59" width="18.18" height="18.18"/><rect class="cls-7" x="91.41" y="327.77" width="18.18" height="18.18"/><rect class="cls-1" x="109.59" y="327.77" width="18.18" height="18.18"/><rect class="cls-7" x="91.41" y="345.95" width="18.18" height="18.18"/><rect class="cls-1" x="109.59" y="345.95" width="18.18" height="18.18"/><rect class="cls-1" x="55.05" y="309.59" width="18.18" height="18.18"/><rect class="cls-1" x="73.23" y="309.59" width="18.18" height="18.18"/><rect class="cls-7" x="55.05" y="327.77" width="18.18" height="18.18"/><rect class="cls-7" x="73.23" y="327.77" width="18.18" height="18.18"/><rect class="cls-7" x="55.05" y="345.95" width="18.18" height="18.18"/><rect class="cls-7" x="73.23" y="345.95" width="18.18" height="18.18"/><rect class="cls-2" x="236.86" y="345.95" width="18.18" height="18.18"/><rect class="cls-2" x="255.05" y="345.95" width="18.18" height="18.18"/><rect class="cls-2" x="273.23" y="345.95" width="18.18" height="18.18"/><rect class="cls-2" x="291.41" y="345.95" width="18.18" height="18.18"/><rect class="cls-2" x="309.59" y="345.95" width="18.18" height="18.18"/><rect class="cls-2" x="327.77" y="345.95" width="18.18" height="18.18"/><rect class="cls-2" x="345.95" y="345.95" width="18.18" height="18.18"/><rect class="cls-2" x="364.14" y="345.95" width="18.18" height="18.18"/><rect class="cls-2" x="382.32" y="345.95" width="18.18" height="18.18"/><rect class="cls-4" x="0.5" y="91.41" width="18.18" height="18.18"/><rect class="cls-1" x="0.5" y="200.5" width="18.18" height="18.18"/><rect class="cls-1" x="0.5" y="218.68" width="18.18" height="18.18"/><rect class="cls-4" x="18.68" y="91.41" width="18.18" height="18.18"/><rect class="cls-4" x="36.86" y="109.59" width="18.18" height="18.18"/><rect class="cls-4" x="18.68" y="127.77" width="18.18" height="18.18"/><rect class="cls-6" x="18.68" y="182.32" width="18.18" height="18.18"/><rect class="cls-1" x="18.68" y="200.5" width="18.18" height="18.18"/><rect class="cls-1" x="18.68" y="218.68" width="18.18" height="18.18"/><rect class="cls-1" x="36.86" y="218.68" width="18.18" height="18.18"/><rect class="cls-1" x="18.68" y="236.86" width="18.18" height="18.18"/><rect class="cls-1" x="36.86" y="236.86" width="18.18" height="18.18"/><rect class="cls-1" x="18.68" y="255.05" width="18.18" height="18.18"/><rect class="cls-1" x="36.86" y="255.05" width="18.18" height="18.18"/><rect class="cls-1" x="18.68" y="273.23" width="18.18" height="18.18"/><rect class="cls-1" x="36.86" y="273.23" width="18.18" height="18.18"/><rect class="cls-1" x="18.68" y="291.41" width="18.18" height="18.18"/><rect class="cls-1" x="36.86" y="291.41" width="18.18" height="18.18"/><rect class="cls-1" x="18.68" y="309.59" width="18.18" height="18.18"/><rect class="cls-1" x="36.86" y="309.59" width="18.18" height="18.18"/><rect class="cls-1" x="18.68" y="327.77" width="18.18" height="18.18"/><rect class="cls-1" x="36.86" y="327.77" width="18.18" height="18.18"/><rect class="cls-1" x="18.68" y="345.95" width="18.18" height="18.18"/><rect class="cls-1" x="36.86" y="345.95" width="18.18" height="18.18"/></g></g></svg>