<svg overflow="visible" style="display: block;" viewBox="0 0 402 120" fill="none" xmlns="http://www.w3.org/2000/svg">
<g id="logo">
<path id="Vector" d="M200.835 40.0136H160.751V79.9864H200.835V40.0136Z" fill="var(--fill-0, #EBB0FF)"/>
<path id="Vector_2" d="M241.126 79.9864H200.835V120H281.293H241.044V80.0682L241.126 79.9864Z" fill="var(--fill-0, #EBB0FF)"/>
<path id="Vector_3" d="M200.835 79.9864H160.751V120H160.586H200.835V79.9864Z" fill="var(--fill-0, #D979FF)"/>
<path id="Vector_4" d="M281.293 0H160.586H200.835V40.0136H281.293V0Z" fill="var(--fill-0, #EBB0FF)"/>
<path id="Vector_5" d="M200.835 0H160.586V19.8023L160.751 20.0068L160.586 20.1705V40.0136H160.751H200.835V0Z" fill="var(--fill-0, #D979FF)"/>
<path id="Vector_6" d="M281.293 40.0136L241.126 79.9864H281.293V120V40.0136Z" fill="var(--fill-0, #EBB0FF)"/>
<path id="Vector_7" d="M281.293 79.9864H241.126L241.044 80.0682V120H281.293V79.9864Z" fill="var(--fill-0, #D979FF)"/>
<path id="Vector_8" d="M40.2494 0H0V120H40.2494V79.9864H0V40.0136H40.2494V0Z" fill="var(--fill-0, #92F0ED)"/>
<path id="Vector_9" d="M80.4576 40.0136H40.2494V79.9864H80.4576V40.0136Z" fill="var(--fill-0, #92F0ED)"/>
<path id="Vector_10" d="M40.2494 40.0136H0V79.9864H40.2494V40.0136Z" fill="var(--fill-0, #54E2DC)"/>
<path id="Vector_11" d="M120.542 79.9864H80.4576V120H120.542V79.9864ZM120.707 0H80.4576V40.0136H120.707V20.1705V0Z" fill="var(--fill-0, #92F0ED)"/>
<path id="Vector_12" d="M120.542 40.0136H80.4576V79.9864H120.542V40.0136Z" fill="var(--fill-0, #54E2DC)"/>
<path id="Vector_13" d="M321.542 0H281.293V120H321.542V79.9864H281.293V40.0136H321.542V0Z" fill="var(--fill-0, #92F0ED)"/>
<path id="Vector_14" d="M361.792 40.0136H321.542V79.9864H361.792V40.0136Z" fill="var(--fill-0, #92F0ED)"/>
<path id="Vector_15" d="M321.542 40.0136H281.293V79.9864H321.542V40.0136Z" fill="var(--fill-0, #54E2DC)"/>
<path id="Vector_16" d="M402 0H361.792V40.0136H402V79.9864H361.792V120H402V0Z" fill="var(--fill-0, #92F0ED)"/>
<path id="Vector_17" d="M402 40.0136H361.792V79.9864H402V40.0136Z" fill="var(--fill-0, #54E2DC)"/>
<path id="Vector_18" d="M140.667 0L120.707 19.8023V20.1705L140.667 40.0136L160.586 20.1705V19.8023L140.667 0Z" fill="var(--fill-0, #E70006)"/>
<path id="Vector_19" d="M160.586 19.8023V20.1705L160.751 20.0068L160.586 19.8023Z" fill="var(--fill-0, #C50006)"/>
<path id="Vector_20" d="M120.707 19.8023L120.542 20.0068L120.707 20.1705V19.8023Z" fill="var(--fill-0, #840006)"/>
<path id="Vector_21" d="M160.586 40.0136H140.667H120.707V120H160.586V40.0136Z" fill="var(--fill-0, #E70006)"/>
<path id="Vector_22" d="M160.751 40.0136H160.586V120V79.9864H160.751V40.0136Z" fill="var(--fill-0, #D50006)"/>
<path id="Vector_23" d="M160.751 79.9864H160.586V120H160.751V79.9864Z" fill="var(--fill-0, #C50006)"/>
<path id="Vector_24" d="M120.707 40.0136H120.542H120.707V79.9864H120.542V120H120.707V40.0136Z" fill="var(--fill-0, #840006)"/>
<path id="Vector_25" d="M120.707 40.0136H120.542V79.9864H120.707V40.0136Z" fill="var(--fill-0, #4C0005)"/>
</g>
</svg>
