<svg overflow="visible" style="display: block;" viewBox="0 0 139.999 41.7911" fill="none" xmlns="http://www.w3.org/2000/svg">
<g id="logo">
<path id="Vector" d="M69.9428 13.9352H55.9829V27.856H69.9428V13.9352Z" fill="var(--fill-0, #EBB0FF)"/>
<path id="Vector_2" d="M83.9734 27.8559H69.9419V41.791H97.962H83.9448V27.8844L83.9734 27.8559Z" fill="var(--fill-0, #EBB0FF)"/>
<path id="Vector_3" d="M69.942 27.8559H55.9821V41.791H55.9248H69.942V27.8559Z" fill="var(--fill-0, #D979FF)"/>
<path id="Vector_4" d="M97.9621 0H55.9248H69.942V13.9351H97.9621V0Z" fill="var(--fill-0, #EBB0FF)"/>
<path id="Vector_5" d="M69.942 0H55.9248V6.89631L55.9821 6.96755L55.9248 7.02454V13.9351H55.9821H69.942V0Z" fill="var(--fill-0, #D979FF)"/>
<path id="Vector_6" d="M97.9629 13.9352L83.9744 27.856H97.9629V41.7911V13.9352Z" fill="var(--fill-0, #EBB0FF)"/>
<path id="Vector_7" d="M97.9625 27.8559H83.974L83.9453 27.8844V41.791H97.9625V27.8559Z" fill="var(--fill-0, #D979FF)"/>
<path id="Vector_8" d="M14.0172 0H0V41.791H14.0172V27.8559H0V13.9351H14.0172V0Z" fill="var(--fill-0, #92F0ED)"/>
<path id="Vector_9" d="M28.02 13.9352H14.0171V27.856H28.02V13.9352Z" fill="var(--fill-0, #92F0ED)"/>
<path id="Vector_10" d="M14.0172 13.9352H0V27.856H14.0172V13.9352Z" fill="var(--fill-0, #54E2DC)"/>
<path id="Vector_11" d="M41.9804 27.8559H28.0205V41.791H41.9804V27.8559ZM42.0377 0H28.0205V13.9351H42.0377V7.02454V0Z" fill="var(--fill-0, #92F0ED)"/>
<path id="Vector_12" d="M41.9804 13.9352H28.0205V27.856H41.9804V13.9352Z" fill="var(--fill-0, #54E2DC)"/>
<path id="Vector_13" d="M111.98 0H97.9624V41.791H111.98V27.8559H97.9624V13.9351H111.98V0Z" fill="var(--fill-0, #92F0ED)"/>
<path id="Vector_14" d="M125.997 13.9352H111.979V27.856H125.997V13.9352Z" fill="var(--fill-0, #92F0ED)"/>
<path id="Vector_15" d="M111.98 13.9352H97.9624V27.856H111.98V13.9352Z" fill="var(--fill-0, #54E2DC)"/>
<path id="Vector_16" d="M139.999 0H125.997V13.9351H139.999V27.8559H125.997V41.791H139.999V0Z" fill="var(--fill-0, #92F0ED)"/>
<path id="Vector_17" d="M139.999 13.9352H125.997V27.856H139.999V13.9352Z" fill="var(--fill-0, #54E2DC)"/>
<path id="Vector_18" d="M48.9889 0L42.0376 6.89631V7.02454L48.9889 13.9351L55.9258 7.02454V6.89631L48.9889 0Z" fill="var(--fill-0, #E70006)"/>
<path id="Vector_19" d="M55.9248 6.89629V7.02452L55.9821 6.96753L55.9248 6.89629Z" fill="var(--fill-0, #C50006)"/>
<path id="Vector_20" d="M42.0368 6.89629L41.9795 6.96753L42.0368 7.02452V6.89629Z" fill="var(--fill-0, #840006)"/>
<path id="Vector_21" d="M55.9258 13.9352H48.9889H42.0376V41.7911H55.9258V13.9352Z" fill="var(--fill-0, #E70006)"/>
<path id="Vector_22" d="M55.9821 13.9352H55.9248V41.7911V27.856H55.9821V13.9352Z" fill="var(--fill-0, #D50006)"/>
<path id="Vector_23" d="M55.9821 27.8559H55.9248V41.791H55.9821V27.8559Z" fill="var(--fill-0, #C50006)"/>
<path id="Vector_24" d="M42.0368 13.9352H41.9795H42.0368V27.856H41.9795V41.7911H42.0368V13.9352Z" fill="var(--fill-0, #840006)"/>
<path id="Vector_25" d="M42.0368 13.9352H41.9795V27.856H42.0368V13.9352Z" fill="var(--fill-0, #4C0005)"/>
</g>
</svg>
