<svg xmlns="http://www.w3.org/2000/svg" viewBox="0 0 566 120">
  <path fill="white" d="M4.320 2.320L28.152 2.320L33.624 36.592Q34.128 39.832 34.524 43.684Q34.920 47.536 35.208 52.072L35.208 52.072Q35.424 55.528 35.532 58.012Q35.640 60.496 35.712 62.980Q35.784 65.464 35.928 69.064L35.928 69.064Q36.000 71.224 36.000 73.240L36.000 73.240L36.000 77.200L37.440 77.200Q37.440 73.240 37.548 69.064Q37.656 64.888 37.800 60.568L37.800 60.568Q37.944 56.032 38.232 51.964Q38.520 47.896 38.952 43.936L38.952 43.936Q39.168 41.992 39.384 40.156Q39.600 38.320 39.888 36.592L39.888 36.592L45.288 2.320L69.120 2.320L69.120 88L52.200 88L52.200 77.848Q52.200 72.232 52.488 65.428Q52.776 58.624 53.280 52.216L53.280 52.216Q53.784 45.376 54.360 38.680Q54.936 31.984 55.656 25.432L55.656 25.432Q55.944 22.192 56.304 19.096L56.304 19.096Q56.592 16.000 56.880 13.120L56.880 13.120L55.440 13.120Q55.008 17.584 54.504 21.544Q54.000 25.504 53.460 29.536Q52.920 33.568 52.272 38.464L52.272 38.464Q51.696 42.568 50.940 47.248Q50.184 51.928 49.392 56.536Q48.600 61.144 47.880 65.032L47.880 65.032Q47.304 68.200 46.728 71.224L46.728 71.224Q46.080 74.248 45.504 77.128L45.504 77.128L43.200 88L30.240 88L27.936 77.128Q27.072 72.808 26.316 68.992Q25.560 65.176 24.840 61.108Q24.120 57.040 23.328 51.928L23.328 51.928Q22.032 44.152 21.024 37.348Q20.016 30.544 19.440 25.360L19.440 25.360Q19.008 22.192 18.648 19.096Q18.288 16.000 18.000 13.120L18.000 13.120L16.560 13.120Q17.136 18.664 17.784 25.072Q18.432 31.480 19.080 38.680L19.080 38.680Q19.512 43.864 19.836 47.968Q20.160 52.072 20.448 56.176Q20.736 60.280 20.952 65.464L20.952 65.464Q21.240 71.872 21.240 77.848L21.240 77.848L21.240 88L4.320 88L4.320 2.320ZM78.540 66.832L78.540 66.832L78.540 2.320L95.460 2.320L95.460 66.832Q95.460 68.704 96.612 70.072L96.612 70.072Q97.044 70.720 97.728 71.188Q98.412 71.656 99.348 71.872L99.348 71.872Q100.212 72.160 101.076 72.160L101.076 72.160Q103.380 72.160 105 70.756Q106.620 69.352 106.620 66.832L106.620 66.832L106.620 2.320L123.540 2.320L123.540 66.832Q123.540 74.896 119.652 80.224L119.652 80.224Q117.636 82.960 114.972 84.796Q112.308 86.632 108.708 87.712L108.708 87.712Q105.252 88.720 101.076 88.720L101.076 88.720Q96.684 88.720 93.264 87.676Q89.844 86.632 87.180 84.832L87.180 84.832Q81.564 81.016 79.548 74.176L79.548 74.176Q78.540 70.792 78.540 66.832ZM149.880 67.048L149.880 67.048L149.880 88L132.960 88L132.960 2.320L152.760 2.320L159.168 25.360Q160.032 28.312 160.968 31.948Q161.904 35.584 162.768 39.220Q163.632 42.856 164.208 45.664L164.208 45.664Q165.504 51.640 166.512 56.752Q167.520 61.864 168.528 67.264L168.528 67.264Q168.960 69.856 169.320 72.304L169.320 72.304Q169.680 74.824 170.040 77.200L170.040 77.200L171.480 77.200Q170.904 73.384 170.400 70.324Q169.896 67.264 169.392 64.024Q168.888 60.784 168.312 56.320L168.312 56.320Q167.808 53.152 167.304 49.156Q166.800 45.160 166.368 41.236Q165.936 37.312 165.792 34.288L165.792 34.288Q165.576 31.624 165.468 29.068Q165.360 26.512 165.360 24.136L165.360 24.136L165.360 2.320L182.280 2.320L182.280 88L163.560 88L156.936 65.752Q156.216 63.448 155.280 59.992Q154.344 56.536 153.300 52.612Q152.256 48.688 151.392 44.872L151.392 44.872Q150.168 39.616 148.944 34.036Q147.720 28.456 146.784 23.056L146.784 23.056Q146.280 20.464 145.848 17.944Q145.416 15.424 145.056 13.120L145.056 13.120L143.616 13.120Q144.336 17.800 145.200 23.020Q146.064 28.240 146.928 34.072L146.928 34.072Q147.648 39.688 148.368 45.412Q149.088 51.136 149.520 56.608L149.520 56.608Q149.664 59.344 149.772 61.972Q149.880 64.600 149.880 67.048ZM192.420 88L192.420 2.320L215.532 2.320Q224.388 2.320 230.364 7.504L230.364 7.504Q233.172 10.024 235.224 13.912Q237.276 17.800 238.212 22.336L238.212 22.336Q239.220 27.232 239.220 32.992L239.220 32.992L239.220 57.328Q239.220 63.304 238.212 68.056Q237.204 72.808 235.188 76.480L235.188 76.480Q233.172 80.296 230.364 82.780Q227.556 85.264 223.740 86.632L223.740 86.632Q220.068 88 215.532 88L215.532 88L192.420 88ZM209.340 18.160L209.340 72.160L211.716 72.160Q222.300 72.160 222.300 57.328L222.300 57.328L222.300 32.992Q222.300 18.160 211.716 18.160L211.716 18.160L209.340 18.160ZM264.840 88L247.920 88L247.920 2.320L264.840 2.320L264.840 88ZM288.300 88L271.380 88L284.772 2.320L308.964 2.320L322.356 88L305.436 88L302.916 68.344L290.820 68.344L288.300 88ZM295.716 25.648L292.836 52.504L300.900 52.504L298.020 25.648Q297.876 23.992 297.804 22.660Q297.732 21.328 297.660 19.780Q297.588 18.232 297.588 16.000L297.588 16.000L296.148 16.000L296.148 18.088Q296.148 18.592 296.148 19.096L296.148 19.096Q296.076 19.672 296.076 20.176L296.076 20.176Q296.076 20.896 296.004 21.652Q295.932 22.408 295.932 23.128L295.932 23.128Q295.932 24.568 295.716 25.648L295.716 25.648ZM363.456 88L328.896 88L328.896 2.320L345.816 2.320L345.816 72.160L363.456 72.160L363.456 88ZM384.756 88L367.836 88L381.228 2.320L405.420 2.320L418.812 88L401.892 88L399.372 68.344L387.276 68.344L384.756 88ZM392.172 25.648L389.292 52.504L397.356 52.504L394.476 25.648Q394.332 23.992 394.260 22.660Q394.188 21.328 394.116 19.780Q394.044 18.232 394.044 16.000L394.044 16.000L392.604 16.000L392.604 18.088Q392.604 18.592 392.604 19.096L392.604 19.096Q392.532 19.672 392.532 20.176L392.532 20.176Q392.532 20.896 392.460 21.652Q392.388 22.408 392.388 23.128L392.388 23.128Q392.388 24.568 392.172 25.648L392.172 25.648ZM466.752 88L423.192 88L423.192 79.360L446.304 18.160L423.912 18.160L423.912 2.320L466.032 2.320L466.032 10.960L442.920 72.160L466.752 72.160L466.752 88Z"/>
  <!-- Football ball -->
  <g transform="translate(474.412 2) scale(5.8)">
    <circle cx="7.5" cy="7.5" r="7.5" fill="none" stroke="white" stroke-width="1.2"/>
    <path d="M7.5 15c4.14 0 7.5 -3.36 7.5 -7.5c0 -3.73 -2.99 -7.5 -7.5 -7.5c-3.8 0 -7.5 3.05 -7.5 7.5c0 4.14 3.36 7.5 7.5 7.5z" fill="#1b7cff"/>
    <path d="M14.33 8.2c-0.03 0.91 -0.33 1.75 -0.78 2.55l-2.84 0.41l-1.26 -1.65l0.84 -2.59l1.94 -0.64zm-6.51 -5.57l2.47 -1.4c0.82 0.42 1.6 0.93 2.3 1.67l-0.56 2.78l-2 0.66l-2.21 -1.6zm1.2 7.36l1.2 1.57l-1.07 2.53c-1.03 0.31 -2.13 0.32 -3.29 0l-1.07 -2.53l1.2 -1.57zm-4.25 -8.71l2.41 1.35v2.1l-2.21 1.6l-2 -0.66l-0.53 -2.71c0.61 -0.69 1.34 -1.29 2.33 -1.69zm-4.03 6.88l2.04 -1.88l1.94 0.64l0.84 2.59l-1.26 1.65l-2.76 -0.41c-0.43 -0.74 -0.7 -1.6 -0.79 -2.59z" fill="white"/>
  </g>
</svg>
