<svg xmlns="http://www.w3.org/2000/svg" xmlns:xlink="http://www.w3.org/1999/xlink" viewBox="0 0 208.44 208.44"><defs><style>.cls-1{fill:none;}.cls-2{fill:#999;}.cls-3{clip-path:url(#clip-path);}.cls-4{fill:#fff;}.cls-5{fill:#666;}.cls-6{fill:#b8b8b8;}</style><clipPath id="clip-path"><polygon class="cls-1" points="0 208.44 0 0 208.44 0 0 208.44"/></clipPath></defs><g id="Layer_2" data-name="Layer 2"><g id="Layer_1-2" data-name="Layer 1"><polygon class="cls-2" points="0 208.44 0 0 208.44 0 0 208.44"/><g class="cls-3"><polygon class="cls-4" points="112.35 96.81 116.42 94.75 119.53 96.81 119.93 100.01 115.87 108.96 112.86 117.67 109.72 120.13 107.79 120.13 112.35 96.81"/><path class="cls-4" d="M30.21,103.52l2.08,32.79,4.15,12.24,15.48,15L78,165l21-15.24,6-15.48,8.09-41.33V60.33L96.72,37.47S77.78,31,77.09,31H59.31L46.84,37.93,31.59,59.87,29.05,74Z"/><polygon class="cls-5" points="28.64 78.05 25.11 60.54 25.57 55.93 24.65 52.4 28.33 45.95 40.62 26.9 46 31.36 47.38 18.61 61.82 10.01 81.17 12.31 98.53 20.91 110.66 28.44 119.72 26.59 117.42 38.73 120.96 55.24 114.88 95.56 111.28 100.01 113.12 69.91 105.44 58.39 106.36 62.07 88.54 48.56 92.23 53.32 78.41 47.48 68.42 35.81 56.44 35.81 41.24 44.87 32.79 65.3 28.64 78.05"/><path class="cls-6" d="M51.92,163.56,78,165l21-15.24,2.42-6.23-3.23-3.84L91.62,129l-8-6.45-7.83-2.15-12.29.77-8-1.08-8.6.31-4.61,3.07-1.84,1.69-5.22,8-3,3.12,4.15,12.24Zm2.37-37.13,10.45.92,12.13-.61,8.6,4.3,1.69,6.3-5.53,6-6.45,1.84-2.61-3.84-6.76-1.23-6,.77-2.3,3.69-6.61-2.46-4-3.38L46,131.35Z"/><polygon class="cls-6" points="112.02 88.16 116.35 85.84 118.86 69.15 112.86 72.98 112.02 88.16"/><polygon class="cls-6" points="111.23 67.07 119.87 62.43 120.96 55.24 107.28 61.16 111.23 67.07"/><polygon class="cls-6" points="113.05 71.1 113.12 69.91 112.22 68.55 119.53 64.72 119.13 67.38 113.05 71.1"/><polygon class="cls-6" points="27.18 70.8 32.79 65.3 38.57 51.32 25.11 60.54 27.18 70.8"/><polygon points="112.35 88.24 114.88 95.56 115.48 91.61 112.86 82.2 112.35 88.24"/><polygon class="cls-4" points="31.18 118.86 29.05 116.67 27.4 101.56 31.18 97.05 31.18 118.86"/><polygon points="25.11 87.84 29.69 90.18 29.69 87.04 24.65 82.2 25.11 87.84"/><path d="M96.28,78.41,81.22,78.3,69.65,80.45l-3.79.62-6-1.54-8.5-2.25L31.05,76.15l-11.47,2.2v6.92l3,3.7,3,11.32,4.62,3.23,15,.38,8-1.74L56.44,99l3.89-7.48L61.77,88l2.66-.71,3.17,1,3.69,10.24,3.69,4.5,4.71,2L93,106.77l8.19-1.33,4-3.79,2.67-9.32,1.94-3,2.56-1.12.51-6ZM58.9,88.85,56,96l-3.38,4.2-5.32,1.94H37.7l-8.19-1.43L27.67,99,25.52,90.8l.1-8.19,1.23-2.36,3-1.54L40,78.2l12.59,1L57,80.86l1.85,1.75.41,1.94Zm45.49,4.66-2.67,8-2,1.62-8.26.9-9.61-.61-5.19-2.28-3.1-4.41L71.2,89.44l0-4.31.53-1.92,2-1.62,4.5-1.35L90.79,80l10.08,1.16,2.87,1.72,1.07,2.43Z"/></g></g></g></svg>