<svg xmlns="http://www.w3.org/2000/svg" viewBox="0 0 514.21 173.86"><defs><style>.cls-1{fill:none;}</style></defs><g id="Layer_2" data-name="Layer 2"><g id="Layer_1-2" data-name="Layer 1"><rect class="cls-1" width="514.21" height="173.86"/><path d="M116.32,95.82H100.84l-9.3-15.4c-.7-1.17-1.37-2.21-2-3.13a18,18,0,0,0-1.94-2.36,7.75,7.75,0,0,0-2-1.5,5.16,5.16,0,0,0-2.32-.52H79.6V95.82H66.12V36H87.49q21.78,0,21.78,16.27a16.81,16.81,0,0,1-1,5.78,16,16,0,0,1-2.71,4.78,16.94,16.94,0,0,1-4.24,3.67,21.61,21.61,0,0,1-5.53,2.42v.17a8.5,8.5,0,0,1,2.59,1.36,18.08,18.08,0,0,1,2.42,2.19,29.76,29.76,0,0,1,2.23,2.69c.71,1,1.36,1.9,1.94,2.82ZM79.6,46.08V62.73h5.84a9.69,9.69,0,0,0,7-2.51,8.33,8.33,0,0,0,2.67-6.3q0-7.85-9.39-7.84Z"/><path d="M156.88,78.21H129q.66,9.3,11.72,9.31a22.94,22.94,0,0,0,12.4-3.34v9.51q-5.92,3.18-15.4,3.17-10.35,0-16.07-5.73t-5.71-16q0-10.64,6.17-16.86A20.6,20.6,0,0,1,137.31,52q9.34,0,14.46,5.56t5.11,15.06Zm-12.22-8.1q0-9.18-7.43-9.18a7.12,7.12,0,0,0-5.49,2.63,12,12,0,0,0-2.82,6.55Z"/><path d="M206.54,95.82H193.36V89.94h-.17q-4.5,6.91-13.23,6.92a16.18,16.18,0,0,1-12.89-5.65q-4.89-5.65-4.89-15.8,0-10.59,5.39-17A17.55,17.55,0,0,1,181.67,52q8.27,0,11.52,5.93h.17V32.56h13.18ZM193.61,75V71.83a10.11,10.11,0,0,0-2.42-6.93,8.55,8.55,0,0,0-13.15.69Q175.58,69,175.58,75c0,3.75.79,6.65,2.38,8.68a8.45,8.45,0,0,0,13.12-.17A13.35,13.35,0,0,0,193.61,75Z"/><path d="M253.2,95.82H240.72V89.69h-.17a13.92,13.92,0,0,1-12.72,7.17q-6.22,0-9.79-3.52a12.63,12.63,0,0,1-3.57-9.41q0-12.44,14.73-14.36L240.8,68q0-7-7.59-7a25.86,25.86,0,0,0-14.52,4.55V55.63a32.61,32.61,0,0,1,7.53-2.5,39.74,39.74,0,0,1,8.7-1.09q18.27,0,18.28,18.24ZM240.8,78.46V75.58l-7.76,1q-6.42.84-6.42,5.8a4.8,4.8,0,0,0,1.56,3.7,6,6,0,0,0,4.23,1.44A7.83,7.83,0,0,0,238.47,85,9.29,9.29,0,0,0,240.8,78.46Z"/><path d="M289.46,95.32q-2.93,1.55-8.8,1.54-13.95,0-13.94-14.48V62.81h-6.93V53.09h6.93V43.87l13.14-3.76v13h9.6v9.72h-9.6V80.09q0,6.68,5.3,6.67a8.9,8.9,0,0,0,4.3-1.21Z"/><path d="M322.72,95.32c-2,1-4.88,1.54-8.81,1.54Q300,96.86,300,82.38V62.81h-6.93V53.09H300V43.87l13.14-3.76v13h9.6v9.72h-9.6V80.09q0,6.68,5.3,6.67a8.9,8.9,0,0,0,4.3-1.21Z"/><path d="M350.18,96.86q-10.68,0-16.8-6t-6.11-16.25q0-10.59,6.34-16.59t17.15-6q10.65,0,16.69,6t6.05,15.84q0,10.63-6.23,16.82T350.18,96.86Zm.33-34.72a8.82,8.82,0,0,0-7.26,3.22c-1.72,2.14-2.59,5.17-2.59,9.09q0,12.31,9.94,12.31,9.47,0,9.47-12.64Q360.07,62.15,350.51,62.14Z"/><path d="M395.25,95.82H382.06V32.56h13.19Z"/><path d="M426.71,96.86q-10.68,0-16.8-6T403.8,74.62Q403.8,64,410.14,58t17.16-6q10.63,0,16.69,6T450,73.87q0,10.63-6.24,16.82T426.71,96.86ZM427,62.14a8.82,8.82,0,0,0-7.26,3.22q-2.58,3.21-2.58,9.09,0,12.31,9.93,12.31,9.47,0,9.47-12.64Q436.6,62.15,427,62.14Z"/><path d="M134.39,130.62v7.25a4.22,4.22,0,0,1-1.21,3.07,4,4,0,0,1-3,1.23,4.18,4.18,0,0,1-2-.5,4.26,4.26,0,0,1-1.53-1.54,4.21,4.21,0,0,1-.63-2.26v-7.25h-.73a.73.73,0,0,1-.44-.11.42.42,0,0,1-.14-.32.43.43,0,0,1,.15-.33.68.68,0,0,1,.43-.1h3.2a.64.64,0,0,1,.44.12.4.4,0,0,1,.14.31.42.42,0,0,1-.14.32.71.71,0,0,1-.44.11h-1.6v7.25a3.37,3.37,0,0,0,1,2.44,3.18,3.18,0,0,0,2.32,1,3.11,3.11,0,0,0,1.57-.4,3.62,3.62,0,0,0,1.24-1.2,3.35,3.35,0,0,0,.53-1.84v-7.25h-1.6a.74.74,0,0,1-.45-.11.41.41,0,0,1-.13-.32.39.39,0,0,1,.13-.31.67.67,0,0,1,.45-.12h3.2a.66.66,0,0,1,.44.12.39.39,0,0,1,.13.31.41.41,0,0,1-.13.32.73.73,0,0,1-.44.11Z"/><path d="M140.08,132.9v1.31a6.06,6.06,0,0,1,1.64-1.27,3.7,3.7,0,0,1,1.65-.35,3.89,3.89,0,0,1,1.81.42,3,3,0,0,1,1,1,2.64,2.64,0,0,1,.47,1.47V141h.73a.73.73,0,0,1,.44.11.42.42,0,0,1,.14.32.41.41,0,0,1-.14.31.66.66,0,0,1-.44.12h-2.32a.69.69,0,0,1-.46-.12.4.4,0,0,1-.13-.31.41.41,0,0,1,.13-.32.75.75,0,0,1,.46-.11h.72v-5.32a2,2,0,0,0-.67-1.55,2.49,2.49,0,0,0-1.8-.64,3,3,0,0,0-1.48.35,7.9,7.9,0,0,0-1.8,1.72V141h1a.74.74,0,0,1,.45.11.44.44,0,0,1,.13.32.44.44,0,0,1-.13.31.67.67,0,0,1-.45.12h-2.83a.66.66,0,0,1-.44-.12.4.4,0,0,1-.13-.31.41.41,0,0,1,.13-.32.73.73,0,0,1,.44-.11h1v-7.2h-.73a.64.64,0,0,1-.44-.12.42.42,0,0,1-.14-.32A.4.4,0,0,1,138,133a.64.64,0,0,1,.44-.12Z"/><path d="M171.17,134.48V132.9h2a.64.64,0,0,1,.44.12.42.42,0,0,1,.14.32.41.41,0,0,1-.14.31.64.64,0,0,1-.44.12H172v8.66a3.14,3.14,0,0,1-.37,1.55,3.54,3.54,0,0,1-.82.94,4.71,4.71,0,0,1-1.06.69,3.17,3.17,0,0,1-1.27.21h-2.45a.67.67,0,0,1-.45-.12.41.41,0,0,1-.13-.32.42.42,0,0,1,.13-.32.67.67,0,0,1,.45-.12h2.48a2.52,2.52,0,0,0,1.38-.39,3,3,0,0,0,1-1.15,2.39,2.39,0,0,0,.23-1.1v-2.6a4.28,4.28,0,0,1-3.59,1.91,4.19,4.19,0,0,1-3.09-1.33,4.59,4.59,0,0,1,0-6.38,4.18,4.18,0,0,1,3.09-1.32A4.28,4.28,0,0,1,171.17,134.48Zm0,2.62a3.51,3.51,0,0,0-1-2.58,3.48,3.48,0,0,0-5,0,3.72,3.72,0,0,0,0,5.16,3.48,3.48,0,0,0,5,0A3.52,3.52,0,0,0,171.17,137.1Z"/><path d="M181.39,132.9V141h3.41a.74.74,0,0,1,.45.11.42.42,0,0,1,.14.32.41.41,0,0,1-.14.31.67.67,0,0,1-.45.12h-7.68a.64.64,0,0,1-.44-.12.41.41,0,0,1-.14-.31.42.42,0,0,1,.14-.32.71.71,0,0,1,.44-.11h3.41v-7.2H178a.67.67,0,0,1-.45-.12.41.41,0,0,1-.14-.31.44.44,0,0,1,.13-.32.7.7,0,0,1,.46-.12Zm0-4.45v2.24h-1.28v-2.24Z"/><path d="M198.46,137.38a4.58,4.58,0,0,1-1.42,3.39,4.88,4.88,0,0,1-6.85,0,4.74,4.74,0,0,1,0-6.77,4.89,4.89,0,0,1,6.85,0A4.59,4.59,0,0,1,198.46,137.38Zm-.87,0a3.76,3.76,0,0,0-1.16-2.77,4,4,0,0,0-5.63,0,3.89,3.89,0,0,0,0,5.54,3.83,3.83,0,0,0,2.81,1.16,3.9,3.9,0,0,0,2.82-1.15A3.78,3.78,0,0,0,197.59,137.38Z"/><path d="M209.92,133.77v-.29A.67.67,0,0,1,210,133a.42.42,0,0,1,.31-.13.41.41,0,0,1,.32.13.67.67,0,0,1,.13.45v2a.74.74,0,0,1-.13.46.41.41,0,0,1-.32.13.4.4,0,0,1-.29-.12.56.56,0,0,1-.14-.39,2,2,0,0,0-1-1.4,4,4,0,0,0-2.43-.66,3.62,3.62,0,0,0-2.93,1.21,4.21,4.21,0,0,0-1,2.77,3.72,3.72,0,0,0,1.11,2.77,3.86,3.86,0,0,0,2.85,1.1,6.32,6.32,0,0,0,2.06-.37,5.27,5.27,0,0,0,1.9-1.2.59.59,0,0,1,.38-.21.38.38,0,0,1,.29.12.4.4,0,0,1,.12.29c0,.3-.35.67-1,1.13a6.65,6.65,0,0,1-3.75,1.1,4.69,4.69,0,0,1-3.44-1.33,4.57,4.57,0,0,1-1.35-3.39,4.72,4.72,0,0,1,4.85-4.86A4.9,4.9,0,0,1,209.92,133.77Z"/><path d="M223.83,137.38a4.58,4.58,0,0,1-1.42,3.39,4.89,4.89,0,0,1-6.86,0,4.77,4.77,0,0,1,0-6.77,4.73,4.73,0,0,1,3.44-1.4,4.66,4.66,0,0,1,3.42,1.4A4.59,4.59,0,0,1,223.83,137.38Zm-.88,0a3.72,3.72,0,0,0-1.16-2.77,3.83,3.83,0,0,0-2.81-1.15,3.86,3.86,0,0,0-2.81,1.15,3.89,3.89,0,0,0,0,5.54,4,4,0,0,0,5.62,0A3.75,3.75,0,0,0,223,137.38Z"/><path d="M241.09,132.9v1.57a5.68,5.68,0,0,1,1.66-1.41,4.33,4.33,0,0,1,2.09-.47,4.93,4.93,0,0,1,2.37.59,4.19,4.19,0,0,1,1.67,1.67,4.52,4.52,0,0,1,.6,2.25,4.34,4.34,0,0,1-1.34,3.19,4.71,4.71,0,0,1-7-.56V145h2.1a.67.67,0,0,1,.45.12.43.43,0,0,1,0,.62.62.62,0,0,1-.45.13h-4.14a.66.66,0,0,1-.44-.12.41.41,0,0,1-.13-.32.39.39,0,0,1,.13-.31.66.66,0,0,1,.44-.12h1.17V133.77h-1.17a.66.66,0,0,1-.44-.12.41.41,0,0,1-.13-.32.39.39,0,0,1,.13-.31.66.66,0,0,1,.44-.12Zm7.51,4.2a3.46,3.46,0,0,0-1.09-2.57,3.84,3.84,0,0,0-5.33,0,3.43,3.43,0,0,0-1.09,2.56,3.49,3.49,0,0,0,1.09,2.57,3.85,3.85,0,0,0,5.33,0A3.49,3.49,0,0,0,248.6,137.1Z"/><path d="M261.73,137.57h-8.84a4.2,4.2,0,0,0,1.41,2.71,4.35,4.35,0,0,0,2.93,1,7.19,7.19,0,0,0,2-.32,5.43,5.43,0,0,0,1.74-.85.58.58,0,0,1,.34-.15.38.38,0,0,1,.28.12.42.42,0,0,1,.13.31.48.48,0,0,1-.17.34,4.51,4.51,0,0,1-1.76,1,7.63,7.63,0,0,1-2.59.45,5.07,5.07,0,0,1-3.72-1.46,4.73,4.73,0,0,1-1.49-3.53,4.34,4.34,0,0,1,1.39-3.24,4.82,4.82,0,0,1,3.47-1.35,4.75,4.75,0,0,1,3.5,1.38A4.88,4.88,0,0,1,261.73,137.57Zm-.88-.88a3.75,3.75,0,0,0-1.36-2.33,4,4,0,0,0-2.61-.9,4,4,0,0,0-2.61.89,3.8,3.8,0,0,0-1.37,2.34Z"/><path d="M268.68,132.9v2.18a14.84,14.84,0,0,1,2.54-2,3.43,3.43,0,0,1,1.55-.44,2.26,2.26,0,0,1,1.44.52c.44.35.67.61.67.79a.44.44,0,0,1-.46.45.4.4,0,0,1-.17,0,1.61,1.61,0,0,1-.27-.23,2.42,2.42,0,0,0-.63-.5,1.18,1.18,0,0,0-.53-.13,3,3,0,0,0-1.37.45,20.52,20.52,0,0,0-2.77,2.22V141h3.84a.75.75,0,0,1,.46.11.41.41,0,0,1,.13.32.4.4,0,0,1-.13.31.69.69,0,0,1-.46.12h-6.8a.66.66,0,0,1-.44-.12.39.39,0,0,1-.14-.3.38.38,0,0,1,.13-.29.67.67,0,0,1,.45-.12h2.1v-7.23h-1.6a.67.67,0,0,1-.45-.12.41.41,0,0,1-.13-.32.39.39,0,0,1,.13-.31.64.64,0,0,1,.45-.12Z"/><path d="M298.71,133.77v-.29a.67.67,0,0,1,.12-.45.4.4,0,0,1,.31-.13.41.41,0,0,1,.32.13.67.67,0,0,1,.12.45v2a.68.68,0,0,1-.13.46.39.39,0,0,1-.31.13.37.37,0,0,1-.29-.12.56.56,0,0,1-.14-.39,2.08,2.08,0,0,0-1-1.4,4,4,0,0,0-2.43-.66,3.6,3.6,0,0,0-2.93,1.21,4.21,4.21,0,0,0-1,2.77,3.75,3.75,0,0,0,1.1,2.77,3.9,3.9,0,0,0,2.86,1.1,6.32,6.32,0,0,0,2.06-.37,5.15,5.15,0,0,0,1.89-1.2.63.63,0,0,1,.39-.21.41.41,0,0,1,.41.41c0,.3-.35.67-1,1.13a6.65,6.65,0,0,1-3.75,1.1,4.67,4.67,0,0,1-3.44-1.33,4.57,4.57,0,0,1-1.35-3.39,4.72,4.72,0,0,1,4.85-4.86A4.92,4.92,0,0,1,298.71,133.77Z"/><path d="M312.62,137.38a4.62,4.62,0,0,1-1.42,3.39,4.89,4.89,0,0,1-6.86,0,4.77,4.77,0,0,1,0-6.77,4.9,4.9,0,0,1,6.86,0A4.63,4.63,0,0,1,312.62,137.38Zm-.88,0a3.76,3.76,0,0,0-1.16-2.77,3.83,3.83,0,0,0-2.81-1.15,3.86,3.86,0,0,0-2.81,1.15,3.86,3.86,0,0,0,0,5.54,4,4,0,0,0,5.62,0A3.78,3.78,0,0,0,311.74,137.38Z"/><path d="M323.37,134.48V132.9h2a.66.66,0,0,1,.44.12.41.41,0,0,1,.13.32.4.4,0,0,1-.13.31.66.66,0,0,1-.44.12h-1.17v8.66a3.14,3.14,0,0,1-.37,1.55,3.6,3.6,0,0,1-.83.94,4.47,4.47,0,0,1-1.05.69,3.2,3.2,0,0,1-1.27.21h-2.46a.66.66,0,0,1-.44-.12.41.41,0,0,1-.13-.32.42.42,0,0,1,.13-.32.66.66,0,0,1,.44-.12h2.49a2.52,2.52,0,0,0,1.38-.39,3,3,0,0,0,1-1.15,2.4,2.4,0,0,0,.22-1.1v-2.6a4.27,4.27,0,0,1-3.59,1.91,4.17,4.17,0,0,1-3.08-1.33,4.59,4.59,0,0,1,0-6.38,4.16,4.16,0,0,1,3.08-1.32A4.27,4.27,0,0,1,323.37,134.48Zm0,2.62a3.51,3.51,0,0,0-1.05-2.58,3.36,3.36,0,0,0-2.5-1.06,3.42,3.42,0,0,0-2.5,1.06,3.72,3.72,0,0,0,0,5.16,3.48,3.48,0,0,0,5,0A3.52,3.52,0,0,0,323.37,137.1Z"/><path d="M333.58,128.88V141H337a.75.75,0,0,1,.46.11.41.41,0,0,1,.13.32.4.4,0,0,1-.13.31.69.69,0,0,1-.46.12h-7.67a.67.67,0,0,1-.45-.12.4.4,0,0,1-.13-.31.41.41,0,0,1,.13-.32.74.74,0,0,1,.45-.11h3.4V129.76h-2.5a.65.65,0,0,1-.45-.13.39.39,0,0,1-.13-.32.42.42,0,0,1,.13-.31.67.67,0,0,1,.45-.12Z"/><path d="M346.28,132.9V141h3.41a.74.74,0,0,1,.45.11.42.42,0,0,1,.14.32.41.41,0,0,1-.14.31.67.67,0,0,1-.45.12H342a.64.64,0,0,1-.44-.12.41.41,0,0,1-.14-.31.42.42,0,0,1,.14-.32A.71.71,0,0,1,342,141h3.41v-7.2h-2.53a.67.67,0,0,1-.45-.12.43.43,0,0,1,0-.63.69.69,0,0,1,.46-.12Zm0-4.45v2.24H345v-2.24Z"/><path d="M363.35,137.38a4.58,4.58,0,0,1-1.42,3.39,4.88,4.88,0,0,1-6.85,0,4.74,4.74,0,0,1,0-6.77,4.89,4.89,0,0,1,6.85,0A4.59,4.59,0,0,1,363.35,137.38Zm-.87,0a3.73,3.73,0,0,0-1.17-2.77,3.83,3.83,0,0,0-2.81-1.15,3.86,3.86,0,0,0-2.81,1.15,3.89,3.89,0,0,0,0,5.54,4,4,0,0,0,5.62,0A3.76,3.76,0,0,0,362.48,137.38Z"/><path d="M368.39,132.9v1.31a6.06,6.06,0,0,1,1.64-1.27,3.7,3.7,0,0,1,1.65-.35,3.92,3.92,0,0,1,1.81.42,2.91,2.91,0,0,1,1,1,2.56,2.56,0,0,1,.47,1.47V141h.74a.73.73,0,0,1,.44.11.42.42,0,0,1,.14.32.41.41,0,0,1-.14.31.66.66,0,0,1-.44.12h-2.32a.69.69,0,0,1-.46-.12.4.4,0,0,1-.13-.31.41.41,0,0,1,.13-.32.75.75,0,0,1,.46-.11h.72v-5.32a2.07,2.07,0,0,0-.67-1.55,2.49,2.49,0,0,0-1.8-.64,3.07,3.07,0,0,0-1.49.35,7.92,7.92,0,0,0-1.79,1.72V141h1a.71.71,0,0,1,.44.11.42.42,0,0,1,.14.32.41.41,0,0,1-.14.31.64.64,0,0,1-.44.12h-2.83a.66.66,0,0,1-.44-.12.41.41,0,0,1-.14-.31.42.42,0,0,1,.14-.32.73.73,0,0,1,.44-.11h1v-7.2h-.73a.64.64,0,0,1-.44-.12.42.42,0,0,1-.14-.32.4.4,0,0,1,.14-.31.64.64,0,0,1,.44-.12Z"/><path d="M384.33,132.9V141h3.41a.74.74,0,0,1,.45.11.42.42,0,0,1,.14.32.41.41,0,0,1-.14.31.67.67,0,0,1-.45.12h-7.68a.66.66,0,0,1-.44-.12.41.41,0,0,1-.14-.31.42.42,0,0,1,.14-.32.73.73,0,0,1,.44-.11h3.41v-7.2h-2.53a.67.67,0,0,1-.45-.12.41.41,0,0,1-.14-.31.44.44,0,0,1,.13-.32.7.7,0,0,1,.46-.12Zm0-4.45v2.24H383v-2.24Z"/><rect x="288.59" y="124.77" width="102.86" height="23.27"/></g></g></svg>