<svg overflow="visible" style="display: block;" viewBox="47 22 290 53" fill="none" xmlns="http://www.w3.org/2000/svg">
<g id="Layer 1">
<g id="Vector">
</g>
<path id="Vector_2" d="M86.6388 72.1984H75.1088L68.1819 60.5948C67.6605 59.7133 67.1615 58.9297 66.6922 58.2365C66.2613 57.6034 65.7779 57.0085 65.2473 56.4582C64.8144 56.0024 64.3114 55.6207 63.7576 55.328C63.2196 55.0631 62.6279 54.929 62.0296 54.9362H59.2886V72.1984H49.2483V27.1253H65.1653C75.9803 27.1253 81.3878 31.2116 81.3878 39.3844C81.3937 40.869 81.1416 42.3432 80.6429 43.7395C80.1805 45.0488 79.4976 46.2673 78.6244 47.3411C77.7309 48.434 76.6636 49.3685 75.4664 50.1064C74.1845 50.9062 72.798 51.52 71.3474 51.9298V52.0579C72.0442 52.2841 72.6969 52.6309 73.2766 53.0827C73.9253 53.5766 74.5286 54.1289 75.0791 54.7328C75.6715 55.3749 76.2261 56.0517 76.74 56.7596C77.2689 57.5131 77.753 58.1912 78.185 58.8844L86.6388 72.1984ZM59.2886 34.7204V47.2658H63.6384C64.5878 47.3134 65.5371 47.1708 66.4318 46.8463C67.3266 46.5217 68.1491 46.0216 68.8523 45.3746C69.4971 44.7709 70.0078 44.0355 70.3506 43.2172C70.6935 42.3989 70.8606 41.5162 70.841 40.6276C70.841 36.6844 68.5096 34.7153 63.847 34.7204H59.2886Z" fill="var(--fill-0, black)"/>
<path id="Vector_3" d="M116.849 58.9297H96.0833C96.411 63.6012 99.3208 65.9395 104.813 65.9445C108.065 66.0123 111.27 65.1392 114.049 63.4279V70.5935C111.109 72.1909 107.286 72.9871 102.578 72.9821C97.4389 72.9821 93.4491 71.5429 90.6088 68.6646C87.7685 65.7863 86.3508 61.7678 86.3558 56.6089C86.3558 51.2643 87.8877 47.0297 90.9514 43.9053C92.4167 42.3736 94.1782 41.1637 96.126 40.3509C98.0738 39.5381 100.166 39.1398 102.273 39.1809C106.911 39.1809 110.501 40.5774 113.043 43.3703C115.585 46.1632 116.854 49.9457 116.849 54.7177V58.9297ZM107.747 52.8265C107.747 48.2152 105.903 45.9095 102.213 45.9095C101.429 45.9135 100.656 46.0933 99.9488 46.436C99.2417 46.7786 98.6186 47.2756 98.1242 47.8912C96.9458 49.283 96.2133 51.0041 96.0237 52.8265H107.747Z" fill="var(--fill-0, black)"/>
<path id="Vector_4" d="M153.838 72.1984H144.021V67.768H143.894C141.66 71.239 138.375 72.977 134.04 72.9821C132.226 73.0497 130.42 72.702 128.758 71.9648C127.096 71.2276 125.619 70.1201 124.439 68.7249C122.011 65.8868 120.797 61.9185 120.797 56.8199C120.797 51.5003 122.135 47.2306 124.811 44.0108C126.08 42.4466 127.687 41.1978 129.507 40.3604C131.328 39.5231 133.314 39.1196 135.314 39.181C139.42 39.181 142.28 40.6703 143.894 43.6491H144.021V24.5333H153.838V72.1984ZM144.207 56.511V54.1225C144.274 52.2149 143.631 50.3515 142.404 48.9008C141.77 48.2039 140.991 47.657 140.124 47.2994C139.256 46.9417 138.322 46.782 137.386 46.8317C136.451 46.8813 135.538 47.1391 134.712 47.5866C133.887 48.0342 133.169 48.6604 132.61 49.4207C131.388 51.1337 130.778 53.4971 130.778 56.511C130.778 59.3365 131.366 61.5216 132.55 63.0512C133.15 63.7788 133.902 64.3619 134.753 64.7581C135.603 65.1542 136.53 65.3534 137.467 65.3411C138.403 65.3289 139.325 65.1054 140.165 64.6871C141.005 64.2688 141.742 63.6662 142.322 62.9231C143.655 61.0658 144.32 58.8032 144.207 56.511Z" fill="var(--fill-0, black)"/>
<path id="Vector_5" d="M188.591 72.1984H179.296V67.5796H179.169C178.24 69.2793 176.861 70.6845 175.189 71.6384C173.516 72.5923 171.614 73.0575 169.695 72.9821C166.606 72.9821 164.176 72.098 162.403 70.3298C161.503 69.3955 160.803 68.2839 160.345 67.0642C159.888 65.8445 159.683 64.5427 159.744 63.2396C159.744 56.9907 163.401 53.384 170.715 52.4196L179.356 51.2366C179.356 47.7204 177.471 45.9623 173.702 45.9623C169.839 45.982 166.071 47.1765 162.887 49.3906V41.9161C164.674 41.0596 166.558 40.427 168.496 40.0324C170.619 39.5177 172.793 39.2422 174.976 39.2111C184.048 39.2111 188.586 43.7922 188.591 52.9546V72.1984ZM179.356 59.118V56.948L173.576 57.7015C170.388 58.1234 168.794 59.5802 168.794 62.0717C168.777 62.5937 168.872 63.1132 169.073 63.5944C169.273 64.0757 169.575 64.5073 169.956 64.8595C170.829 65.6181 171.957 66.0067 173.106 65.9446C173.95 65.9773 174.79 65.8245 175.569 65.4967C176.349 65.1688 177.048 64.6738 177.62 64.0458C178.806 62.6918 179.428 60.9258 179.356 59.118Z" fill="var(--fill-0, black)"/>
<path id="Vector_6" d="M215.599 71.8217C214.144 72.6003 211.959 72.9871 209.044 72.9821C202.118 72.9821 198.657 69.3453 198.662 62.0717V47.3261H193.5V40.0022H198.662V33.0552L208.449 30.2221V40.0173H215.599V47.3411H208.449V60.3462C208.449 63.7017 209.765 65.3769 212.396 65.3719C213.523 65.3484 214.625 65.0346 215.599 64.4602V71.8217Z" fill="var(--fill-0, black)"/>
<path id="Vector_7" d="M240.372 71.8217C238.882 72.5752 236.737 72.9821 233.81 72.9821C226.903 72.9821 223.45 69.3453 223.45 62.0717V47.3261H218.288V40.0022H223.45V33.0552L233.237 30.2221V40.0173H240.387V47.3411H233.237V60.3462C233.237 63.7017 234.553 65.3769 237.184 65.3719C238.311 65.3484 239.413 65.0346 240.387 64.4602L240.372 71.8217Z" fill="var(--fill-0, black)"/>
<path id="Vector_8" d="M260.825 72.9821C255.522 72.9821 251.351 71.4751 248.312 68.4612C245.273 65.4473 243.756 61.3659 243.761 56.2171C243.761 50.8976 245.335 46.7308 248.483 43.7169C251.631 40.703 255.889 39.196 261.257 39.196C266.546 39.196 270.689 40.703 273.688 43.7169C276.688 46.7308 278.19 50.7092 278.195 55.652C278.195 60.9917 276.648 65.2162 273.554 68.3255C270.461 71.4349 266.218 72.9871 260.825 72.9821ZM261.071 46.8212C260.045 46.7697 259.021 46.9624 258.082 47.3838C257.143 47.8052 256.315 48.4435 255.664 49.2474C254.382 50.8599 253.734 53.1429 253.734 56.0966C253.734 62.2801 256.202 65.3719 261.138 65.3719C265.84 65.3719 268.192 62.1972 268.192 55.8479C268.192 49.8352 265.818 46.8263 261.071 46.8212Z" fill="var(--fill-0, black)"/>
<path id="Vector_9" d="M294.395 72.1984H284.57V24.5333H294.395V72.1984Z" fill="var(--fill-0, black)"/>
<path id="Vector_10" d="M317.827 72.9821C312.524 72.9821 308.353 71.4751 305.314 68.4612C302.275 65.4473 300.758 61.3684 300.763 56.2247C300.763 50.89 302.337 46.7157 305.485 43.7018C308.634 40.6879 312.894 39.181 318.267 39.181C323.545 39.181 327.689 40.6879 330.698 43.7018C333.707 46.7157 335.199 50.7017 335.174 55.6596C335.174 60.9992 333.625 65.2237 330.527 68.3331C327.428 71.4424 323.195 72.9921 317.827 72.9821ZM318.043 46.8212C317.017 46.7697 315.993 46.9624 315.054 47.3838C314.115 47.8052 313.287 48.4435 312.636 49.2474C311.355 50.8599 310.714 53.1429 310.714 56.0966C310.714 62.2801 313.179 65.3719 318.11 65.3719C322.813 65.3719 325.164 62.1972 325.164 55.8479C325.184 49.8352 322.81 46.8263 318.043 46.8212Z" fill="var(--fill-0, black)"/>
</g>
</svg>
