<svg overflow="visible" style="display: block;" viewBox="0 0 383 131" fill="none" xmlns="http://www.w3.org/2000/svg">
<g id="Layer 1">
<g id="Vector">
</g>
<path id="Vector_2" d="M86.6388 72.1984H75.1088L68.1819 60.5948C67.6605 59.7133 67.1615 58.9297 66.6922 58.2365C66.2613 57.6034 65.7779 57.0085 65.2473 56.4582C64.8144 56.0024 64.3114 55.6207 63.7576 55.328C63.2196 55.0631 62.6279 54.929 62.0296 54.9362H59.2886V72.1984H49.2483V27.1253H65.1653C75.9803 27.1253 81.3878 31.2116 81.3878 39.3844C81.3937 40.869 81.1416 42.3432 80.6429 43.7395C80.1805 45.0488 79.4976 46.2673 78.6244 47.3411C77.7309 48.434 76.6636 49.3685 75.4664 50.1064C74.1845 50.9062 72.798 51.52 71.3474 51.9298V52.0579C72.0442 52.2841 72.6969 52.6309 73.2766 53.0827C73.9253 53.5766 74.5286 54.1289 75.0791 54.7328C75.6715 55.3749 76.2261 56.0517 76.74 56.7596C77.2689 57.5131 77.753 58.1912 78.185 58.8844L86.6388 72.1984ZM59.2886 34.7204V47.2658H63.6384C64.5878 47.3134 65.5371 47.1708 66.4318 46.8463C67.3266 46.5217 68.1491 46.0216 68.8523 45.3746C69.4971 44.7709 70.0078 44.0355 70.3506 43.2172C70.6935 42.3989 70.8606 41.5162 70.841 40.6276C70.841 36.6844 68.5096 34.7153 63.847 34.7204H59.2886Z" fill="var(--fill-0, black)"/>
<path id="Vector_3" d="M116.849 58.9297H96.0833C96.411 63.6012 99.3208 65.9395 104.813 65.9445C108.065 66.0123 111.27 65.1392 114.049 63.4279V70.5935C111.109 72.1909 107.286 72.9871 102.578 72.9821C97.4389 72.9821 93.4491 71.5429 90.6088 68.6646C87.7685 65.7863 86.3508 61.7678 86.3558 56.6089C86.3558 51.2643 87.8877 47.0297 90.9514 43.9053C92.4167 42.3736 94.1782 41.1637 96.126 40.3509C98.0738 39.5381 100.166 39.1398 102.273 39.1809C106.911 39.1809 110.501 40.5774 113.043 43.3703C115.585 46.1632 116.854 49.9457 116.849 54.7177V58.9297ZM107.747 52.8265C107.747 48.2152 105.903 45.9095 102.213 45.9095C101.429 45.9135 100.656 46.0933 99.9488 46.436C99.2417 46.7786 98.6186 47.2756 98.1242 47.8912C96.9458 49.283 96.2133 51.0041 96.0237 52.8265H107.747Z" fill="var(--fill-0, black)"/>
<path id="Vector_4" d="M153.838 72.1984H144.021V67.768H143.894C141.66 71.239 138.375 72.977 134.04 72.9821C132.226 73.0497 130.42 72.702 128.758 71.9648C127.096 71.2276 125.619 70.1201 124.439 68.7249C122.011 65.8868 120.797 61.9185 120.797 56.8199C120.797 51.5003 122.135 47.2306 124.811 44.0108C126.08 42.4466 127.687 41.1978 129.507 40.3604C131.328 39.5231 133.314 39.1196 135.314 39.181C139.42 39.181 142.28 40.6703 143.894 43.6491H144.021V24.5333H153.838V72.1984ZM144.207 56.511V54.1225C144.274 52.2149 143.631 50.3515 142.404 48.9008C141.77 48.2039 140.991 47.657 140.124 47.2994C139.256 46.9417 138.322 46.782 137.386 46.8317C136.451 46.8813 135.538 47.1391 134.712 47.5866C133.887 48.0342 133.169 48.6604 132.61 49.4207C131.388 51.1337 130.778 53.4971 130.778 56.511C130.778 59.3365 131.366 61.5216 132.55 63.0512C133.15 63.7788 133.902 64.3619 134.753 64.7581C135.603 65.1542 136.53 65.3534 137.467 65.3411C138.403 65.3289 139.325 65.1054 140.165 64.6871C141.005 64.2688 141.742 63.6662 142.322 62.9231C143.655 61.0658 144.32 58.8032 144.207 56.511Z" fill="var(--fill-0, black)"/>
<path id="Vector_5" d="M188.591 72.1984H179.296V67.5796H179.169C178.24 69.2793 176.861 70.6845 175.189 71.6384C173.516 72.5923 171.614 73.0575 169.695 72.9821C166.606 72.9821 164.176 72.098 162.403 70.3298C161.503 69.3955 160.803 68.2839 160.345 67.0642C159.888 65.8445 159.683 64.5427 159.744 63.2396C159.744 56.9907 163.401 53.384 170.715 52.4196L179.356 51.2366C179.356 47.7204 177.471 45.9623 173.702 45.9623C169.839 45.982 166.071 47.1765 162.887 49.3906V41.9161C164.674 41.0596 166.558 40.427 168.496 40.0324C170.619 39.5177 172.793 39.2422 174.976 39.2111C184.048 39.2111 188.586 43.7922 188.591 52.9546V72.1984ZM179.356 59.118V56.948L173.576 57.7015C170.388 58.1234 168.794 59.5802 168.794 62.0717C168.777 62.5937 168.872 63.1132 169.073 63.5944C169.273 64.0757 169.575 64.5073 169.956 64.8595C170.829 65.6181 171.957 66.0067 173.106 65.9446C173.95 65.9773 174.79 65.8245 175.569 65.4967C176.349 65.1688 177.048 64.6738 177.62 64.0458C178.806 62.6918 179.428 60.9258 179.356 59.118Z" fill="var(--fill-0, black)"/>
<path id="Vector_6" d="M215.599 71.8217C214.144 72.6003 211.959 72.9871 209.044 72.9821C202.118 72.9821 198.657 69.3453 198.662 62.0717V47.3261H193.5V40.0022H198.662V33.0552L208.449 30.2221V40.0173H215.599V47.3411H208.449V60.3462C208.449 63.7017 209.765 65.3769 212.396 65.3719C213.523 65.3484 214.625 65.0346 215.599 64.4602V71.8217Z" fill="var(--fill-0, black)"/>
<path id="Vector_7" d="M240.372 71.8217C238.882 72.5752 236.737 72.9821 233.81 72.9821C226.903 72.9821 223.45 69.3453 223.45 62.0717V47.3261H218.288V40.0022H223.45V33.0552L233.237 30.2221V40.0173H240.387V47.3411H233.237V60.3462C233.237 63.7017 234.553 65.3769 237.184 65.3719C238.311 65.3484 239.413 65.0346 240.387 64.4602L240.372 71.8217Z" fill="var(--fill-0, black)"/>
<path id="Vector_8" d="M260.825 72.9821C255.522 72.9821 251.351 71.4751 248.312 68.4612C245.273 65.4473 243.756 61.3659 243.761 56.2171C243.761 50.8976 245.335 46.7308 248.483 43.7169C251.631 40.703 255.889 39.196 261.257 39.196C266.546 39.196 270.689 40.703 273.688 43.7169C276.688 46.7308 278.19 50.7092 278.195 55.652C278.195 60.9917 276.648 65.2162 273.554 68.3255C270.461 71.4349 266.218 72.9871 260.825 72.9821ZM261.071 46.8212C260.045 46.7697 259.021 46.9624 258.082 47.3838C257.143 47.8052 256.315 48.4435 255.664 49.2474C254.382 50.8599 253.734 53.1429 253.734 56.0966C253.734 62.2801 256.202 65.3719 261.138 65.3719C265.84 65.3719 268.192 62.1972 268.192 55.8479C268.192 49.8352 265.818 46.8263 261.071 46.8212Z" fill="var(--fill-0, black)"/>
<path id="Vector_9" d="M294.395 72.1984H284.57V24.5333H294.395V72.1984Z" fill="var(--fill-0, black)"/>
<path id="Vector_10" d="M317.827 72.9821C312.524 72.9821 308.353 71.4751 305.314 68.4612C302.275 65.4473 300.758 61.3684 300.763 56.2247C300.763 50.89 302.337 46.7157 305.485 43.7018C308.634 40.6879 312.894 39.181 318.267 39.181C323.545 39.181 327.689 40.6879 330.698 43.7018C333.707 46.7157 335.199 50.7017 335.174 55.6596C335.174 60.9992 333.625 65.2237 330.527 68.3331C327.428 71.4424 323.195 72.9921 317.827 72.9821ZM318.043 46.8212C317.017 46.7697 315.993 46.9624 315.054 47.3838C314.115 47.8052 313.287 48.4435 312.636 49.2474C311.355 50.8599 310.714 53.1429 310.714 56.0966C310.714 62.2801 313.179 65.3719 318.11 65.3719C322.813 65.3719 325.164 62.1972 325.164 55.8479C325.184 49.8352 322.81 46.8263 318.043 46.8212Z" fill="var(--fill-0, black)"/>
<path id="Vector_11" d="M100.098 98.4195V103.882C100.109 104.309 100.035 104.734 99.8801 105.132C99.7253 105.529 99.4928 105.891 99.1967 106.195C98.9088 106.499 98.5613 106.739 98.1764 106.898C97.7916 107.058 97.378 107.134 96.9622 107.122C96.4423 107.124 95.9302 106.995 95.4725 106.745C95 106.465 94.6074 106.065 94.333 105.585C94.0202 105.074 93.8575 104.483 93.8637 103.882V98.4195H93.32C93.2048 98.4278 93.09 98.3988 92.9923 98.3367C92.9588 98.3064 92.9322 98.2692 92.9142 98.2276C92.8962 98.186 92.8872 98.141 92.888 98.0955C92.8876 98.0484 92.8974 98.0017 92.9167 97.9587C92.936 97.9158 92.9643 97.8776 92.9997 97.8469C93.0952 97.7864 93.2079 97.7599 93.32 97.7715H95.7035C95.82 97.7599 95.9366 97.7921 96.0312 97.862C96.0644 97.8908 96.0911 97.9266 96.1091 97.967C96.1271 98.0074 96.1361 98.0513 96.1355 98.0955C96.1362 98.141 96.1273 98.186 96.1093 98.2276C96.0913 98.2692 96.0646 98.3064 96.0312 98.3367C95.9338 98.3998 95.8187 98.4289 95.7035 98.4195H94.5117V103.882C94.5073 104.224 94.571 104.562 94.699 104.878C94.827 105.194 95.0166 105.481 95.2565 105.721C95.4784 105.959 95.7462 106.149 96.0434 106.279C96.3406 106.408 96.6609 106.475 96.9846 106.474C97.3938 106.48 97.7973 106.376 98.1539 106.173C98.5294 105.951 98.8462 105.641 99.0775 105.269C99.3397 104.855 99.4769 104.373 99.4723 103.882V98.4195H98.2806C98.1629 98.4289 98.0455 98.3999 97.9454 98.3367C97.9129 98.306 97.8874 98.2686 97.8707 98.2269C97.8539 98.1853 97.8464 98.1404 97.8486 98.0955C97.8465 98.0518 97.8541 98.0081 97.8708 97.9677C97.8876 97.9272 97.9131 97.8911 97.9454 97.862C98.0428 97.7923 98.1617 97.7602 98.2806 97.7715H100.664C100.78 97.7613 100.897 97.7934 100.992 97.862C101.024 97.8911 101.05 97.9272 101.066 97.9677C101.083 98.0081 101.091 98.0518 101.089 98.0955C101.091 98.1404 101.083 98.1853 101.066 98.2269C101.05 98.2686 101.024 98.306 100.992 98.3367C100.894 98.3988 100.779 98.4278 100.664 98.4195H100.098Z" fill="var(--fill-0, black)"/>
<path id="Vector_12" d="M104.336 100.137V101.125C104.686 100.737 105.099 100.413 105.558 100.168C105.942 99.9852 106.362 99.8949 106.787 99.9039C107.255 99.8977 107.717 100.006 108.135 100.22C108.439 100.408 108.694 100.666 108.88 100.974C109.103 101.3 109.225 101.685 109.23 102.081V106.241H109.773C109.888 106.232 110.003 106.261 110.101 106.324C110.135 106.354 110.161 106.391 110.179 106.433C110.197 106.474 110.206 106.519 110.205 106.565C110.205 106.609 110.196 106.653 110.178 106.693C110.16 106.733 110.134 106.769 110.101 106.798C110.006 106.867 109.89 106.899 109.773 106.889H108.045C107.924 106.901 107.803 106.868 107.703 106.798C107.671 106.769 107.646 106.733 107.629 106.692C107.612 106.652 107.604 106.608 107.606 106.565C107.604 106.52 107.611 106.475 107.628 106.433C107.645 106.392 107.67 106.354 107.703 106.324C107.805 106.259 107.925 106.23 108.045 106.241H108.582V102.232C108.588 102.012 108.546 101.794 108.46 101.592C108.374 101.391 108.245 101.21 108.083 101.064C107.901 100.899 107.69 100.771 107.46 100.688C107.23 100.605 106.986 100.569 106.742 100.582C106.358 100.573 105.978 100.664 105.64 100.846C105.128 101.203 104.675 101.641 104.299 102.142V106.241H105.044C105.161 106.231 105.279 106.26 105.379 106.324C105.41 106.355 105.435 106.393 105.452 106.434C105.468 106.476 105.476 106.52 105.476 106.565C105.475 106.652 105.44 106.736 105.379 106.798C105.281 106.868 105.162 106.9 105.044 106.889H102.936C102.819 106.899 102.703 106.867 102.608 106.798C102.576 106.769 102.551 106.733 102.534 106.692C102.517 106.652 102.51 106.608 102.511 106.565C102.509 106.52 102.517 106.475 102.533 106.433C102.55 106.392 102.576 106.354 102.608 106.324C102.706 106.261 102.821 106.232 102.936 106.241H103.681V100.816H103.137C103.02 100.827 102.904 100.795 102.809 100.725C102.776 100.695 102.749 100.658 102.731 100.616C102.713 100.575 102.704 100.529 102.705 100.484C102.695 100.436 102.698 100.385 102.712 100.338C102.727 100.291 102.752 100.248 102.787 100.213C102.881 100.143 102.998 100.111 103.115 100.122L104.336 100.137Z" fill="var(--fill-0, black)"/>
<path id="Vector_13" d="M127.493 101.328V100.137H128.983C129.099 100.126 129.216 100.158 129.31 100.228C129.344 100.258 129.37 100.295 129.388 100.337C129.406 100.379 129.415 100.424 129.415 100.469C129.415 100.513 129.405 100.557 129.387 100.597C129.369 100.638 129.343 100.673 129.31 100.703C129.216 100.772 129.099 100.805 128.983 100.793H128.111V107.318C128.12 107.725 128.025 108.127 127.835 108.486C127.675 108.757 127.468 108.997 127.225 109.194C126.986 109.403 126.72 109.578 126.435 109.714C126.134 109.832 125.812 109.886 125.489 109.872H123.664C123.546 109.884 123.427 109.852 123.329 109.782C123.297 109.751 123.271 109.714 123.255 109.672C123.238 109.631 123.23 109.586 123.232 109.541C123.231 109.496 123.239 109.451 123.255 109.41C123.272 109.368 123.297 109.331 123.329 109.3C123.427 109.23 123.546 109.198 123.664 109.209H125.512C125.875 109.214 126.232 109.112 126.539 108.916C126.857 108.696 127.114 108.398 127.284 108.049C127.406 107.79 127.464 107.506 127.456 107.22V105.261C127.163 105.707 126.765 106.071 126.298 106.322C125.832 106.574 125.31 106.704 124.782 106.7C124.35 106.703 123.923 106.616 123.527 106.443C123.131 106.271 122.775 106.017 122.48 105.698C121.864 105.053 121.52 104.191 121.52 103.295C121.52 102.398 121.864 101.536 122.48 100.891C122.775 100.573 123.132 100.321 123.528 100.149C123.924 99.9782 124.351 99.892 124.782 99.8964C125.316 99.886 125.844 100.012 126.318 100.262C126.792 100.512 127.196 100.879 127.493 101.328ZM127.493 103.302C127.505 102.944 127.446 102.587 127.318 102.253C127.19 101.919 126.996 101.614 126.748 101.358C126.506 101.106 126.217 100.905 125.897 100.768C125.577 100.631 125.233 100.56 124.886 100.56C124.539 100.56 124.195 100.631 123.875 100.768C123.555 100.905 123.266 101.106 123.024 101.358C122.527 101.88 122.249 102.577 122.249 103.302C122.249 104.027 122.527 104.724 123.024 105.246C123.266 105.499 123.555 105.699 123.875 105.836C124.195 105.973 124.539 106.044 124.886 106.044C125.233 106.044 125.577 105.973 125.897 105.836C126.217 105.699 126.506 105.499 126.748 105.246C126.996 104.99 127.189 104.685 127.317 104.351C127.445 104.017 127.505 103.66 127.493 103.302Z" fill="var(--fill-0, black)"/>
<path id="Vector_14" d="M135.105 100.137V106.241H137.645C137.763 106.231 137.88 106.26 137.98 106.324C138.014 106.354 138.04 106.391 138.058 106.433C138.076 106.474 138.085 106.519 138.084 106.565C138.085 106.609 138.075 106.653 138.057 106.693C138.039 106.733 138.013 106.769 137.98 106.798C137.883 106.868 137.764 106.9 137.645 106.889H131.925C131.808 106.9 131.691 106.868 131.597 106.798C131.564 106.769 131.538 106.733 131.52 106.693C131.502 106.653 131.492 106.609 131.493 106.565C131.492 106.519 131.501 106.474 131.519 106.433C131.537 106.391 131.563 106.354 131.597 106.324C131.694 106.26 131.809 106.231 131.925 106.241H134.464V100.816H132.58C132.461 100.827 132.342 100.795 132.245 100.725C132.212 100.696 132.186 100.66 132.168 100.62C132.15 100.58 132.14 100.536 132.141 100.492C132.14 100.447 132.148 100.402 132.165 100.361C132.181 100.32 132.206 100.282 132.237 100.25C132.338 100.181 132.459 100.149 132.58 100.16L135.105 100.137ZM135.105 96.7845V98.4723H134.152V96.7845H135.105Z" fill="var(--fill-0, black)"/>
<path id="Vector_15" d="M147.819 103.513C147.827 103.99 147.737 104.463 147.555 104.902C147.373 105.342 147.103 105.739 146.762 106.067C146.082 106.745 145.165 107.125 144.211 107.125C143.256 107.125 142.34 106.745 141.66 106.067C141.324 105.735 141.058 105.338 140.876 104.9C140.694 104.462 140.6 103.992 140.6 103.517C140.6 103.042 140.694 102.572 140.876 102.134C141.058 101.696 141.324 101.299 141.66 100.966C142.341 100.29 143.257 99.9116 144.211 99.9116C145.165 99.9116 146.081 100.29 146.762 100.966C147.101 101.294 147.371 101.69 147.553 102.128C147.735 102.566 147.825 103.038 147.819 103.513ZM147.171 103.513C147.177 103.124 147.103 102.738 146.954 102.378C146.806 102.019 146.585 101.695 146.307 101.426C145.749 100.867 144.996 100.553 144.211 100.553C143.425 100.553 142.672 100.867 142.114 101.426C141.841 101.699 141.623 102.024 141.475 102.382C141.327 102.74 141.251 103.125 141.251 103.513C141.251 103.901 141.327 104.286 141.475 104.644C141.623 105.003 141.841 105.328 142.114 105.6C142.385 105.883 142.711 106.106 143.071 106.256C143.431 106.407 143.818 106.481 144.207 106.474C144.597 106.48 144.983 106.406 145.344 106.257C145.705 106.108 146.033 105.887 146.307 105.608C146.586 105.337 146.806 105.012 146.955 104.651C147.103 104.291 147.177 103.903 147.171 103.513Z" fill="var(--fill-0, black)"/>
<path id="Vector_16" d="M156.355 100.793V100.574C156.329 100.451 156.351 100.322 156.415 100.213C156.444 100.181 156.48 100.156 156.52 100.139C156.56 100.123 156.603 100.114 156.646 100.115C156.69 100.113 156.734 100.12 156.775 100.137C156.817 100.154 156.854 100.18 156.884 100.213C156.955 100.31 156.99 100.431 156.981 100.552V102.059C156.987 102.182 156.953 102.304 156.884 102.405C156.854 102.438 156.817 102.464 156.775 102.481C156.734 102.498 156.69 102.506 156.646 102.503C156.605 102.504 156.566 102.496 156.528 102.481C156.491 102.465 156.458 102.442 156.43 102.413C156.359 102.332 156.322 102.227 156.325 102.119C156.287 101.898 156.2 101.689 156.071 101.507C155.942 101.324 155.774 101.173 155.58 101.064C155.046 100.706 154.411 100.531 153.771 100.567C153.362 100.541 152.954 100.61 152.575 100.768C152.197 100.926 151.86 101.169 151.588 101.479C151.1 102.061 150.835 102.802 150.843 103.566C150.831 103.953 150.898 104.338 151.041 104.697C151.183 105.056 151.397 105.382 151.67 105.653C151.95 105.93 152.282 106.146 152.647 106.289C153.012 106.431 153.402 106.497 153.793 106.482C154.316 106.476 154.835 106.382 155.327 106.203C155.858 106.008 156.34 105.7 156.742 105.299C156.813 105.212 156.915 105.155 157.025 105.141C157.066 105.139 157.106 105.147 157.143 105.162C157.18 105.178 157.214 105.201 157.241 105.231C157.27 105.259 157.293 105.293 157.308 105.331C157.324 105.369 157.331 105.409 157.331 105.449C157.331 105.676 157.07 105.954 156.586 106.301C155.758 106.854 154.785 107.143 153.793 107.13C153.321 107.147 152.851 107.066 152.41 106.894C151.97 106.722 151.569 106.461 151.231 106.128C150.899 105.795 150.638 105.396 150.465 104.956C150.292 104.517 150.21 104.046 150.225 103.573C150.211 103.089 150.294 102.607 150.471 102.157C150.647 101.706 150.912 101.297 151.251 100.954C151.589 100.611 151.993 100.342 152.438 100.163C152.883 99.9834 153.359 99.8979 153.838 99.9114C154.757 99.8739 155.656 100.189 156.355 100.793Z" fill="var(--fill-0, black)"/>
<path id="Vector_17" d="M166.716 103.513C166.723 103.99 166.633 104.463 166.451 104.902C166.269 105.342 165.999 105.739 165.658 106.067C164.977 106.746 164.059 107.126 163.103 107.126C162.147 107.126 161.23 106.746 160.549 106.067C160.216 105.733 159.952 105.336 159.772 104.898C159.592 104.46 159.499 103.991 159.499 103.517C159.499 103.043 159.592 102.573 159.772 102.135C159.952 101.698 160.216 101.3 160.549 100.966C160.883 100.625 161.283 100.355 161.723 100.174C162.163 99.9925 162.635 99.9033 163.111 99.9114C163.584 99.9023 164.054 99.9911 164.492 100.173C164.93 100.354 165.327 100.624 165.658 100.966C165.998 101.294 166.267 101.69 166.449 102.128C166.631 102.566 166.722 103.038 166.716 103.513ZM166.06 103.513C166.068 103.124 165.994 102.737 165.846 102.377C165.697 102.018 165.476 101.694 165.196 101.426C164.924 101.145 164.598 100.923 164.238 100.774C163.878 100.625 163.492 100.552 163.103 100.559C162.715 100.553 162.329 100.627 161.969 100.776C161.609 100.925 161.283 101.146 161.01 101.426C160.737 101.699 160.52 102.024 160.372 102.382C160.223 102.74 160.147 103.125 160.147 103.513C160.147 103.901 160.223 104.286 160.372 104.644C160.52 105.003 160.737 105.328 161.01 105.6C161.568 106.157 162.32 106.469 163.103 106.469C163.887 106.469 164.639 106.157 165.196 105.6C165.481 105.335 165.709 105.012 165.864 104.653C166.019 104.293 166.099 103.905 166.097 103.513H166.06Z" fill="var(--fill-0, black)"/>
<path id="Vector_18" d="M179.572 100.137V101.32C179.912 100.889 180.332 100.528 180.808 100.258C181.289 100.01 181.825 99.8882 182.365 99.9039C182.981 99.9 183.588 100.053 184.13 100.348C184.655 100.639 185.087 101.075 185.374 101.607C185.667 102.123 185.821 102.707 185.821 103.302C185.826 103.751 185.74 104.195 185.569 104.609C185.397 105.022 185.143 105.396 184.823 105.706C184.465 106.05 184.04 106.315 183.575 106.482C183.109 106.649 182.614 106.714 182.122 106.674C181.63 106.635 181.152 106.49 180.719 106.25C180.286 106.011 179.907 105.681 179.609 105.284V109.255H181.173C181.292 109.243 181.411 109.275 181.508 109.345C181.539 109.375 181.564 109.412 181.581 109.452C181.598 109.492 181.606 109.535 181.606 109.579C181.606 109.622 181.598 109.665 181.581 109.706C181.564 109.746 181.539 109.782 181.508 109.812C181.413 109.888 181.293 109.923 181.173 109.91H178.089C177.973 109.92 177.857 109.888 177.762 109.82C177.729 109.789 177.704 109.752 177.687 109.71C177.67 109.668 177.663 109.623 177.665 109.579C177.663 109.535 177.67 109.491 177.687 109.451C177.704 109.41 177.729 109.374 177.762 109.345C177.857 109.276 177.973 109.244 178.089 109.255H178.961V100.793H178.089C177.973 100.803 177.857 100.771 177.762 100.703C177.729 100.672 177.704 100.634 177.687 100.593C177.67 100.551 177.663 100.506 177.665 100.461C177.663 100.418 177.67 100.374 177.687 100.334C177.704 100.293 177.729 100.257 177.762 100.228C177.857 100.159 177.973 100.127 178.089 100.137H179.572ZM185.165 103.302C185.17 102.94 185.101 102.581 184.961 102.247C184.821 101.914 184.614 101.614 184.353 101.366C183.82 100.846 183.109 100.555 182.368 100.555C181.628 100.555 180.916 100.846 180.383 101.366C180.122 101.612 179.915 101.911 179.775 102.243C179.636 102.575 179.566 102.933 179.572 103.295C179.568 103.656 179.638 104.015 179.778 104.348C179.917 104.682 180.124 104.982 180.383 105.231C180.917 105.749 181.629 106.038 182.368 106.038C183.108 106.038 183.819 105.749 184.353 105.231C184.612 104.983 184.818 104.684 184.957 104.352C185.097 104.02 185.168 103.663 185.165 103.302Z" fill="var(--fill-0, black)"/>
<path id="Vector_19" d="M194.945 103.656H188.361C188.445 104.446 188.82 105.175 189.411 105.698C190.022 106.212 190.799 106.48 191.593 106.452C192.098 106.443 192.6 106.362 193.083 106.211C193.549 106.077 193.988 105.86 194.379 105.57C194.449 105.505 194.538 105.466 194.632 105.457C194.671 105.457 194.71 105.465 194.746 105.48C194.782 105.496 194.814 105.519 194.841 105.547C194.872 105.578 194.896 105.614 194.913 105.654C194.93 105.694 194.938 105.737 194.937 105.781C194.935 105.83 194.922 105.878 194.9 105.922C194.878 105.966 194.848 106.005 194.811 106.037C194.436 106.386 193.988 106.643 193.5 106.791C192.881 107.016 192.228 107.13 191.571 107.13C191.059 107.146 190.55 107.057 190.074 106.868C189.597 106.678 189.164 106.393 188.8 106.03C188.442 105.689 188.158 105.277 187.967 104.819C187.776 104.36 187.682 103.867 187.69 103.37C187.684 102.912 187.773 102.459 187.952 102.038C188.13 101.618 188.394 101.24 188.725 100.929C189.068 100.594 189.473 100.332 189.917 100.157C190.36 99.9827 190.834 99.8991 191.31 99.9114C191.792 99.896 192.271 99.9803 192.72 100.159C193.168 100.338 193.575 100.607 193.917 100.951C194.261 101.308 194.529 101.732 194.705 102.197C194.882 102.662 194.964 103.158 194.945 103.656ZM194.289 102.993C194.179 102.301 193.818 101.675 193.276 101.238C192.728 100.785 192.039 100.545 191.332 100.559C190.626 100.543 189.937 100.78 189.388 101.23C188.845 101.671 188.482 102.298 188.368 102.993H194.289Z" fill="var(--fill-0, black)"/>
<path id="Vector_20" d="M200.121 100.137V101.78C200.696 101.21 201.33 100.704 202.013 100.273C202.367 100.071 202.762 99.9578 203.168 99.9416C203.559 99.9419 203.939 100.081 204.24 100.333C204.568 100.597 204.739 100.793 204.739 100.929C204.74 100.974 204.732 101.019 204.715 101.061C204.698 101.104 204.673 101.142 204.641 101.173C204.609 101.205 204.571 101.23 204.529 101.246C204.487 101.262 204.442 101.27 204.397 101.268C204.355 101.277 204.312 101.277 204.27 101.268C204.197 101.218 204.13 101.159 204.069 101.094C203.934 100.943 203.776 100.816 203.6 100.718C203.478 100.654 203.342 100.621 203.205 100.62C202.843 100.647 202.492 100.763 202.185 100.959C201.45 101.455 200.76 102.015 200.121 102.631V106.241H202.982C203.102 106.23 203.222 106.259 203.324 106.324C203.357 106.354 203.382 106.392 203.399 106.433C203.416 106.475 203.423 106.52 203.421 106.565C203.423 106.608 203.415 106.652 203.398 106.692C203.381 106.733 203.356 106.769 203.324 106.798C203.224 106.868 203.103 106.901 202.982 106.889H197.917C197.8 106.899 197.684 106.867 197.589 106.798C197.556 106.771 197.53 106.736 197.512 106.697C197.494 106.658 197.485 106.615 197.485 106.572C197.484 106.531 197.493 106.49 197.509 106.452C197.526 106.414 197.551 106.381 197.582 106.354C197.679 106.284 197.798 106.252 197.917 106.263H199.481V100.816H198.289C198.17 100.827 198.051 100.795 197.954 100.725C197.921 100.695 197.896 100.657 197.879 100.615C197.862 100.574 197.855 100.529 197.857 100.484C197.855 100.44 197.863 100.397 197.879 100.356C197.896 100.316 197.922 100.28 197.954 100.25C198.05 100.179 198.17 100.147 198.289 100.16L200.121 100.137Z" fill="var(--fill-0, black)"/>
<path id="Vector_21" d="M222.489 100.793V100.574C222.477 100.454 222.509 100.334 222.578 100.235C222.607 100.203 222.643 100.178 222.683 100.161C222.723 100.144 222.766 100.136 222.809 100.137C222.853 100.135 222.898 100.143 222.939 100.16C222.98 100.177 223.017 100.203 223.047 100.235C223.116 100.334 223.148 100.454 223.137 100.574V102.081C223.147 102.205 223.113 102.328 223.04 102.428C223.011 102.461 222.975 102.487 222.935 102.503C222.895 102.52 222.852 102.528 222.809 102.526C222.769 102.528 222.728 102.521 222.691 102.505C222.654 102.489 222.62 102.466 222.593 102.436C222.522 102.355 222.485 102.25 222.489 102.142C222.446 101.922 222.358 101.715 222.229 101.533C222.101 101.351 221.935 101.199 221.744 101.087C221.209 100.728 220.574 100.554 219.934 100.59C219.526 100.563 219.117 100.631 218.738 100.789C218.36 100.947 218.022 101.191 217.752 101.501C217.263 102.084 216.999 102.825 217.007 103.588C216.995 103.974 217.062 104.359 217.203 104.718C217.344 105.077 217.556 105.403 217.826 105.676C218.107 105.952 218.441 106.168 218.807 106.31C219.173 106.453 219.564 106.519 219.956 106.504C220.48 106.498 220.998 106.404 221.491 106.226C222.02 106.032 222.5 105.724 222.898 105.321C222.973 105.235 223.076 105.179 223.189 105.163C223.27 105.163 223.348 105.196 223.405 105.254C223.462 105.312 223.494 105.39 223.494 105.472C223.494 105.698 223.234 105.977 222.749 106.324C221.921 106.877 220.948 107.165 219.956 107.152C219.484 107.17 219.014 107.09 218.573 106.918C218.133 106.746 217.732 106.484 217.394 106.15C217.062 105.817 216.801 105.418 216.628 104.979C216.455 104.54 216.374 104.069 216.389 103.596C216.374 103.112 216.458 102.63 216.634 102.179C216.81 101.729 217.076 101.32 217.414 100.977C217.752 100.634 218.156 100.365 218.601 100.185C219.046 100.006 219.522 99.9205 220.001 99.934C220.907 99.8993 221.793 100.205 222.489 100.793Z" fill="var(--fill-0, black)"/>
<path id="Vector_22" d="M232.849 103.513C232.855 103.989 232.764 104.462 232.582 104.901C232.4 105.341 232.131 105.737 231.792 106.067C231.11 106.746 230.193 107.126 229.237 107.126C228.281 107.126 227.363 106.746 226.682 106.067C226.35 105.733 226.086 105.336 225.905 104.898C225.725 104.46 225.632 103.991 225.632 103.517C225.632 103.043 225.725 102.573 225.905 102.135C226.086 101.698 226.35 101.3 226.682 100.966C227.364 100.29 228.282 99.9109 229.237 99.9109C230.192 99.9109 231.109 100.29 231.792 100.966C232.13 101.296 232.398 101.691 232.58 102.129C232.762 102.567 232.854 103.038 232.849 103.513ZM232.194 103.513C232.199 103.124 232.125 102.738 231.977 102.378C231.828 102.019 231.608 101.695 231.33 101.426C231.058 101.145 230.732 100.923 230.372 100.774C230.012 100.625 229.626 100.552 229.237 100.559C228.848 100.553 228.462 100.627 228.103 100.776C227.743 100.925 227.417 101.146 227.144 101.426C226.868 101.697 226.648 102.021 226.498 102.38C226.348 102.738 226.271 103.124 226.271 103.513C226.271 103.902 226.348 104.288 226.498 104.646C226.648 105.005 226.868 105.329 227.144 105.6C227.701 106.157 228.453 106.469 229.237 106.469C230.02 106.469 230.772 106.157 231.33 105.6C231.607 105.33 231.827 105.006 231.976 104.647C232.124 104.288 232.198 103.902 232.194 103.513Z" fill="var(--fill-0, black)"/>
<path id="Vector_23" d="M240.856 101.328V100.137H242.346C242.462 100.127 242.579 100.159 242.674 100.228C242.706 100.259 242.732 100.296 242.748 100.338C242.765 100.379 242.773 100.424 242.771 100.469C242.772 100.513 242.764 100.556 242.748 100.597C242.731 100.637 242.706 100.673 242.674 100.703C242.579 100.771 242.462 100.803 242.346 100.793H241.475V107.318C241.483 107.725 241.389 108.127 241.199 108.486C241.035 108.757 240.826 108.997 240.581 109.194C240.346 109.404 240.082 109.579 239.799 109.714C239.497 109.831 239.175 109.885 238.853 109.872H237.02C236.904 109.883 236.788 109.851 236.693 109.782C236.66 109.751 236.635 109.714 236.618 109.672C236.601 109.631 236.594 109.586 236.596 109.541C236.594 109.496 236.602 109.451 236.619 109.41C236.635 109.368 236.661 109.331 236.693 109.3C236.788 109.231 236.904 109.199 237.02 109.209H238.875C239.239 109.214 239.596 109.112 239.903 108.916C240.221 108.696 240.477 108.398 240.648 108.049C240.766 107.79 240.822 107.506 240.812 107.22V105.261C240.519 105.707 240.122 106.072 239.655 106.323C239.188 106.575 238.666 106.704 238.138 106.7C237.708 106.703 237.281 106.615 236.887 106.443C236.492 106.27 236.137 106.017 235.844 105.698C235.227 105.053 234.883 104.191 234.883 103.295C234.883 102.398 235.227 101.536 235.844 100.891C236.137 100.573 236.492 100.321 236.887 100.15C237.282 99.9784 237.708 99.8922 238.138 99.8964C238.673 99.884 239.203 100.009 239.679 100.259C240.154 100.509 240.559 100.877 240.856 101.328ZM240.856 103.302C240.864 102.941 240.799 102.583 240.664 102.248C240.53 101.914 240.329 101.611 240.074 101.358C239.836 101.101 239.547 100.898 239.226 100.76C238.906 100.622 238.56 100.554 238.212 100.559C237.864 100.557 237.52 100.626 237.199 100.764C236.879 100.901 236.59 101.103 236.35 101.358C235.853 101.88 235.575 102.577 235.575 103.302C235.575 104.027 235.853 104.724 236.35 105.246C236.592 105.499 236.881 105.699 237.201 105.836C237.521 105.973 237.865 106.044 238.212 106.044C238.56 106.044 238.903 105.973 239.223 105.836C239.543 105.699 239.833 105.499 240.074 105.246C240.328 104.993 240.529 104.69 240.663 104.356C240.798 104.021 240.864 103.663 240.856 103.302Z" fill="var(--fill-0, black)"/>
<path id="Vector_24" d="M248.461 97.1085V106.241H251.008C251.128 106.23 251.249 106.259 251.351 106.324C251.383 106.354 251.409 106.392 251.426 106.433C251.442 106.475 251.45 106.52 251.448 106.565C251.449 106.608 251.442 106.652 251.425 106.692C251.408 106.733 251.383 106.769 251.351 106.798C251.251 106.868 251.13 106.901 251.008 106.889H245.295C245.177 106.9 245.058 106.868 244.96 106.798C244.928 106.769 244.903 106.733 244.886 106.692C244.87 106.652 244.862 106.608 244.863 106.565C244.861 106.52 244.869 106.475 244.886 106.433C244.902 106.392 244.928 106.354 244.96 106.324C245.06 106.26 245.178 106.231 245.295 106.241H247.828V97.7715H245.966C245.846 97.7822 245.726 97.7473 245.631 97.6736C245.597 97.6436 245.571 97.6063 245.554 97.5645C245.538 97.5227 245.531 97.4775 245.534 97.4325C245.533 97.3889 245.541 97.3457 245.558 97.3055C245.575 97.2653 245.599 97.229 245.631 97.1989C245.728 97.1292 245.847 97.0971 245.966 97.1085H248.461Z" fill="var(--fill-0, black)"/>
<path id="Vector_25" d="M257.92 100.137V106.241H260.46C260.578 106.231 260.695 106.26 260.795 106.324C260.829 106.354 260.856 106.391 260.874 106.433C260.892 106.474 260.9 106.519 260.9 106.565C260.9 106.609 260.891 106.653 260.873 106.693C260.855 106.733 260.828 106.769 260.795 106.798C260.698 106.868 260.579 106.9 260.46 106.889H254.732C254.616 106.9 254.499 106.868 254.405 106.798C254.372 106.769 254.346 106.733 254.328 106.693C254.31 106.653 254.3 106.609 254.301 106.565C254.3 106.519 254.309 106.474 254.327 106.433C254.345 106.391 254.371 106.354 254.405 106.324C254.502 106.26 254.617 106.231 254.732 106.241H257.272V100.816H255.388C255.269 100.827 255.15 100.795 255.053 100.725C255.021 100.695 254.995 100.658 254.977 100.617C254.96 100.576 254.951 100.532 254.951 100.488C254.951 100.443 254.96 100.399 254.977 100.358C254.995 100.318 255.021 100.281 255.053 100.25C255.153 100.18 255.274 100.148 255.395 100.16L257.92 100.137ZM257.92 96.7845V98.4723H256.967V96.7845H257.92Z" fill="var(--fill-0, black)"/>
<path id="Vector_26" d="M270.635 103.513C270.642 103.99 270.552 104.463 270.37 104.902C270.188 105.342 269.918 105.739 269.577 106.067C268.897 106.745 267.981 107.125 267.026 107.125C266.071 107.125 265.155 106.745 264.475 106.067C264.14 105.735 263.873 105.338 263.691 104.9C263.509 104.462 263.416 103.992 263.416 103.517C263.416 103.042 263.509 102.572 263.691 102.134C263.873 101.696 264.14 101.299 264.475 100.966C265.156 100.29 266.072 99.9116 267.026 99.9116C267.98 99.9116 268.896 100.29 269.577 100.966C269.917 101.294 270.186 101.69 270.368 102.128C270.55 102.566 270.641 103.038 270.635 103.513ZM269.987 103.513C269.993 103.123 269.918 102.736 269.768 102.377C269.618 102.017 269.396 101.694 269.115 101.426C268.843 101.145 268.517 100.923 268.157 100.774C267.797 100.625 267.411 100.552 267.022 100.559C266.634 100.553 266.248 100.627 265.888 100.776C265.528 100.925 265.202 101.146 264.929 101.426C264.656 101.699 264.439 102.024 264.291 102.382C264.142 102.74 264.066 103.125 264.066 103.513C264.066 103.901 264.142 104.286 264.291 104.644C264.439 105.003 264.656 105.328 264.929 105.6C265.487 106.157 266.239 106.469 267.022 106.469C267.806 106.469 268.558 106.157 269.115 105.6C269.395 105.332 269.616 105.008 269.766 104.649C269.916 104.289 269.991 103.903 269.987 103.513Z" fill="var(--fill-0, black)"/>
<path id="Vector_27" d="M274.389 100.137V101.125C274.738 100.737 275.152 100.413 275.61 100.168C275.994 99.9852 276.415 99.8949 276.839 99.9039C277.307 99.8986 277.769 100.007 278.187 100.22C278.493 100.406 278.749 100.665 278.932 100.974C279.159 101.298 279.281 101.685 279.282 102.081V106.241H279.833C279.948 106.232 280.063 106.261 280.161 106.324C280.195 106.354 280.221 106.391 280.239 106.433C280.257 106.474 280.266 106.519 280.265 106.565C280.265 106.609 280.256 106.653 280.238 106.693C280.22 106.733 280.194 106.769 280.161 106.798C280.066 106.867 279.95 106.899 279.833 106.889H278.105C277.984 106.901 277.863 106.868 277.763 106.798C277.731 106.769 277.706 106.733 277.689 106.692C277.672 106.652 277.664 106.608 277.666 106.565C277.664 106.52 277.671 106.475 277.688 106.433C277.705 106.392 277.73 106.354 277.763 106.324C277.865 106.259 277.985 106.23 278.105 106.241H278.642V102.232C278.644 102.013 278.601 101.796 278.515 101.594C278.429 101.393 278.302 101.213 278.143 101.064C277.961 100.899 277.75 100.771 277.52 100.688C277.29 100.605 277.046 100.569 276.802 100.582C276.416 100.574 276.034 100.664 275.692 100.846C275.183 101.204 274.733 101.642 274.359 102.142V106.241H275.104C275.219 106.231 275.334 106.26 275.431 106.324C275.465 106.354 275.491 106.391 275.509 106.433C275.527 106.474 275.536 106.519 275.536 106.565C275.536 106.609 275.527 106.653 275.509 106.693C275.491 106.733 275.464 106.769 275.431 106.798C275.337 106.868 275.22 106.9 275.104 106.889H272.996C272.879 106.899 272.763 106.867 272.668 106.798C272.635 106.769 272.609 106.733 272.591 106.693C272.573 106.653 272.564 106.609 272.564 106.565C272.563 106.519 272.572 106.474 272.59 106.433C272.608 106.391 272.635 106.354 272.668 106.324C272.766 106.261 272.881 106.232 272.996 106.241H273.741V100.816H273.197C273.08 100.827 272.964 100.795 272.869 100.725C272.836 100.695 272.809 100.658 272.791 100.616C272.773 100.575 272.764 100.529 272.765 100.484C272.764 100.44 272.773 100.396 272.791 100.356C272.809 100.315 272.836 100.279 272.869 100.25C272.964 100.181 273.08 100.148 273.197 100.16L274.389 100.137Z" fill="var(--fill-0, black)"/>
<path id="Vector_28" d="M286.261 100.137V106.241H288.801C288.919 106.231 289.036 106.26 289.136 106.324C289.17 106.354 289.196 106.391 289.214 106.433C289.232 106.474 289.241 106.519 289.241 106.565C289.241 106.609 289.231 106.653 289.214 106.693C289.196 106.733 289.169 106.769 289.136 106.798C289.039 106.868 288.92 106.9 288.801 106.889H283.081C282.964 106.899 282.848 106.867 282.753 106.798C282.72 106.769 282.694 106.733 282.676 106.693C282.658 106.653 282.649 106.609 282.649 106.565C282.648 106.519 282.657 106.474 282.675 106.433C282.693 106.391 282.72 106.354 282.753 106.324C282.851 106.261 282.966 106.232 283.081 106.241H285.621V100.816H283.736C283.617 100.827 283.499 100.795 283.401 100.725C283.368 100.696 283.342 100.66 283.324 100.62C283.306 100.58 283.297 100.536 283.297 100.492C283.296 100.447 283.304 100.402 283.321 100.361C283.338 100.32 283.362 100.282 283.394 100.25C283.494 100.181 283.615 100.149 283.736 100.16L286.261 100.137ZM286.261 96.7845V98.4723H285.271V96.7845H286.261Z" fill="var(--fill-0, black)"/>
<path id="Vector_29" d="M291.564 94.0117H214.951V111.545H291.564V94.0117Z" fill="var(--fill-0, black)"/>
</g>
</svg>
