<svg overflow="visible" style="display: block;" viewBox="0 0 331.994 69.7996" fill="none" xmlns="http://www.w3.org/2000/svg">
<g id="Layer 1">
<path id="Vector" d="M6.61036 36.3753C4.23414 35.7699 1.99303 34.7408 0 33.34L2.90565 27.014C4.63678 28.2364 6.56033 29.1754 8.60074 29.794C10.7245 30.4779 12.9457 30.8298 15.182 30.8365C17.6301 30.8365 19.4316 30.4819 20.6011 29.7727C21.1292 29.4997 21.5713 29.0913 21.8797 28.5916C22.1881 28.0918 22.3513 27.5194 22.3517 26.936C22.3548 26.5284 22.2636 26.1254 22.085 25.7571C21.9064 25.3887 21.645 25.0644 21.3202 24.8084C20.5338 24.1808 19.6312 23.7065 18.6616 23.4113C17.5865 23.0709 16.1191 22.7021 14.3031 22.2766C11.9474 21.7563 9.6259 21.0979 7.3513 20.305C5.55167 19.6532 3.95171 18.5646 2.70226 17.142C1.32662 15.5049 0.622512 13.4275 0.726413 11.3124C0.706321 9.27508 1.31924 7.27963 2.48433 5.58925C3.79853 3.75685 5.63479 2.34141 7.76536 1.51848C10.5081 0.443044 13.4478 -0.0711015 16.4024 0.00790137C18.7482 0.00451822 21.0855 0.2832 23.3615 0.837656C25.4601 1.32313 27.4676 2.12722 29.3108 3.22054L26.6521 9.60328C23.5322 7.79353 19.9803 6.81532 16.3516 6.76651C13.9302 6.76651 12.1529 7.14711 11.0197 7.90831C10.4879 8.21878 10.0486 8.65965 9.74531 9.18714C9.44203 9.71463 9.28535 10.3104 9.29083 10.9153C9.29085 11.5211 9.48188 12.1122 9.83798 12.6083C10.1941 13.1044 10.698 13.4814 11.2812 13.6882C13.2413 14.4818 15.2783 15.0805 17.3613 15.4754C19.7191 15.9968 22.0429 16.6551 24.3203 17.447C26.1087 18.0987 27.7035 19.1733 28.9621 20.5745C30.3243 22.1893 31.0164 24.2442 30.9016 26.3331C30.9146 28.3572 30.2936 30.3368 29.1219 32.0067C27.7839 33.8372 25.9323 35.2509 23.79 36.0775C21.0384 37.1479 18.0921 37.6595 15.1312 37.5809C12.2467 37.5765 9.3775 37.1706 6.61036 36.3753Z" fill="var(--fill-0, #222222)"/>
<path id="Vector_2" d="M70.8837 0.63909V36.9214H62.2829V22.0284H45.3938V36.9214H36.7931V0.63909H45.3938V14.9435H62.2829V0.63909H70.8837Z" fill="var(--fill-0, #222222)"/>
<path id="Vector_3" d="M104.175 29.1486H86.9154L83.6248 36.9498H74.8206L91.3829 0.667461H99.8819L116.495 36.9498H107.466L104.175 29.1486ZM101.465 22.7659L95.5743 8.87282L89.6758 22.773L101.465 22.7659Z" fill="var(--fill-0, #222222)"/>
<path id="Vector_4" d="M145.029 2.24186C147.311 3.19703 149.257 4.78193 150.629 6.80197C151.975 8.89606 152.66 11.3304 152.598 13.8017C152.653 16.2632 151.968 18.6866 150.629 20.7731C149.27 22.8062 147.32 24.3967 145.029 25.3403C142.316 26.4447 139.396 26.9811 136.457 26.9147H128.968V36.9214H120.367V0.639081H136.457C139.399 0.571092 142.321 1.11755 145.029 2.24186ZM141.869 18.4469C142.549 17.878 143.085 17.1633 143.435 16.3588C143.785 15.5542 143.94 14.6815 143.888 13.8088C143.943 12.9285 143.789 12.0478 143.439 11.2349C143.089 10.4219 142.551 9.69864 141.869 9.12103C140.525 8.02887 138.556 7.4828 135.978 7.4828H128.968V20.0781H135.978C138.556 20.0781 140.525 19.532 141.869 18.4469Z" fill="var(--fill-0, #222222)"/>
<path id="Vector_5" d="M187.48 30.1841V36.9214H158.699V0.63909H186.79V7.37642H167.249V15.2556H184.509V21.7872H167.249V30.1841H187.48Z" fill="var(--fill-0, #222222)"/>
<path id="Vector_6" d="M218.011 36.9214L210.842 26.8154H202.931V36.9214H194.33V0.639081H210.413C213.357 0.570954 216.282 1.1174 218.992 2.24186C221.312 3.18259 223.281 4.79514 224.633 6.86213C225.985 8.92912 226.656 11.3511 226.554 13.8017C226.653 16.2486 225.971 18.665 224.602 20.7169C223.233 22.7687 221.245 24.3546 218.912 25.2552L227.244 36.9214H218.011ZM215.832 9.11393C214.486 8.02178 212.52 7.4757 209.934 7.4757H202.931V20.1277H209.934C212.52 20.1277 214.486 19.5745 215.832 18.4682C216.511 17.8918 217.045 17.1718 217.395 16.3631C217.745 15.5544 217.901 14.6783 217.852 13.8017C217.906 12.9214 217.752 12.0407 217.402 11.2278C217.052 10.4148 216.515 9.69155 215.832 9.11393Z" fill="var(--fill-0, #222222)"/>
<path id="Vector_7" d="M233.353 0.63909H241.954V36.9214H233.353V0.63909Z" fill="var(--fill-0, #222222)"/>
<path id="Vector_8" d="M284.856 0.63909V36.9214H277.795L259.264 14.901V36.9285H250.765V0.63909H257.877L276.357 22.7021V0.63909H284.856Z" fill="var(--fill-0, #222222)"/>
<path id="Vector_9" d="M301.236 35.1059C298.229 33.5638 295.716 31.2425 293.972 28.3969C292.249 25.471 291.343 22.1551 291.343 18.7802C291.343 15.4054 292.249 12.0895 293.972 9.16359C295.718 6.31772 298.231 3.99456 301.236 2.44753C304.466 0.848271 308.036 0.0148299 311.657 0.0148299C315.278 0.0148299 318.848 0.848271 322.077 2.44753C325.073 4.00802 327.582 6.32811 329.341 9.16359C331.079 12.0846 331.994 15.4024 331.994 18.7802C331.994 22.1581 331.079 25.4759 329.341 28.3969C327.584 31.2322 325.074 33.5505 322.077 35.1059C318.849 36.7095 315.278 37.5455 311.657 37.5455C308.035 37.5455 304.464 36.7095 301.236 35.1059ZM317.617 28.9146C319.371 27.9558 320.819 26.542 321.801 24.8297C322.803 22.9709 323.327 20.902 323.327 18.8015C323.327 16.701 322.803 14.6321 321.801 12.7734C320.83 11.0508 319.389 9.62452 317.639 8.65297C315.812 7.68467 313.767 7.17744 311.689 7.17744C309.611 7.17744 307.566 7.68467 305.74 8.65297C303.978 9.62035 302.527 11.047 301.549 12.7734C300.551 14.6336 300.03 16.7019 300.03 18.8015C300.03 20.9011 300.551 22.9695 301.549 24.8297C302.521 26.5532 303.965 27.9796 305.718 28.9501C307.544 29.9184 309.589 30.4256 311.668 30.4256C313.746 30.4256 315.791 29.9184 317.617 28.9501V28.9146Z" fill="var(--fill-0, #222222)"/>
<path id="Vector_10" d="M73.0408 57.8852C73.4645 58.2912 73.7919 58.7828 74.0003 59.3256C74.2086 59.8683 74.2927 60.449 74.2467 61.0269V66.4026H71.6243V65.2537C71.1013 66.126 70.1207 66.5657 68.7187 66.5657C68.055 66.5786 67.3962 66.4529 66.7864 66.1969C66.2823 65.9806 65.8515 65.6289 65.5443 65.1827C65.2537 64.7438 65.1045 64.2301 65.1157 63.7076C65.0936 63.3078 65.1721 62.9087 65.3443 62.5453C65.5165 62.1818 65.7772 61.8651 66.1036 61.6226C67.0395 61.055 68.1356 60.7918 69.2344 60.8709H71.4573C71.4725 60.6156 71.4304 60.3601 71.3338 60.1224C71.2371 59.8847 71.0884 59.6706 70.8979 59.495C70.4213 59.1439 69.8297 58.9749 69.2344 59.0199C68.7189 59.0196 68.2066 59.0986 67.7162 59.2539C67.2592 59.3911 66.8311 59.6073 66.4523 59.8922L65.4498 57.9844C66.0263 57.6015 66.6648 57.3162 67.3385 57.1405C68.0802 56.9475 68.8446 56.8498 69.6122 56.8497C70.8465 56.7726 72.0667 57.1411 73.0408 57.8852ZM70.6582 64.3814C71.0307 64.1647 71.3116 63.8251 71.45 63.4239V62.4665H69.5323C68.3845 62.4665 67.8107 62.8353 67.8107 63.5658C67.8033 63.7276 67.838 63.8886 67.9117 64.0337C67.9854 64.1788 68.0956 64.3033 68.232 64.3955C68.5714 64.6206 68.9773 64.7303 69.387 64.7076C69.8332 64.7137 70.2727 64.6009 70.6582 64.3814Z" fill="var(--fill-0, #222222)"/>
<path id="Vector_11" d="M82.7388 66.2536C82.0957 66.1152 81.48 65.8757 80.9155 65.5444L81.8453 63.58C82.33 63.8734 82.8562 64.0957 83.4071 64.2395C83.988 64.4033 84.5895 64.4869 85.1941 64.4877C86.3782 64.4877 86.9738 64.2041 86.9738 63.6367C86.9695 63.501 86.9195 63.3705 86.8315 63.2653C86.7435 63.1602 86.6225 63.0863 86.4871 63.0552C86.0139 62.91 85.5273 62.8102 85.0343 62.7573C84.3736 62.6701 83.7204 62.535 83.0802 62.3531C82.5709 62.2039 82.1102 61.9277 81.7436 61.5517C81.3457 61.0948 81.1451 60.5049 81.1843 59.9064C81.1759 59.3374 81.3597 58.7816 81.7073 58.3248C82.1087 57.8303 82.6451 57.4567 83.2546 57.2469C84.0201 56.9761 84.8305 56.8463 85.6445 56.8639C86.3283 56.8641 87.0101 56.9355 87.6784 57.0767C88.2675 57.1913 88.834 57.3972 89.3565 57.6866L88.3903 59.5801C87.5412 59.1132 86.5827 58.8689 85.6082 58.8709C85.1468 58.8431 84.6854 58.9258 84.2643 59.1121C84.135 59.1638 84.0237 59.2509 83.9438 59.3628C83.864 59.4748 83.8188 59.6069 83.8139 59.7432C83.813 59.8835 83.8606 60.02 83.9489 60.1306C84.0372 60.2413 84.1611 60.3197 84.3006 60.3531C84.8009 60.5154 85.317 60.6271 85.8406 60.6865C86.4941 60.7903 87.1415 60.9276 87.7801 61.0978C88.282 61.2449 88.7338 61.5218 89.0877 61.8992C89.4795 62.3451 89.6775 62.9227 89.6398 63.509C89.6489 64.0717 89.459 64.6202 89.1022 65.0622C88.6941 65.5559 88.1496 65.9251 87.5332 66.126C86.7489 66.3917 85.9224 66.5189 85.0924 66.5018C84.3003 66.5158 83.5096 66.4324 82.7388 66.2536Z" fill="var(--fill-0, #222222)"/>
<path id="Vector_12" d="M100.121 57.8993C100.513 58.3174 100.813 58.8092 101.003 59.3446C101.193 59.88 101.269 60.4477 101.226 61.0127V66.4025H98.4289V61.4382C98.4774 60.8381 98.2962 60.2417 97.9204 59.7645C97.7337 59.5756 97.5069 59.4289 97.2559 59.3345C97.0049 59.2402 96.7359 59.2006 96.4676 59.2184C96.1563 59.2009 95.8447 59.2488 95.554 59.3589C95.2632 59.469 95.0001 59.6388 94.7823 59.8567C94.3238 60.3844 94.0968 61.0673 94.1503 61.7573V66.4096H91.3537V53.4172H94.1503V57.9702C94.5315 57.6003 94.9899 57.3149 95.4942 57.1334C96.0462 56.9395 96.6292 56.8434 97.2158 56.8497C97.7475 56.825 98.2789 56.9052 98.7782 57.0855C99.2774 57.2658 99.7343 57.5426 100.121 57.8993Z" fill="var(--fill-0, #222222)"/>
<path id="Vector_13" d="M111.083 57.8851C111.504 58.2927 111.829 58.7847 112.036 59.3272C112.243 59.8697 112.327 60.4497 112.282 61.0269V66.4025H109.688V65.2536C109.165 66.126 108.185 66.5657 106.746 66.5657C106.085 66.5787 105.429 66.4529 104.821 66.1969C104.315 65.9817 103.881 65.6299 103.572 65.1827C103.285 64.7424 103.136 64.2296 103.143 63.7076C103.129 63.3089 103.214 62.9127 103.391 62.5532C103.568 62.1937 103.832 61.8816 104.16 61.6439C105.094 61.0764 106.187 60.8131 107.284 60.8921H109.507C109.523 60.6374 109.482 60.3822 109.387 60.1446C109.291 59.9069 109.144 59.6925 108.955 59.5163C108.475 59.1652 107.881 58.9964 107.284 59.0411C106.771 59.0415 106.261 59.1204 105.773 59.2752C105.315 59.4092 104.886 59.6257 104.509 59.9134L103.507 58.0057C104.083 57.6228 104.722 57.3374 105.395 57.1618C106.134 56.9681 106.896 56.8704 107.662 56.871C108.89 56.7935 110.106 57.1538 111.083 57.8851ZM108.7 64.3813C109.073 64.1664 109.352 63.8258 109.485 63.4239V62.4665H107.567C106.419 62.4665 105.846 62.8353 105.846 63.5658C105.84 63.7273 105.876 63.8876 105.949 64.0324C106.023 64.1772 106.132 64.3019 106.267 64.3955C106.607 64.6187 107.012 64.7282 107.422 64.7076C107.87 64.7135 108.312 64.6008 108.7 64.3813Z" fill="var(--fill-0, #222222)"/>
<path id="Vector_14" d="M122.96 57.4525C123.688 57.847 124.287 58.4346 124.689 59.1475C125.099 59.9363 125.314 60.8086 125.314 61.6935C125.314 62.5784 125.099 63.4508 124.689 64.2395C124.286 64.9529 123.687 65.5424 122.96 65.9416C122.21 66.3443 121.367 66.5519 120.512 66.5444C119.971 66.5713 119.432 66.4832 118.93 66.286C118.428 66.0888 117.976 65.7874 117.606 65.4026V69.7996H114.809V56.9845H117.482V58.0695C117.857 57.6526 118.326 57.3257 118.851 57.1141C119.376 56.9026 119.945 56.8121 120.512 56.8497C121.368 56.8386 122.212 57.0464 122.96 57.4525ZM121.79 63.5941C122.236 63.0563 122.479 62.3854 122.479 61.6935C122.479 61.0016 122.236 60.3307 121.79 59.7929C121.321 59.3381 120.686 59.083 120.025 59.083C119.364 59.083 118.729 59.3381 118.26 59.7929C117.814 60.3307 117.571 61.0016 117.571 61.6935C117.571 62.3854 117.814 63.0563 118.26 63.5941C118.729 64.0489 119.364 64.304 120.025 64.304C120.686 64.304 121.321 64.0489 121.79 63.5941Z" fill="var(--fill-0, #222222)"/>
<path id="Vector_15" d="M136.565 62.4665H129.301C129.407 63.0408 129.741 63.5508 130.231 63.8849C130.772 64.2353 131.413 64.4114 132.062 64.3884C132.515 64.3978 132.966 64.3232 133.391 64.1686C133.801 64.0085 134.172 63.767 134.481 63.4594L135.97 65.0338C135.462 65.5588 134.843 65.9678 134.154 66.2314C133.466 66.495 132.727 66.6067 131.989 66.5586C130.984 66.5773 129.988 66.3635 129.083 65.9345C128.282 65.5545 127.611 64.9559 127.151 64.2111C126.689 63.4551 126.452 62.588 126.468 61.7077C126.456 60.831 126.69 59.9677 127.144 59.2113C127.583 58.4793 128.222 57.8803 128.989 57.4809C129.793 57.0844 130.681 56.8779 131.582 56.8779C132.483 56.8779 133.371 57.0844 134.176 57.4809C134.932 57.8697 135.557 58.4631 135.977 59.19C136.425 59.9791 136.65 60.8698 136.631 61.7715C136.624 61.7644 136.609 62.0126 136.565 62.4665ZM130.028 59.4383C129.594 59.7988 129.314 60.3048 129.243 60.8567H133.994C133.922 60.3003 133.638 59.7906 133.2 59.4282C132.761 59.0658 132.2 58.8771 131.626 58.8993C131.044 58.8828 130.475 59.0745 130.028 59.4383Z" fill="var(--fill-0, #222222)"/>
<path id="Vector_16" d="M138.309 60.3815H143.394V62.5729H138.309V60.3815Z" fill="var(--fill-0, #222222)"/>
<path id="Vector_17" d="M153.738 57.4525C154.467 57.847 155.066 58.4346 155.467 59.1475C155.878 59.9363 156.092 60.8086 156.092 61.6935C156.092 62.5784 155.878 63.4508 155.467 64.2395C155.064 64.9529 154.466 65.5424 153.738 65.9416C152.989 66.3443 152.146 66.5519 151.29 66.5444C150.723 66.5806 150.154 66.4887 149.629 66.276C149.104 66.0632 148.636 65.7352 148.261 65.3175V66.4025H145.588V53.4172H148.385V57.9844C148.755 57.6005 149.207 57.3001 149.709 57.1042C150.211 56.9082 150.751 56.8214 151.29 56.8497C152.146 56.8386 152.99 57.0464 153.738 57.4525ZM152.547 63.5941C152.993 63.0563 153.236 62.3854 153.236 61.6935C153.236 61.0016 152.993 60.3307 152.547 59.7929C152.077 59.3381 151.443 59.083 150.782 59.083C150.12 59.083 149.486 59.3381 149.017 59.7929C148.571 60.3307 148.327 61.0016 148.327 61.6935C148.327 62.3854 148.571 63.0563 149.017 63.5941C149.486 64.0489 150.12 64.304 150.782 64.304C151.443 64.304 152.077 64.0489 152.547 63.5941Z" fill="var(--fill-0, #222222)"/>
<path id="Vector_18" d="M165.129 57.8851C165.55 58.2876 165.877 58.7742 166.087 59.3115C166.298 59.8489 166.387 60.4243 166.349 60.9985V66.3742H163.734V65.2536C163.211 66.126 162.23 66.5657 160.792 66.5657C160.131 66.5787 159.474 66.4529 158.867 66.1969C158.361 65.9833 157.93 65.631 157.625 65.1827C157.332 64.7444 157.18 64.2307 157.189 63.7076C157.174 63.3089 157.259 62.9127 157.436 62.5532C157.614 62.1937 157.878 61.8816 158.206 61.6439C159.139 61.0764 160.233 60.8131 161.329 60.8921H163.552C163.568 60.6374 163.527 60.3822 163.432 60.1446C163.337 59.9069 163.189 59.6925 163 59.5163C162.521 59.1652 161.927 58.9964 161.329 59.0411C160.816 59.0415 160.306 59.1204 159.818 59.2752C159.361 59.4124 158.933 59.6285 158.555 59.9134L157.552 58.0057C158.129 57.6228 158.767 57.3374 159.441 57.1618C160.18 56.9681 160.942 56.8704 161.707 56.871C162.936 56.7935 164.151 57.1538 165.129 57.8851ZM162.717 64.3813C163.089 64.1664 163.368 63.8258 163.501 63.4239V62.4665H161.584C160.436 62.4665 159.862 62.8353 159.862 63.5658C159.857 63.7273 159.892 63.8876 159.966 64.0324C160.039 64.1772 160.148 64.3019 160.283 64.3955C160.626 64.6197 161.034 64.7292 161.446 64.7076C161.892 64.7126 162.331 64.5999 162.717 64.3813Z" fill="var(--fill-0, #222222)"/>
<path id="Vector_19" d="M169.756 66.2536C169.11 66.1164 168.492 65.8768 167.925 65.5444L168.855 63.5799C169.34 63.8734 169.866 64.0957 170.417 64.2395C171 64.4038 171.604 64.4873 172.211 64.4877C173.395 64.4877 173.984 64.204 173.984 63.6367C173.98 63.5006 173.931 63.3695 173.843 63.2641C173.755 63.1587 173.633 63.0852 173.497 63.0551C173.024 62.9094 172.537 62.8096 172.044 62.7573C171.383 62.6716 170.73 62.5365 170.09 62.353C169.58 62.2057 169.119 61.9292 168.753 61.5517C168.35 61.0974 168.146 60.5062 168.187 59.9063C168.178 59.3361 168.364 58.7794 168.717 58.3248C169.114 57.8291 169.649 57.455 170.257 57.2469C171.023 56.9768 171.833 56.8469 172.647 56.8639C173.333 56.8641 174.017 56.9354 174.688 57.0767C175.275 57.1912 175.839 57.3971 176.359 57.6866L175.4 59.5801C174.551 59.1123 173.593 58.8679 172.618 58.8709C172.157 58.8439 171.695 58.9266 171.274 59.112C171.146 59.1649 171.036 59.2524 170.958 59.3643C170.879 59.4761 170.835 59.6077 170.831 59.7432C170.828 59.8828 170.874 60.0192 170.961 60.13C171.048 60.2408 171.171 60.3194 171.31 60.3531C171.813 60.5152 172.332 60.6269 172.858 60.6864C173.508 60.7909 174.153 60.9282 174.79 61.0978C175.292 61.2449 175.744 61.5218 176.097 61.8992C176.492 62.344 176.692 62.9217 176.657 63.509C176.662 64.0711 176.473 64.6186 176.119 65.0622C175.708 65.5527 175.165 65.9212 174.55 66.1259C173.763 66.391 172.934 66.5183 172.102 66.5018C171.312 66.5156 170.524 66.4323 169.756 66.2536Z" fill="var(--fill-0, #222222)"/>
<path id="Vector_20" d="M187.771 62.4665H180.47C180.579 63.0413 180.916 63.551 181.407 63.8849C181.946 64.2343 182.584 64.4104 183.231 64.3884C183.686 64.3977 184.14 64.3231 184.567 64.1686C184.976 64.0067 185.346 63.7654 185.657 63.4594L187.11 65.0338C186.603 65.5596 185.983 65.9692 185.295 66.2328C184.606 66.4965 183.867 66.6078 183.129 66.5586C182.123 66.5787 181.127 66.3648 180.223 65.9345C179.422 65.5546 178.751 64.9559 178.291 64.2111C177.829 63.4551 177.592 62.588 177.608 61.7077C177.597 60.8321 177.828 59.9697 178.276 59.2113C178.723 58.4673 179.371 57.8585 180.151 57.4525C180.955 57.0561 181.843 56.8496 182.744 56.8496C183.645 56.8496 184.533 57.0561 185.337 57.4525C186.092 57.8433 186.717 58.4362 187.139 59.1617C187.586 59.9507 187.812 60.8414 187.792 61.7432C187.821 61.7644 187.807 62.0127 187.771 62.4665ZM181.233 59.4383C180.8 59.8003 180.518 60.3051 180.441 60.8567H185.192C185.119 60.3054 184.839 59.8001 184.407 59.4383C183.952 59.0961 183.394 58.9106 182.82 58.9106C182.246 58.9106 181.688 59.0961 181.233 59.4383Z" fill="var(--fill-0, #222222)"/>
<path id="Vector_21" d="M199.509 53.4172V66.4025H196.858V65.3175C196.487 65.7336 196.022 66.0607 195.501 66.2734C194.979 66.4862 194.415 66.5789 193.851 66.5444C192.989 66.5552 192.138 66.3501 191.381 65.9487C190.649 65.5548 190.049 64.964 189.652 64.2466C189.243 63.4547 189.03 62.5803 189.03 61.6935C189.03 60.8067 189.243 59.9323 189.652 59.1404C190.049 58.423 190.649 57.8322 191.381 57.4383C192.14 57.0411 192.99 56.8386 193.851 56.8497C194.391 56.8154 194.932 56.8995 195.435 57.0959C195.938 57.2922 196.389 57.5958 196.756 57.9844V53.4172H199.509ZM196.066 63.5941C196.521 63.0604 196.77 62.3879 196.77 61.6935C196.77 60.9991 196.521 60.3266 196.066 59.7929C195.597 59.3381 194.962 59.083 194.301 59.083C193.64 59.083 193.005 59.3381 192.536 59.7929C192.085 60.3284 191.838 61.0002 191.838 61.6935C191.838 62.3868 192.085 63.0586 192.536 63.5941C193.005 64.0489 193.64 64.304 194.301 64.304C194.962 64.304 195.597 64.0489 196.066 63.5941Z" fill="var(--fill-0, #222222)"/>
<path id="Vector_22" d="M209.055 65.9203C208.262 65.5342 207.597 64.9367 207.137 64.1969C206.782 63.6393 206.549 63.0157 206.454 62.3657C206.358 61.7157 206.402 61.0534 206.582 60.4208C206.763 59.7882 207.076 59.199 207.501 58.6905C207.927 58.182 208.456 57.7653 209.055 57.4667C209.913 57.0468 210.862 56.8352 211.822 56.8497C212.75 56.829 213.668 57.0415 214.488 57.4667C215.227 57.8649 215.809 58.4909 216.144 59.2468L213.965 60.3815C213.765 59.9856 213.455 59.6534 213.069 59.4236C212.683 59.1938 212.238 59.0759 211.786 59.0837C211.451 59.0751 211.118 59.1336 210.806 59.2555C210.495 59.3775 210.213 59.5604 209.977 59.7929C209.513 60.3252 209.258 61.0015 209.258 61.7006C209.258 62.3997 209.513 63.076 209.977 63.6083C210.213 63.8408 210.495 64.0237 210.806 64.1457C211.118 64.2676 211.451 64.3261 211.786 64.3175C212.239 64.3287 212.685 64.2123 213.072 63.9821C213.458 63.7519 213.768 63.4177 213.965 63.0197L216.144 64.1757C215.8 64.9184 215.219 65.5328 214.488 65.9274C213.671 66.3606 212.752 66.5781 211.822 66.5586C210.861 66.5662 209.911 66.3473 209.055 65.9203Z" fill="var(--fill-0, #222222)"/>
<path id="Vector_23" d="M217.684 53.4172H220.481V66.4025H217.684V53.4172Z" fill="var(--fill-0, #222222)"/>
<path id="Vector_24" d="M223.227 55.2399C223.073 55.1011 222.95 54.9327 222.866 54.7454C222.782 54.558 222.739 54.3557 222.739 54.1513C222.739 53.9468 222.782 53.7445 222.866 53.5571C222.95 53.3698 223.073 53.2014 223.227 53.0626C223.572 52.7643 224.023 52.6092 224.484 52.63C224.939 52.6121 225.385 52.7614 225.733 53.0484C225.889 53.1771 226.014 53.338 226.098 53.5196C226.182 53.7012 226.224 53.8988 226.22 54.0981C226.226 54.3091 226.186 54.5189 226.102 54.7135C226.018 54.908 225.892 55.0827 225.733 55.2257C225.393 55.53 224.944 55.6907 224.484 55.6725C224.023 55.6933 223.572 55.5382 223.227 55.2399ZM223.082 56.9845H225.915V66.4026H223.082V56.9845Z" fill="var(--fill-0, #222222)"/>
<path id="Vector_25" d="M230.368 65.9203C229.575 65.5342 228.91 64.9367 228.45 64.1969C228.095 63.6393 227.862 63.0157 227.767 62.3657C227.671 61.7157 227.715 61.0534 227.896 60.4208C228.076 59.7882 228.389 59.199 228.814 58.6905C229.24 58.182 229.769 57.7653 230.368 57.4667C231.228 57.046 232.18 56.8343 233.143 56.8497C234.068 56.8299 234.984 57.0424 235.801 57.4667C236.542 57.8627 237.125 58.4894 237.458 59.2468L235.278 60.3815C235.079 59.9856 234.768 59.6534 234.382 59.4236C233.996 59.1938 233.551 59.0759 233.099 59.0837C232.764 59.0751 232.431 59.1336 232.12 59.2555C231.808 59.3775 231.526 59.5604 231.29 59.7929C230.826 60.3252 230.571 61.0015 230.571 61.7006C230.571 62.3997 230.826 63.076 231.29 63.6083C231.526 63.8408 231.808 64.0237 232.12 64.1457C232.431 64.2676 232.764 64.3261 233.099 64.3175C233.552 64.3287 233.998 64.2123 234.385 63.9821C234.771 63.7519 235.081 63.4177 235.278 63.0197L237.458 64.1757C237.115 64.9198 236.534 65.5348 235.801 65.9274C234.986 66.3597 234.07 66.5772 233.143 66.5586C232.179 66.5671 231.227 66.3481 230.368 65.9203Z" fill="var(--fill-0, #222222)"/>
<path id="Vector_26" d="M243.138 62.7076L241.794 64.0055V66.4025H238.99V53.4172H241.787V60.7645L245.877 56.9845H249.211L245.201 60.9985L249.559 66.4238H246.174L243.138 62.7076Z" fill="var(--fill-0, #222222)"/>
<path id="Vector_27" d="M259.816 62.4665H252.516C252.624 63.0397 252.958 63.5486 253.446 63.8849C253.988 64.2332 254.627 64.409 255.276 64.3884C255.732 64.3977 256.185 64.3231 256.613 64.1686C257.019 64.0066 257.388 63.7653 257.695 63.4594L259.184 65.0338C258.677 65.5589 258.057 65.9678 257.369 66.2314C256.681 66.4951 255.941 66.6068 255.204 66.5586C254.198 66.5787 253.202 66.3648 252.298 65.9345C251.496 65.553 250.823 64.9549 250.358 64.2112C249.902 63.4532 249.668 62.587 249.683 61.7077C249.672 60.8321 249.903 59.9697 250.351 59.2113C250.795 58.4824 251.432 57.8845 252.196 57.4809C253.002 57.0844 253.891 56.8778 254.793 56.8778C255.695 56.8778 256.585 57.0844 257.39 57.4809C258.145 57.8716 258.77 58.4646 259.192 59.1901C259.639 59.9791 259.865 60.8698 259.845 61.7715C259.867 61.7644 259.845 62.0127 259.816 62.4665ZM253.279 59.4383C252.843 59.7985 252.561 60.3042 252.487 60.8567H257.238C257.165 60.3055 256.885 59.8001 256.453 59.4383C255.998 59.0961 255.44 58.9106 254.866 58.9106C254.292 58.9106 253.733 59.0961 253.279 59.4383Z" fill="var(--fill-0, #222222)"/>
<path id="Vector_28" d="M265.759 57.1972C266.382 56.954 267.049 56.8358 267.72 56.8497V59.3674H267.088C266.745 59.3487 266.402 59.3975 266.079 59.5108C265.756 59.6241 265.459 59.7996 265.207 60.0269C264.965 60.2933 264.78 60.6046 264.664 60.9421C264.548 61.2796 264.503 61.6364 264.531 61.9914V66.438H261.727V56.9845H264.415V58.2326C264.752 57.7694 265.219 57.4101 265.759 57.1972Z" fill="var(--fill-0, #222222)"/>
</g>
</svg>
