<svg overflow="visible" style="display: block;" viewBox="0 0 331.994 40" fill="none" xmlns="http://www.w3.org/2000/svg">
<g id="Layer 1">
<path id="Vector" d="M6.61036 36.3753C4.23414 35.7699 1.99303 34.7408 0 33.34L2.90565 27.014C4.63678 28.2364 6.56033 29.1754 8.60074 29.794C10.7245 30.4779 12.9457 30.8298 15.182 30.8365C17.6301 30.8365 19.4316 30.4819 20.6011 29.7727C21.1292 29.4997 21.5713 29.0913 21.8797 28.5916C22.1881 28.0918 22.3513 27.5194 22.3517 26.936C22.3548 26.5284 22.2636 26.1254 22.085 25.7571C21.9064 25.3887 21.645 25.0644 21.3202 24.8084C20.5338 24.1808 19.6312 23.7065 18.6616 23.4113C17.5865 23.0709 16.1191 22.7021 14.3031 22.2766C11.9474 21.7563 9.6259 21.0979 7.3513 20.305C5.55167 19.6532 3.95171 18.5646 2.70226 17.142C1.32662 15.5049 0.622512 13.4275 0.726413 11.3124C0.706321 9.27508 1.31924 7.27963 2.48433 5.58925C3.79853 3.75685 5.63479 2.34141 7.76536 1.51848C10.5081 0.443044 13.4478 -0.0711015 16.4024 0.00790137C18.7482 0.00451822 21.0855 0.2832 23.3615 0.837656C25.4601 1.32313 27.4676 2.12722 29.3108 3.22054L26.6521 9.60328C23.5322 7.79353 19.9803 6.81532 16.3516 6.76651C13.9302 6.76651 12.1529 7.14711 11.0197 7.90831C10.4879 8.21878 10.0486 8.65965 9.74531 9.18714C9.44203 9.71463 9.28535 10.3104 9.29083 10.9153C9.29085 11.5211 9.48188 12.1122 9.83798 12.6083C10.1941 13.1044 10.698 13.4814 11.2812 13.6882C13.2413 14.4818 15.2783 15.0805 17.3613 15.4754C19.7191 15.9968 22.0429 16.6551 24.3203 17.447C26.1087 18.0987 27.7035 19.1733 28.9621 20.5745C30.3243 22.1893 31.0164 24.2442 30.9016 26.3331C30.9146 28.3572 30.2936 30.3368 29.1219 32.0067C27.7839 33.8372 25.9323 35.2509 23.79 36.0775C21.0384 37.1479 18.0921 37.6595 15.1312 37.5809C12.2467 37.5765 9.3775 37.1706 6.61036 36.3753Z" fill="var(--fill-0, #222222)"/>
<path id="Vector_2" d="M70.8837 0.63909V36.9214H62.2829V22.0284H45.3938V36.9214H36.7931V0.63909H45.3938V14.9435H62.2829V0.63909H70.8837Z" fill="var(--fill-0, #222222)"/>
<path id="Vector_3" d="M104.175 29.1486H86.9154L83.6248 36.9498H74.8206L91.3829 0.667461H99.8819L116.495 36.9498H107.466L104.175 29.1486ZM101.465 22.7659L95.5743 8.87282L89.6758 22.773L101.465 22.7659Z" fill="var(--fill-0, #222222)"/>
<path id="Vector_4" d="M145.029 2.24186C147.311 3.19703 149.257 4.78193 150.629 6.80197C151.975 8.89606 152.66 11.3304 152.598 13.8017C152.653 16.2632 151.968 18.6866 150.629 20.7731C149.27 22.8062 147.32 24.3967 145.029 25.3403C142.316 26.4447 139.396 26.9811 136.457 26.9147H128.968V36.9214H120.367V0.639081H136.457C139.399 0.571092 142.321 1.11755 145.029 2.24186ZM141.869 18.4469C142.549 17.878 143.085 17.1633 143.435 16.3588C143.785 15.5542 143.94 14.6815 143.888 13.8088C143.943 12.9285 143.789 12.0478 143.439 11.2349C143.089 10.4219 142.551 9.69864 141.869 9.12103C140.525 8.02887 138.556 7.4828 135.978 7.4828H128.968V20.0781H135.978C138.556 20.0781 140.525 19.532 141.869 18.4469Z" fill="var(--fill-0, #222222)"/>
<path id="Vector_5" d="M187.48 30.1841V36.9214H158.699V0.63909H186.79V7.37642H167.249V15.2556H184.509V21.7872H167.249V30.1841H187.48Z" fill="var(--fill-0, #222222)"/>
<path id="Vector_6" d="M218.011 36.9214L210.842 26.8154H202.931V36.9214H194.33V0.639081H210.413C213.357 0.570954 216.282 1.1174 218.992 2.24186C221.312 3.18259 223.281 4.79514 224.633 6.86213C225.985 8.92912 226.656 11.3511 226.554 13.8017C226.653 16.2486 225.971 18.665 224.602 20.7169C223.233 22.7687 221.245 24.3546 218.912 25.2552L227.244 36.9214H218.011ZM215.832 9.11393C214.486 8.02178 212.52 7.4757 209.934 7.4757H202.931V20.1277H209.934C212.52 20.1277 214.486 19.5745 215.832 18.4682C216.511 17.8918 217.045 17.1718 217.395 16.3631C217.745 15.5544 217.901 14.6783 217.852 13.8017C217.906 12.9214 217.752 12.0407 217.402 11.2278C217.052 10.4148 216.515 9.69155 215.832 9.11393Z" fill="var(--fill-0, #222222)"/>
<path id="Vector_7" d="M233.353 0.63909H241.954V36.9214H233.353V0.63909Z" fill="var(--fill-0, #222222)"/>
<path id="Vector_8" d="M284.856 0.63909V36.9214H277.795L259.264 14.901V36.9285H250.765V0.63909H257.877L276.357 22.7021V0.63909H284.856Z" fill="var(--fill-0, #222222)"/>
<path id="Vector_9" d="M301.236 35.1059C298.229 33.5638 295.716 31.2425 293.972 28.3969C292.249 25.471 291.343 22.1551 291.343 18.7802C291.343 15.4054 292.249 12.0895 293.972 9.16359C295.718 6.31772 298.231 3.99456 301.236 2.44753C304.466 0.848271 308.036 0.0148299 311.657 0.0148299C315.278 0.0148299 318.848 0.848271 322.077 2.44753C325.073 4.00802 327.582 6.32811 329.341 9.16359C331.079 12.0846 331.994 15.4024 331.994 18.7802C331.994 22.1581 331.079 25.4759 329.341 28.3969C327.584 31.2322 325.074 33.5505 322.077 35.1059C318.849 36.7095 315.278 37.5455 311.657 37.5455C308.035 37.5455 304.464 36.7095 301.236 35.1059ZM317.617 28.9146C319.371 27.9558 320.819 26.542 321.801 24.8297C322.803 22.9709 323.327 20.902 323.327 18.8015C323.327 16.701 322.803 14.6321 321.801 12.7734C320.83 11.0508 319.389 9.62452 317.639 8.65297C315.812 7.68467 313.767 7.17744 311.689 7.17744C309.611 7.17744 307.566 7.68467 305.74 8.65297C303.978 9.62035 302.527 11.047 301.549 12.7734C300.551 14.6336 300.03 16.7019 300.03 18.8015C300.03 20.9011 300.551 22.9695 301.549 24.8297C302.521 26.5532 303.965 27.9796 305.718 28.9501C307.544 29.9184 309.589 30.4256 311.668 30.4256C313.746 30.4256 315.791 29.9184 317.617 28.9501V28.9146Z" fill="var(--fill-0, #222222)"/>
</g>
</svg>
