<svg xmlns="http://www.w3.org/2000/svg" viewBox="0 0 210.9 49.9">
  <defs>
    <mask id="worldr-star-mask">
      <rect width="210.9" height="49.9" fill="#fff"/>
      <path d="M72.29 14.40 l3.26 6.87 l6.87 3.26 l-6.87 3.26 l-3.26 6.87 l-3.26 -6.87 l-6.87 -3.26 l6.87 -3.26 Z" fill="#000"/>
    </mask>
  </defs>
  <path fill="#e8ebef" d="M12.882857142857143 43.88525714285714 4.042857142857143 17.885257142857142H9.168571428571429L14.071428571428571 32.66811428571428Q14.331428571428571 33.41097142857143 14.572857142857142 34.33954285714286Q14.814285714285715 35.26811428571428 15.055714285714286 36.196685714285714Q15.297142857142857 37.125257142857144 15.482857142857142 37.960971428571426Q15.668571428571429 38.796685714285715 15.817142857142859 39.42811428571429L14.517142857142858 39.390971428571426Q14.88857142857143 38.05382857142857 15.222857142857144 36.883828571428566Q15.557142857142857 35.71382857142857 15.947142857142858 34.65525714285714Q16.337142857142858 33.59668571428571 16.745714285714286 32.63097142857143L21.165714285714287 21.970971428571428H25.43714285714286L29.782857142857143 32.593828571428574Q30.228571428571428 33.74525714285714 30.637142857142855 34.859542857142856Q31.045714285714286 35.97382857142857 31.380000000000003 37.06954285714286Q31.714285714285715 38.16525714285714 31.900000000000002 39.13097142857143L30.711428571428574 39.31668571428571Q30.86 38.57382857142857 31.00857142857143 37.92382857142857Q31.15714285714286 37.27382857142857 31.305714285714288 36.62382857142857Q31.454285714285714 35.97382857142857 31.64 35.3424Q31.825714285714287 34.710971428571426 32.03 33.98668571428571Q32.23428571428572 33.2624 32.494285714285716 32.51954285714285L37.73142857142857 17.885257142857142H42.745714285714286L33.23714285714286 43.88525714285714H29.745714285714286L22.762857142857143 27.39382857142857L23.431428571428572 27.5424L16.597142857142856 43.88525714285714Z M86.12857142857143 43.88525714285714V17.885257142857142H99.57428571428572Q102.06285714285715 17.885257142857142 104.03142857142858 18.94382857142857Q106.0 20.002399999999998 107.17 21.859542857142856Q108.34 23.716685714285713 108.34 26.09382857142857Q108.34 28.396685714285713 107.11428571428573 30.30954285714286Q105.88857142857144 32.2224 103.8457142857143 33.336685714285714Q101.80285714285715 34.45097142857143 99.31428571428572 34.45097142857143H90.8457142857143V43.88525714285714ZM103.8457142857143 43.88525714285714 95.97142857142858 32.148114285714286 101.02285714285715 31.219542857142855 109.64000000000001 43.922399999999996ZM90.8457142857143 30.25382857142857H99.09142857142858Q100.28 30.25382857142857 101.24571428571429 29.71525714285714Q102.21142857142857 29.176685714285714 102.78714285714287 28.248114285714287Q103.36285714285715 27.319542857142856 103.36285714285715 26.168114285714285Q103.36285714285715 25.016685714285714 102.73142857142858 24.14382857142857Q102.10000000000001 23.27097142857143 101.04142857142858 22.750971428571425Q99.98285714285714 22.230971428571426 98.64571428571429 22.230971428571426H90.8457142857143Z M118.59142857142858 43.88525714285714V17.885257142857142H123.42000000000002V39.42811428571429H138.31428571428572V43.88525714285714Z M147.15428571428572 43.88525714285714V17.885257142857142H159.26285714285714Q162.5314285714286 17.885257142857142 165.09428571428572 18.869542857142854Q167.65714285714287 19.85382857142857 169.44 21.63668571428571Q171.22285714285715 23.419542857142854 172.13285714285715 25.77811428571428Q173.04285714285714 28.13668571428571 173.04285714285714 30.885257142857142Q173.04285714285714 33.67097142857143 172.13285714285715 36.02954285714286Q171.22285714285715 38.38811428571429 169.44 40.1524Q167.65714285714287 41.91668571428571 165.09428571428572 42.900971428571424Q162.5314285714286 43.88525714285714 159.26285714285714 43.88525714285714ZM151.98285714285714 40.13382857142857 151.61142857142858 39.42811428571429H159.07714285714286Q161.34285714285716 39.42811428571429 163.03285714285715 38.77811428571428Q164.72285714285715 38.12811428571428 165.83714285714285 36.97668571428571Q166.95142857142858 35.82525714285714 167.49 34.28382857142857Q168.02857142857144 32.7424 168.02857142857144 30.885257142857142Q168.02857142857144 29.065257142857142 167.49 27.52382857142857Q166.95142857142858 25.9824 165.81857142857143 24.812399999999997Q164.68571428571428 23.6424 163.01428571428573 22.992399999999996Q161.34285714285716 22.342399999999998 159.07714285714286 22.342399999999998H151.5L151.98285714285714 21.710971428571426Z M181.69714285714286 43.88525714285714V17.885257142857142H195.14285714285717Q197.6314285714286 17.885257142857142 199.60000000000002 18.94382857142857Q201.56857142857143 20.002399999999998 202.73857142857145 21.859542857142856Q203.90857142857143 23.716685714285713 203.90857142857143 26.09382857142857Q203.90857142857143 28.396685714285713 202.68285714285713 30.30954285714286Q201.45714285714286 32.2224 199.4142857142857 33.336685714285714Q197.37142857142857 34.45097142857143 194.88285714285715 34.45097142857143H186.4142857142857V43.88525714285714ZM199.4142857142857 43.88525714285714 191.54000000000002 32.148114285714286 196.5914285714286 31.219542857142855 205.20857142857145 43.922399999999996ZM186.4142857142857 30.25382857142857H194.66Q195.84857142857143 30.25382857142857 196.81428571428572 29.71525714285714Q197.78 29.176685714285714 198.35571428571427 28.248114285714287Q198.93142857142857 27.319542857142856 198.93142857142857 26.168114285714285Q198.93142857142857 25.016685714285714 198.3 24.14382857142857Q197.66857142857143 23.27097142857143 196.61 22.750971428571425Q195.55142857142857 22.230971428571426 194.21428571428572 22.230971428571426H186.4142857142857Z"/>
  <circle cx="62.84" cy="30.89" r="15.89" fill="#4f8fdc" mask="url(#worldr-star-mask)"/>
</svg>