<svg overflow="visible" style="display: block;" viewBox="0 0 238.432 50.5164" fill="none" xmlns="http://www.w3.org/2000/svg">
<g id="Layer 1">
<path id="Vector" d="M47.9666 6.13866H43.17L27.7763 23.8479V44.3515H36.5159V50.4902H12.4544V44.3515H20.8225V23.7693L4.87487 6.13866H0V0H19.0302V6.13866H13.0018L24.446 17.4801H24.8371L35.975 6.13866H29.7054V0H47.9536L47.9666 6.13866Z" fill="var(--fill-0, #FFE456)"/>
<path id="Vector_2" d="M91.7883 50.4902H73.3055V44.3515H79.2623L76.1666 35.9943H55.8981L52.5743 44.3777H59.1502V50.5164H40.8173V44.3515H45.4575L61.3139 6.13866H53.578V0H68.737L86.8418 44.3515H91.7883V50.4902ZM74.1528 30.6802L66.4951 10.1766H66.0323L57.9705 30.6802H74.1528Z" fill="var(--fill-0, #FFE456)"/>
<path id="Vector_3" d="M138.901 50.4902H127.991L117.394 29.908H107.801V44.3515H114.149V50.4902H94.6559V44.3515H100.763V6.13866H94.6559V0H116.697C122.941 0 127.503 1.33288 130.383 3.99864C133.264 6.6644 134.708 10.1984 134.717 14.6006C134.776 17.7253 133.812 20.7832 131.973 23.3047C130.061 25.8628 127.352 27.7056 124.277 28.5402L132.625 44.3842H138.895L138.901 50.4902ZM127.222 14.7577C127.222 11.7036 126.332 9.50249 124.55 8.15434C122.769 6.80619 119.791 6.1343 115.615 6.13866H107.795V24.1554H115.687C119.919 24.1554 122.897 23.3287 124.622 21.6751C126.347 20.0216 127.214 17.7157 127.222 14.7577Z" fill="var(--fill-0, #FFE456)"/>
<path id="Vector_4" d="M189.768 25.1698C189.768 32.6741 187.524 38.7713 183.036 43.4615C178.548 48.1517 172.332 50.4946 164.39 50.4902H141.339V44.4301H147.452V6.06013H141.339V0H164.005C172.308 0 178.674 2.35599 183.101 7.06797C187.528 11.78 189.751 17.8139 189.768 25.1698ZM182.26 25.2484C182.26 19.2929 180.687 14.605 177.542 11.1844C174.396 7.76386 169.834 6.05577 163.856 6.06013H154.49V44.4301H163.849C169.832 44.4301 174.394 42.7612 177.535 39.4236C180.676 36.0859 182.251 31.3609 182.26 25.2484Z" fill="var(--fill-0, #FFE456)"/>
<path id="Vector_5" d="M238.432 50.4902H219.943V44.3515H225.899L222.804 35.9943H202.542L199.211 44.3777H205.787V50.5164H187.454V44.3515H192.095L207.958 6.13866H200.222V0H215.381L233.479 44.3515H238.432V50.4902ZM220.796 30.6802L213.139 10.1766H212.676L204.608 30.6802H220.796Z" fill="var(--fill-0, #FFE456)"/>
</g>
</svg>
