<svg xmlns="http://www.w3.org/2000/svg" viewBox="0 0 421.96 154.33"><defs><style>.cls-1{fill:#fcee21;}</style></defs><g id="Layer_2" data-name="Layer 2"><g id="Layer_1-2" data-name="Layer 1"><path class="cls-1" d="M101.65,9.38H94.29L70.67,36.44V67.77H84.08v9.38H47.16V67.77H60V36.32L35.53,9.38H28.05V0h29.2V9.38H48L65.56,26.71h.6L83.25,9.38H73.63V0h28Z"/><path class="cls-1" d="M168.89,77.15H140.53V67.77h9.14L144.92,55h-31.1l-5.1,12.81h10.09v9.38H90.68V67.77H97.8L122.13,9.38H110.26V0h23.26L161.3,67.77h7.59ZM141.83,46.88,130.08,15.55h-.71L117,46.88Z"/><path class="cls-1" d="M241.18,77.15H224.44L208.18,45.7H193.46V67.77h9.74v9.38H173.29V67.77h9.37V9.38h-9.37V0h33.82q14.37,0,21,6.11t6.65,16.2a21.81,21.81,0,0,1-4.21,13.3,21.92,21.92,0,0,1-11.81,8l12.81,24.21h9.62Zm-17.92-54.6q0-7-4.1-10.09T205.45,9.38h-12V36.91h12.11q9.74,0,13.71-3.79T223.26,22.55Z"/><path class="cls-1" d="M319.23,38.46q0,17.2-10.33,27.95T280.29,77.15H244.92V67.89h9.38V9.26h-9.38V0H279.7Q298.81,0,309,10.8T319.23,38.46Zm-11.52.12q0-13.65-7.24-21.49t-21-7.83H265.1V67.89h14.36q13.77,0,21-7.65T307.71,38.58Z"/><path class="cls-1" d="M393.9,77.15H365.53V67.77h9.14L369.92,55H338.83l-5.11,12.81h10.09v9.38H315.68V67.77h7.12L347.14,9.38H335.27V0h23.26L386.3,67.77h7.6ZM366.84,46.88,355.09,15.55h-.71L342,46.88Z"/><polygon class="cls-1" points="417.34 92.3 417.34 102 4.61 102 4.61 92.3 0 92.3 0 117.07 4.61 117.07 4.61 106.61 417.34 106.61 417.34 117.07 421.95 117.07 421.95 92.3 417.34 92.3"/><path class="cls-1" d="M87.62,146h-6.1v-3a5.86,5.86,0,0,1-5.64,3.37,6,6,0,0,1-4.13-1.5c-1.14-1-1.7-2.56-1.7-4.71v-8.3h-2.7v-2.58h6v9.8a5.19,5.19,0,0,0,1,3.59,3.49,3.49,0,0,0,2.67,1,4,4,0,0,0,3.25-1.47A5.16,5.16,0,0,0,81.52,139v-7.11H78.27v-2.58h6.54v14.17h2.81Z"/><path class="cls-1" d="M109.45,146h-8.67v-2.54h2.69v-7.21a5.3,5.3,0,0,0-1-3.61,3.3,3.3,0,0,0-2.57-1.07A4.24,4.24,0,0,0,96.59,133a5,5,0,0,0-1.31,3.21v7.29H98V146H89.3v-2.54H92V131.86h-2.8v-2.58h6.09v2.85a6.56,6.56,0,0,1,9.79-1.69,5.94,5.94,0,0,1,1.69,4.68v8.33h2.69Z"/><path class="cls-1" d="M138,131.86h-2.58v13.72a9.07,9.07,0,0,1-2.19,6.36,8.13,8.13,0,0,1-6.3,2.39,9.79,9.79,0,0,1-4.78-1.18,6.1,6.1,0,0,1-3-3.79l2.55-1.31a5.12,5.12,0,0,0,2.16,2.69,6,6,0,0,0,3.11.86,4.82,4.82,0,0,0,3.7-1.57,6.4,6.4,0,0,0,1.46-4.52V142.7a7,7,0,0,1-2.13,2.43,6.13,6.13,0,0,1-3.71,1,7,7,0,0,1-5.1-2.07,8.09,8.09,0,0,1-2.11-6,11.07,11.07,0,0,1,1.87-6.26,6.31,6.31,0,0,1,5.64-2.82,5.83,5.83,0,0,1,5.54,3v-2.62H138Zm-5.83,6.58v-2.17a4.41,4.41,0,0,0-1.35-3.36,4.55,4.55,0,0,0-3.25-1.27,4.13,4.13,0,0,0-3.67,1.77,7.77,7.77,0,0,0-1.19,4.4,6.06,6.06,0,0,0,1.29,4.26,4.15,4.15,0,0,0,3.16,1.38,4.49,4.49,0,0,0,3.59-1.57A5.55,5.55,0,0,0,132.18,138.44Z"/><path class="cls-1" d="M148.55,146h-8.71v-2.54h2.73V131.86h-2.84v-2.58h6.13v14.17h2.69Zm-6.21-20.63v-3.85h3.41v3.85Z"/><path class="cls-1" d="M167.39,137.66a8.61,8.61,0,0,1-2.37,6.28,8.38,8.38,0,0,1-6.27,2.43,7.89,7.89,0,0,1-6-2.36,8.64,8.64,0,0,1-2.23-6.2,9.63,9.63,0,0,1,2.13-6.28q2.13-2.62,6.36-2.62c2.82,0,4.92.87,6.32,2.6A9.52,9.52,0,0,1,167.39,137.66Zm-3.44-.11a6.54,6.54,0,0,0-1.36-4.38,4.6,4.6,0,0,0-3.69-1.61,4.38,4.38,0,0,0-3.72,1.71,7,7,0,0,0-1.29,4.35,7.26,7.26,0,0,0,1.26,4.32,4.25,4.25,0,0,0,3.72,1.77,4.45,4.45,0,0,0,3.75-1.73A7.07,7.07,0,0,0,164,137.55Z"/><path class="cls-1" d="M184.88,140.2a8.11,8.11,0,0,1-2,4.19q-1.66,2-5.29,2a7.57,7.57,0,0,1-5.66-2.19,8.57,8.57,0,0,1-2.15-6.26,9.7,9.7,0,0,1,2.13-6.37,7.23,7.23,0,0,1,5.94-2.6,12.09,12.09,0,0,1,3,.37,8.36,8.36,0,0,1,2.77,1.31l.67,4.34-2.65.3-.6-2.81a6.36,6.36,0,0,0-3.25-.82,3.89,3.89,0,0,0-3.48,1.7,7.81,7.81,0,0,0-1.12,4.39,7.08,7.08,0,0,0,1.2,4.38,4.14,4.14,0,0,0,3.51,1.57q3.48,0,4.15-4Z"/><path class="cls-1" d="M204,137.66a8.61,8.61,0,0,1-2.37,6.28,8.35,8.35,0,0,1-6.26,2.43,7.92,7.92,0,0,1-6-2.36,8.68,8.68,0,0,1-2.22-6.2,9.63,9.63,0,0,1,2.13-6.28q2.13-2.62,6.35-2.62t6.32,2.6A9.47,9.47,0,0,1,204,137.66Zm-3.43-.11a6.55,6.55,0,0,0-1.37-4.38,4.59,4.59,0,0,0-3.68-1.61,4.38,4.38,0,0,0-3.72,1.71,7,7,0,0,0-1.29,4.35,7.32,7.32,0,0,0,1.25,4.32,4.27,4.27,0,0,0,3.72,1.77,4.48,4.48,0,0,0,3.76-1.73A7.13,7.13,0,0,0,200.59,137.55Z"/><path class="cls-1" d="M233.52,146h-6V142.7a7.79,7.79,0,0,1-2.18,2.58,5.9,5.9,0,0,1-3.72,1.09,6.55,6.55,0,0,1-5.2-2.23,9,9,0,0,1-1.94-6.11,11.55,11.55,0,0,1,1.77-6.26A6.28,6.28,0,0,1,222,129a5.83,5.83,0,0,1,5.53,3v-9.09h-3.85v-2.58h7.11v23.18h2.69Zm-6-7.7v-2a4.65,4.65,0,0,0-1.42-3.36,4.54,4.54,0,0,0-3.25-1.27,4.2,4.2,0,0,0-3.68,1.79,7.49,7.49,0,0,0-1.25,4.41,6.32,6.32,0,0,0,1.34,4.34,4.3,4.3,0,0,0,3.33,1.5,4.22,4.22,0,0,0,3.49-1.76A6.21,6.21,0,0,0,227.57,138.29Z"/><path class="cls-1" d="M244,146h-8.71v-2.54H238V131.86h-2.84v-2.58h6.14v14.17H244Zm-6.21-20.63v-3.85h3.4v3.85Z"/><path class="cls-1" d="M272.36,137.21a11.47,11.47,0,0,1-1.83,6.3,6.43,6.43,0,0,1-5.83,2.86,5.86,5.86,0,0,1-5.39-2.73v7.7h3.63V154h-9.61v-2.62h2.73V131.86h-2.84v-2.58h6.09v3.41a8,8,0,0,1,2.13-2.62,5.71,5.71,0,0,1,3.7-1.12,6.76,6.76,0,0,1,5.22,2.18A8.7,8.7,0,0,1,272.36,137.21Zm-3.44.3a6.39,6.39,0,0,0-1.33-4.38,4.37,4.37,0,0,0-3.42-1.49,4.16,4.16,0,0,0-3.44,1.68,6.21,6.21,0,0,0-1.38,3.63l0,1.94a4.65,4.65,0,0,0,1.35,3.44,4.49,4.49,0,0,0,3.33,1.35,4.23,4.23,0,0,0,3.72-1.78A7.66,7.66,0,0,0,268.92,137.51Z"/><path class="cls-1" d="M276.51,130.56a11.12,11.12,0,0,1,3-1.26,14.15,14.15,0,0,1,3.23-.35,6.85,6.85,0,0,1,4.51,1.38,5.21,5.21,0,0,1,1.66,4.26v7.74c0,1.1.44,1.65,1.31,1.65a2.92,2.92,0,0,0,1-.19l0,1.94a4.55,4.55,0,0,1-2.43.64c-2,0-3.1-1.12-3.22-3.37v0a7.77,7.77,0,0,1-2.15,2.35,5.52,5.52,0,0,1-3.42,1.05,6.44,6.44,0,0,1-3.42-1.05,4,4,0,0,1-1.7-3.66c0-2.1.83-3.47,2.48-4.13a14.31,14.31,0,0,1,5.33-1,23,23,0,0,1,2.88.15v-1.24a5.68,5.68,0,0,0-.64-2.8c-.42-.77-1.37-1.16-2.84-1.16a6.45,6.45,0,0,0-3,.64l-.64,2.72-2.65-.29Zm9.12,9v-1l-1.4-.13c-.49,0-1-.05-1.48-.05a7.77,7.77,0,0,0-3.06.56,2.66,2.66,0,0,0-.51,4.26,3.23,3.23,0,0,0,1.93.6,4.65,4.65,0,0,0,3-1.13A4.23,4.23,0,0,0,285.63,139.56Z"/><path class="cls-1" d="M302.86,129a4.93,4.93,0,0,1,3,.9l.68,4.67-2.58.3-.64-2.88a3.48,3.48,0,0,0-1.31-.26,2.66,2.66,0,0,0-2.13,1.07,4.31,4.31,0,0,0-.86,2.78v7.85h3.59V146H293v-2.54h2.69V131.86h-2.8v-2.58h5.87v3.07A5.62,5.62,0,0,1,300.3,130,3.62,3.62,0,0,1,302.86,129Z"/><path class="cls-1" d="M325.93,137.66a8.58,8.58,0,0,1-2.38,6.28,8.35,8.35,0,0,1-6.26,2.43,7.89,7.89,0,0,1-6-2.36,8.64,8.64,0,0,1-2.23-6.2,9.63,9.63,0,0,1,2.13-6.28q2.13-2.62,6.36-2.62t6.32,2.6A9.52,9.52,0,0,1,325.93,137.66Zm-3.44-.11a6.6,6.6,0,0,0-1.36-4.38,4.61,4.61,0,0,0-3.69-1.61,4.38,4.38,0,0,0-3.72,1.71,7,7,0,0,0-1.29,4.35,7.26,7.26,0,0,0,1.26,4.32,4.24,4.24,0,0,0,3.71,1.77,4.45,4.45,0,0,0,3.76-1.73A7.07,7.07,0,0,0,322.49,137.55Z"/><path class="cls-1" d="M336.55,146h-8.68v-2.54h2.69v-20.6h-2.8v-2.58h6.09v23.18h2.7Z"/><path class="cls-1" d="M353.85,141.06a5.64,5.64,0,0,1-2.13,3.74,7.68,7.68,0,0,1-5.08,1.57,8.06,8.06,0,0,1-5.87-2.17c-1.5-1.44-2.24-3.54-2.24-6.28a9.75,9.75,0,0,1,2.09-6.43,7.1,7.1,0,0,1,5.79-2.54,6.8,6.8,0,0,1,5.35,2.13,7.59,7.59,0,0,1,1.94,5.16,10.86,10.86,0,0,1-.22,2.13H342c.15,3.54,1.79,5.31,4.9,5.31a4.11,4.11,0,0,0,2.94-.94,4.55,4.55,0,0,0,1.32-2.24Zm-3.55-4.9a5,5,0,0,0-.8-3.16,3.45,3.45,0,0,0-3.16-1.51,3.63,3.63,0,0,0-3.09,1.36,6.73,6.73,0,0,0-1.25,3.31Z"/></g></g></svg>